<?xml version="1.0" encoding="UTF-8"?>
<svg xmlns="http://www.w3.org/2000/svg" xmlns:xlink="http://www.w3.org/1999/xlink"
     width="2805.6338028169016" height="600" viewBox="0 0 2805.6338028169016 600">
<defs>
</defs>
<path d="M1911.0,268.0 L1909.0,265.0 L1905.0,264.0 L1877.0,245.0 L1872.0,242.0 L1869.0,242.0 L1868.0,240.0 L1868.0,243.0 L1863.0,253.0 L1843.0,289.0 L1844.0,291.0 L1889.0,310.0 L1895.0,314.0 L1893.0,312.0 L1913.0,274.0 Z" fill="none" stroke="yellow" />
<path d="M1692.0,335.0 L1689.0,336.0 L1688.0,340.0 L1684.0,370.0 L1628.0,360.0 L1621.0,360.0 L1616.0,358.0 L1615.0,359.0 L1617.0,357.0 L1617.0,351.0 L1622.0,330.0 L1622.0,323.0 L1624.0,322.0 L1627.0,321.0 L1667.0,331.0 Z" fill="none" stroke="yellow" />
<path d="M1692.0,335.0 L1696.0,334.0 L1696.0,329.0 L1705.0,295.0 L1636.0,276.0 L1635.0,286.0 L1627.0,315.0 L1627.0,321.0 L1624.0,322.0 L1627.0,321.0 L1667.0,331.0 Z" fill="none" stroke="yellow" />
<path d="M1493.0,193.0 L1490.0,190.0 L1417.0,190.0 L1411.0,166.0 L1408.0,140.0 L1406.0,139.0 L1487.0,140.0 L1490.0,164.0 L1490.0,190.0 Z" fill="none" stroke="yellow" />
<path d="M1493.0,193.0 L1490.0,190.0 L1417.0,190.0 L1402.0,215.0 L1399.0,222.0 L1400.0,223.0 L1482.0,240.0 L1481.0,239.0 L1483.0,237.0 L1491.0,211.0 L1496.0,200.0 L1496.0,196.0 Z" fill="none" stroke="yellow" />
<path d="M1493.0,193.0 L1497.0,197.0 L1575.0,202.0 L1575.0,190.0 L1573.0,187.0 L1567.0,162.0 L1565.0,148.0 L1563.0,144.0 L1561.0,144.0 L1558.0,142.0 L1552.0,143.0 L1487.0,140.0 L1490.0,164.0 L1490.0,190.0 Z" fill="none" stroke="yellow" />
<path d="M1493.0,193.0 L1497.0,197.0 L1575.0,202.0 L1577.0,204.0 L1577.0,208.0 L1563.0,258.0 L1482.0,240.0 L1481.0,239.0 L1483.0,237.0 L1491.0,211.0 L1496.0,200.0 L1496.0,196.0 Z" fill="none" stroke="yellow" />
<path d="M1298.0,340.0 L1295.0,343.0 L1295.0,346.0 L1299.0,381.0 L1303.0,383.0 L1326.0,386.0 L1344.0,388.0 L1348.0,387.0 L1345.0,368.0 L1345.0,355.0 L1302.0,338.0 Z" fill="none" stroke="yellow" />
<path d="M1245.0,336.0 L1246.0,349.0 L1254.0,375.0 L1291.0,381.0 L1299.0,381.0 L1295.0,346.0 L1295.0,343.0 L1298.0,340.0 L1296.0,342.0 L1292.0,342.0 L1266.0,337.0 Z" fill="none" stroke="yellow" />
<path d="M408.0,43.0 L420.0,43.0 L453.0,49.0 L489.0,53.0 L599.0,72.0 L615.0,76.0 L617.0,80.0 L615.0,83.0 L612.0,85.0 L575.0,84.0 L515.0,75.0 L431.0,66.0 L407.0,62.0 Z" fill="none" stroke="yellow" />
<path d="M1951.0,253.0 L1954.0,259.0 L1966.0,274.0 L1966.0,276.0 L1976.0,281.0 L1980.0,281.0 L1977.0,258.0 L1975.0,251.0 L1973.0,249.0 L1955.0,251.0 Z" fill="none" stroke="yellow" />
<path d="M1942.0,350.0 L1946.0,349.0 L1959.0,340.0 L1963.0,336.0 L1964.0,332.0 L1948.0,320.0 L1935.0,321.0 L1924.0,326.0 L1923.0,328.0 L1942.0,348.0 Z" fill="none" stroke="yellow" />
<path d="M1948.0,320.0 L1964.0,332.0 L1967.0,331.0 L1973.0,323.0 L1976.0,317.0 L1977.0,310.0 L1955.0,300.0 L1951.0,296.0 L1953.0,298.0 L1953.0,301.0 L1949.0,310.0 Z" fill="none" stroke="yellow" />
<path d="M1951.0,296.0 L1949.0,293.0 L1966.0,276.0 L1976.0,281.0 L1980.0,281.0 L1980.0,299.0 L1977.0,310.0 L1955.0,300.0 Z" fill="none" stroke="yellow" />
<path d="M1690.0,87.0 L1735.0,93.0 L1726.0,108.0 L1722.0,118.0 L1686.0,115.0 L1684.0,113.0 L1684.0,110.0 Z" fill="none" stroke="yellow" />
<path d="M1690.0,87.0 L1684.0,110.0 L1684.0,113.0 L1686.0,115.0 L1684.0,113.0 L1671.0,113.0 L1632.0,108.0 L1640.0,89.0 L1641.0,83.0 Z" fill="none" stroke="yellow" />
<path d="M1624.0,322.0 L1627.0,321.0 L1627.0,315.0 L1635.0,286.0 L1636.0,276.0 L1563.0,258.0 L1560.0,279.0 L1558.0,282.0 L1554.0,299.0 L1554.0,306.0 L1551.0,308.0 Z" fill="none" stroke="yellow" />
<path d="M1551.0,308.0 L1624.0,322.0 L1622.0,323.0 L1622.0,330.0 L1617.0,351.0 L1617.0,357.0 L1615.0,359.0 L1570.0,351.0 L1543.0,348.0 Z" fill="none" stroke="yellow" />
<path d="M1482.0,240.0 L1563.0,258.0 L1560.0,279.0 L1558.0,282.0 L1554.0,299.0 L1554.0,306.0 L1551.0,308.0 L1531.0,305.0 L1506.0,298.0 L1472.0,291.0 L1474.0,288.0 L1476.0,269.0 Z" fill="none" stroke="yellow" />
<path d="M1658.0,222.0 L1636.0,276.0 L1563.0,258.0 L1577.0,208.0 L1577.0,204.0 L1575.0,202.0 L1579.0,205.0 L1602.0,208.0 Z" fill="none" stroke="yellow" />
<path d="M1616.0,146.0 L1608.0,147.0 L1607.0,150.0 L1607.0,148.0 L1603.0,146.0 L1561.0,144.0 L1558.0,142.0 L1558.0,138.0 L1564.0,105.0 L1565.0,104.0 L1579.0,106.0 L1595.0,106.0 L1622.0,109.0 L1622.0,117.0 Z" fill="none" stroke="yellow" />
<path d="M1680.0,155.0 L1682.0,153.0 L1689.0,123.0 L1689.0,116.0 L1686.0,115.0 L1684.0,113.0 L1671.0,113.0 L1632.0,108.0 L1622.0,109.0 L1622.0,117.0 L1616.0,146.0 L1621.0,148.0 L1651.0,151.0 L1679.0,156.0 Z" fill="none" stroke="yellow" />
<path d="M1570.0,78.0 L1564.0,105.0 L1565.0,104.0 L1579.0,106.0 L1595.0,106.0 L1622.0,109.0 L1632.0,108.0 L1640.0,89.0 L1641.0,83.0 Z" fill="none" stroke="yellow" />
<path d="M1564.0,105.0 L1558.0,138.0 L1558.0,142.0 L1561.0,144.0 L1558.0,142.0 L1552.0,143.0 L1487.0,140.0 L1488.0,102.0 L1517.0,102.0 Z" fill="none" stroke="yellow" />
<path d="M1324.0,99.0 L1323.0,137.0 L1239.0,138.0 L1237.0,136.0 L1236.0,110.0 L1234.0,100.0 Z" fill="none" stroke="yellow" />
<path d="M1323.0,210.0 L1327.0,183.0 L1327.0,170.0 L1323.0,137.0 L1239.0,138.0 L1242.0,139.0 L1244.0,168.0 L1240.0,196.0 L1238.0,198.0 L1285.0,206.0 Z" fill="none" stroke="yellow" />
<path d="M1234.0,100.0 L1236.0,110.0 L1237.0,136.0 L1239.0,138.0 L1237.0,136.0 L1233.0,138.0 L1192.0,139.0 L1144.0,143.0 L1145.0,132.0 L1143.0,102.0 L1184.0,100.0 Z" fill="none" stroke="yellow" />
<path d="M1050.0,72.0 L1144.0,71.0 L1144.0,84.0 L1142.0,96.0 L1143.0,102.0 L1090.0,102.0 L1048.0,104.0 Z" fill="none" stroke="yellow" />
<path d="M1239.0,138.0 L1242.0,139.0 L1244.0,168.0 L1240.0,196.0 L1238.0,198.0 L1204.0,192.0 L1154.0,177.0 L1135.0,158.0 L1130.0,148.0 L1132.0,146.0 L1141.0,145.0 L1144.0,143.0 L1192.0,139.0 L1233.0,138.0 L1237.0,136.0 Z" fill="none" stroke="yellow" />
<path d="M1054.0,145.0 L1051.0,144.0 L1023.0,146.0 L1012.0,145.0 L959.0,147.0 L959.0,185.0 L958.0,196.0 L955.0,198.0 L1048.0,211.0 L1050.0,210.0 L1057.0,177.0 L1057.0,147.0 Z" fill="none" stroke="yellow" />
<path d="M953.0,104.0 L955.0,109.0 L955.0,116.0 L959.0,136.0 L959.0,147.0 L1012.0,145.0 L1023.0,146.0 L1051.0,144.0 L1054.0,145.0 L1051.0,144.0 L1050.0,116.0 L1048.0,104.0 Z" fill="none" stroke="yellow" />
<path d="M747.0,257.0 L748.0,259.0 L763.0,264.0 L802.0,276.0 L808.0,276.0 L813.0,242.0 L799.0,236.0 L756.0,223.0 L754.0,224.0 L754.0,229.0 L748.0,247.0 Z" fill="none" stroke="yellow" />
<path d="M764.0,195.0 L727.0,188.0 L697.0,179.0 L685.0,202.0 L686.0,203.0 L731.0,217.0 L756.0,223.0 L760.0,221.0 Z" fill="none" stroke="yellow" />
<path d="M747.0,257.0 L742.0,257.0 L686.0,238.0 L681.0,236.0 L680.0,234.0 L682.0,216.0 L686.0,203.0 L731.0,217.0 L756.0,223.0 L754.0,224.0 L754.0,229.0 L748.0,247.0 Z" fill="none" stroke="yellow" />
<path d="M407.0,76.0 L428.0,82.0 L444.0,82.0 L496.0,87.0 L603.0,102.0 L622.0,106.0 L625.0,105.0 L624.0,101.0 L613.0,88.0 L612.0,85.0 L615.0,83.0 L612.0,85.0 L575.0,84.0 L515.0,75.0 L431.0,66.0 L407.0,62.0 Z" fill="none" stroke="yellow" />
<path d="M434.0,104.0 L436.0,107.0 L507.0,150.0 L512.0,155.0 L519.0,146.0 L519.0,144.0 L519.0,142.0 L515.0,139.0 L458.0,105.0 L447.0,100.0 L445.0,96.0 L442.0,95.0 L438.0,97.0 Z" fill="none" stroke="yellow" />
<path d="M697.0,179.0 L688.0,177.0 L671.0,170.0 L656.0,160.0 L653.0,154.0 L658.0,153.0 L693.0,155.0 L694.0,159.0 L703.0,169.0 L699.0,178.0 Z" fill="none" stroke="yellow" />
<path d="M428.0,82.0 L444.0,82.0 L496.0,87.0 L603.0,102.0 L622.0,106.0 L625.0,105.0 L635.0,108.0 L636.0,115.0 L651.0,144.0 L653.0,154.0 L615.0,148.0 L560.0,134.0 L526.0,123.0 L455.0,96.0 L442.0,95.0 L434.0,91.0 L430.0,87.0 Z" fill="none" stroke="yellow" />
<path d="M1868.0,240.0 L1869.0,242.0 L1872.0,242.0 L1877.0,245.0 L1905.0,264.0 L1909.0,265.0 L1911.0,268.0 L1911.0,264.0 L1936.0,242.0 L1938.0,242.0 L1916.0,219.0 L1915.0,216.0 L1912.0,216.0 L1901.0,208.0 L1893.0,205.0 L1891.0,210.0 Z" fill="none" stroke="yellow" />
<path d="M1948.0,202.0 L1950.0,202.0 L1957.0,211.0 L1966.0,230.0 L1938.0,242.0 L1916.0,219.0 L1915.0,216.0 L1924.0,210.0 Z" fill="none" stroke="yellow" />
<path d="M1951.0,253.0 L1955.0,251.0 L1973.0,249.0 L1971.0,239.0 L1966.0,230.0 L1938.0,242.0 L1949.0,253.0 Z" fill="none" stroke="yellow" />
<path d="M1868.0,240.0 L1868.0,243.0 L1863.0,253.0 L1843.0,289.0 L1793.0,268.0 L1789.0,268.0 L1788.0,266.0 L1788.0,261.0 L1810.0,216.0 L1813.0,206.0 L1815.0,209.0 L1826.0,214.0 L1865.0,238.0 L1867.0,238.0 Z" fill="none" stroke="yellow" />
<path d="M1843.0,289.0 L1839.0,302.0 L1826.0,329.0 L1827.0,330.0 L1844.0,333.0 L1872.0,342.0 L1883.0,342.0 L1894.0,321.0 L1896.0,316.0 L1895.0,314.0 L1889.0,310.0 L1844.0,291.0 Z" fill="none" stroke="yellow" />
<path d="M1769.0,313.0 L1736.0,305.0 L1705.0,295.0 L1709.0,290.0 L1727.0,247.0 L1727.0,243.0 L1728.0,245.0 L1732.0,245.0 L1750.0,251.0 L1774.0,261.0 L1786.0,264.0 L1788.0,266.0 Z" fill="none" stroke="yellow" />
<path d="M1843.0,289.0 L1793.0,268.0 L1789.0,268.0 L1788.0,266.0 L1769.0,313.0 L1827.0,330.0 L1826.0,329.0 L1839.0,302.0 Z" fill="none" stroke="yellow" />
<path d="M1868.0,240.0 L1867.0,238.0 L1865.0,238.0 L1826.0,214.0 L1815.0,209.0 L1813.0,206.0 L1822.0,196.0 L1842.0,179.0 L1844.0,175.0 L1851.0,177.0 L1883.0,194.0 L1886.0,194.0 L1887.0,197.0 L1893.0,203.0 L1893.0,205.0 L1891.0,210.0 Z" fill="none" stroke="yellow" />
<path d="M1813.0,206.0 L1810.0,216.0 L1788.0,261.0 L1788.0,266.0 L1786.0,264.0 L1774.0,261.0 L1750.0,251.0 L1732.0,245.0 L1728.0,245.0 L1727.0,243.0 L1726.0,242.0 L1730.0,230.0 L1756.0,177.0 L1776.0,185.0 Z" fill="none" stroke="yellow" />
<path d="M1680.0,155.0 L1678.0,157.0 L1670.0,188.0 L1660.0,216.0 L1660.0,220.0 L1658.0,222.0 L1727.0,243.0 L1726.0,242.0 L1730.0,230.0 L1756.0,177.0 L1756.0,175.0 L1750.0,169.0 Z" fill="none" stroke="yellow" />
<path d="M1692.0,335.0 L1696.0,334.0 L1696.0,329.0 L1705.0,295.0 L1736.0,305.0 L1769.0,313.0 L1763.0,342.0 L1763.0,350.0 L1750.0,350.0 L1702.0,337.0 L1696.0,334.0 Z" fill="none" stroke="yellow" />
<path d="M1705.0,295.0 L1709.0,290.0 L1727.0,247.0 L1727.0,243.0 L1658.0,222.0 L1636.0,276.0 Z" fill="none" stroke="yellow" />
<path d="M1722.0,118.0 L1782.0,129.0 L1782.0,132.0 L1777.0,140.0 L1750.0,169.0 L1680.0,155.0 L1682.0,153.0 L1689.0,123.0 L1689.0,116.0 L1686.0,115.0 Z" fill="none" stroke="yellow" />
<path d="M1831.0,145.0 L1818.0,143.0 L1799.0,135.0 L1783.0,131.0 L1782.0,129.0 L1781.0,127.0 L1783.0,122.0 L1795.0,110.0 L1796.0,104.0 L1802.0,104.0 L1823.0,109.0 L1854.0,119.0 L1877.0,131.0 L1881.0,135.0 L1882.0,140.0 L1860.0,144.0 Z" fill="none" stroke="yellow" />
<path d="M1722.0,118.0 L1782.0,129.0 L1781.0,127.0 L1783.0,122.0 L1795.0,110.0 L1796.0,104.0 L1794.0,102.0 L1787.0,100.0 L1743.0,93.0 L1735.0,93.0 L1726.0,108.0 Z" fill="none" stroke="yellow" />
<path d="M1831.0,145.0 L1832.0,154.0 L1843.0,171.0 L1844.0,175.0 L1851.0,177.0 L1883.0,194.0 L1886.0,194.0 L1904.0,181.0 L1922.0,172.0 L1922.0,169.0 L1901.0,150.0 L1890.0,142.0 L1882.0,140.0 L1860.0,144.0 Z" fill="none" stroke="yellow" />
<path d="M1551.0,308.0 L1543.0,348.0 L1463.0,335.0 L1465.0,322.0 L1470.0,306.0 L1472.0,291.0 L1506.0,298.0 L1531.0,305.0 Z" fill="none" stroke="yellow" />
<path d="M1406.0,139.0 L1487.0,140.0 L1488.0,102.0 L1408.0,100.0 L1408.0,116.0 L1405.0,135.0 Z" fill="none" stroke="yellow" />
<path d="M1324.0,99.0 L1323.0,137.0 L1406.0,139.0 L1405.0,135.0 L1408.0,116.0 L1408.0,100.0 L1325.0,98.0 Z" fill="none" stroke="yellow" />
<path d="M1392.0,275.0 L1389.0,299.0 L1384.0,322.0 L1303.0,307.0 L1305.0,301.0 L1308.0,274.0 L1312.0,260.0 Z" fill="none" stroke="yellow" />
<path d="M1303.0,307.0 L1305.0,301.0 L1308.0,274.0 L1312.0,260.0 L1281.0,253.0 L1229.0,244.0 L1223.0,267.0 L1221.0,282.0 L1218.0,290.0 L1219.0,291.0 L1271.0,302.0 Z" fill="none" stroke="yellow" />
<path d="M1392.0,275.0 L1312.0,260.0 L1314.0,259.0 L1314.0,253.0 L1321.0,226.0 L1323.0,210.0 L1389.0,220.0 L1400.0,223.0 L1400.0,233.0 Z" fill="none" stroke="yellow" />
<path d="M1392.0,275.0 L1395.0,277.0 L1436.0,283.0 L1472.0,291.0 L1474.0,288.0 L1476.0,269.0 L1482.0,240.0 L1400.0,223.0 L1400.0,233.0 Z" fill="none" stroke="yellow" />
<path d="M1392.0,275.0 L1389.0,299.0 L1384.0,322.0 L1463.0,335.0 L1465.0,322.0 L1470.0,306.0 L1472.0,291.0 L1436.0,283.0 L1395.0,277.0 Z" fill="none" stroke="yellow" />
<path d="M1323.0,210.0 L1285.0,206.0 L1238.0,198.0 L1232.0,234.0 L1229.0,244.0 L1281.0,253.0 L1312.0,260.0 L1314.0,259.0 L1314.0,253.0 L1321.0,226.0 Z" fill="none" stroke="yellow" />
<path d="M1238.0,198.0 L1232.0,234.0 L1229.0,244.0 L1157.0,230.0 L1143.0,226.0 L1137.0,226.0 L1135.0,224.0 L1154.0,177.0 L1204.0,192.0 Z" fill="none" stroke="yellow" />
<path d="M1229.0,244.0 L1223.0,267.0 L1221.0,282.0 L1218.0,290.0 L1219.0,291.0 L1127.0,271.0 L1133.0,244.0 L1135.0,224.0 L1137.0,226.0 L1143.0,226.0 L1157.0,230.0 Z" fill="none" stroke="yellow" />
<path d="M1039.0,253.0 L1048.0,211.0 L1050.0,210.0 L1055.0,212.0 L1135.0,224.0 L1133.0,244.0 L1127.0,271.0 Z" fill="none" stroke="yellow" />
<path d="M1039.0,253.0 L1048.0,211.0 L955.0,198.0 L946.0,234.0 Z" fill="none" stroke="yellow" />
<path d="M859.0,186.0 L859.0,191.0 L854.0,207.0 L854.0,213.0 L852.0,214.0 L795.0,203.0 L764.0,195.0 L767.0,182.0 L767.0,176.0 L765.0,174.0 L767.0,176.0 L832.0,183.0 L848.0,186.0 Z" fill="none" stroke="yellow" />
<path d="M859.0,186.0 L859.0,191.0 L854.0,207.0 L854.0,213.0 L852.0,214.0 L946.0,234.0 L955.0,198.0 L862.0,188.0 Z" fill="none" stroke="yellow" />
<path d="M859.0,186.0 L860.0,176.0 L857.0,148.0 L959.0,147.0 L959.0,185.0 L958.0,196.0 L955.0,198.0 L862.0,188.0 Z" fill="none" stroke="yellow" />
<path d="M857.0,148.0 L858.0,137.0 L856.0,105.0 L746.0,107.0 L748.0,108.0 L750.0,122.0 L758.0,151.0 Z" fill="none" stroke="yellow" />
<path d="M693.0,155.0 L725.0,152.0 L745.0,152.0 L757.0,150.0 L758.0,151.0 L761.0,154.0 L762.0,165.0 L765.0,174.0 L703.0,169.0 L694.0,159.0 Z" fill="none" stroke="yellow" />
<path d="M859.0,186.0 L860.0,176.0 L857.0,148.0 L758.0,151.0 L761.0,154.0 L762.0,165.0 L765.0,174.0 L767.0,176.0 L832.0,183.0 L848.0,186.0 Z" fill="none" stroke="yellow" />
<path d="M764.0,195.0 L727.0,188.0 L697.0,179.0 L699.0,178.0 L703.0,169.0 L765.0,174.0 L767.0,176.0 L767.0,182.0 Z" fill="none" stroke="yellow" />
<path d="M758.0,151.0 L757.0,150.0 L745.0,152.0 L725.0,152.0 L693.0,155.0 L658.0,153.0 L653.0,154.0 L651.0,144.0 L636.0,115.0 L635.0,108.0 L745.0,106.0 L746.0,107.0 L748.0,108.0 L750.0,122.0 Z" fill="none" stroke="yellow" />
<path d="M615.0,83.0 L612.0,85.0 L613.0,88.0 L624.0,101.0 L625.0,105.0 L635.0,108.0 L745.0,106.0 L746.0,107.0 L745.0,77.0 L721.0,76.0 L618.0,79.0 Z" fill="none" stroke="yellow" />
<path d="M953.0,104.0 L856.0,105.0 L858.0,137.0 L857.0,148.0 L959.0,147.0 L959.0,136.0 L955.0,116.0 L955.0,109.0 Z" fill="none" stroke="yellow" />
<path d="M953.0,104.0 L856.0,105.0 L859.0,75.0 L899.0,73.0 L954.0,73.0 Z" fill="none" stroke="yellow" />
<path d="M859.0,75.0 L856.0,105.0 L746.0,107.0 L745.0,77.0 L780.0,75.0 Z" fill="none" stroke="yellow" />
<path d="M507.0,168.0 L509.0,171.0 L529.0,180.0 L563.0,193.0 L567.0,193.0 L567.0,191.0 L562.0,186.0 L552.0,179.0 L519.0,158.0 L512.0,155.0 Z" fill="none" stroke="yellow" />
<path d="M273.0,53.0 L303.0,54.0 L407.0,62.0 L408.0,43.0 L399.0,41.0 L337.0,38.0 L288.0,33.0 L270.0,33.0 Z" fill="none" stroke="yellow" />
<path d="M273.0,53.0 L203.0,49.0 L173.0,49.0 L172.0,51.0 L175.0,55.0 L184.0,56.0 L276.0,62.0 L276.0,56.0 Z" fill="none" stroke="yellow" />
<path d="M273.0,53.0 L303.0,54.0 L407.0,62.0 L407.0,76.0 L276.0,62.0 L276.0,56.0 Z" fill="none" stroke="yellow" />
<path d="M273.0,53.0 L203.0,49.0 L173.0,49.0 L172.0,51.0 L126.0,47.0 L89.0,46.0 L61.0,43.0 L50.0,40.0 L28.0,39.0 L31.0,28.0 L37.0,25.0 L132.0,32.0 L199.0,31.0 L270.0,33.0 Z" fill="none" stroke="yellow" />
<path d="M28.0,39.0 L50.0,40.0 L61.0,43.0 L89.0,46.0 L126.0,47.0 L172.0,51.0 L175.0,55.0 L184.0,56.0 L276.0,62.0 L407.0,76.0 L428.0,82.0 L430.0,87.0 L434.0,91.0 L442.0,95.0 L438.0,97.0 L434.0,104.0 L426.0,104.0 L400.0,99.0 L315.0,93.0 L305.0,91.0 L293.0,91.0 L292.0,93.0 L291.0,95.0 L287.0,95.0 L285.0,92.0 L216.0,84.0 L205.0,84.0 L191.0,81.0 L163.0,79.0 L157.0,77.0 L108.0,73.0 L89.0,70.0 L83.0,67.0 L67.0,66.0 L58.0,64.0 L44.0,58.0 L28.0,55.0 L25.0,52.0 L24.0,43.0 Z" fill="none" stroke="yellow" />
<path d="M1732.0,378.0 L1731.0,384.0 L1736.0,402.0 L1741.0,403.0 L1764.0,401.0 L1778.0,399.0 L1779.0,397.0 L1779.0,395.0 L1772.0,390.0 L1742.0,377.0 Z" fill="none" stroke="yellow" />
<path d="M1684.0,387.0 L1684.0,370.0 L1628.0,360.0 L1621.0,360.0 L1616.0,358.0 L1615.0,359.0 L1616.0,374.0 L1619.0,374.0 L1646.0,391.0 L1654.0,395.0 L1657.0,395.0 L1675.0,388.0 Z" fill="none" stroke="yellow" />
<path d="M1680.0,155.0 L1678.0,157.0 L1670.0,188.0 L1660.0,216.0 L1660.0,220.0 L1658.0,222.0 L1602.0,208.0 L1579.0,205.0 L1575.0,202.0 L1575.0,190.0 L1573.0,187.0 L1567.0,162.0 L1565.0,148.0 L1563.0,144.0 L1561.0,144.0 L1603.0,146.0 L1607.0,148.0 L1607.0,150.0 L1608.0,147.0 L1616.0,146.0 L1621.0,148.0 L1651.0,151.0 L1679.0,156.0 Z" fill="none" stroke="yellow" />
<path d="M1494.0,75.0 L1570.0,78.0 L1564.0,105.0 L1517.0,102.0 L1488.0,102.0 Z" fill="none" stroke="yellow" />
<path d="M1323.0,210.0 L1327.0,183.0 L1327.0,170.0 L1323.0,137.0 L1406.0,139.0 L1408.0,140.0 L1411.0,166.0 L1417.0,190.0 L1402.0,215.0 L1399.0,222.0 L1400.0,223.0 L1389.0,220.0 Z" fill="none" stroke="yellow" />
<path d="M1386.0,352.0 L1384.0,340.0 L1384.0,322.0 L1303.0,307.0 L1302.0,338.0 L1298.0,340.0 L1302.0,338.0 L1345.0,355.0 L1365.0,352.0 Z" fill="none" stroke="yellow" />
<path d="M1494.0,75.0 L1413.0,73.0 L1408.0,94.0 L1408.0,100.0 L1488.0,102.0 Z" fill="none" stroke="yellow" />
<path d="M1236.0,71.0 L1329.0,72.0 L1326.0,94.0 L1324.0,99.0 L1234.0,100.0 L1233.0,97.0 Z" fill="none" stroke="yellow" />
<path d="M1386.0,352.0 L1397.0,393.0 L1409.0,396.0 L1441.0,398.0 L1437.0,368.0 L1411.0,358.0 Z" fill="none" stroke="yellow" />
<path d="M1386.0,352.0 L1365.0,352.0 L1345.0,355.0 L1345.0,368.0 L1348.0,387.0 L1353.0,389.0 L1397.0,393.0 Z" fill="none" stroke="yellow" />
<path d="M1386.0,352.0 L1384.0,340.0 L1384.0,322.0 L1463.0,335.0 L1465.0,360.0 L1437.0,368.0 L1411.0,358.0 Z" fill="none" stroke="yellow" />
<path d="M1324.0,99.0 L1326.0,94.0 L1329.0,72.0 L1347.0,71.0 L1413.0,73.0 L1408.0,94.0 L1408.0,100.0 L1325.0,98.0 Z" fill="none" stroke="yellow" />
<path d="M1245.0,336.0 L1266.0,337.0 L1292.0,342.0 L1296.0,342.0 L1298.0,340.0 L1302.0,338.0 L1303.0,307.0 L1271.0,302.0 L1219.0,291.0 L1219.0,322.0 Z" fill="none" stroke="yellow" />
<path d="M1048.0,211.0 L1050.0,210.0 L1057.0,177.0 L1057.0,147.0 L1054.0,145.0 L1130.0,148.0 L1135.0,158.0 L1154.0,177.0 L1135.0,224.0 L1055.0,212.0 L1050.0,210.0 Z" fill="none" stroke="yellow" />
<path d="M1236.0,71.0 L1233.0,97.0 L1234.0,100.0 L1184.0,100.0 L1143.0,102.0 L1142.0,96.0 L1144.0,84.0 L1144.0,71.0 Z" fill="none" stroke="yellow" />
<path d="M1130.0,148.0 L1132.0,146.0 L1141.0,145.0 L1144.0,143.0 L1145.0,132.0 L1143.0,102.0 L1090.0,102.0 L1048.0,104.0 L1050.0,116.0 L1051.0,144.0 L1054.0,145.0 Z" fill="none" stroke="yellow" />
<path d="M1050.0,72.0 L954.0,73.0 L953.0,104.0 L1048.0,104.0 Z" fill="none" stroke="yellow" />
<path d="M1035.0,287.0 L1069.0,301.0 L1070.0,344.0 L1063.0,344.0 L1049.0,340.0 L1030.0,337.0 L1022.0,334.0 L1024.0,289.0 Z" fill="none" stroke="yellow" />
<path d="M519.0,144.0 L529.0,146.0 L595.0,174.0 L601.0,178.0 L609.0,179.0 L640.0,188.0 L679.0,201.0 L684.0,201.0 L686.0,203.0 L685.0,202.0 L697.0,179.0 L688.0,177.0 L671.0,170.0 L656.0,160.0 L653.0,154.0 L615.0,148.0 L560.0,134.0 L526.0,123.0 L455.0,96.0 L442.0,95.0 L445.0,96.0 L447.0,100.0 L458.0,105.0 L515.0,139.0 L519.0,142.0 Z" fill="none" stroke="yellow" />
<path d="M813.0,242.0 L835.0,245.0 L847.0,245.0 L852.0,214.0 L795.0,203.0 L764.0,195.0 L760.0,221.0 L756.0,223.0 L799.0,236.0 Z" fill="none" stroke="yellow" />
<path d="M434.0,104.0 L436.0,107.0 L507.0,150.0 L512.0,155.0 L507.0,168.0 L497.0,166.0 L422.0,130.0 L390.0,118.0 L355.0,108.0 L296.0,97.0 L293.0,96.0 L292.0,93.0 L293.0,91.0 L305.0,91.0 L315.0,93.0 L400.0,99.0 L426.0,104.0 Z" fill="none" stroke="yellow" />
<path d="M593.0,202.0 L601.0,182.0 L601.0,178.0 L609.0,179.0 L640.0,188.0 L679.0,201.0 L684.0,201.0 L686.0,203.0 L682.0,216.0 L680.0,234.0 L671.0,233.0 L638.0,221.0 L602.0,207.0 Z" fill="none" stroke="yellow" />
<path d="M512.0,155.0 L519.0,146.0 L519.0,144.0 L529.0,146.0 L595.0,174.0 L601.0,178.0 L601.0,182.0 L593.0,202.0 L567.0,193.0 L567.0,191.0 L562.0,186.0 L552.0,179.0 L519.0,158.0 Z" fill="none" stroke="yellow" />
<path d="M866.0,255.0 L869.0,287.0 L868.0,294.0 L883.0,300.0 L887.0,300.0 L919.0,310.0 L924.0,310.0 L929.0,280.0 L929.0,268.0 L915.0,264.0 Z" fill="none" stroke="yellow" />
<path d="M808.0,276.0 L813.0,242.0 L835.0,245.0 L847.0,245.0 L848.0,247.0 L866.0,255.0 L869.0,287.0 L868.0,294.0 L856.0,292.0 L822.0,282.0 L810.0,278.0 Z" fill="none" stroke="yellow" />
<path d="M924.0,310.0 L929.0,280.0 L929.0,268.0 L938.0,267.0 L971.0,281.0 L973.0,310.0 L972.0,323.0 L966.0,323.0 L947.0,318.0 Z" fill="none" stroke="yellow" />
<path d="M1039.0,253.0 L1035.0,287.0 L1024.0,289.0 L971.0,281.0 L938.0,267.0 L942.0,254.0 L944.0,238.0 L946.0,234.0 Z" fill="none" stroke="yellow" />
<path d="M971.0,281.0 L973.0,310.0 L972.0,323.0 L975.0,325.0 L991.0,329.0 L996.0,329.0 L1015.0,334.0 L1022.0,334.0 L1024.0,289.0 Z" fill="none" stroke="yellow" />
<path d="M1039.0,253.0 L1035.0,287.0 L1069.0,301.0 L1089.0,303.0 L1108.0,307.0 L1116.0,307.0 L1125.0,306.0 L1128.0,277.0 L1127.0,271.0 Z" fill="none" stroke="yellow" />
<path d="M847.0,245.0 L848.0,247.0 L866.0,255.0 L915.0,264.0 L929.0,268.0 L938.0,267.0 L942.0,254.0 L944.0,238.0 L946.0,234.0 L852.0,214.0 Z" fill="none" stroke="yellow" />
<path d="M1069.0,301.0 L1070.0,344.0 L1074.0,346.0 L1118.0,352.0 L1118.0,335.0 L1116.0,330.0 L1116.0,307.0 L1108.0,307.0 L1089.0,303.0 Z" fill="none" stroke="yellow" />
<path d="M1156.0,320.0 L1159.0,343.0 L1159.0,359.0 L1162.0,361.0 L1188.0,366.0 L1203.0,367.0 L1202.0,326.0 L1177.0,321.0 Z" fill="none" stroke="yellow" />
<path d="M1127.0,271.0 L1128.0,277.0 L1125.0,306.0 L1132.0,308.0 L1156.0,320.0 L1177.0,321.0 L1202.0,326.0 L1208.0,326.0 L1219.0,322.0 L1219.0,291.0 Z" fill="none" stroke="yellow" />
<path d="M1245.0,336.0 L1246.0,349.0 L1254.0,375.0 L1244.0,375.0 L1217.0,371.0 L1206.0,369.0 L1203.0,367.0 L1202.0,326.0 L1208.0,326.0 L1219.0,322.0 Z" fill="none" stroke="yellow" />
<path d="M1116.0,307.0 L1125.0,306.0 L1132.0,308.0 L1156.0,320.0 L1159.0,343.0 L1159.0,359.0 L1134.0,356.0 L1118.0,352.0 L1118.0,335.0 L1116.0,330.0 Z" fill="none" stroke="yellow" />
<path d="M1521.0,378.0 L1528.0,404.0 L1491.0,403.0 L1482.0,401.0 L1476.0,376.0 L1476.0,367.0 L1502.0,371.0 Z" fill="none" stroke="yellow" />
<path d="M1437.0,368.0 L1441.0,398.0 L1461.0,401.0 L1482.0,401.0 L1476.0,376.0 L1476.0,367.0 L1465.0,360.0 Z" fill="none" stroke="yellow" />
<path d="M1521.0,378.0 L1528.0,404.0 L1570.0,406.0 L1566.0,392.0 L1566.0,381.0 L1547.0,368.0 L1544.0,368.0 L1534.0,371.0 Z" fill="none" stroke="yellow" />
<path d="M1566.0,381.0 L1566.0,392.0 L1570.0,406.0 L1601.0,408.0 L1613.0,407.0 L1604.0,384.0 L1590.0,381.0 Z" fill="none" stroke="yellow" />
<path d="M1544.0,368.0 L1547.0,368.0 L1566.0,381.0 L1590.0,381.0 L1604.0,384.0 L1609.0,378.0 L1616.0,374.0 L1615.0,359.0 L1570.0,351.0 L1543.0,348.0 Z" fill="none" stroke="yellow" />
<path d="M1604.0,384.0 L1613.0,407.0 L1645.0,407.0 L1658.0,405.0 L1657.0,395.0 L1654.0,395.0 L1646.0,391.0 L1619.0,374.0 L1616.0,374.0 L1609.0,378.0 Z" fill="none" stroke="yellow" />
<path d="M1684.0,387.0 L1699.0,401.0 L1700.0,405.0 L1658.0,405.0 L1657.0,395.0 L1675.0,388.0 Z" fill="none" stroke="yellow" />
<path d="M1521.0,378.0 L1534.0,371.0 L1544.0,368.0 L1543.0,348.0 L1463.0,335.0 L1465.0,360.0 L1476.0,367.0 L1502.0,371.0 Z" fill="none" stroke="yellow" />
<path d="M1684.0,387.0 L1699.0,401.0 L1700.0,405.0 L1718.0,405.0 L1736.0,402.0 L1731.0,384.0 L1732.0,378.0 L1700.0,371.0 L1692.0,371.0 L1685.0,369.0 L1684.0,370.0 Z" fill="none" stroke="yellow" />
<path d="M1692.0,335.0 L1689.0,336.0 L1688.0,340.0 L1684.0,370.0 L1685.0,369.0 L1692.0,371.0 L1700.0,371.0 L1732.0,378.0 L1742.0,377.0 L1749.0,358.0 L1750.0,350.0 L1702.0,337.0 L1696.0,334.0 Z" fill="none" stroke="yellow" />
<path d="M1812.0,364.0 L1827.0,382.0 L1830.0,388.0 L1819.0,392.0 L1797.0,395.0 L1796.0,390.0 L1791.0,382.0 L1785.0,367.0 L1785.0,360.0 L1799.0,361.0 Z" fill="none" stroke="yellow" />
<path d="M1812.0,364.0 L1821.0,355.0 L1825.0,353.0 L1827.0,353.0 L1853.0,370.0 L1864.0,379.0 L1864.0,381.0 L1845.0,386.0 L1830.0,388.0 L1827.0,382.0 Z" fill="none" stroke="yellow" />
<path d="M1742.0,377.0 L1749.0,358.0 L1750.0,350.0 L1763.0,350.0 L1785.0,360.0 L1785.0,367.0 L1791.0,382.0 L1796.0,390.0 L1797.0,395.0 L1791.0,397.0 L1779.0,397.0 L1779.0,395.0 L1772.0,390.0 Z" fill="none" stroke="yellow" />
<path d="M1825.0,353.0 L1827.0,353.0 L1853.0,370.0 L1864.0,379.0 L1864.0,381.0 L1872.0,380.0 L1875.0,378.0 L1872.0,366.0 L1872.0,342.0 L1844.0,333.0 L1827.0,330.0 L1825.0,334.0 Z" fill="none" stroke="yellow" />
<path d="M1948.0,202.0 L1924.0,210.0 L1915.0,216.0 L1912.0,216.0 L1901.0,208.0 L1893.0,205.0 L1893.0,203.0 L1887.0,197.0 L1886.0,194.0 L1904.0,181.0 L1922.0,172.0 L1926.0,173.0 L1935.0,182.0 L1948.0,199.0 Z" fill="none" stroke="yellow" />
<path d="M1872.0,342.0 L1872.0,366.0 L1875.0,378.0 L1886.0,376.0 L1906.0,369.0 L1917.0,364.0 L1918.0,362.0 L1918.0,360.0 L1914.0,357.0 L1883.0,342.0 Z" fill="none" stroke="yellow" />
<path d="M1812.0,364.0 L1821.0,355.0 L1825.0,353.0 L1825.0,334.0 L1827.0,330.0 L1769.0,313.0 L1763.0,342.0 L1763.0,350.0 L1785.0,360.0 L1799.0,361.0 Z" fill="none" stroke="yellow" />
<path d="M1942.0,350.0 L1942.0,348.0 L1923.0,328.0 L1895.0,314.0 L1896.0,316.0 L1894.0,321.0 L1883.0,342.0 L1914.0,357.0 L1918.0,360.0 L1918.0,362.0 L1924.0,361.0 L1938.0,354.0 Z" fill="none" stroke="yellow" />
<path d="M1813.0,206.0 L1822.0,196.0 L1842.0,179.0 L1844.0,175.0 L1843.0,171.0 L1832.0,154.0 L1831.0,145.0 L1818.0,143.0 L1799.0,135.0 L1783.0,131.0 L1782.0,129.0 L1782.0,132.0 L1777.0,140.0 L1750.0,169.0 L1756.0,175.0 L1756.0,177.0 L1776.0,185.0 Z" fill="none" stroke="yellow" />
<path d="M1911.0,268.0 L1915.0,273.0 L1919.0,274.0 L1949.0,293.0 L1951.0,296.0 L1953.0,298.0 L1953.0,301.0 L1949.0,310.0 L1948.0,320.0 L1935.0,321.0 L1924.0,326.0 L1923.0,328.0 L1895.0,314.0 L1893.0,312.0 L1913.0,274.0 Z" fill="none" stroke="yellow" />
<path d="M1911.0,268.0 L1915.0,273.0 L1919.0,274.0 L1949.0,293.0 L1951.0,296.0 L1949.0,293.0 L1966.0,276.0 L1966.0,274.0 L1954.0,259.0 L1951.0,253.0 L1949.0,253.0 L1938.0,242.0 L1936.0,242.0 L1911.0,264.0 Z" fill="none" stroke="yellow" />
</svg>