<?xml version="1.0" encoding="UTF-8"?>
<svg xmlns="http://www.w3.org/2000/svg" xmlns:xlink="http://www.w3.org/1999/xlink"
     width="2805.6338028169016" height="600" viewBox="0 0 2805.6338028169016 600">
<defs>
</defs>
<path d="M1911.0,268.0 L1868.0,240.0 L1843.0,289.0 L1895.0,314.0 Z" fill="none" stroke="yellow" />
<path d="M1692.0,335.0 L1684.0,370.0 L1615.0,359.0 L1624.0,322.0 Z" fill="none" stroke="yellow" />
<path d="M1692.0,335.0 L1705.0,295.0 L1636.0,276.0 L1624.0,322.0 Z" fill="none" stroke="yellow" />
<path d="M1493.0,193.0 L1417.0,190.0 L1406.0,139.0 L1487.0,140.0 Z" fill="none" stroke="yellow" />
<path d="M1493.0,193.0 L1417.0,190.0 L1400.0,223.0 L1482.0,240.0 Z" fill="none" stroke="yellow" />
<path d="M1493.0,193.0 L1575.0,202.0 L1561.0,144.0 L1487.0,140.0 Z" fill="none" stroke="yellow" />
<path d="M1493.0,193.0 L1575.0,202.0 L1563.0,258.0 L1482.0,240.0 Z" fill="none" stroke="yellow" />
<path d="M1298.0,340.0 L1299.0,381.0 L1348.0,387.0 L1345.0,355.0 Z" fill="none" stroke="yellow" />
<path d="M1245.0,336.0 L1254.0,375.0 L1299.0,381.0 L1298.0,340.0 Z" fill="none" stroke="yellow" />
<path d="M408.0,43.0 L615.0,83.0 L407.0,62.0 Z" fill="none" stroke="yellow" />
<path d="M1951.0,253.0 L1966.0,276.0 L1980.0,281.0 L1973.0,249.0 Z" fill="none" stroke="yellow" />
<path d="M1942.0,350.0 L1964.0,332.0 L1948.0,320.0 L1923.0,328.0 Z" fill="none" stroke="yellow" />
<path d="M1948.0,320.0 L1964.0,332.0 L1977.0,310.0 L1951.0,296.0 Z" fill="none" stroke="yellow" />
<path d="M1951.0,296.0 L1966.0,276.0 L1980.0,281.0 L1977.0,310.0 Z" fill="none" stroke="yellow" />
<path d="M1690.0,87.0 L1735.0,93.0 L1722.0,118.0 L1686.0,115.0 Z" fill="none" stroke="yellow" />
<path d="M1690.0,87.0 L1686.0,115.0 L1632.0,108.0 L1641.0,83.0 Z" fill="none" stroke="yellow" />
<path d="M1624.0,322.0 L1636.0,276.0 L1563.0,258.0 L1551.0,308.0 Z" fill="none" stroke="yellow" />
<path d="M1551.0,308.0 L1624.0,322.0 L1615.0,359.0 L1543.0,348.0 Z" fill="none" stroke="yellow" />
<path d="M1482.0,240.0 L1563.0,258.0 L1551.0,308.0 L1472.0,291.0 Z" fill="none" stroke="yellow" />
<path d="M1658.0,222.0 L1636.0,276.0 L1563.0,258.0 L1575.0,202.0 Z" fill="none" stroke="yellow" />
<path d="M1616.0,146.0 L1607.0,150.0 L1561.0,144.0 L1564.0,105.0 L1622.0,109.0 Z" fill="none" stroke="yellow" />
<path d="M1680.0,155.0 L1686.0,115.0 L1632.0,108.0 L1622.0,109.0 L1616.0,146.0 Z" fill="none" stroke="yellow" />
<path d="M1570.0,78.0 L1564.0,105.0 L1622.0,109.0 L1632.0,108.0 L1641.0,83.0 Z" fill="none" stroke="yellow" />
<path d="M1564.0,105.0 L1561.0,144.0 L1487.0,140.0 L1488.0,102.0 Z" fill="none" stroke="yellow" />
<path d="M1324.0,99.0 L1323.0,137.0 L1239.0,138.0 L1234.0,100.0 Z" fill="none" stroke="yellow" />
<path d="M1323.0,210.0 L1323.0,137.0 L1239.0,138.0 L1238.0,198.0 Z" fill="none" stroke="yellow" />
<path d="M1234.0,100.0 L1239.0,138.0 L1144.0,143.0 L1143.0,102.0 Z" fill="none" stroke="yellow" />
<path d="M1050.0,72.0 L1144.0,71.0 L1143.0,102.0 L1048.0,104.0 Z" fill="none" stroke="yellow" />
<path d="M1239.0,138.0 L1238.0,198.0 L1154.0,177.0 L1130.0,148.0 L1144.0,143.0 Z" fill="none" stroke="yellow" />
<path d="M1054.0,145.0 L959.0,147.0 L955.0,198.0 L1048.0,211.0 Z" fill="none" stroke="yellow" />
<path d="M953.0,104.0 L959.0,147.0 L1054.0,145.0 L1048.0,104.0 Z" fill="none" stroke="yellow" />
<path d="M747.0,257.0 L808.0,276.0 L813.0,242.0 L756.0,223.0 Z" fill="none" stroke="yellow" />
<path d="M764.0,195.0 L697.0,179.0 L686.0,203.0 L756.0,223.0 Z" fill="none" stroke="yellow" />
<path d="M747.0,257.0 L680.0,234.0 L686.0,203.0 L756.0,223.0 Z" fill="none" stroke="yellow" />
<path d="M407.0,76.0 L428.0,82.0 L625.0,105.0 L615.0,83.0 L407.0,62.0 Z" fill="none" stroke="yellow" />
<path d="M434.0,104.0 L512.0,155.0 L519.0,144.0 L442.0,95.0 Z" fill="none" stroke="yellow" />
<path d="M697.0,179.0 L653.0,154.0 L693.0,155.0 L703.0,169.0 Z" fill="none" stroke="yellow" />
<path d="M428.0,82.0 L625.0,105.0 L635.0,108.0 L653.0,154.0 L442.0,95.0 Z" fill="none" stroke="yellow" />
<path d="M1868.0,240.0 L1911.0,268.0 L1938.0,242.0 L1915.0,216.0 L1893.0,205.0 Z" fill="none" stroke="yellow" />
<path d="M1948.0,202.0 L1966.0,230.0 L1938.0,242.0 L1915.0,216.0 Z" fill="none" stroke="yellow" />
<path d="M1951.0,253.0 L1973.0,249.0 L1966.0,230.0 L1938.0,242.0 Z" fill="none" stroke="yellow" />
<path d="M1868.0,240.0 L1843.0,289.0 L1788.0,266.0 L1813.0,206.0 Z" fill="none" stroke="yellow" />
<path d="M1843.0,289.0 L1827.0,330.0 L1872.0,342.0 L1883.0,342.0 L1895.0,314.0 Z" fill="none" stroke="yellow" />
<path d="M1769.0,313.0 L1705.0,295.0 L1727.0,243.0 L1788.0,266.0 Z" fill="none" stroke="yellow" />
<path d="M1843.0,289.0 L1788.0,266.0 L1769.0,313.0 L1827.0,330.0 Z" fill="none" stroke="yellow" />
<path d="M1868.0,240.0 L1813.0,206.0 L1844.0,175.0 L1886.0,194.0 L1893.0,205.0 Z" fill="none" stroke="yellow" />
<path d="M1813.0,206.0 L1788.0,266.0 L1727.0,243.0 L1756.0,177.0 Z" fill="none" stroke="yellow" />
<path d="M1680.0,155.0 L1658.0,222.0 L1727.0,243.0 L1756.0,177.0 L1750.0,169.0 Z" fill="none" stroke="yellow" />
<path d="M1692.0,335.0 L1705.0,295.0 L1769.0,313.0 L1763.0,350.0 L1750.0,350.0 Z" fill="none" stroke="yellow" />
<path d="M1705.0,295.0 L1727.0,243.0 L1658.0,222.0 L1636.0,276.0 Z" fill="none" stroke="yellow" />
<path d="M1722.0,118.0 L1782.0,129.0 L1750.0,169.0 L1680.0,155.0 L1686.0,115.0 Z" fill="none" stroke="yellow" />
<path d="M1831.0,145.0 L1782.0,129.0 L1796.0,104.0 L1882.0,140.0 Z" fill="none" stroke="yellow" />
<path d="M1722.0,118.0 L1782.0,129.0 L1796.0,104.0 L1735.0,93.0 Z" fill="none" stroke="yellow" />
<path d="M1831.0,145.0 L1844.0,175.0 L1886.0,194.0 L1922.0,172.0 L1882.0,140.0 Z" fill="none" stroke="yellow" />
<path d="M1551.0,308.0 L1543.0,348.0 L1463.0,335.0 L1472.0,291.0 Z" fill="none" stroke="yellow" />
<path d="M1406.0,139.0 L1487.0,140.0 L1488.0,102.0 L1408.0,100.0 Z" fill="none" stroke="yellow" />
<path d="M1324.0,99.0 L1323.0,137.0 L1406.0,139.0 L1408.0,100.0 Z" fill="none" stroke="yellow" />
<path d="M1392.0,275.0 L1384.0,322.0 L1303.0,307.0 L1312.0,260.0 Z" fill="none" stroke="yellow" />
<path d="M1303.0,307.0 L1312.0,260.0 L1229.0,244.0 L1219.0,291.0 Z" fill="none" stroke="yellow" />
<path d="M1392.0,275.0 L1312.0,260.0 L1323.0,210.0 L1400.0,223.0 Z" fill="none" stroke="yellow" />
<path d="M1392.0,275.0 L1472.0,291.0 L1482.0,240.0 L1400.0,223.0 Z" fill="none" stroke="yellow" />
<path d="M1392.0,275.0 L1384.0,322.0 L1463.0,335.0 L1472.0,291.0 Z" fill="none" stroke="yellow" />
<path d="M1323.0,210.0 L1238.0,198.0 L1229.0,244.0 L1312.0,260.0 Z" fill="none" stroke="yellow" />
<path d="M1238.0,198.0 L1229.0,244.0 L1135.0,224.0 L1154.0,177.0 Z" fill="none" stroke="yellow" />
<path d="M1229.0,244.0 L1219.0,291.0 L1127.0,271.0 L1135.0,224.0 Z" fill="none" stroke="yellow" />
<path d="M1039.0,253.0 L1048.0,211.0 L1135.0,224.0 L1127.0,271.0 Z" fill="none" stroke="yellow" />
<path d="M1039.0,253.0 L1048.0,211.0 L955.0,198.0 L946.0,234.0 Z" fill="none" stroke="yellow" />
<path d="M859.0,186.0 L852.0,214.0 L764.0,195.0 L765.0,174.0 Z" fill="none" stroke="yellow" />
<path d="M859.0,186.0 L852.0,214.0 L946.0,234.0 L955.0,198.0 Z" fill="none" stroke="yellow" />
<path d="M859.0,186.0 L857.0,148.0 L959.0,147.0 L955.0,198.0 Z" fill="none" stroke="yellow" />
<path d="M857.0,148.0 L856.0,105.0 L746.0,107.0 L758.0,151.0 Z" fill="none" stroke="yellow" />
<path d="M693.0,155.0 L758.0,151.0 L765.0,174.0 L703.0,169.0 Z" fill="none" stroke="yellow" />
<path d="M859.0,186.0 L857.0,148.0 L758.0,151.0 L765.0,174.0 Z" fill="none" stroke="yellow" />
<path d="M764.0,195.0 L697.0,179.0 L703.0,169.0 L765.0,174.0 Z" fill="none" stroke="yellow" />
<path d="M758.0,151.0 L693.0,155.0 L653.0,154.0 L635.0,108.0 L746.0,107.0 Z" fill="none" stroke="yellow" />
<path d="M615.0,83.0 L625.0,105.0 L635.0,108.0 L746.0,107.0 L745.0,77.0 Z" fill="none" stroke="yellow" />
<path d="M953.0,104.0 L856.0,105.0 L857.0,148.0 L959.0,147.0 Z" fill="none" stroke="yellow" />
<path d="M953.0,104.0 L856.0,105.0 L859.0,75.0 L954.0,73.0 Z" fill="none" stroke="yellow" />
<path d="M859.0,75.0 L856.0,105.0 L746.0,107.0 L745.0,77.0 Z" fill="none" stroke="yellow" />
<path d="M507.0,168.0 L567.0,193.0 L512.0,155.0 Z" fill="none" stroke="yellow" />
<path d="M273.0,53.0 L407.0,62.0 L408.0,43.0 L270.0,33.0 Z" fill="none" stroke="yellow" />
<path d="M273.0,53.0 L172.0,51.0 L276.0,62.0 Z" fill="none" stroke="yellow" />
<path d="M273.0,53.0 L407.0,62.0 L407.0,76.0 L276.0,62.0 Z" fill="none" stroke="yellow" />
<path d="M273.0,53.0 L172.0,51.0 L28.0,39.0 L270.0,33.0 Z" fill="none" stroke="yellow" />
<path d="M28.0,39.0 L172.0,51.0 L276.0,62.0 L407.0,76.0 L428.0,82.0 L442.0,95.0 L434.0,104.0 L292.0,93.0 L285.0,92.0 Z" fill="none" stroke="yellow" />
<path d="M1732.0,378.0 L1736.0,402.0 L1779.0,397.0 L1742.0,377.0 Z" fill="none" stroke="yellow" />
<path d="M1684.0,387.0 L1684.0,370.0 L1615.0,359.0 L1616.0,374.0 L1657.0,395.0 Z" fill="none" stroke="yellow" />
<path d="M1680.0,155.0 L1658.0,222.0 L1575.0,202.0 L1561.0,144.0 L1607.0,150.0 L1616.0,146.0 Z" fill="none" stroke="yellow" />
<path d="M1494.0,75.0 L1570.0,78.0 L1564.0,105.0 L1488.0,102.0 Z" fill="none" stroke="yellow" />
<path d="M1323.0,210.0 L1323.0,137.0 L1406.0,139.0 L1417.0,190.0 L1400.0,223.0 Z" fill="none" stroke="yellow" />
<path d="M1386.0,352.0 L1384.0,322.0 L1303.0,307.0 L1298.0,340.0 L1345.0,355.0 Z" fill="none" stroke="yellow" />
<path d="M1494.0,75.0 L1413.0,73.0 L1408.0,100.0 L1488.0,102.0 Z" fill="none" stroke="yellow" />
<path d="M1236.0,71.0 L1329.0,72.0 L1324.0,99.0 L1234.0,100.0 Z" fill="none" stroke="yellow" />
<path d="M1386.0,352.0 L1397.0,393.0 L1441.0,398.0 L1437.0,368.0 Z" fill="none" stroke="yellow" />
<path d="M1386.0,352.0 L1345.0,355.0 L1348.0,387.0 L1397.0,393.0 Z" fill="none" stroke="yellow" />
<path d="M1386.0,352.0 L1384.0,322.0 L1463.0,335.0 L1465.0,360.0 L1437.0,368.0 Z" fill="none" stroke="yellow" />
<path d="M1324.0,99.0 L1329.0,72.0 L1413.0,73.0 L1408.0,100.0 Z" fill="none" stroke="yellow" />
<path d="M1245.0,336.0 L1298.0,340.0 L1303.0,307.0 L1219.0,291.0 L1219.0,322.0 Z" fill="none" stroke="yellow" />
<path d="M1048.0,211.0 L1054.0,145.0 L1130.0,148.0 L1154.0,177.0 L1135.0,224.0 Z" fill="none" stroke="yellow" />
<path d="M1236.0,71.0 L1234.0,100.0 L1143.0,102.0 L1144.0,71.0 Z" fill="none" stroke="yellow" />
<path d="M1130.0,148.0 L1144.0,143.0 L1143.0,102.0 L1048.0,104.0 L1054.0,145.0 Z" fill="none" stroke="yellow" />
<path d="M1050.0,72.0 L954.0,73.0 L953.0,104.0 L1048.0,104.0 Z" fill="none" stroke="yellow" />
<path d="M1035.0,287.0 L1069.0,301.0 L1070.0,344.0 L1022.0,334.0 L1024.0,289.0 Z" fill="none" stroke="yellow" />
<path d="M519.0,144.0 L601.0,178.0 L686.0,203.0 L697.0,179.0 L653.0,154.0 L442.0,95.0 Z" fill="none" stroke="yellow" />
<path d="M813.0,242.0 L847.0,245.0 L852.0,214.0 L764.0,195.0 L756.0,223.0 Z" fill="none" stroke="yellow" />
<path d="M434.0,104.0 L512.0,155.0 L507.0,168.0 L292.0,93.0 Z" fill="none" stroke="yellow" />
<path d="M593.0,202.0 L601.0,178.0 L686.0,203.0 L680.0,234.0 Z" fill="none" stroke="yellow" />
<path d="M512.0,155.0 L519.0,144.0 L601.0,178.0 L593.0,202.0 L567.0,193.0 Z" fill="none" stroke="yellow" />
<path d="M866.0,255.0 L868.0,294.0 L924.0,310.0 L929.0,268.0 Z" fill="none" stroke="yellow" />
<path d="M808.0,276.0 L813.0,242.0 L847.0,245.0 L866.0,255.0 L868.0,294.0 Z" fill="none" stroke="yellow" />
<path d="M924.0,310.0 L929.0,268.0 L938.0,267.0 L971.0,281.0 L972.0,323.0 Z" fill="none" stroke="yellow" />
<path d="M1039.0,253.0 L1035.0,287.0 L1024.0,289.0 L971.0,281.0 L938.0,267.0 L946.0,234.0 Z" fill="none" stroke="yellow" />
<path d="M971.0,281.0 L972.0,323.0 L1022.0,334.0 L1024.0,289.0 Z" fill="none" stroke="yellow" />
<path d="M1039.0,253.0 L1035.0,287.0 L1069.0,301.0 L1116.0,307.0 L1125.0,306.0 L1127.0,271.0 Z" fill="none" stroke="yellow" />
<path d="M847.0,245.0 L866.0,255.0 L929.0,268.0 L938.0,267.0 L946.0,234.0 L852.0,214.0 Z" fill="none" stroke="yellow" />
<path d="M1069.0,301.0 L1070.0,344.0 L1118.0,352.0 L1118.0,335.0 L1116.0,307.0 Z" fill="none" stroke="yellow" />
<path d="M1156.0,320.0 L1159.0,359.0 L1203.0,367.0 L1202.0,326.0 Z" fill="none" stroke="yellow" />
<path d="M1127.0,271.0 L1125.0,306.0 L1156.0,320.0 L1202.0,326.0 L1219.0,322.0 L1219.0,291.0 Z" fill="none" stroke="yellow" />
<path d="M1245.0,336.0 L1254.0,375.0 L1203.0,367.0 L1202.0,326.0 L1219.0,322.0 Z" fill="none" stroke="yellow" />
<path d="M1116.0,307.0 L1125.0,306.0 L1156.0,320.0 L1159.0,359.0 L1118.0,352.0 L1118.0,335.0 Z" fill="none" stroke="yellow" />
<path d="M1521.0,378.0 L1528.0,404.0 L1482.0,401.0 L1476.0,367.0 Z" fill="none" stroke="yellow" />
<path d="M1437.0,368.0 L1441.0,398.0 L1482.0,401.0 L1476.0,367.0 L1465.0,360.0 Z" fill="none" stroke="yellow" />
<path d="M1521.0,378.0 L1528.0,404.0 L1570.0,406.0 L1566.0,381.0 L1544.0,368.0 Z" fill="none" stroke="yellow" />
<path d="M1566.0,381.0 L1570.0,406.0 L1613.0,407.0 L1604.0,384.0 Z" fill="none" stroke="yellow" />
<path d="M1544.0,368.0 L1566.0,381.0 L1604.0,384.0 L1616.0,374.0 L1615.0,359.0 L1543.0,348.0 Z" fill="none" stroke="yellow" />
<path d="M1604.0,384.0 L1613.0,407.0 L1658.0,405.0 L1657.0,395.0 L1616.0,374.0 Z" fill="none" stroke="yellow" />
<path d="M1684.0,387.0 L1700.0,405.0 L1658.0,405.0 L1657.0,395.0 Z" fill="none" stroke="yellow" />
<path d="M1521.0,378.0 L1544.0,368.0 L1543.0,348.0 L1463.0,335.0 L1465.0,360.0 L1476.0,367.0 Z" fill="none" stroke="yellow" />
<path d="M1684.0,387.0 L1700.0,405.0 L1736.0,402.0 L1732.0,378.0 L1684.0,370.0 Z" fill="none" stroke="yellow" />
<path d="M1692.0,335.0 L1684.0,370.0 L1732.0,378.0 L1742.0,377.0 L1750.0,350.0 Z" fill="none" stroke="yellow" />
<path d="M1812.0,364.0 L1830.0,388.0 L1797.0,395.0 L1785.0,360.0 Z" fill="none" stroke="yellow" />
<path d="M1812.0,364.0 L1825.0,353.0 L1864.0,381.0 L1830.0,388.0 Z" fill="none" stroke="yellow" />
<path d="M1742.0,377.0 L1750.0,350.0 L1763.0,350.0 L1785.0,360.0 L1797.0,395.0 L1779.0,397.0 Z" fill="none" stroke="yellow" />
<path d="M1825.0,353.0 L1864.0,381.0 L1875.0,378.0 L1872.0,342.0 L1827.0,330.0 Z" fill="none" stroke="yellow" />
<path d="M1948.0,202.0 L1915.0,216.0 L1893.0,205.0 L1886.0,194.0 L1922.0,172.0 Z" fill="none" stroke="yellow" />
<path d="M1872.0,342.0 L1875.0,378.0 L1918.0,362.0 L1883.0,342.0 Z" fill="none" stroke="yellow" />
<path d="M1812.0,364.0 L1825.0,353.0 L1827.0,330.0 L1769.0,313.0 L1763.0,350.0 L1785.0,360.0 Z" fill="none" stroke="yellow" />
<path d="M1942.0,350.0 L1923.0,328.0 L1895.0,314.0 L1883.0,342.0 L1918.0,362.0 Z" fill="none" stroke="yellow" />
<path d="M1813.0,206.0 L1844.0,175.0 L1831.0,145.0 L1782.0,129.0 L1750.0,169.0 L1756.0,177.0 Z" fill="none" stroke="yellow" />
<path d="M1911.0,268.0 L1951.0,296.0 L1948.0,320.0 L1923.0,328.0 L1895.0,314.0 Z" fill="none" stroke="yellow" />
<path d="M1911.0,268.0 L1951.0,296.0 L1966.0,276.0 L1951.0,253.0 L1938.0,242.0 Z" fill="none" stroke="yellow" />
</svg>