<?xml version="1.0" encoding="UTF-8"?>
<svg xmlns="http://www.w3.org/2000/svg" xmlns:xlink="http://www.w3.org/1999/xlink"
     width="3000" height="1000" viewBox="0 0 3000 1000">
<defs>
</defs>
<path d="M2887,378 L2902,371 L2890,355 L2878,374 Z" fill="none" stroke="yellow" />
<path d="M2890,355 L2864,360 L2878,374 Z" fill="none" stroke="yellow" />
<path d="M2890,355 L2864,360 L2853,345 L2869,333 Z" fill="none" stroke="yellow" />
<path d="M2892,497 L2878,473 L2902,476 L2906,495 Z" fill="none" stroke="yellow" />
<path d="M2798,396 L2819,369 L2794,351 L2772,379 Z" fill="none" stroke="yellow" />
<path d="M2833,333 L2821,327 L2794,351 L2819,369 Z" fill="none" stroke="yellow" />
<path d="M2833,333 L2853,317 L2869,333 L2853,345 Z" fill="none" stroke="yellow" />
<path d="M2833,333 L2819,369 L2835,379 L2864,360 L2853,345 Z" fill="none" stroke="yellow" />
<path d="M2450,451 L2479,469 L2502,426 L2472,412 Z" fill="none" stroke="yellow" />
<path d="M2525,422 L2502,426 L2479,469 L2513,489 L2541,442 Z" fill="none" stroke="yellow" />
<path d="M2477,530 L2454,516 L2479,469 L2513,489 L2489,532 Z" fill="none" stroke="yellow" />
<path d="M2274,169 L2225,169 L2218,199 L2273,200 Z" fill="none" stroke="yellow" />
<path d="M2133,257 L2136,201 L2218,199 L2201,251 Z" fill="none" stroke="yellow" />
<path d="M1661,968 L1665,1010 L1714,1002 L1699,956 Z" fill="none" stroke="yellow" />
<path d="M1714,1002 L1751,989 L1737,953 L1699,956 Z" fill="none" stroke="yellow" />
<path d="M2935,445 L2936,456 L2912,459 L2904,448 L2915,441 Z" fill="none" stroke="yellow" />
<path d="M2932,489 L2937,469 L2914,467 Z" fill="none" stroke="yellow" />
<path d="M2936,456 L2937,469 L2914,467 L2912,459 Z" fill="none" stroke="yellow" />
<path d="M2932,489 L2914,467 L2902,476 L2906,495 L2921,513 Z" fill="none" stroke="yellow" />
<path d="M2887,378 L2897,394 L2874,394 L2878,374 Z" fill="none" stroke="yellow" />
<path d="M2850,429 L2861,443 L2884,430 L2865,414 Z" fill="none" stroke="yellow" />
<path d="M2850,429 L2827,419 L2826,444 L2842,463 L2866,467 L2861,443 Z" fill="none" stroke="yellow" />
<path d="M2850,429 L2827,419 L2842,393 L2859,401 L2865,414 Z" fill="none" stroke="yellow" />
<path d="M2859,401 L2842,393 L2835,379 L2864,360 L2878,374 L2874,394 Z" fill="none" stroke="yellow" />
<path d="M2758,541 L2747,515 L2768,504 L2778,517 L2776,536 Z" fill="none" stroke="yellow" />
<path d="M2718,569 L2737,555 L2715,525 L2699,539 Z" fill="none" stroke="yellow" />
<path d="M2746,361 L2772,379 L2751,403 L2729,397 L2727,359 Z" fill="none" stroke="yellow" />
<path d="M2653,241 L2686,252 L2692,260 L2676,294 L2634,284 Z" fill="none" stroke="yellow" />
<path d="M2676,567 L2656,590 L2677,605 L2699,585 Z" fill="none" stroke="yellow" />
<path d="M2610,559 L2586,590 L2606,609 L2632,572 Z" fill="none" stroke="yellow" />
<path d="M2582,233 L2653,241 L2634,284 L2590,279 L2572,273 Z" fill="none" stroke="yellow" />
<path d="M2645,608 L2618,617 L2606,609 L2632,572 L2656,590 Z" fill="none" stroke="yellow" />
<path d="M2513,489 L2489,532 L2525,553 L2551,517 L2542,505 Z" fill="none" stroke="yellow" />
<path d="M2558,273 L2572,273 L2590,279 L2595,348 L2556,340 Z" fill="none" stroke="yellow" />
<path d="M2419,501 L2438,450 L2411,433 L2401,432 L2384,491 Z" fill="none" stroke="yellow" />
<path d="M2337,476 L2384,491 L2401,432 L2360,413 Z" fill="none" stroke="yellow" />
<path d="M1412,631 L1346,613 L1363,532 L1450,572 Z" fill="none" stroke="yellow" />
<path d="M1296,1045 L1286,1000 L1326,979 L1353,1043 Z" fill="none" stroke="yellow" />
<path d="M1363,532 L1272,497 L1273,581 L1319,624 L1346,613 Z" fill="none" stroke="yellow" />
<path d="M2866,467 L2878,473 L2893,443 L2884,430 L2861,443 Z" fill="none" stroke="yellow" />
<path d="M2798,396 L2819,369 L2835,379 L2842,393 L2827,419 L2801,406 Z" fill="none" stroke="yellow" />
<path d="M2746,361 L2772,379 L2794,351 L2776,335 L2759,331 Z" fill="none" stroke="yellow" />
<path d="M2718,569 L2737,555 L2756,582 L2756,596 L2738,598 Z" fill="none" stroke="yellow" />
<path d="M2771,579 L2773,564 L2758,541 L2737,555 L2756,582 Z" fill="none" stroke="yellow" />
<path d="M2758,541 L2747,515 L2737,510 L2715,525 L2737,555 Z" fill="none" stroke="yellow" />
<path d="M2747,515 L2768,504 L2750,480 L2732,484 L2737,510 Z" fill="none" stroke="yellow" />
<path d="M2676,567 L2656,590 L2632,572 L2647,548 L2675,557 Z" fill="none" stroke="yellow" />
<path d="M2677,605 L2699,585 L2714,609 L2687,619 Z" fill="none" stroke="yellow" />
<path d="M2745,636 L2727,643 L2714,609 L2732,611 Z" fill="none" stroke="yellow" />
<path d="M2712,648 L2727,643 L2714,609 L2687,619 Z" fill="none" stroke="yellow" />
<path d="M2640,328 L2634,284 L2676,294 L2677,334 L2663,338 Z" fill="none" stroke="yellow" />
<path d="M2375,535 L2384,491 L2419,501 L2435,512 L2412,555 Z" fill="none" stroke="yellow" />
<path d="M2337,476 L2301,464 L2315,399 L2360,413 Z" fill="none" stroke="yellow" />
<path d="M2273,200 L2218,199 L2201,251 L2267,250 L2298,204 Z" fill="none" stroke="yellow" />
<path d="M2133,257 L2142,320 L2190,324 L2208,312 L2201,251 Z" fill="none" stroke="yellow" />
<path d="M1800,660 L1855,693 L1835,724 L1790,717 Z" fill="none" stroke="yellow" />
<path d="M1209,412 L1188,469 L1115,451 L1135,394 Z" fill="none" stroke="yellow" />
<path d="M582,546 L710,494 L728,567 L713,570 Z" fill="none" stroke="yellow" />
<path d="M232,198 L138,175 L126,208 L382,254 L376,210 Z" fill="none" stroke="yellow" />
<path d="M232,198 L138,175 L133,167 L161,120 L385,116 L376,210 Z" fill="none" stroke="yellow" />
<path d="M385,116 L376,210 L516,218 L521,127 Z" fill="none" stroke="yellow" />
<path d="M2901,402 L2897,394 L2912,386 L2922,404 Z" fill="none" stroke="yellow" />
<path d="M2887,378 L2902,371 L2912,386 L2897,394 Z" fill="none" stroke="yellow" />
<path d="M2859,401 L2865,414 L2884,430 L2902,420 L2901,402 L2897,394 L2874,394 Z" fill="none" stroke="yellow" />
<path d="M2714,609 L2699,585 L2718,569 L2738,598 L2732,611 Z" fill="none" stroke="yellow" />
<path d="M2676,397 L2684,398 L2707,416 L2685,443 L2656,427 Z" fill="none" stroke="yellow" />
<path d="M2640,328 L2607,357 L2595,348 L2590,279 L2634,284 Z" fill="none" stroke="yellow" />
<path d="M2557,389 L2529,400 L2509,375 L2521,332 L2556,340 Z" fill="none" stroke="yellow" />
<path d="M2518,268 L2558,273 L2556,340 L2521,332 L2523,310 Z" fill="none" stroke="yellow" />
<path d="M2348,172 L2678,220 L2653,241 L2582,233 L2515,224 L2429,216 L2333,201 Z" fill="none" stroke="yellow" />
<path d="M2515,224 L2429,216 L2419,262 L2469,266 L2505,265 Z" fill="none" stroke="yellow" />
<path d="M2479,327 L2469,266 L2505,265 L2518,268 L2523,310 L2521,332 Z" fill="none" stroke="yellow" />
<path d="M2419,262 L2427,326 L2466,332 L2479,327 L2469,266 Z" fill="none" stroke="yellow" />
<path d="M1479,499 L1514,406 L1422,392 L1384,460 L1399,471 Z" fill="none" stroke="yellow" />
<path d="M1000,634 L1032,560 L997,530 L951,533 L932,608 Z" fill="none" stroke="yellow" />
<path d="M1001,228 L857,227 L854,162 L1002,177 Z" fill="none" stroke="yellow" />
<path d="M747,227 L750,265 L862,268 L857,227 Z" fill="none" stroke="yellow" />
<path d="M1021,229 L1001,228 L1002,177 L1139,190 L1134,232 Z" fill="none" stroke="yellow" />
<path d="M198,490 L162,506 L67,313 L193,347 Z" fill="none" stroke="yellow" />
<path d="M457,497 L414,439 L357,408 L301,393 L288,508 L355,530 L450,518 Z" fill="none" stroke="yellow" />
<path d="M198,490 L273,542 L271,621 L248,681 L162,506 Z" fill="none" stroke="yellow" />
<path d="M198,490 L273,542 L288,508 L301,393 L193,347 Z" fill="none" stroke="yellow" />
<path d="M224,806 L270,849 L316,796 L316,745 Z" fill="none" stroke="yellow" />
<path d="M382,835 L409,810 L412,729 L322,734 L316,745 L316,796 Z" fill="none" stroke="yellow" />
<path d="M362,896 L382,835 L316,796 L270,849 Z" fill="none" stroke="yellow" />
<path d="M450,584 L431,638 L369,611 L355,530 L450,518 Z" fill="none" stroke="yellow" />
<path d="M466,843 L490,836 L511,753 L488,714 L427,701 L412,729 L409,810 Z" fill="none" stroke="yellow" />
<path d="M561,401 L577,404 L582,546 L574,550 L457,497 L414,439 Z" fill="none" stroke="yellow" />
<path d="M561,401 L462,381 L373,363 L357,408 L414,439 Z" fill="none" stroke="yellow" />
<path d="M531,642 L450,584 L431,638 L427,701 L488,714 Z" fill="none" stroke="yellow" />
<path d="M328,646 L369,611 L355,530 L288,508 L273,542 L271,621 Z" fill="none" stroke="yellow" />
<path d="M462,381 L467,336 L748,354 L847,397 L841,403 L577,404 L561,401 Z" fill="none" stroke="yellow" />
<path d="M362,896 L382,835 L409,810 L466,843 L444,925 Z" fill="none" stroke="yellow" />
<path d="M450,584 L531,642 L591,668 L626,626 L574,550 L457,497 L450,518 Z" fill="none" stroke="yellow" />
<path d="M462,314 L467,336 L748,354 L753,318 Z" fill="none" stroke="yellow" />
<path d="M528,221 L611,223 L645,225 L645,265 L522,266 Z" fill="none" stroke="yellow" />
<path d="M979,340 L876,329 L753,318 L748,354 L847,397 L931,411 L998,421 L1024,366 Z" fill="none" stroke="yellow" />
<path d="M444,925 L466,843 L490,836 L527,879 L515,949 Z" fill="none" stroke="yellow" />
<path d="M593,819 L581,760 L511,753 L490,836 L527,879 L587,876 Z" fill="none" stroke="yellow" />
<path d="M621,137 L611,223 L528,221 L516,218 L521,127 Z" fill="none" stroke="yellow" />
<path d="M728,150 L621,137 L611,223 L645,225 L725,225 Z" fill="none" stroke="yellow" />
<path d="M747,227 L750,265 L645,265 L645,225 L725,225 Z" fill="none" stroke="yellow" />
<path d="M587,876 L598,912 L589,971 L515,949 L527,879 Z" fill="none" stroke="yellow" />
<path d="M655,922 L680,907 L683,846 L658,811 L593,819 L587,876 L598,912 Z" fill="none" stroke="yellow" />
<path d="M452,268 L382,254 L376,210 L516,218 L528,221 L522,266 Z" fill="none" stroke="yellow" />
<path d="M531,642 L488,714 L511,753 L581,760 L589,716 L591,668 Z" fill="none" stroke="yellow" />
<path d="M665,732 L675,727 L675,642 L626,626 L591,668 L589,716 Z" fill="none" stroke="yellow" />
<path d="M812,439 L883,505 L906,506 L931,411 L847,397 L841,403 Z" fill="none" stroke="yellow" />
<path d="M658,811 L665,732 L589,716 L581,760 L593,819 Z" fill="none" stroke="yellow" />
<path d="M655,922 L656,989 L589,971 L598,912 Z" fill="none" stroke="yellow" />
<path d="M452,268 L462,314 L753,318 L876,329 L881,270 L862,268 L750,265 L645,265 L522,266 Z" fill="none" stroke="yellow" />
<path d="M747,227 L857,227 L854,162 L728,150 L725,225 Z" fill="none" stroke="yellow" />
<path d="M743,740 L675,727 L675,642 L709,646 L751,660 Z" fill="none" stroke="yellow" />
<path d="M574,550 L582,546 L713,570 L709,646 L675,642 L626,626 Z" fill="none" stroke="yellow" />
<path d="M744,842 L683,846 L680,907 L722,951 L766,939 L762,879 Z" fill="none" stroke="yellow" />
<path d="M655,922 L656,989 L716,1003 L722,951 L680,907 Z" fill="none" stroke="yellow" />
<path d="M412,729 L322,734 L324,724 L328,646 L369,611 L431,638 L427,701 Z" fill="none" stroke="yellow" />
<path d="M744,842 L748,750 L801,762 L834,844 L826,866 L762,879 Z" fill="none" stroke="yellow" />
<path d="M812,439 L841,403 L577,404 L582,546 L710,494 L763,469 Z" fill="none" stroke="yellow" />
<path d="M710,494 L763,469 L784,569 L728,567 Z" fill="none" stroke="yellow" />
<path d="M826,866 L762,879 L766,939 L778,957 L832,957 L852,935 Z" fill="none" stroke="yellow" />
<path d="M778,1016 L778,957 L766,939 L722,951 L716,1003 Z" fill="none" stroke="yellow" />
<path d="M819,577 L852,580 L932,608 L904,684 L835,674 L808,664 Z" fill="none" stroke="yellow" />
<path d="M819,577 L784,569 L728,567 L713,570 L709,646 L751,660 L808,664 Z" fill="none" stroke="yellow" />
<path d="M881,270 L1027,275 L1029,324 L979,340 L876,329 Z" fill="none" stroke="yellow" />
<path d="M658,811 L665,732 L675,727 L743,740 L748,750 L744,842 L683,846 Z" fill="none" stroke="yellow" />
<path d="M812,439 L883,505 L852,580 L819,577 L784,569 L763,469 Z" fill="none" stroke="yellow" />
<path d="M832,957 L838,1027 L893,1035 L898,996 L871,939 L852,935 Z" fill="none" stroke="yellow" />
<path d="M832,957 L838,1027 L778,1016 L778,957 Z" fill="none" stroke="yellow" />
<path d="M882,777 L840,740 L835,674 L904,684 L933,703 L916,767 Z" fill="none" stroke="yellow" />
<path d="M883,505 L906,506 L951,533 L932,608 L852,580 Z" fill="none" stroke="yellow" />
<path d="M882,777 L886,836 L834,844 L801,762 L840,740 Z" fill="none" stroke="yellow" />
<path d="M1024,431 L997,530 L951,533 L906,506 L931,411 L998,421 Z" fill="none" stroke="yellow" />
<path d="M244,335 L373,363 L357,408 L301,393 L193,347 L67,313 L64,305 L94,265 L166,307 Z" fill="none" stroke="yellow" />
<path d="M871,939 L898,996 L947,983 L941,934 L921,911 Z" fill="none" stroke="yellow" />
<path d="M826,866 L834,844 L886,836 L913,866 L921,911 L871,939 L852,935 Z" fill="none" stroke="yellow" />
<path d="M1016,761 L966,798 L916,767 L933,703 L981,718 Z" fill="none" stroke="yellow" />
<path d="M957,996 L1004,993 L1017,980 L1001,918 L941,934 L947,983 Z" fill="none" stroke="yellow" />
<path d="M957,996 L961,1047 L893,1035 L898,996 L947,983 Z" fill="none" stroke="yellow" />
<path d="M882,777 L886,836 L913,866 L970,837 L966,798 L916,767 Z" fill="none" stroke="yellow" />
<path d="M1089,378 L1024,366 L998,421 L1024,431 L1115,451 L1135,394 Z" fill="none" stroke="yellow" />
<path d="M1016,761 L981,718 L1026,657 L1060,673 L1100,714 L1027,764 Z" fill="none" stroke="yellow" />
<path d="M1026,657 L981,718 L933,703 L904,684 L932,608 L1000,634 Z" fill="none" stroke="yellow" />
<path d="M1086,556 L1115,451 L1024,431 L997,530 L1032,560 Z" fill="none" stroke="yellow" />
<path d="M1017,980 L1056,994 L1062,1047 L1015,1047 L1004,993 Z" fill="none" stroke="yellow" />
<path d="M957,996 L961,1047 L1015,1047 L1004,993 Z" fill="none" stroke="yellow" />
<path d="M1097,904 L1067,843 L1006,860 L1009,907 L1063,923 Z" fill="none" stroke="yellow" />
<path d="M1089,378 L1024,366 L979,340 L1029,324 L1098,323 L1111,341 Z" fill="none" stroke="yellow" />
<path d="M881,270 L1027,275 L1021,229 L1001,228 L857,227 L862,268 Z" fill="none" stroke="yellow" />
<path d="M1142,983 L1109,993 L1077,978 L1063,923 L1097,904 L1113,914 Z" fill="none" stroke="yellow" />
<path d="M1056,994 L1062,1047 L1116,1047 L1109,993 L1077,978 Z" fill="none" stroke="yellow" />
<path d="M1150,762 L1109,815 L1067,826 L1027,764 L1100,714 L1121,725 Z" fill="none" stroke="yellow" />
<path d="M1017,980 L1056,994 L1077,978 L1063,923 L1009,907 L1001,918 Z" fill="none" stroke="yellow" />
<path d="M1140,281 L1147,235 L1134,232 L1021,229 L1027,275 Z" fill="none" stroke="yellow" />
<path d="M1060,673 L1100,714 L1121,725 L1168,674 L1122,625 Z" fill="none" stroke="yellow" />
<path d="M1098,323 L1223,327 L1248,332 L1245,359 L1111,341 Z" fill="none" stroke="yellow" />
<path d="M1086,556 L1124,588 L1122,625 L1060,673 L1026,657 L1000,634 L1032,560 Z" fill="none" stroke="yellow" />
<path d="M1142,983 L1151,989 L1172,1052 L1116,1047 L1109,993 Z" fill="none" stroke="yellow" />
<path d="M1086,556 L1124,588 L1188,568 L1196,475 L1188,469 L1115,451 Z" fill="none" stroke="yellow" />
<path d="M1142,983 L1151,989 L1182,977 L1188,918 L1152,892 L1113,914 Z" fill="none" stroke="yellow" />
<path d="M1140,281 L1227,289 L1223,327 L1098,323 L1029,324 L1027,275 Z" fill="none" stroke="yellow" />
<path d="M1150,762 L1176,778 L1217,743 L1193,679 L1168,674 L1121,725 Z" fill="none" stroke="yellow" />
<path d="M835,674 L840,740 L801,762 L748,750 L743,740 L751,660 L808,664 Z" fill="none" stroke="yellow" />
<path d="M1097,904 L1113,914 L1152,892 L1157,853 L1109,815 L1067,826 L1067,843 Z" fill="none" stroke="yellow" />
<path d="M1309,374 L1319,373 L1397,385 L1403,344 L1248,332 L1245,359 Z" fill="none" stroke="yellow" />
<path d="M1204,993 L1215,1047 L1172,1052 L1151,989 L1182,977 Z" fill="none" stroke="yellow" />
<path d="M1272,497 L1273,581 L1225,597 L1188,568 L1196,475 Z" fill="none" stroke="yellow" />
<path d="M1140,281 L1147,235 L1256,244 L1246,289 L1227,289 Z" fill="none" stroke="yellow" />
<path d="M1256,244 L1265,244 L1401,261 L1405,301 L1246,289 Z" fill="none" stroke="yellow" />
<path d="M1150,762 L1109,815 L1157,853 L1209,827 L1176,778 Z" fill="none" stroke="yellow" />
<path d="M970,837 L1006,860 L1009,907 L1001,918 L941,934 L921,911 L913,866 Z" fill="none" stroke="yellow" />
<path d="M1217,743 L1274,753 L1283,739 L1278,685 L1234,653 L1193,679 Z" fill="none" stroke="yellow" />
<path d="M1204,993 L1215,1047 L1253,1045 L1238,994 Z" fill="none" stroke="yellow" />
<path d="M1319,624 L1273,581 L1225,597 L1234,653 L1278,685 L1326,668 Z" fill="none" stroke="yellow" />
<path d="M1296,1045 L1253,1045 L1238,994 L1254,980 L1286,1000 Z" fill="none" stroke="yellow" />
<path d="M1250,953 L1254,980 L1286,1000 L1326,979 L1304,936 L1288,925 Z" fill="none" stroke="yellow" />
<path d="M1250,953 L1206,917 L1247,872 L1268,887 L1288,925 Z" fill="none" stroke="yellow" />
<path d="M1317,825 L1326,858 L1268,887 L1247,872 L1227,838 L1284,802 Z" fill="none" stroke="yellow" />
<path d="M1301,434 L1278,493 L1272,497 L1196,475 L1188,469 L1209,412 L1287,427 Z" fill="none" stroke="yellow" />
<path d="M1089,378 L1111,341 L1245,359 L1309,374 L1287,427 L1209,412 L1135,394 Z" fill="none" stroke="yellow" />
<path d="M224,806 L225,762 L248,681 L271,621 L328,646 L324,724 L322,734 L316,745 Z" fill="none" stroke="yellow" />
<path d="M1209,827 L1176,778 L1217,743 L1274,753 L1284,802 L1227,838 Z" fill="none" stroke="yellow" />
<path d="M1369,706 L1326,668 L1278,685 L1283,739 L1341,748 Z" fill="none" stroke="yellow" />
<path d="M1304,936 L1356,916 L1350,880 L1326,858 L1268,887 L1288,925 Z" fill="none" stroke="yellow" />
<path d="M1422,392 L1514,406 L1518,364 L1489,343 L1442,341 L1403,344 L1397,385 Z" fill="none" stroke="yellow" />
<path d="M1418,221 L1272,202 L1265,244 L1401,261 Z" fill="none" stroke="yellow" />
<path d="M1147,235 L1256,244 L1265,244 L1272,202 L1139,190 L1134,232 Z" fill="none" stroke="yellow" />
<path d="M1206,917 L1247,872 L1227,838 L1209,827 L1157,853 L1152,892 L1188,918 Z" fill="none" stroke="yellow" />
<path d="M1412,631 L1429,676 L1395,713 L1369,706 L1326,668 L1319,624 L1346,613 Z" fill="none" stroke="yellow" />
<path d="M1363,532 L1272,497 L1278,493 L1301,434 L1384,460 L1399,471 Z" fill="none" stroke="yellow" />
<path d="M1369,706 L1395,713 L1424,759 L1384,794 L1357,788 L1341,748 Z" fill="none" stroke="yellow" />
<path d="M1317,825 L1284,802 L1274,753 L1283,739 L1341,748 L1357,788 Z" fill="none" stroke="yellow" />
<path d="M1406,859 L1434,904 L1425,922 L1372,934 L1356,916 L1350,880 Z" fill="none" stroke="yellow" />
<path d="M1372,934 L1378,972 L1326,979 L1304,936 L1356,916 Z" fill="none" stroke="yellow" />
<path d="M1301,434 L1384,460 L1422,392 L1397,385 L1319,373 L1309,374 L1287,427 Z" fill="none" stroke="yellow" />
<path d="M1380,1046 L1384,984 L1398,993 L1411,1046 Z" fill="none" stroke="yellow" />
<path d="M1413,840 L1470,822 L1446,770 L1424,759 L1384,794 Z" fill="none" stroke="yellow" />
<path d="M1469,690 L1479,743 L1446,770 L1424,759 L1395,713 L1429,676 Z" fill="none" stroke="yellow" />
<path d="M966,798 L970,837 L1006,860 L1067,843 L1067,826 L1027,764 L1016,761 Z" fill="none" stroke="yellow" />
<path d="M1204,993 L1238,994 L1254,980 L1250,953 L1206,917 L1188,918 L1182,977 Z" fill="none" stroke="yellow" />
<path d="M1431,985 L1398,993 L1411,1046 L1450,1041 Z" fill="none" stroke="yellow" />
<path d="M1476,983 L1485,1035 L1450,1041 L1431,985 L1440,970 Z" fill="none" stroke="yellow" />
<path d="M1326,979 L1378,972 L1384,984 L1380,1046 L1353,1043 Z" fill="none" stroke="yellow" />
<path d="M1419,305 L1540,284 L1546,329 L1489,343 L1442,341 Z" fill="none" stroke="yellow" />
<path d="M1419,305 L1442,341 L1403,344 L1248,332 L1223,327 L1227,289 L1246,289 L1405,301 Z" fill="none" stroke="yellow" />
<path d="M1522,762 L1524,809 L1485,832 L1470,822 L1446,770 L1479,743 Z" fill="none" stroke="yellow" />
<path d="M1606,325 L1546,329 L1540,284 L1564,275 L1626,266 L1633,320 Z" fill="none" stroke="yellow" />
<path d="M1225,597 L1234,653 L1193,679 L1168,674 L1122,625 L1124,588 L1188,568 Z" fill="none" stroke="yellow" />
<path d="M1522,988 L1525,1033 L1485,1035 L1476,983 L1495,972 Z" fill="none" stroke="yellow" />
<path d="M1606,325 L1546,329 L1489,343 L1518,364 L1601,380 Z" fill="none" stroke="yellow" />
<path d="M1469,575 L1450,572 L1363,532 L1399,471 L1479,499 L1501,515 Z" fill="none" stroke="yellow" />
<path d="M1522,988 L1495,972 L1497,936 L1532,923 L1546,936 L1554,976 Z" fill="none" stroke="yellow" />
<path d="M1561,864 L1523,889 L1498,868 L1485,832 L1524,809 L1558,826 Z" fill="none" stroke="yellow" />
<path d="M1566,626 L1580,642 L1554,704 L1494,678 L1511,605 Z" fill="none" stroke="yellow" />
<path d="M1522,762 L1524,809 L1558,826 L1602,807 L1599,786 L1553,747 Z" fill="none" stroke="yellow" />
<path d="M1522,988 L1525,1033 L1577,1032 L1568,993 L1554,976 Z" fill="none" stroke="yellow" />
<path d="M1523,889 L1532,923 L1497,936 L1465,903 L1498,868 Z" fill="none" stroke="yellow" />
<path d="M1668,515 L1597,477 L1550,532 L1601,564 L1645,580 Z" fill="none" stroke="yellow" />
<path d="M1412,631 L1429,676 L1469,690 L1494,678 L1511,605 L1469,575 L1450,572 Z" fill="none" stroke="yellow" />
<path d="M1469,575 L1511,605 L1566,626 L1601,564 L1550,532 L1501,515 Z" fill="none" stroke="yellow" />
<path d="M1606,325 L1633,320 L1703,315 L1702,383 L1616,384 L1601,380 Z" fill="none" stroke="yellow" />
<path d="M1612,721 L1626,754 L1599,786 L1553,747 L1557,712 Z" fill="none" stroke="yellow" />
<path d="M1568,993 L1554,976 L1546,936 L1582,928 L1601,971 Z" fill="none" stroke="yellow" />
<path d="M1561,864 L1596,881 L1636,856 L1628,830 L1602,807 L1558,826 Z" fill="none" stroke="yellow" />
<path d="M1613,973 L1627,1017 L1577,1032 L1568,993 L1601,971 Z" fill="none" stroke="yellow" />
<path d="M1413,840 L1384,794 L1357,788 L1317,825 L1326,858 L1350,880 L1406,859 Z" fill="none" stroke="yellow" />
<path d="M1425,922 L1440,970 L1431,985 L1398,993 L1384,984 L1378,972 L1372,934 Z" fill="none" stroke="yellow" />
<path d="M1663,759 L1626,754 L1612,721 L1645,677 L1655,677 L1698,710 Z" fill="none" stroke="yellow" />
<path d="M1612,721 L1645,677 L1580,642 L1554,704 L1557,712 Z" fill="none" stroke="yellow" />
<path d="M1663,876 L1671,908 L1641,920 L1600,900 L1596,881 L1636,856 Z" fill="none" stroke="yellow" />
<path d="M1564,275 L1626,266 L1678,254 L1673,201 L1550,208 Z" fill="none" stroke="yellow" />
<path d="M1703,315 L1633,320 L1626,266 L1678,254 L1740,246 L1744,309 Z" fill="none" stroke="yellow" />
<path d="M1661,968 L1665,1010 L1627,1017 L1613,973 L1639,956 Z" fill="none" stroke="yellow" />
<path d="M1616,384 L1635,415 L1595,416 L1514,406 L1518,364 L1601,380 Z" fill="none" stroke="yellow" />
<path d="M1663,876 L1636,856 L1628,830 L1668,808 L1697,832 L1695,858 Z" fill="none" stroke="yellow" />
<path d="M1479,499 L1514,406 L1595,416 L1597,477 L1550,532 L1501,515 Z" fill="none" stroke="yellow" />
<path d="M1661,968 L1699,956 L1689,922 L1671,908 L1641,920 L1639,956 Z" fill="none" stroke="yellow" />
<path d="M1613,973 L1639,956 L1641,920 L1600,900 L1582,928 L1601,971 Z" fill="none" stroke="yellow" />
<path d="M1425,922 L1434,904 L1465,903 L1497,936 L1495,972 L1476,983 L1440,970 Z" fill="none" stroke="yellow" />
<path d="M1702,383 L1703,315 L1744,309 L1787,307 L1789,381 L1742,385 Z" fill="none" stroke="yellow" />
<path d="M1668,808 L1675,779 L1728,780 L1733,817 L1697,832 Z" fill="none" stroke="yellow" />
<path d="M1700,503 L1668,515 L1597,477 L1595,416 L1635,415 L1697,422 Z" fill="none" stroke="yellow" />
<path d="M1663,876 L1671,908 L1689,922 L1726,901 L1728,882 L1695,858 Z" fill="none" stroke="yellow" />
<path d="M1750,639 L1718,617 L1691,610 L1655,677 L1698,710 L1721,717 Z" fill="none" stroke="yellow" />
<path d="M1522,762 L1553,747 L1557,712 L1554,704 L1494,678 L1469,690 L1479,743 Z" fill="none" stroke="yellow" />
<path d="M1663,759 L1675,779 L1728,780 L1753,747 L1721,717 L1698,710 Z" fill="none" stroke="yellow" />
<path d="M1747,826 L1754,868 L1728,882 L1695,858 L1697,832 L1733,817 Z" fill="none" stroke="yellow" />
<path d="M1626,754 L1663,759 L1675,779 L1668,808 L1628,830 L1602,807 L1599,786 Z" fill="none" stroke="yellow" />
<path d="M1795,235 L1796,195 L1673,201 L1678,254 L1740,246 Z" fill="none" stroke="yellow" />
<path d="M1795,235 L1850,230 L1852,297 L1787,307 L1744,309 L1740,246 Z" fill="none" stroke="yellow" />
<path d="M1523,889 L1532,923 L1546,936 L1582,928 L1600,900 L1596,881 L1561,864 Z" fill="none" stroke="yellow" />
<path d="M1737,953 L1747,929 L1726,901 L1689,922 L1699,956 Z" fill="none" stroke="yellow" />
<path d="M1702,383 L1616,384 L1635,415 L1697,422 L1742,423 L1742,385 Z" fill="none" stroke="yellow" />
<path d="M1750,639 L1800,660 L1790,717 L1766,750 L1753,747 L1721,717 Z" fill="none" stroke="yellow" />
<path d="M1793,499 L1834,515 L1844,559 L1828,582 L1756,564 L1746,521 Z" fill="none" stroke="yellow" />
<path d="M1750,639 L1718,617 L1756,564 L1828,582 L1835,613 L1800,660 Z" fill="none" stroke="yellow" />
<path d="M1645,580 L1691,610 L1655,677 L1645,677 L1580,642 L1566,626 L1601,564 Z" fill="none" stroke="yellow" />
<path d="M1747,826 L1754,868 L1776,879 L1799,854 L1783,818 Z" fill="none" stroke="yellow" />
<path d="M1838,381 L1865,377 L1869,297 L1852,297 L1787,307 L1789,381 Z" fill="none" stroke="yellow" />
<path d="M1793,499 L1783,427 L1742,423 L1697,422 L1700,503 L1746,521 Z" fill="none" stroke="yellow" />
<path d="M1747,929 L1772,934 L1785,979 L1751,989 L1737,953 Z" fill="none" stroke="yellow" />
<path d="M1766,750 L1807,788 L1821,791 L1845,751 L1835,724 L1790,717 Z" fill="none" stroke="yellow" />
<path d="M1793,918 L1806,924 L1826,913 L1831,871 L1827,858 L1799,854 L1776,879 Z" fill="none" stroke="yellow" />
<path d="M1413,840 L1470,822 L1485,832 L1498,868 L1465,903 L1434,904 L1406,859 Z" fill="none" stroke="yellow" />
<path d="M1838,381 L1841,426 L1783,427 L1742,423 L1742,385 L1789,381 Z" fill="none" stroke="yellow" />
<path d="M1793,918 L1806,924 L1826,969 L1785,979 L1772,934 Z" fill="none" stroke="yellow" />
<path d="M1418,221 L1550,208 L1564,275 L1540,284 L1419,305 L1405,301 L1401,261 Z" fill="none" stroke="yellow" />
<path d="M1886,760 L1918,732 L1864,693 L1855,693 L1835,724 L1845,751 Z" fill="none" stroke="yellow" />
<path d="M1883,494 L1930,526 L1933,539 L1907,566 L1844,559 L1834,515 Z" fill="none" stroke="yellow" />
<path d="M1843,920 L1855,957 L1826,969 L1806,924 L1826,913 Z" fill="none" stroke="yellow" />
<path d="M1921,218 L1850,230 L1795,235 L1796,195 L1920,186 Z" fill="none" stroke="yellow" />
<path d="M1843,920 L1826,913 L1831,871 L1874,890 L1863,913 Z" fill="none" stroke="yellow" />
<path d="M1886,760 L1889,783 L1856,818 L1821,791 L1845,751 Z" fill="none" stroke="yellow" />
<path d="M1889,783 L1856,818 L1859,827 L1889,844 L1916,801 Z" fill="none" stroke="yellow" />
<path d="M1807,788 L1766,750 L1753,747 L1728,780 L1733,817 L1747,826 L1783,818 Z" fill="none" stroke="yellow" />
<path d="M1883,948 L1855,957 L1843,920 L1863,913 Z" fill="none" stroke="yellow" />
<path d="M1793,918 L1772,934 L1747,929 L1726,901 L1728,882 L1754,868 L1776,879 Z" fill="none" stroke="yellow" />
<path d="M1859,827 L1889,844 L1897,860 L1874,890 L1831,871 L1827,858 Z" fill="none" stroke="yellow" />
<path d="M1883,494 L1864,429 L1841,426 L1783,427 L1793,499 L1834,515 Z" fill="none" stroke="yellow" />
<path d="M1800,660 L1855,693 L1864,693 L1907,652 L1903,627 L1835,613 Z" fill="none" stroke="yellow" />
<path d="M1928,374 L1937,288 L1869,297 L1865,377 L1916,377 Z" fill="none" stroke="yellow" />
<path d="M1921,606 L1970,609 L1988,573 L1933,539 L1907,566 Z" fill="none" stroke="yellow" />
<path d="M1883,948 L1909,940 L1904,912 L1874,890 L1863,913 Z" fill="none" stroke="yellow" />
<path d="M1889,844 L1897,860 L1916,869 L1949,827 L1934,800 L1916,801 Z" fill="none" stroke="yellow" />
<path d="M1838,381 L1841,426 L1864,429 L1918,427 L1916,377 L1865,377 Z" fill="none" stroke="yellow" />
<path d="M1918,732 L1948,700 L1945,669 L1907,652 L1864,693 Z" fill="none" stroke="yellow" />
<path d="M2007,337 L1991,280 L1952,284 L1937,288 L1928,374 L1997,371 Z" fill="none" stroke="yellow" />
<path d="M1700,503 L1746,521 L1756,564 L1718,617 L1691,610 L1645,580 L1668,515 Z" fill="none" stroke="yellow" />
<path d="M1925,898 L1904,912 L1909,940 L1957,927 L1935,899 Z" fill="none" stroke="yellow" />
<path d="M1962,769 L1918,732 L1886,760 L1889,783 L1916,801 L1934,800 Z" fill="none" stroke="yellow" />
<path d="M1971,831 L1981,855 L1972,876 L1934,890 L1916,869 L1949,827 Z" fill="none" stroke="yellow" />
<path d="M2002,806 L1971,770 L1962,769 L1934,800 L1949,827 L1971,831 Z" fill="none" stroke="yellow" />
<path d="M2040,495 L2019,512 L1966,498 L1954,431 L2002,429 L2031,433 Z" fill="none" stroke="yellow" />
<path d="M1883,494 L1930,526 L1966,498 L1954,431 L1918,427 L1864,429 Z" fill="none" stroke="yellow" />
<path d="M2126,201 L2128,172 L2027,179 L2028,208 L2051,208 Z" fill="none" stroke="yellow" />
<path d="M2049,268 L2051,208 L2028,208 L1951,218 L1952,284 L1991,280 Z" fill="none" stroke="yellow" />
<path d="M1921,218 L1951,218 L2028,208 L2027,179 L1920,186 Z" fill="none" stroke="yellow" />
<path d="M1921,606 L1903,627 L1835,613 L1828,582 L1844,559 L1907,566 Z" fill="none" stroke="yellow" />
<path d="M1921,606 L1970,609 L1989,649 L1945,669 L1907,652 L1903,627 Z" fill="none" stroke="yellow" />
<path d="M2005,372 L1997,371 L2007,337 L2067,321 L2085,370 Z" fill="none" stroke="yellow" />
<path d="M1972,876 L1934,890 L1935,899 L1957,927 L1997,909 Z" fill="none" stroke="yellow" />
<path d="M2002,806 L2014,810 L2034,840 L2009,860 L1981,855 L1971,831 Z" fill="none" stroke="yellow" />
<path d="M2007,337 L1991,280 L2049,268 L2071,266 L2067,321 Z" fill="none" stroke="yellow" />
<path d="M1921,218 L1850,230 L1852,297 L1869,297 L1937,288 L1952,284 L1951,218 Z" fill="none" stroke="yellow" />
<path d="M2005,372 L2085,370 L2082,433 L2031,433 L2002,429 Z" fill="none" stroke="yellow" />
<path d="M1962,769 L1971,770 L1998,742 L1998,716 L1948,700 L1918,732 Z" fill="none" stroke="yellow" />
<path d="M2002,806 L1971,770 L1998,742 L2036,756 L2040,786 L2014,810 Z" fill="none" stroke="yellow" />
<path d="M2009,860 L1981,855 L1972,876 L1997,909 L2025,898 Z" fill="none" stroke="yellow" />
<path d="M2092,613 L2047,602 L2023,578 L2035,551 L2094,552 L2111,577 Z" fill="none" stroke="yellow" />
<path d="M2044,703 L2015,698 L1997,651 L2034,636 L2063,667 Z" fill="none" stroke="yellow" />
<path d="M2126,201 L2136,201 L2133,257 L2071,266 L2049,268 L2051,208 Z" fill="none" stroke="yellow" />
<path d="M2088,665 L2063,667 L2034,636 L2047,602 L2092,613 L2109,634 Z" fill="none" stroke="yellow" />
<path d="M2040,495 L2100,512 L2115,502 L2105,438 L2082,433 L2031,433 Z" fill="none" stroke="yellow" />
<path d="M2040,786 L2014,810 L2034,840 L2047,847 L2070,832 L2064,795 Z" fill="none" stroke="yellow" />
<path d="M1925,898 L1904,912 L1874,890 L1897,860 L1916,869 L1934,890 L1935,899 Z" fill="none" stroke="yellow" />
<path d="M2044,703 L2015,698 L1998,716 L1998,742 L2036,756 L2068,735 Z" fill="none" stroke="yellow" />
<path d="M2015,698 L1997,651 L1989,649 L1945,669 L1948,700 L1998,716 Z" fill="none" stroke="yellow" />
<path d="M2009,860 L2025,898 L2064,883 L2047,847 L2034,840 Z" fill="none" stroke="yellow" />
<path d="M2126,201 L2128,172 L2225,169 L2218,199 L2136,201 Z" fill="none" stroke="yellow" />
<path d="M452,268 L462,314 L467,336 L462,381 L373,363 L244,335 L166,307 L94,265 L117,209 L126,208 L382,254 Z" fill="none" stroke="yellow" />
<path d="M2040,495 L2019,512 L2035,551 L2094,552 L2100,512 Z" fill="none" stroke="yellow" />
<path d="M2088,838 L2070,832 L2064,795 L2099,781 L2117,812 L2117,828 Z" fill="none" stroke="yellow" />
<path d="M2092,613 L2109,634 L2143,647 L2166,613 L2147,579 L2111,577 Z" fill="none" stroke="yellow" />
<path d="M2088,665 L2109,634 L2143,647 L2156,668 L2129,701 L2110,700 Z" fill="none" stroke="yellow" />
<path d="M2088,838 L2097,879 L2129,874 L2117,828 Z" fill="none" stroke="yellow" />
<path d="M2129,701 L2140,721 L2131,756 L2098,767 L2077,736 L2110,700 Z" fill="none" stroke="yellow" />
<path d="M2088,665 L2063,667 L2044,703 L2068,735 L2077,736 L2110,700 Z" fill="none" stroke="yellow" />
<path d="M2169,444 L2175,505 L2156,523 L2115,502 L2105,438 L2151,439 Z" fill="none" stroke="yellow" />
<path d="M2161,863 L2129,874 L2117,828 L2117,812 L2143,810 Z" fill="none" stroke="yellow" />
<path d="M2088,838 L2097,879 L2064,883 L2047,847 L2070,832 Z" fill="none" stroke="yellow" />
<path d="M2082,433 L2105,438 L2151,439 L2157,374 L2116,369 L2085,370 Z" fill="none" stroke="yellow" />
<path d="M2129,701 L2140,721 L2173,727 L2196,708 L2181,680 L2156,668 Z" fill="none" stroke="yellow" />
<path d="M1970,609 L1988,573 L2023,578 L2047,602 L2034,636 L1997,651 L1989,649 Z" fill="none" stroke="yellow" />
<path d="M2166,613 L2147,579 L2171,551 L2217,570 L2221,580 L2196,615 Z" fill="none" stroke="yellow" />
<path d="M2235,534 L2217,570 L2171,551 L2156,523 L2175,505 L2218,509 Z" fill="none" stroke="yellow" />
<path d="M2158,796 L2178,807 L2186,856 L2161,863 L2143,810 Z" fill="none" stroke="yellow" />
<path d="M2131,756 L2157,775 L2158,796 L2143,810 L2117,812 L2099,781 L2098,767 Z" fill="none" stroke="yellow" />
<path d="M2215,718 L2231,750 L2204,768 L2181,760 L2173,727 L2196,708 Z" fill="none" stroke="yellow" />
<path d="M2131,756 L2140,721 L2173,727 L2181,760 L2157,775 Z" fill="none" stroke="yellow" />
<path d="M2142,320 L2190,324 L2189,373 L2157,374 L2116,369 Z" fill="none" stroke="yellow" />
<path d="M2133,257 L2071,266 L2067,321 L2085,370 L2116,369 L2142,320 Z" fill="none" stroke="yellow" />
<path d="M2235,454 L2209,446 L2169,444 L2175,505 L2218,509 Z" fill="none" stroke="yellow" />
<path d="M2202,803 L2178,807 L2186,856 L2212,847 Z" fill="none" stroke="yellow" />
<path d="M2169,444 L2209,446 L2214,379 L2189,373 L2157,374 L2151,439 Z" fill="none" stroke="yellow" />
<path d="M2235,534 L2269,535 L2284,567 L2265,598 L2221,580 L2217,570 Z" fill="none" stroke="yellow" />
<path d="M2218,648 L2244,693 L2215,718 L2196,708 L2181,680 Z" fill="none" stroke="yellow" />
<path d="M2147,579 L2171,551 L2156,523 L2115,502 L2100,512 L2094,552 L2111,577 Z" fill="none" stroke="yellow" />
<path d="M1997,371 L2005,372 L2002,429 L1954,431 L1918,427 L1916,377 L1928,374 Z" fill="none" stroke="yellow" />
<path d="M2202,803 L2209,795 L2234,804 L2238,841 L2212,847 Z" fill="none" stroke="yellow" />
<path d="M2204,768 L2209,795 L2234,804 L2259,790 L2240,753 L2231,750 Z" fill="none" stroke="yellow" />
<path d="M2267,250 L2272,318 L2257,324 L2208,312 L2201,251 Z" fill="none" stroke="yellow" />
<path d="M2273,732 L2261,697 L2244,693 L2215,718 L2231,750 L2240,753 Z" fill="none" stroke="yellow" />
<path d="M2245,380 L2257,324 L2272,318 L2317,335 L2298,391 L2271,388 Z" fill="none" stroke="yellow" />
<path d="M2279,831 L2238,841 L2234,804 L2259,790 Z" fill="none" stroke="yellow" />
<path d="M2316,571 L2284,567 L2265,598 L2268,607 L2311,626 L2329,601 Z" fill="none" stroke="yellow" />
<path d="M2274,169 L2348,172 L2333,201 L2298,204 L2273,200 Z" fill="none" stroke="yellow" />
<path d="M2273,732 L2240,753 L2259,790 L2286,781 L2291,767 L2281,734 Z" fill="none" stroke="yellow" />
<path d="M2279,831 L2259,790 L2286,781 L2307,818 Z" fill="none" stroke="yellow" />
<path d="M2315,399 L2298,391 L2271,388 L2253,454 L2280,462 L2301,464 Z" fill="none" stroke="yellow" />
<path d="M2316,571 L2284,567 L2269,535 L2281,521 L2325,524 L2337,546 Z" fill="none" stroke="yellow" />
<path d="M1966,498 L1930,526 L1933,539 L1988,573 L2023,578 L2035,551 L2019,512 Z" fill="none" stroke="yellow" />
<path d="M2311,726 L2316,702 L2289,678 L2261,697 L2273,732 L2281,734 Z" fill="none" stroke="yellow" />
<path d="M2208,312 L2257,324 L2245,380 L2214,379 L2189,373 L2190,324 Z" fill="none" stroke="yellow" />
<path d="M2337,476 L2325,524 L2281,521 L2280,462 L2301,464 Z" fill="none" stroke="yellow" />
<path d="M2261,697 L2244,693 L2218,648 L2256,635 L2289,669 L2289,678 Z" fill="none" stroke="yellow" />
<path d="M2322,646 L2289,669 L2256,635 L2268,607 L2311,626 Z" fill="none" stroke="yellow" />
<path d="M2235,454 L2253,454 L2271,388 L2245,380 L2214,379 L2209,446 Z" fill="none" stroke="yellow" />
<path d="M2267,250 L2322,257 L2332,328 L2317,335 L2272,318 Z" fill="none" stroke="yellow" />
<path d="M2419,262 L2429,216 L2333,201 L2298,204 L2267,250 L2322,257 L2374,261 Z" fill="none" stroke="yellow" />
<path d="M2313,770 L2328,809 L2307,818 L2286,781 L2291,767 Z" fill="none" stroke="yellow" />
<path d="M2040,786 L2064,795 L2099,781 L2098,767 L2077,736 L2068,735 L2036,756 Z" fill="none" stroke="yellow" />
<path d="M1799,854 L1827,858 L1859,827 L1856,818 L1821,791 L1807,788 L1783,818 Z" fill="none" stroke="yellow" />
<path d="M2351,549 L2372,583 L2357,604 L2329,601 L2316,571 L2337,546 Z" fill="none" stroke="yellow" />
<path d="M2280,462 L2281,521 L2269,535 L2235,534 L2218,509 L2235,454 L2253,454 Z" fill="none" stroke="yellow" />
<path d="M2311,726 L2281,734 L2291,767 L2313,770 L2330,753 Z" fill="none" stroke="yellow" />
<path d="M2340,756 L2356,799 L2328,809 L2313,770 L2330,753 Z" fill="none" stroke="yellow" />
<path d="M2375,535 L2351,549 L2337,546 L2325,524 L2337,476 L2384,491 Z" fill="none" stroke="yellow" />
<path d="M2378,323 L2353,333 L2332,328 L2322,257 L2374,261 Z" fill="none" stroke="yellow" />
<path d="M2345,658 L2352,673 L2333,699 L2316,702 L2289,678 L2289,669 L2322,646 Z" fill="none" stroke="yellow" />
<path d="M2340,756 L2356,799 L2377,791 L2371,752 L2361,745 Z" fill="none" stroke="yellow" />
<path d="M2408,607 L2391,634 L2368,630 L2357,604 L2372,583 L2394,587 Z" fill="none" stroke="yellow" />
<path d="M2345,658 L2322,646 L2311,626 L2329,601 L2357,604 L2368,630 Z" fill="none" stroke="yellow" />
<path d="M2413,332 L2378,323 L2353,333 L2374,381 L2411,373 Z" fill="none" stroke="yellow" />
<path d="M2340,756 L2361,745 L2361,721 L2333,699 L2316,702 L2311,726 L2330,753 Z" fill="none" stroke="yellow" />
<path d="M2375,535 L2351,549 L2372,583 L2394,587 L2412,555 Z" fill="none" stroke="yellow" />
<path d="M2384,707 L2361,721 L2333,699 L2352,673 L2374,686 Z" fill="none" stroke="yellow" />
<path d="M2413,332 L2378,323 L2374,261 L2419,262 L2427,326 Z" fill="none" stroke="yellow" />
<path d="M2377,791 L2399,784 L2392,753 L2371,752 Z" fill="none" stroke="yellow" />
<path d="M2447,637 L2436,653 L2403,653 L2391,634 L2408,607 L2429,612 Z" fill="none" stroke="yellow" />
<path d="M2418,743 L2434,773 L2399,784 L2392,753 L2409,739 Z" fill="none" stroke="yellow" />
<path d="M2353,333 L2374,381 L2360,413 L2315,399 L2298,391 L2317,335 L2332,328 Z" fill="none" stroke="yellow" />
<path d="M2426,690 L2401,672 L2403,653 L2436,653 L2444,676 Z" fill="none" stroke="yellow" />
<path d="M2444,732 L2418,743 L2409,739 L2400,718 L2427,700 L2446,720 Z" fill="none" stroke="yellow" />
<path d="M2444,732 L2418,743 L2434,773 L2462,760 Z" fill="none" stroke="yellow" />
<path d="M2426,690 L2427,700 L2400,718 L2384,707 L2374,686 L2401,672 Z" fill="none" stroke="yellow" />
<path d="M2419,501 L2435,512 L2454,516 L2479,469 L2450,451 L2438,450 Z" fill="none" stroke="yellow" />
<path d="M2450,451 L2438,450 L2411,433 L2431,388 L2460,386 L2472,412 Z" fill="none" stroke="yellow" />
<path d="M2447,637 L2465,641 L2488,665 L2468,684 L2444,676 L2436,653 Z" fill="none" stroke="yellow" />
<path d="M2394,587 L2412,555 L2435,570 L2440,596 L2429,612 L2408,607 Z" fill="none" stroke="yellow" />
<path d="M2447,637 L2429,612 L2440,596 L2472,599 L2479,620 L2465,641 Z" fill="none" stroke="yellow" />
<path d="M2444,732 L2446,720 L2468,716 L2487,748 L2462,760 Z" fill="none" stroke="yellow" />
<path d="M2202,803 L2209,795 L2204,768 L2181,760 L2157,775 L2158,796 L2178,807 Z" fill="none" stroke="yellow" />
<path d="M2479,327 L2521,332 L2509,375 L2470,373 L2466,332 Z" fill="none" stroke="yellow" />
<path d="M2515,224 L2582,233 L2572,273 L2558,273 L2518,268 L2505,265 Z" fill="none" stroke="yellow" />
<path d="M2502,426 L2525,422 L2529,400 L2509,375 L2470,373 L2460,386 L2472,412 Z" fill="none" stroke="yellow" />
<path d="M2411,433 L2431,388 L2411,373 L2374,381 L2360,413 L2401,432 Z" fill="none" stroke="yellow" />
<path d="M2479,584 L2465,562 L2435,570 L2440,596 L2472,599 Z" fill="none" stroke="yellow" />
<path d="M2477,530 L2489,532 L2525,553 L2503,585 L2479,584 L2465,562 Z" fill="none" stroke="yellow" />
<path d="M2477,530 L2454,516 L2435,512 L2412,555 L2435,570 L2465,562 Z" fill="none" stroke="yellow" />
<path d="M2474,702 L2498,707 L2509,739 L2487,748 L2468,716 Z" fill="none" stroke="yellow" />
<path d="M2361,721 L2361,745 L2371,752 L2392,753 L2409,739 L2400,718 L2384,707 Z" fill="none" stroke="yellow" />
<path d="M2479,620 L2465,641 L2488,665 L2510,646 L2504,624 Z" fill="none" stroke="yellow" />
<path d="M2345,658 L2352,673 L2374,686 L2401,672 L2403,653 L2391,634 L2368,630 Z" fill="none" stroke="yellow" />
<path d="M2515,697 L2498,707 L2509,739 L2538,728 Z" fill="none" stroke="yellow" />
<path d="M2515,606 L2503,585 L2479,584 L2472,599 L2479,620 L2504,624 Z" fill="none" stroke="yellow" />
<path d="M2504,624 L2510,646 L2526,652 L2543,646 L2545,621 L2533,605 L2515,606 Z" fill="none" stroke="yellow" />
<path d="M2474,702 L2498,707 L2515,697 L2514,689 L2488,665 L2468,684 Z" fill="none" stroke="yellow" />
<path d="M2515,697 L2538,728 L2562,716 L2549,686 L2529,680 L2514,689 Z" fill="none" stroke="yellow" />
<path d="M2557,389 L2577,396 L2587,418 L2561,446 L2541,442 L2525,422 L2529,400 Z" fill="none" stroke="yellow" />
<path d="M2551,572 L2533,605 L2515,606 L2503,585 L2525,553 Z" fill="none" stroke="yellow" />
<path d="M2526,652 L2529,680 L2514,689 L2488,665 L2510,646 Z" fill="none" stroke="yellow" />
<path d="M2556,656 L2543,646 L2545,621 L2563,619 L2578,635 L2573,653 Z" fill="none" stroke="yellow" />
<path d="M2579,687 L2558,680 L2549,686 L2562,716 L2586,705 Z" fill="none" stroke="yellow" />
<path d="M2561,446 L2570,466 L2542,505 L2513,489 L2541,442 Z" fill="none" stroke="yellow" />
<path d="M2579,687 L2586,671 L2573,653 L2556,656 L2558,680 Z" fill="none" stroke="yellow" />
<path d="M2591,634 L2606,609 L2586,590 L2577,589 L2563,619 L2578,635 Z" fill="none" stroke="yellow" />
<path d="M2610,559 L2586,590 L2577,589 L2562,574 L2584,540 L2600,546 Z" fill="none" stroke="yellow" />
<path d="M2551,572 L2562,574 L2584,540 L2570,524 L2551,517 L2525,553 Z" fill="none" stroke="yellow" />
<path d="M2586,671 L2573,653 L2578,635 L2591,634 L2606,657 L2600,671 Z" fill="none" stroke="yellow" />
<path d="M2607,357 L2633,375 L2628,408 L2602,422 L2587,418 L2577,396 Z" fill="none" stroke="yellow" />
<path d="M2557,389 L2577,396 L2607,357 L2595,348 L2556,340 Z" fill="none" stroke="yellow" />
<path d="M2579,687 L2586,671 L2600,671 L2612,694 L2586,705 Z" fill="none" stroke="yellow" />
<path d="M2556,656 L2558,680 L2549,686 L2529,680 L2526,652 L2543,646 Z" fill="none" stroke="yellow" />
<path d="M2616,450 L2592,472 L2570,466 L2561,446 L2587,418 L2602,422 Z" fill="none" stroke="yellow" />
<path d="M2551,572 L2562,574 L2577,589 L2563,619 L2545,621 L2533,605 Z" fill="none" stroke="yellow" />
<path d="M2598,491 L2592,472 L2570,466 L2542,505 L2551,517 L2570,524 Z" fill="none" stroke="yellow" />
<path d="M2616,450 L2638,455 L2648,470 L2635,496 L2616,498 L2598,491 L2592,472 Z" fill="none" stroke="yellow" />
<path d="M2640,328 L2607,357 L2633,375 L2654,379 L2663,338 Z" fill="none" stroke="yellow" />
<path d="M2612,694 L2634,687 L2628,670 L2616,657 L2606,657 L2600,671 Z" fill="none" stroke="yellow" />
<path d="M2474,702 L2468,684 L2444,676 L2426,690 L2427,700 L2446,720 L2468,716 Z" fill="none" stroke="yellow" />
<path d="M2602,422 L2616,450 L2638,455 L2656,427 L2628,408 Z" fill="none" stroke="yellow" />
<path d="M2644,533 L2617,526 L2616,498 L2635,496 L2652,516 Z" fill="none" stroke="yellow" />
<path d="M2610,559 L2632,572 L2647,548 L2644,533 L2617,526 L2600,546 Z" fill="none" stroke="yellow" />
<path d="M2628,635 L2616,657 L2606,657 L2591,634 L2606,609 L2618,617 Z" fill="none" stroke="yellow" />
<path d="M2616,657 L2628,635 L2639,639 L2653,657 L2662,675 L2634,687 L2628,670 Z" fill="none" stroke="yellow" />
<path d="M2648,470 L2635,496 L2652,516 L2668,516 L2683,496 L2673,478 Z" fill="none" stroke="yellow" />
<path d="M2644,533 L2647,548 L2675,557 L2684,539 L2668,516 L2652,516 Z" fill="none" stroke="yellow" />
<path d="M2645,608 L2654,626 L2639,639 L2628,635 L2618,617 Z" fill="none" stroke="yellow" />
<path d="M2676,397 L2654,379 L2633,375 L2628,408 L2656,427 Z" fill="none" stroke="yellow" />
<path d="M2653,657 L2672,645 L2672,631 L2654,626 L2639,639 Z" fill="none" stroke="yellow" />
<path d="M2676,397 L2684,398 L2702,348 L2677,334 L2663,338 L2654,379 Z" fill="none" stroke="yellow" />
<path d="M2653,657 L2662,675 L2689,662 L2672,645 Z" fill="none" stroke="yellow" />
<path d="M2218,648 L2256,635 L2268,607 L2265,598 L2221,580 L2196,615 L2166,613 L2143,647 L2156,668 L2181,680 Z" fill="none" stroke="yellow" />
<path d="M2645,608 L2654,626 L2672,631 L2687,619 L2677,605 L2656,590 Z" fill="none" stroke="yellow" />
<path d="M2676,567 L2699,585 L2718,569 L2699,539 L2684,539 L2675,557 Z" fill="none" stroke="yellow" />
<path d="M2716,477 L2698,500 L2683,496 L2673,478 L2689,455 L2711,463 Z" fill="none" stroke="yellow" />
<path d="M2638,455 L2648,470 L2673,478 L2689,455 L2685,443 L2656,427 Z" fill="none" stroke="yellow" />
<path d="M2683,496 L2668,516 L2684,539 L2699,539 L2715,525 L2698,500 Z" fill="none" stroke="yellow" />
<path d="M2584,540 L2570,524 L2598,491 L2616,498 L2617,526 L2600,546 Z" fill="none" stroke="yellow" />
<path d="M2712,648 L2689,662 L2672,645 L2672,631 L2687,619 Z" fill="none" stroke="yellow" />
<path d="M2707,416 L2685,443 L2689,455 L2711,463 L2732,439 Z" fill="none" stroke="yellow" />
<path d="M2716,264 L2731,275 L2748,279 L2769,258 L2732,240 Z" fill="none" stroke="yellow" />
<path d="M2746,444 L2760,461 L2750,480 L2732,484 L2716,477 L2711,463 L2732,439 Z" fill="none" stroke="yellow" />
<path d="M2716,264 L2731,275 L2716,306 L2676,294 L2692,260 Z" fill="none" stroke="yellow" />
<path d="M2716,477 L2698,500 L2715,525 L2737,510 L2732,484 Z" fill="none" stroke="yellow" />
<path d="M2714,347 L2725,314 L2747,319 L2759,331 L2746,361 L2727,359 Z" fill="none" stroke="yellow" />
<path d="M2714,347 L2727,359 L2729,397 L2707,416 L2684,398 L2702,348 Z" fill="none" stroke="yellow" />
<path d="M2714,347 L2725,314 L2716,306 L2676,294 L2677,334 L2702,348 Z" fill="none" stroke="yellow" />
<path d="M2801,278 L2784,296 L2765,292 L2748,279 L2769,258 Z" fill="none" stroke="yellow" />
<path d="M2716,264 L2732,240 L2678,220 L2653,241 L2686,252 L2692,260 Z" fill="none" stroke="yellow" />
<path d="M2746,444 L2760,421 L2782,426 L2789,445 L2775,466 L2760,461 Z" fill="none" stroke="yellow" />
<path d="M2746,444 L2732,439 L2707,416 L2729,397 L2751,403 L2760,421 Z" fill="none" stroke="yellow" />
<path d="M2745,636 L2770,626 L2756,596 L2738,598 L2732,611 Z" fill="none" stroke="yellow" />
<path d="M2775,466 L2791,487 L2768,504 L2750,480 L2760,461 Z" fill="none" stroke="yellow" />
<path d="M2798,396 L2772,379 L2751,403 L2760,421 L2782,426 L2801,406 Z" fill="none" stroke="yellow" />
<path d="M2775,466 L2789,445 L2809,452 L2814,473 L2799,489 L2791,487 Z" fill="none" stroke="yellow" />
<path d="M2747,319 L2759,331 L2776,335 L2795,309 L2784,296 L2765,292 Z" fill="none" stroke="yellow" />
<path d="M2716,306 L2725,314 L2747,319 L2765,292 L2748,279 L2731,275 Z" fill="none" stroke="yellow" />
<path d="M2800,586 L2785,591 L2793,612 L2811,602 Z" fill="none" stroke="yellow" />
<path d="M2773,564 L2758,541 L2776,536 L2792,547 L2791,563 Z" fill="none" stroke="yellow" />
<path d="M2827,419 L2826,444 L2809,452 L2789,445 L2782,426 L2801,406 Z" fill="none" stroke="yellow" />
<path d="M2821,327 L2794,351 L2776,335 L2795,309 L2813,315 Z" fill="none" stroke="yellow" />
<path d="M2798,520 L2778,517 L2776,536 L2792,547 L2802,542 Z" fill="none" stroke="yellow" />
<path d="M2825,595 L2811,602 L2800,586 L2800,574 L2816,574 Z" fill="none" stroke="yellow" />
<path d="M2771,579 L2773,564 L2791,563 L2800,574 L2800,586 L2785,591 Z" fill="none" stroke="yellow" />
<path d="M2819,510 L2811,508 L2799,489 L2814,473 L2830,478 L2835,495 Z" fill="none" stroke="yellow" />
<path d="M2798,520 L2778,517 L2768,504 L2791,487 L2799,489 L2811,508 Z" fill="none" stroke="yellow" />
<path d="M2833,333 L2853,317 L2834,301 L2813,315 L2821,327 Z" fill="none" stroke="yellow" />
<path d="M2801,278 L2784,296 L2795,309 L2813,315 L2834,301 L2814,286 Z" fill="none" stroke="yellow" />
<path d="M2826,444 L2809,452 L2814,473 L2830,478 L2842,463 Z" fill="none" stroke="yellow" />
<path d="M2820,563 L2832,566 L2842,584 L2825,595 L2816,574 Z" fill="none" stroke="yellow" />
<path d="M2820,563 L2832,566 L2850,552 L2837,530 L2829,527 L2813,546 Z" fill="none" stroke="yellow" />
<path d="M2819,510 L2829,527 L2813,546 L2802,542 L2798,520 L2811,508 Z" fill="none" stroke="yellow" />
<path d="M2866,467 L2862,495 L2848,500 L2835,495 L2830,478 L2842,463 Z" fill="none" stroke="yellow" />
<path d="M2819,510 L2829,527 L2837,530 L2851,518 L2848,500 L2835,495 Z" fill="none" stroke="yellow" />
<path d="M2861,570 L2850,552 L2832,566 L2842,584 Z" fill="none" stroke="yellow" />
<path d="M2851,518 L2837,530 L2850,552 L2871,540 L2867,523 Z" fill="none" stroke="yellow" />
<path d="M2861,570 L2850,552 L2871,540 L2886,552 Z" fill="none" stroke="yellow" />
<path d="M2851,518 L2867,523 L2875,512 L2862,495 L2848,500 Z" fill="none" stroke="yellow" />
<path d="M2903,535 L2886,512 L2875,512 L2867,523 L2871,540 L2886,552 Z" fill="none" stroke="yellow" />
<path d="M2413,332 L2427,326 L2466,332 L2470,373 L2460,386 L2431,388 L2411,373 Z" fill="none" stroke="yellow" />
<path d="M2771,579 L2785,591 L2793,612 L2770,626 L2756,596 L2756,582 Z" fill="none" stroke="yellow" />
<path d="M2800,574 L2816,574 L2820,563 L2813,546 L2802,542 L2792,547 L2791,563 Z" fill="none" stroke="yellow" />
<path d="M2866,467 L2878,473 L2892,497 L2886,512 L2875,512 L2862,495 Z" fill="none" stroke="yellow" />
<path d="M2892,497 L2906,495 L2921,513 L2903,535 L2886,512 Z" fill="none" stroke="yellow" />
<path d="M2931,426 L2935,445 L2915,441 L2914,428 Z" fill="none" stroke="yellow" />
<path d="M2931,426 L2914,428 L2902,420 L2901,402 L2922,404 Z" fill="none" stroke="yellow" />
<path d="M2878,473 L2893,443 L2904,448 L2912,459 L2914,467 L2902,476 Z" fill="none" stroke="yellow" />
<path d="M2893,443 L2884,430 L2902,420 L2914,428 L2915,441 L2904,448 Z" fill="none" stroke="yellow" />
</svg>