<?xml version="1.0" encoding="UTF-8"?>
<svg xmlns="http://www.w3.org/2000/svg" xmlns:xlink="http://www.w3.org/1999/xlink"
     width="3000" height="1000" viewBox="0 0 3000 1000">
<defs>
</defs>
<path d="M104,130 L104.0,125.0 L97,124 L97.0,130.0 L95,133 L103.0,133.0 Z" fill="none" stroke="yellow" />
<path d="M97,124 L92.0,122.0 L81.0,122.0 L80,124 L89.0,133.0 L95,133 L97.0,130.0 Z" fill="none" stroke="yellow" />
<path d="M2421,374 L2423.0,372.0 L2433.0,373.0 L2454.0,380.0 L2464,381 L2464.0,383.0 L2468.0,387.0 L2484,398 L2483.0,403.0 L2476.0,409.0 L2475.0,412.0 L2467,415 L2436.0,392.0 L2424.0,380.0 Z" fill="none" stroke="yellow" />
<path d="M2421,374 L2421.0,369.0 L2438.0,341.0 L2444,328 L2443.0,325.0 L2435.0,318.0 L2416.0,305.0 L2376.0,282.0 L2358,275 L2352.0,293.0 L2336.0,325.0 L2334.0,330.0 L2335,332 L2337.0,335.0 L2345.0,337.0 L2371.0,349.0 L2381.0,352.0 L2394.0,359.0 L2397.0,359.0 L2405.0,364.0 L2420.0,369.0 Z" fill="none" stroke="yellow" />
<path d="M2314,383 L2329.0,353.0 L2329.0,350.0 L2334.0,340.0 L2335,332 L2322.0,326.0 L2318.0,326.0 L2312.0,322.0 L2293.0,316.0 L2291.0,314.0 L2269.0,307.0 L2267.0,305.0 L2261.0,304.0 L2239.0,295.0 L2228.0,293.0 L2227,291 L2227.0,298.0 L2225.0,301.0 L2220.0,321.0 L2209.0,347.0 L2206,349 Z" fill="none" stroke="yellow" />
<path d="M2114,256 L2113.0,266.0 L2103.0,294.0 L2095.0,313.0 L2092,314 L2113.0,319.0 L2137.0,328.0 L2206,349 L2209.0,347.0 L2220.0,321.0 L2225.0,301.0 L2227.0,298.0 L2227,291 L2226.0,289.0 L2208.0,285.0 L2180.0,276.0 L2176.0,276.0 L2164.0,271.0 L2160.0,271.0 L2158.0,269.0 L2143.0,266.0 L2122.0,259.0 L2117.0,259.0 Z" fill="none" stroke="yellow" />
<path d="M2114,256 L2113.0,266.0 L2103.0,294.0 L2095.0,313.0 L2092,314 L2019.0,290.0 L1992.0,279.0 L1977.0,274.0 L1971.0,274.0 L1968,272 L1971.0,270.0 L1971.0,267.0 L1974.0,262.0 L1985.0,247.0 L1998,232 L2023.0,236.0 L2042.0,241.0 L2048.0,241.0 L2051.0,243.0 L2058.0,243.0 L2062.0,245.0 L2083.0,248.0 Z" fill="none" stroke="yellow" />
<path d="M1980,105 L1984.0,103.0 L1990.0,79.0 L1991,69 L2027.0,70.0 L2051.0,73.0 L2072.0,73.0 L2079.0,75.0 L2090.0,75.0 L2117,79 L2116.0,87.0 L2108.0,104.0 L2107,113 L2002.0,107.0 L1989.0,106.0 L1983.0,104.0 Z" fill="none" stroke="yellow" />
<path d="M1975,164 L1975.0,150.0 L1977.0,137.0 L1977.0,106.0 L1980,105 L1937.0,104.0 L1922.0,102.0 L1884.0,102.0 L1868.0,100.0 L1845,101 L1844.0,140.0 L1842.0,147.0 L1842.0,156.0 L1844,158 L1875.0,159.0 L1886.0,161.0 L1910.0,161.0 L1919.0,163.0 L1940.0,164.0 Z" fill="none" stroke="yellow" />
<path d="M1980,105 L1984.0,103.0 L1990.0,79.0 L1991,69 L1926.0,64.0 L1852,63 L1851.0,75.0 L1845,101 L1868.0,100.0 L1884.0,102.0 L1922.0,102.0 L1937.0,104.0 Z" fill="none" stroke="yellow" />
<path d="M1968,272 L1971.0,274.0 L1977.0,274.0 L1992.0,279.0 L2019.0,290.0 L2092,314 L2089.0,315.0 L2073,363 L2064.0,365.0 L2053,365 L1972.0,338.0 L1968.0,338.0 L1955.0,333.0 L1950.0,333.0 L1947.0,331.0 L1944,332 L1946.0,332.0 L1948.0,329.0 L1966.0,274.0 Z" fill="none" stroke="yellow" />
<path d="M1968,272 L1966.0,274.0 L1948.0,329.0 L1946.0,332.0 L1944,332 L1889.0,317.0 L1872.0,314.0 L1869.0,312.0 L1815,300 L1829.0,253.0 L1830.0,238.0 L1833,237 L1869.0,243.0 L1872.0,245.0 L1903.0,252.0 L1916.0,257.0 L1939.0,262.0 Z" fill="none" stroke="yellow" />
<path d="M1919,393 L1919.0,388.0 L1931.0,363.0 L1941.0,333.0 L1944,332 L1889.0,317.0 L1872.0,314.0 L1869.0,312.0 L1815,300 L1810.0,318.0 L1793.0,355.0 L1793.0,358.0 L1791.0,360.0 L1792,361 L1795.0,363.0 L1804.0,364.0 L1826.0,371.0 L1831.0,371.0 L1834.0,373.0 L1857.0,378.0 L1871.0,383.0 L1876.0,383.0 L1879.0,385.0 Z" fill="none" stroke="yellow" />
<path d="M1677,97 L1678.0,114.0 L1674,156 L1705.0,157.0 L1768.0,155.0 L1824.0,157.0 L1842.0,156.0 L1844,158 L1842.0,156.0 L1842.0,147.0 L1844.0,140.0 L1845,101 Z" fill="none" stroke="yellow" />
<path d="M1671,195 L1680.0,196.0 L1734.0,214.0 L1769.0,222.0 L1779.0,226.0 L1833,237 L1835.0,237.0 L1837.0,234.0 L1837.0,229.0 L1846.0,197.0 L1847.0,159.0 L1844,158 L1842.0,156.0 L1824.0,157.0 L1768.0,155.0 L1705.0,157.0 L1674,156 L1635.0,161.0 L1632,163 L1633.0,168.0 L1642.0,177.0 L1661.0,189.0 L1667.0,191.0 Z" fill="none" stroke="yellow" />
<path d="M1671,195 L1664.0,238.0 L1661.0,247.0 L1660.0,259.0 L1658.0,262.0 L1659,263 L1683.0,267.0 L1686.0,269.0 L1704.0,272.0 L1707.0,274.0 L1713.0,274.0 L1717.0,276.0 L1737.0,279.0 L1749.0,283.0 L1776.0,288.0 L1779.0,290.0 L1814.0,298.0 L1815,300 L1829.0,253.0 L1830.0,238.0 L1833,237 L1779.0,226.0 L1769.0,222.0 L1734.0,214.0 L1680.0,196.0 Z" fill="none" stroke="yellow" />
<path d="M1643,318 L1642.0,317.0 L1644.0,314.0 L1644.0,310.0 L1656.0,275.0 L1657.0,264.0 L1659,263 L1683.0,267.0 L1686.0,269.0 L1704.0,272.0 L1707.0,274.0 L1713.0,274.0 L1717.0,276.0 L1737.0,279.0 L1749.0,283.0 L1776.0,288.0 L1779.0,290.0 L1814.0,298.0 L1815,300 L1810.0,318.0 L1793.0,355.0 L1793.0,358.0 L1791.0,360.0 L1792,361 L1733.0,347.0 L1651.0,321.0 L1647.0,321.0 Z" fill="none" stroke="yellow" />
<path d="M1643,318 L1642.0,317.0 L1644.0,314.0 L1644.0,310.0 L1656.0,275.0 L1657.0,264.0 L1659,263 L1657.0,261.0 L1641.0,259.0 L1629.0,255.0 L1600.0,250.0 L1573.0,243.0 L1567.0,243.0 L1563.0,241.0 L1551.0,240.0 L1537.0,236.0 L1530.0,236.0 L1506.0,231.0 L1504,232 L1502.0,241.0 L1500.0,243.0 L1500.0,249.0 L1497.0,253.0 L1490.0,274.0 L1488.0,277.0 L1486,277 L1498.0,279.0 L1501.0,281.0 L1524.0,286.0 L1527.0,288.0 L1533.0,288.0 L1536.0,290.0 L1576.0,300.0 L1579.0,302.0 L1596.0,305.0 Z" fill="none" stroke="yellow" />
<path d="M1326,208 L1504,232 L1502.0,241.0 L1500.0,243.0 L1500.0,249.0 L1497.0,253.0 L1490.0,274.0 L1488.0,277.0 L1486,277 L1455.0,271.0 L1452.0,269.0 L1447.0,269.0 L1444.0,267.0 L1417.0,262.0 L1400.0,257.0 L1394.0,257.0 L1381.0,253.0 L1371.0,252.0 L1360.0,248.0 L1324.0,241.0 L1322.0,239.0 L1321,240 L1323.0,238.0 L1325.0,222.0 L1327.0,217.0 Z" fill="none" stroke="yellow" />
<path d="M1326,208 L1327.0,217.0 L1325.0,222.0 L1323.0,238.0 L1321,240 L1304.0,238.0 L1299.0,236.0 L1276.0,234.0 L1252.0,229.0 L1245.0,229.0 L1197.0,219.0 L1168.0,215.0 L1149,210 L1148.0,209.0 L1150,198 L1175.0,198.0 L1253.0,203.0 L1286.0,203.0 Z" fill="none" stroke="yellow" />
<path d="M1149,210 L1110.0,200.0 L1081.0,189.0 L1071.0,183.0 L1062.0,175.0 L1060,167 L1078.0,164.0 L1107.0,163.0 L1109.0,161.0 L1112,163 L1114.0,163.0 L1129.0,180.0 L1150,198 L1148.0,209.0 Z" fill="none" stroke="yellow" />
<path d="M1326,208 L1504,232 L1506.0,231.0 L1507.0,226.0 L1508.0,210.0 L1503.0,163.0 L1500,159 L1429.0,157.0 L1319,157 L1321.0,158.0 L1322.0,171.0 L1326.0,188.0 Z" fill="none" stroke="yellow" />
<path d="M1326,208 L1326.0,188.0 L1322.0,171.0 L1321.0,158.0 L1319,157 L1227.0,156.0 L1176.0,159.0 L1148.0,159.0 L1140.0,161.0 L1119.0,161.0 L1112,163 L1114.0,163.0 L1129.0,180.0 L1150,198 L1175.0,198.0 L1253.0,203.0 L1286.0,203.0 Z" fill="none" stroke="yellow" />
<path d="M1319,157 L1315.0,130.0 L1309.0,106.0 L1309.0,100.0 L1306,97 L1304.0,95.0 L1302.0,97.0 L1181.0,100.0 L1099.0,105.0 L1078,108 L1080.0,114.0 L1104.0,149.0 L1108.0,160.0 L1112,163 L1119.0,161.0 L1140.0,161.0 L1148.0,159.0 L1176.0,159.0 L1227.0,156.0 Z" fill="none" stroke="yellow" />
<path d="M724,206 L722.0,204.0 L715.0,204.0 L703.0,200.0 L673.0,185.0 L629.0,158.0 L620.0,152.0 L618,149 L633.0,130.0 L638.0,125.0 L640,125 L642.0,125.0 L646.0,130.0 L658.0,136.0 L694,151 L697.0,163.0 L718.0,194.0 Z" fill="none" stroke="yellow" />
<path d="M869,186 L858.0,222.0 L858.0,226.0 L856,228 L788.0,215.0 L724,206 L718.0,194.0 L697.0,163.0 L694,151 L716.0,152.0 L785.0,165.0 L848.0,179.0 Z" fill="none" stroke="yellow" />
<path d="M735,233 L735.0,228.0 L728.0,215.0 L727.0,208.0 L724,206 L788.0,215.0 L856,228 L855.0,258.0 L853,272 L844.0,271.0 L755.0,238.0 Z" fill="none" stroke="yellow" />
<path d="M1042,84 L1045.0,88.0 L1058.0,97.0 L1060,103 L1058.0,105.0 L1055.0,105.0 L932.0,96.0 L810.0,93.0 L688.0,95.0 L624,99 L616,97 L616,85 L652.0,86.0 L695.0,84.0 L809.0,83.0 L950.0,83.0 L967.0,85.0 Z" fill="none" stroke="yellow" />
<path d="M2421,374 L2420.0,369.0 L2405.0,364.0 L2397.0,359.0 L2394.0,359.0 L2381.0,352.0 L2371.0,349.0 L2345.0,337.0 L2337.0,335.0 L2335,332 L2334.0,340.0 L2329.0,350.0 L2329.0,353.0 L2314,383 L2322.0,387.0 L2374.0,402.0 L2378.0,402.0 L2384,405 L2402,405 L2402.0,401.0 L2411.0,387.0 L2421.0,376.0 Z" fill="none" stroke="yellow" />
<path d="M2197,389 L2240.0,406.0 L2275,424 L2316.0,421.0 L2317,422 L2315.0,417.0 L2313.0,397.0 L2314,383 L2206,349 L2203.0,350.0 L2203.0,357.0 L2201.0,362.0 Z" fill="none" stroke="yellow" />
<path d="M2358,470 L2365.0,470.0 L2370.0,467.0 L2383.0,464.0 L2387.0,462.0 L2389,459 L2383.0,449.0 L2374.0,439.0 L2374,437 L2369.0,437.0 L2327.0,423.0 L2317,422 L2319.0,423.0 L2320.0,428.0 L2324.0,434.0 L2350.0,460.0 Z" fill="none" stroke="yellow" />
<path d="M2348,264 L2358,275 L2352.0,293.0 L2336.0,325.0 L2334.0,330.0 L2335,332 L2322.0,326.0 L2318.0,326.0 L2312.0,322.0 L2293.0,316.0 L2291.0,314.0 L2269.0,307.0 L2267.0,305.0 L2261.0,304.0 L2239.0,295.0 L2228.0,293.0 L2227,291 L2229.0,281.0 L2236.0,263.0 L2239.0,248.0 L2241.0,245.0 L2245,222 L2246.0,224.0 L2255.0,226.0 L2298.0,243.0 L2338.0,262.0 Z" fill="none" stroke="yellow" />
<path d="M2128,180 L2125.0,208.0 L2114,256 L2117.0,259.0 L2122.0,259.0 L2143.0,266.0 L2158.0,269.0 L2160.0,271.0 L2164.0,271.0 L2176.0,276.0 L2180.0,276.0 L2208.0,285.0 L2226.0,289.0 L2227,291 L2229.0,281.0 L2236.0,263.0 L2239.0,248.0 L2241.0,245.0 L2245,222 L2243.0,220.0 L2239.0,220.0 L2229.0,215.0 L2218.0,212.0 L2216.0,210.0 L2181.0,196.0 L2169.0,193.0 L2167.0,191.0 L2141.0,182.0 Z" fill="none" stroke="yellow" />
<path d="M2092,314 L2089.0,315.0 L2073,363 L2138.0,385.0 L2154.0,392.0 L2169,396 L2190.0,392.0 L2197,389 L2201.0,362.0 L2203.0,357.0 L2203.0,350.0 L2206,349 L2137.0,328.0 L2113.0,319.0 Z" fill="none" stroke="yellow" />
<path d="M2128,180 L2125.0,208.0 L2114,256 L2083.0,248.0 L2062.0,245.0 L2058.0,243.0 L2051.0,243.0 L2048.0,241.0 L2042.0,241.0 L2023.0,236.0 L1998,232 L1985,167 L2034.0,166.0 L2085.0,168.0 L2095.0,170.0 L2116,171 L2118.0,174.0 L2126.0,177.0 Z" fill="none" stroke="yellow" />
<path d="M1919,393 L1919.0,388.0 L1931.0,363.0 L1941.0,333.0 L1944,332 L1947.0,331.0 L1950.0,333.0 L1955.0,333.0 L1968.0,338.0 L1972.0,338.0 L2053,365 L2053.0,372.0 L2049.0,390.0 L2039,421 L2029,421 L1955.0,404.0 L1933.0,397.0 L1924.0,396.0 Z" fill="none" stroke="yellow" />
<path d="M1633,367 L1642.0,334.0 L1644.0,324.0 L1643,318 L1596.0,305.0 L1579.0,302.0 L1576.0,300.0 L1536.0,290.0 L1533.0,288.0 L1527.0,288.0 L1524.0,286.0 L1501.0,281.0 L1498.0,279.0 L1486,277 L1483.0,278.0 L1481.0,288.0 L1474.0,306.0 L1466.0,321.0 L1465,327 L1517.0,343.0 L1521.0,343.0 L1530.0,347.0 L1545.0,350.0 L1609,371 Z" fill="none" stroke="yellow" />
<path d="M1677,97 L1648.0,98.0 L1549.0,95.0 L1510.0,96.0 L1508.0,94.0 L1507,95 L1505.0,122.0 L1503.0,127.0 L1503.0,135.0 L1499.0,154.0 L1500,159 L1557.0,159.0 L1573.0,161.0 L1619.0,161.0 L1632,163 L1635.0,161.0 L1674,156 L1678.0,114.0 Z" fill="none" stroke="yellow" />
<path d="M1507,95 L1505.0,122.0 L1503.0,127.0 L1503.0,135.0 L1499.0,154.0 L1500,159 L1429.0,157.0 L1319,157 L1315.0,130.0 L1309.0,106.0 L1309.0,100.0 L1306,97 L1308.0,98.0 L1346.0,95.0 L1394.0,94.0 Z" fill="none" stroke="yellow" />
<path d="M1677,97 L1648.0,98.0 L1549.0,95.0 L1510.0,96.0 L1508.0,94.0 L1507,95 L1513.0,70.0 L1514,59 L1655.0,59.0 L1682,61 Z" fill="none" stroke="yellow" />
<path d="M1507,95 L1394.0,94.0 L1346.0,95.0 L1308.0,98.0 L1306,97 L1304.0,95.0 L1305,60 L1334.0,58.0 L1514,59 L1513.0,70.0 Z" fill="none" stroke="yellow" />
<path d="M1435,387 L1447.0,353.0 L1448.0,345.0 L1452.0,335.0 L1452,327 L1446.0,324.0 L1438.0,323.0 L1428.0,319.0 L1406.0,314.0 L1403.0,312.0 L1399.0,312.0 L1385.0,307.0 L1363.0,302.0 L1360.0,300.0 L1355.0,300.0 L1302,285 L1299.0,289.0 L1298.0,299.0 L1296.0,301.0 L1296.0,305.0 L1289.0,326.0 L1284.0,338.0 L1281,340 L1338.0,359.0 L1342.0,359.0 L1366.0,368.0 L1373.0,369.0 L1382.0,373.0 Z" fill="none" stroke="yellow" />
<path d="M1321,240 L1322.0,239.0 L1324.0,241.0 L1360.0,248.0 L1371.0,252.0 L1381.0,253.0 L1394.0,257.0 L1400.0,257.0 L1417.0,262.0 L1444.0,267.0 L1447.0,269.0 L1452.0,269.0 L1455.0,271.0 L1486,277 L1483.0,278.0 L1481.0,288.0 L1474.0,306.0 L1466.0,321.0 L1465,327 L1452,327 L1446.0,324.0 L1438.0,323.0 L1428.0,319.0 L1406.0,314.0 L1403.0,312.0 L1399.0,312.0 L1385.0,307.0 L1363.0,302.0 L1360.0,300.0 L1355.0,300.0 L1302,285 L1304.0,284.0 L1313.0,264.0 Z" fill="none" stroke="yellow" />
<path d="M1321,240 L1304.0,238.0 L1299.0,236.0 L1276.0,234.0 L1252.0,229.0 L1245.0,229.0 L1197.0,219.0 L1168.0,215.0 L1149,210 L1149.0,223.0 L1142,243 L1241.0,269.0 L1244.0,271.0 L1268.0,276.0 L1282.0,281.0 L1302,285 L1304.0,284.0 L1313.0,264.0 Z" fill="none" stroke="yellow" />
<path d="M1142,243 L1241.0,269.0 L1244.0,271.0 L1268.0,276.0 L1282.0,281.0 L1302,285 L1299.0,289.0 L1298.0,299.0 L1296.0,301.0 L1296.0,305.0 L1289.0,326.0 L1284.0,338.0 L1281,340 L1258.0,335.0 L1255.0,333.0 L1250.0,333.0 L1223.0,324.0 L1201.0,319.0 L1128,295 L1127.0,294.0 L1129.0,292.0 L1130.0,283.0 L1140.0,254.0 Z" fill="none" stroke="yellow" />
<path d="M1142,243 L1139.0,241.0 L1132.0,241.0 L1128.0,239.0 L1052.0,223.0 L1013.0,216.0 L997,215 L993,260 L995.0,262.0 L1008.0,264.0 L1024.0,269.0 L1029.0,269.0 L1032.0,271.0 L1041.0,272.0 L1096.0,288.0 L1128,295 L1127.0,294.0 L1129.0,292.0 L1130.0,283.0 L1140.0,254.0 Z" fill="none" stroke="yellow" />
<path d="M1130,348 L1131.0,325.0 L1128.0,306.0 L1128,295 L1096.0,288.0 L1041.0,272.0 L1032.0,271.0 L1029.0,269.0 L1024.0,269.0 L1008.0,264.0 L995.0,262.0 L993,260 L993.0,302.0 L991.0,312.0 L992,313 L997.0,316.0 L1013.0,319.0 L1016.0,321.0 L1056.0,331.0 L1059.0,333.0 L1064.0,333.0 L1067.0,335.0 L1072.0,335.0 L1119.0,347.0 Z" fill="none" stroke="yellow" />
<path d="M992,313 L991.0,312.0 L993.0,302.0 L993,260 L987.0,260.0 L951.0,252.0 L895.0,238.0 L892.0,236.0 L876.0,233.0 L873.0,231.0 L859.0,229.0 L857.0,227.0 L856,228 L855.0,258.0 L853,272 L903.0,288.0 L924.0,293.0 L943.0,300.0 L947.0,300.0 L966.0,307.0 Z" fill="none" stroke="yellow" />
<path d="M869,186 L884.0,187.0 L908.0,192.0 L984.0,210.0 L997,215 L993,260 L987.0,260.0 L951.0,252.0 L895.0,238.0 L892.0,236.0 L876.0,233.0 L873.0,231.0 L859.0,229.0 L857.0,227.0 L856,228 L858.0,226.0 L858.0,222.0 Z" fill="none" stroke="yellow" />
<path d="M991,349 L993.0,334.0 L992,313 L997.0,316.0 L1013.0,319.0 L1016.0,321.0 L1056.0,331.0 L1059.0,333.0 L1064.0,333.0 L1067.0,335.0 L1072.0,335.0 L1119.0,347.0 L1130,348 L1129.0,354.0 L1133.0,384.0 L1132,392 L1122.0,391.0 L1104.0,386.0 L1063.0,372.0 L1020.0,360.0 L996.0,352.0 Z" fill="none" stroke="yellow" />
<path d="M1130,348 L1129.0,354.0 L1133.0,384.0 L1132,392 L1136.0,395.0 L1153.0,400.0 L1185.0,407.0 L1236.0,422.0 L1255,425 L1256.0,413.0 L1252,387 L1151.0,352.0 L1131.0,347.0 Z" fill="none" stroke="yellow" />
<path d="M849,304 L854.0,307.0 L878.0,315.0 L882.0,315.0 L967.0,343.0 L991,349 L993.0,334.0 L992,313 L966.0,307.0 L947.0,300.0 L943.0,300.0 L924.0,293.0 L903.0,288.0 L853,272 L851.0,274.0 L851.0,294.0 Z" fill="none" stroke="yellow" />
<path d="M2374,437 L2369.0,437.0 L2327.0,423.0 L2317,422 L2315.0,417.0 L2313.0,397.0 L2314,383 L2322.0,387.0 L2374.0,402.0 L2378.0,402.0 L2384,405 L2384.0,415.0 L2387.0,423.0 L2387,429 Z" fill="none" stroke="yellow" />
<path d="M2323,480 L2319.0,475.0 L2302.0,466.0 L2284.0,459.0 L2268,455 L2268.0,466.0 L2275.0,486.0 L2275,492 L2313.0,486.0 L2322.0,483.0 Z" fill="none" stroke="yellow" />
<path d="M2323,480 L2333.0,480.0 L2335.0,478.0 L2350.0,473.0 L2354.0,473.0 L2358,470 L2350.0,460.0 L2324.0,434.0 L2320.0,428.0 L2319.0,423.0 L2317,422 L2316.0,421.0 L2275,424 L2272.0,447.0 L2270.0,450.0 L2270.0,454.0 L2268,455 L2284.0,459.0 L2302.0,466.0 L2319.0,475.0 Z" fill="none" stroke="yellow" />
<path d="M2217,448 L2217.0,453.0 L2234.0,487.0 L2237,498 L2261.0,496.0 L2264.0,494.0 L2275,492 L2275.0,486.0 L2268.0,466.0 L2268,455 L2241.0,451.0 L2237.0,449.0 Z" fill="none" stroke="yellow" />
<path d="M1677,97 L1682,61 L1840.0,61.0 L1852,63 L1851.0,75.0 L1845,101 Z" fill="none" stroke="yellow" />
<path d="M1633,367 L1642.0,334.0 L1644.0,324.0 L1643,318 L1647.0,321.0 L1651.0,321.0 L1733.0,347.0 L1792,361 L1792.0,384.0 L1794.0,395.0 L1793,408 L1785.0,409.0 L1765.0,416.0 L1753,417 L1709.0,397.0 Z" fill="none" stroke="yellow" />
<path d="M1919,393 L1922.0,415.0 L1922,443 L1912.0,445.0 L1909.0,447.0 L1902.0,447.0 L1898.0,449.0 L1892.0,449.0 L1875,453 L1869.0,451.0 L1793,408 L1794.0,395.0 L1792.0,384.0 L1792,361 L1795.0,363.0 L1804.0,364.0 L1826.0,371.0 L1831.0,371.0 L1834.0,373.0 L1857.0,378.0 L1871.0,383.0 L1876.0,383.0 L1879.0,385.0 Z" fill="none" stroke="yellow" />
<path d="M1671,195 L1664.0,238.0 L1661.0,247.0 L1660.0,259.0 L1658.0,262.0 L1659,263 L1657.0,261.0 L1641.0,259.0 L1629.0,255.0 L1600.0,250.0 L1573.0,243.0 L1567.0,243.0 L1563.0,241.0 L1551.0,240.0 L1537.0,236.0 L1530.0,236.0 L1506.0,231.0 L1504,232 L1506.0,231.0 L1507.0,226.0 L1508.0,210.0 L1503.0,163.0 L1500,159 L1557.0,159.0 L1573.0,161.0 L1619.0,161.0 L1632,163 L1633.0,168.0 L1642.0,177.0 L1661.0,189.0 L1667.0,191.0 Z" fill="none" stroke="yellow" />
<path d="M1361,427 L1362,450 L1372.0,454.0 L1413.0,462.0 L1417.0,464.0 L1449,468 L1449.0,462.0 L1443.0,447.0 L1427,419 L1391.0,421.0 Z" fill="none" stroke="yellow" />
<path d="M1278,379 L1278.0,350.0 L1279.0,342.0 L1281,340 L1258.0,335.0 L1255.0,333.0 L1250.0,333.0 L1223.0,324.0 L1201.0,319.0 L1128,295 L1128.0,306.0 L1131.0,325.0 L1130,348 L1131.0,347.0 L1151.0,352.0 L1252,387 Z" fill="none" stroke="yellow" />
<path d="M1278,379 L1287.0,383.0 L1361,427 L1362,450 L1355.0,450.0 L1316.0,440.0 L1311.0,440.0 L1308.0,438.0 L1291.0,435.0 L1279.0,431.0 L1274.0,431.0 L1255,425 L1256.0,413.0 L1252,387 Z" fill="none" stroke="yellow" />
<path d="M97,82 L108.0,91.0 L174.0,94.0 L305.0,95.0 L414,92 L415,57 L311.0,60.0 L303.0,62.0 L236.0,65.0 L168.0,65.0 L112.0,63.0 L107.0,64.0 L103.0,68.0 Z" fill="none" stroke="yellow" />
<path d="M540,90 L543.0,86.0 L616,85 L616,97 L583.0,94.0 L543.0,94.0 Z" fill="none" stroke="yellow" />
<path d="M1042,84 L1044.0,75.0 L1047,70 L1046.0,68.0 L1043.0,68.0 L1037.0,64.0 L1015.0,60.0 L971.0,60.0 L964.0,58.0 L858.0,56.0 L833.0,54.0 L786.0,54.0 L694.0,50.0 L621,50 L621.0,60.0 L616,85 L652.0,86.0 L695.0,84.0 L809.0,83.0 L950.0,83.0 L967.0,85.0 Z" fill="none" stroke="yellow" />
<path d="M414,92 L415,57 L445.0,54.0 L497.0,54.0 L515.0,52.0 L587.0,52.0 L621,50 L621.0,60.0 L616,85 L543.0,86.0 L540,90 Z" fill="none" stroke="yellow" />
<path d="M722,257 L724.0,248.0 L724,236 L648.0,201.0 L596.0,174.0 L569.0,165.0 L552,163 L544,168 L548.0,174.0 L558.0,180.0 L615.0,210.0 L697.0,248.0 L705.0,250.0 L716.0,256.0 Z" fill="none" stroke="yellow" />
<path d="M453,150 L456.0,154.0 L464.0,154.0 L485.0,158.0 L489.0,160.0 L504.0,161.0 L514.0,164.0 L544,168 L552,163 L551,149 L538.0,147.0 L455.0,147.0 Z" fill="none" stroke="yellow" />
<path d="M1060,167 L1078.0,164.0 L1107.0,163.0 L1109.0,161.0 L1112,163 L1108.0,160.0 L1104.0,149.0 L1080.0,114.0 L1078,108 L1069.0,107.0 L1060,103 L1058.0,105.0 L1055.0,105.0 L932.0,96.0 L810.0,93.0 L688.0,95.0 L624,99 L630.0,115.0 L635.0,123.0 L637.0,125.0 L640,125 L645.0,123.0 L675.0,125.0 L727.0,132.0 L739.0,132.0 L748.0,134.0 L806.0,139.0 L813.0,141.0 L829.0,142.0 L876.0,149.0 L886.0,149.0 L893.0,151.0 Z" fill="none" stroke="yellow" />
<path d="M724,236 L729.0,236.0 L735,233 L735.0,228.0 L728.0,215.0 L727.0,208.0 L724,206 L722.0,204.0 L715.0,204.0 L703.0,200.0 L673.0,185.0 L629.0,158.0 L620.0,152.0 L618,149 L608.0,149.0 L601.0,147.0 L562.0,147.0 L551,149 L552,163 L569.0,165.0 L596.0,174.0 L648.0,201.0 Z" fill="none" stroke="yellow" />
<path d="M722,257 L724.0,248.0 L724,236 L729.0,236.0 L735,233 L755.0,238.0 L844.0,271.0 L853,272 L851.0,274.0 L851.0,294.0 L849,304 L831.0,300.0 L790.0,284.0 L781.0,282.0 L736.0,265.0 L725.0,260.0 Z" fill="none" stroke="yellow" />
<path d="M1305,60 L1304.0,95.0 L1306,97 L1304.0,95.0 L1302.0,97.0 L1181.0,100.0 L1099.0,105.0 L1078,108 L1069.0,107.0 L1060,103 L1058.0,97.0 L1045.0,88.0 L1042,84 L1044.0,75.0 L1047,70 L1100.0,69.0 L1109.0,67.0 L1140.0,67.0 L1207.0,63.0 L1234.0,63.0 L1243.0,61.0 Z" fill="none" stroke="yellow" />
<path d="M104,130 L103.0,133.0 L95,133 L89.0,133.0 L80,124 L76.0,123.0 L69,116 L76.0,95.0 L86.0,85.0 L97,82 L108.0,91.0 L174.0,94.0 L305.0,95.0 L414,92 L540,90 L543.0,94.0 L583.0,94.0 L616,97 L624,99 L630.0,115.0 L635.0,123.0 L637.0,125.0 L640,125 L638.0,125.0 L633.0,130.0 L618,149 L608.0,149.0 L601.0,147.0 L562.0,147.0 L551,149 L538.0,147.0 L455.0,147.0 L453,150 L404.0,146.0 L373.0,146.0 L272.0,140.0 L218.0,139.0 L188.0,136.0 L137.0,134.0 L114,131 L112.0,133.0 L105.0,133.0 Z" fill="none" stroke="yellow" />
<path d="M1278,379 L1287.0,383.0 L1361,427 L1391.0,421.0 L1427,419 L1435,387 L1382.0,373.0 L1373.0,369.0 L1366.0,368.0 L1342.0,359.0 L1338.0,359.0 L1281,340 L1279.0,342.0 L1278.0,350.0 Z" fill="none" stroke="yellow" />
<path d="M869,186 L884.0,187.0 L908.0,192.0 L984.0,210.0 L997,215 L1013.0,216.0 L1052.0,223.0 L1128.0,239.0 L1132.0,241.0 L1139.0,241.0 L1142,243 L1149.0,223.0 L1149,210 L1110.0,200.0 L1081.0,189.0 L1071.0,183.0 L1062.0,175.0 L1060,167 L893.0,151.0 L886.0,149.0 L876.0,149.0 L829.0,142.0 L813.0,141.0 L806.0,139.0 L748.0,134.0 L739.0,132.0 L727.0,132.0 L675.0,125.0 L645.0,123.0 L640,125 L642.0,125.0 L646.0,130.0 L658.0,136.0 L694,151 L716.0,152.0 L785.0,165.0 L848.0,179.0 Z" fill="none" stroke="yellow" />
<path d="M1435,387 L1427,419 L1443.0,447.0 L1449.0,462.0 L1449,468 L1497.0,478.0 L1527,482 L1526.0,472.0 L1521.0,458.0 L1520.0,450.0 L1512.0,427.0 L1511,410 L1446.0,390.0 L1438.0,389.0 Z" fill="none" stroke="yellow" />
<path d="M1645,438 L1649.0,459.0 L1661.0,494.0 L1661,501 L1632.0,499.0 L1592,492 L1590.0,470.0 L1583.0,444.0 L1582,424 L1593,424 L1612.0,428.0 L1623.0,432.0 L1628.0,432.0 Z" fill="none" stroke="yellow" />
<path d="M1511,410 L1512.0,427.0 L1520.0,450.0 L1521.0,458.0 L1526.0,472.0 L1527,482 L1569.0,490.0 L1592,492 L1590.0,470.0 L1583.0,444.0 L1582,424 L1542.0,414.0 Z" fill="none" stroke="yellow" />
<path d="M1645,438 L1649.0,459.0 L1661.0,494.0 L1661,501 L1669.0,503.0 L1731,508 L1730.0,489.0 L1725.0,469.0 L1725,457 L1721.0,454.0 L1711.0,451.0 L1675.0,442.0 Z" fill="none" stroke="yellow" />
<path d="M1725,457 L1725.0,469.0 L1730.0,489.0 L1731,508 L1742.0,510.0 L1785.0,512.0 L1817.0,516.0 L1837,515 L1837.0,511.0 L1831.0,505.0 L1808.0,488.0 L1779.0,473.0 L1747.0,461.0 L1742,457 Z" fill="none" stroke="yellow" />
<path d="M1435,387 L1447.0,353.0 L1448.0,345.0 L1452.0,335.0 L1452,327 L1465,327 L1517.0,343.0 L1521.0,343.0 L1530.0,347.0 L1545.0,350.0 L1609,371 L1606.0,387.0 L1593,424 L1582,424 L1542.0,414.0 L1511,410 L1446.0,390.0 L1438.0,389.0 Z" fill="none" stroke="yellow" />
<path d="M1742,457 L1751.0,435.0 L1753,417 L1765.0,416.0 L1785.0,409.0 L1793,408 L1869.0,451.0 L1875,453 L1878.0,474.0 L1892.0,511.0 L1892,517 L1891.0,518.0 L1837,515 L1837.0,511.0 L1831.0,505.0 L1808.0,488.0 L1779.0,473.0 L1747.0,461.0 Z" fill="none" stroke="yellow" />
<path d="M1973,478 L1974.0,486.0 L1984,516 L1964.0,518.0 L1944.0,516.0 L1895.0,518.0 L1892,517 L1892.0,511.0 L1878.0,474.0 L1875,453 L1892.0,449.0 L1898.0,449.0 L1902.0,447.0 L1909.0,447.0 L1912.0,445.0 L1922,443 L1936.0,452.0 L1960.0,471.0 L1969.0,477.0 Z" fill="none" stroke="yellow" />
<path d="M1973,478 L1974.0,486.0 L1984,516 L2036.0,512.0 L2044.0,512.0 L2051.0,515.0 L2074,513 L2072.0,506.0 L2066.0,498.0 L2038.0,465.0 L2030,458 L2017.0,461.0 L2010.0,465.0 L2003.0,466.0 L1987.0,475.0 L1978.0,478.0 Z" fill="none" stroke="yellow" />
<path d="M1973,478 L1978.0,478.0 L1987.0,475.0 L2003.0,466.0 L2010.0,465.0 L2017.0,461.0 L2030,458 L2031.0,450.0 L2029,421 L1955.0,404.0 L1933.0,397.0 L1924.0,396.0 L1919,393 L1922.0,415.0 L1922,443 L1936.0,452.0 L1960.0,471.0 L1969.0,477.0 Z" fill="none" stroke="yellow" />
<path d="M2134,509 L2074,513 L2072.0,506.0 L2066.0,498.0 L2038.0,465.0 L2030,458 L2031.0,450.0 L2029,421 L2039,421 L2049.0,425.0 L2069.0,428.0 L2088,433 L2089.0,438.0 L2094.0,447.0 L2132.0,501.0 Z" fill="none" stroke="yellow" />
<path d="M1975,164 L1985,167 L1998,232 L1985.0,247.0 L1974.0,262.0 L1971.0,267.0 L1971.0,270.0 L1968,272 L1939.0,262.0 L1916.0,257.0 L1903.0,252.0 L1872.0,245.0 L1869.0,243.0 L1833,237 L1835.0,237.0 L1837.0,234.0 L1837.0,229.0 L1846.0,197.0 L1847.0,159.0 L1844,158 L1875.0,159.0 L1886.0,161.0 L1910.0,161.0 L1919.0,163.0 L1940.0,164.0 Z" fill="none" stroke="yellow" />
<path d="M1975,164 L1985,167 L2034.0,166.0 L2085.0,168.0 L2095.0,170.0 L2116,171 L2116.0,168.0 L2120.0,162.0 L2155.0,130.0 L2157,124 L2156.0,122.0 L2152.0,121.0 L2127.0,118.0 L2107,113 L2002.0,107.0 L1989.0,106.0 L1983.0,104.0 L1980,105 L1977.0,106.0 L1977.0,137.0 L1975.0,150.0 Z" fill="none" stroke="yellow" />
<path d="M2134,509 L2181.0,506.0 L2191,504 L2189.0,498.0 L2166.0,460.0 L2159.0,446.0 L2158,439 L2132.0,437.0 L2124.0,435.0 L2088,433 L2089.0,438.0 L2094.0,447.0 L2132.0,501.0 Z" fill="none" stroke="yellow" />
<path d="M2166,438 L2169,396 L2190.0,392.0 L2197,389 L2240.0,406.0 L2275,424 L2272.0,447.0 L2270.0,450.0 L2270.0,454.0 L2268,455 L2241.0,451.0 L2237.0,449.0 L2217,448 L2204.0,444.0 Z" fill="none" stroke="yellow" />
<path d="M2158,439 L2166,438 L2204.0,444.0 L2217,448 L2217.0,453.0 L2234.0,487.0 L2237,498 L2220.0,502.0 L2191,504 L2189.0,498.0 L2166.0,460.0 L2159.0,446.0 Z" fill="none" stroke="yellow" />
<path d="M2158,439 L2166,438 L2169,396 L2154.0,392.0 L2138.0,385.0 L2073,363 L2064.0,365.0 L2053,365 L2053.0,372.0 L2049.0,390.0 L2039,421 L2049.0,425.0 L2069.0,428.0 L2088,433 L2124.0,435.0 L2132.0,437.0 Z" fill="none" stroke="yellow" />
<path d="M2157,124 L2227.0,124.0 L2234.0,122.0 L2238,124 L2236.0,124.0 L2231.0,119.0 L2230.0,114.0 L2225.0,108.0 L2224.0,104.0 L2215.0,93.0 L2206.0,90.0 L2183.0,87.0 L2180.0,85.0 L2170.0,85.0 L2164.0,83.0 L2146.0,82.0 L2139.0,80.0 L2117,79 L2116.0,87.0 L2108.0,104.0 L2107,113 L2127.0,118.0 L2152.0,121.0 L2156.0,122.0 Z" fill="none" stroke="yellow" />
<path d="M2276,127 L2277,138 L2267.0,150.0 L2258,152 L2256.0,152.0 L2252.0,148.0 L2238,124 L2247.0,123.0 L2267.0,127.0 Z" fill="none" stroke="yellow" />
<path d="M1633,367 L1709.0,397.0 L1753,417 L1751.0,435.0 L1742,457 L1725,457 L1721.0,454.0 L1711.0,451.0 L1675.0,442.0 L1645,438 L1628.0,432.0 L1623.0,432.0 L1612.0,428.0 L1593,424 L1606.0,387.0 L1609,371 Z" fill="none" stroke="yellow" />
<path d="M2276,127 L2277,138 L2305,135 L2299.0,121.0 L2295.0,118.0 L2285.0,117.0 Z" fill="none" stroke="yellow" />
<path d="M2277,138 L2305,135 L2317.0,134.0 L2340.0,139.0 L2343.0,142.0 L2349.0,144.0 L2381.0,162.0 L2404.0,178.0 L2409.0,183.0 L2409,185 L2404.0,189.0 L2366.0,196.0 L2354,202 L2344.0,200.0 L2319.0,188.0 L2279.0,172.0 L2272,171 L2271.0,168.0 L2261.0,159.0 L2258,152 L2267.0,150.0 Z" fill="none" stroke="yellow" />
<path d="M2348,264 L2371.0,234.0 L2376,224 L2376.0,222.0 L2372.0,218.0 L2355.0,205.0 L2354,202 L2344.0,200.0 L2319.0,188.0 L2279.0,172.0 L2272,171 L2265.0,188.0 L2246.0,217.0 L2244.0,221.0 L2245,222 L2246.0,224.0 L2255.0,226.0 L2298.0,243.0 L2338.0,262.0 Z" fill="none" stroke="yellow" />
<path d="M2128,180 L2141.0,182.0 L2167.0,191.0 L2169.0,193.0 L2181.0,196.0 L2216.0,210.0 L2218.0,212.0 L2229.0,215.0 L2239.0,220.0 L2243.0,220.0 L2245,222 L2244.0,221.0 L2246.0,217.0 L2265.0,188.0 L2272,171 L2271.0,168.0 L2261.0,159.0 L2258,152 L2256.0,152.0 L2252.0,148.0 L2238,124 L2234.0,122.0 L2227.0,124.0 L2157,124 L2155.0,130.0 L2120.0,162.0 L2116.0,168.0 L2116,171 L2118.0,174.0 L2126.0,177.0 Z" fill="none" stroke="yellow" />
<path d="M2414,447 L2406.0,438.0 L2394.0,430.0 L2387,429 L2374,437 L2374.0,439.0 L2383.0,449.0 L2389,459 L2398.0,458.0 L2412.0,451.0 Z" fill="none" stroke="yellow" />
<path d="M2453,230 L2455.0,230.0 L2463.0,238.0 L2477.0,257.0 L2478.0,261.0 L2482.0,266.0 L2482,271 L2453,272 L2446.0,269.0 L2416.0,246.0 L2408.0,239.0 L2407,235 L2419.0,232.0 L2450.0,232.0 Z" fill="none" stroke="yellow" />
<path d="M2419,414 L2419.0,420.0 L2430,438 L2436.0,438.0 L2445.0,434.0 L2451,426 L2433.0,416.0 Z" fill="none" stroke="yellow" />
<path d="M2419,414 L2433.0,416.0 L2451,426 L2458.0,425.0 L2464.0,421.0 L2467,415 L2436.0,392.0 L2424.0,380.0 L2421,374 L2421.0,376.0 L2411.0,387.0 L2402.0,401.0 L2402,405 L2404.0,407.0 L2416.0,411.0 Z" fill="none" stroke="yellow" />
<path d="M2501,315 L2497.0,315.0 L2485.0,309.0 L2479,308 L2456.0,280.0 L2453,272 L2482,271 L2487.0,275.0 L2490.0,280.0 L2494.0,292.0 L2498.0,298.0 L2498.0,302.0 L2501.0,307.0 Z" fill="none" stroke="yellow" />
<path d="M2414,447 L2421.0,446.0 L2429.0,442.0 L2430,438 L2419.0,420.0 L2419,414 L2416.0,411.0 L2404.0,407.0 L2402,405 L2384,405 L2384.0,415.0 L2387.0,423.0 L2387,429 L2394.0,430.0 L2406.0,438.0 Z" fill="none" stroke="yellow" />
<path d="M2501,315 L2504.0,320.0 L2505.0,329.0 L2504,342 L2492.0,338.0 L2474,326 L2476.0,315.0 L2479,308 L2485.0,309.0 L2497.0,315.0 Z" fill="none" stroke="yellow" />
<path d="M2453,230 L2450.0,232.0 L2419.0,232.0 L2407,235 L2400.0,234.0 L2385.0,226.0 L2376,224 L2376.0,222.0 L2372.0,218.0 L2355.0,205.0 L2354,202 L2366.0,196.0 L2404.0,189.0 L2409,185 L2416.0,188.0 L2433.0,203.0 L2451.0,223.0 Z" fill="none" stroke="yellow" />
<path d="M2495,384 L2500.0,377.0 L2501,368 L2482.0,357.0 L2477,357 L2476,373 L2478.0,373.0 Z" fill="none" stroke="yellow" />
<path d="M2495,384 L2478.0,373.0 L2476,373 L2473.0,373.0 L2464,381 L2464.0,383.0 L2468.0,387.0 L2484,398 L2487.0,398.0 L2490.0,395.0 L2494.0,389.0 Z" fill="none" stroke="yellow" />
<path d="M2444,328 L2458,332 L2465.0,328.0 L2474,326 L2476.0,315.0 L2479,308 L2456.0,280.0 L2453,272 L2446.0,269.0 L2416.0,246.0 L2408.0,239.0 L2407,235 L2400.0,234.0 L2385.0,226.0 L2376,224 L2371.0,234.0 L2348,264 L2358,275 L2376.0,282.0 L2416.0,305.0 L2435.0,318.0 L2443.0,325.0 Z" fill="none" stroke="yellow" />
<path d="M2501,368 L2503.0,366.0 L2505.0,356.0 L2504,342 L2492.0,338.0 L2474,326 L2465.0,328.0 L2458,332 L2459.0,336.0 L2476.0,353.0 L2477,357 L2482.0,357.0 Z" fill="none" stroke="yellow" />
<path d="M2421,374 L2421.0,369.0 L2438.0,341.0 L2444,328 L2458,332 L2459.0,336.0 L2476.0,353.0 L2477,357 L2476,373 L2473.0,373.0 L2464,381 L2454.0,380.0 L2433.0,373.0 L2423.0,372.0 Z" fill="none" stroke="yellow" />
</svg>