<?xml version="1.0" encoding="UTF-8"?>
<svg xmlns="http://www.w3.org/2000/svg" xmlns:xlink="http://www.w3.org/1999/xlink"
     width="3000" height="1000" viewBox="0 0 3000 1000">
<defs>
</defs>
<path d="M104,130 L97,124 L95,133 Z" fill="none" stroke="yellow" />
<path d="M97,124 L80,124 L95,133 Z" fill="none" stroke="yellow" />
<path d="M2421,374 L2464,381 L2484,398 L2467,415 Z" fill="none" stroke="yellow" />
<path d="M2421,374 L2444,328 L2358,275 L2335,332 Z" fill="none" stroke="yellow" />
<path d="M2314,383 L2335,332 L2227,291 L2206,349 Z" fill="none" stroke="yellow" />
<path d="M2114,256 L2092,314 L2206,349 L2227,291 Z" fill="none" stroke="yellow" />
<path d="M2114,256 L2092,314 L1968,272 L1998,232 Z" fill="none" stroke="yellow" />
<path d="M1980,105 L1991,69 L2117,79 L2107,113 Z" fill="none" stroke="yellow" />
<path d="M1975,164 L1980,105 L1845,101 L1844,158 Z" fill="none" stroke="yellow" />
<path d="M1980,105 L1991,69 L1852,63 L1845,101 Z" fill="none" stroke="yellow" />
<path d="M1968,272 L2092,314 L2073,363 L2053,365 L1944,332 Z" fill="none" stroke="yellow" />
<path d="M1968,272 L1944,332 L1815,300 L1833,237 Z" fill="none" stroke="yellow" />
<path d="M1919,393 L1944,332 L1815,300 L1792,361 Z" fill="none" stroke="yellow" />
<path d="M1677,97 L1674,156 L1844,158 L1845,101 Z" fill="none" stroke="yellow" />
<path d="M1671,195 L1833,237 L1844,158 L1674,156 L1632,163 Z" fill="none" stroke="yellow" />
<path d="M1671,195 L1659,263 L1815,300 L1833,237 Z" fill="none" stroke="yellow" />
<path d="M1643,318 L1659,263 L1815,300 L1792,361 Z" fill="none" stroke="yellow" />
<path d="M1643,318 L1659,263 L1504,232 L1486,277 Z" fill="none" stroke="yellow" />
<path d="M1326,208 L1504,232 L1486,277 L1321,240 Z" fill="none" stroke="yellow" />
<path d="M1326,208 L1321,240 L1149,210 L1150,198 Z" fill="none" stroke="yellow" />
<path d="M1149,210 L1060,167 L1112,163 L1150,198 Z" fill="none" stroke="yellow" />
<path d="M1326,208 L1504,232 L1500,159 L1319,157 Z" fill="none" stroke="yellow" />
<path d="M1326,208 L1319,157 L1112,163 L1150,198 Z" fill="none" stroke="yellow" />
<path d="M1319,157 L1306,97 L1078,108 L1112,163 Z" fill="none" stroke="yellow" />
<path d="M724,206 L618,149 L640,125 L694,151 Z" fill="none" stroke="yellow" />
<path d="M869,186 L856,228 L724,206 L694,151 Z" fill="none" stroke="yellow" />
<path d="M735,233 L724,206 L856,228 L853,272 Z" fill="none" stroke="yellow" />
<path d="M1042,84 L1060,103 L624,99 L616,97 L616,85 Z" fill="none" stroke="yellow" />
<path d="M2421,374 L2335,332 L2314,383 L2384,405 L2402,405 Z" fill="none" stroke="yellow" />
<path d="M2197,389 L2275,424 L2317,422 L2314,383 L2206,349 Z" fill="none" stroke="yellow" />
<path d="M2358,470 L2389,459 L2374,437 L2317,422 Z" fill="none" stroke="yellow" />
<path d="M2348,264 L2358,275 L2335,332 L2227,291 L2245,222 Z" fill="none" stroke="yellow" />
<path d="M2128,180 L2114,256 L2227,291 L2245,222 Z" fill="none" stroke="yellow" />
<path d="M2092,314 L2073,363 L2169,396 L2197,389 L2206,349 Z" fill="none" stroke="yellow" />
<path d="M2128,180 L2114,256 L1998,232 L1985,167 L2116,171 Z" fill="none" stroke="yellow" />
<path d="M1919,393 L1944,332 L2053,365 L2039,421 L2029,421 Z" fill="none" stroke="yellow" />
<path d="M1633,367 L1643,318 L1486,277 L1465,327 L1609,371 Z" fill="none" stroke="yellow" />
<path d="M1677,97 L1507,95 L1500,159 L1632,163 L1674,156 Z" fill="none" stroke="yellow" />
<path d="M1507,95 L1500,159 L1319,157 L1306,97 Z" fill="none" stroke="yellow" />
<path d="M1677,97 L1507,95 L1514,59 L1682,61 Z" fill="none" stroke="yellow" />
<path d="M1507,95 L1306,97 L1305,60 L1514,59 Z" fill="none" stroke="yellow" />
<path d="M1435,387 L1452,327 L1302,285 L1281,340 Z" fill="none" stroke="yellow" />
<path d="M1321,240 L1486,277 L1465,327 L1452,327 L1302,285 Z" fill="none" stroke="yellow" />
<path d="M1321,240 L1149,210 L1142,243 L1302,285 Z" fill="none" stroke="yellow" />
<path d="M1142,243 L1302,285 L1281,340 L1128,295 Z" fill="none" stroke="yellow" />
<path d="M1142,243 L997,215 L993,260 L1128,295 Z" fill="none" stroke="yellow" />
<path d="M1130,348 L1128,295 L993,260 L992,313 Z" fill="none" stroke="yellow" />
<path d="M992,313 L993,260 L856,228 L853,272 Z" fill="none" stroke="yellow" />
<path d="M869,186 L997,215 L993,260 L856,228 Z" fill="none" stroke="yellow" />
<path d="M991,349 L992,313 L1130,348 L1132,392 Z" fill="none" stroke="yellow" />
<path d="M1130,348 L1132,392 L1255,425 L1252,387 Z" fill="none" stroke="yellow" />
<path d="M849,304 L991,349 L992,313 L853,272 Z" fill="none" stroke="yellow" />
<path d="M2374,437 L2317,422 L2314,383 L2384,405 L2387,429 Z" fill="none" stroke="yellow" />
<path d="M2323,480 L2268,455 L2275,492 Z" fill="none" stroke="yellow" />
<path d="M2323,480 L2358,470 L2317,422 L2275,424 L2268,455 Z" fill="none" stroke="yellow" />
<path d="M2217,448 L2237,498 L2275,492 L2268,455 Z" fill="none" stroke="yellow" />
<path d="M1677,97 L1682,61 L1852,63 L1845,101 Z" fill="none" stroke="yellow" />
<path d="M1633,367 L1643,318 L1792,361 L1793,408 L1753,417 Z" fill="none" stroke="yellow" />
<path d="M1919,393 L1922,443 L1875,453 L1793,408 L1792,361 Z" fill="none" stroke="yellow" />
<path d="M1671,195 L1659,263 L1504,232 L1500,159 L1632,163 Z" fill="none" stroke="yellow" />
<path d="M1361,427 L1362,450 L1449,468 L1427,419 Z" fill="none" stroke="yellow" />
<path d="M1278,379 L1281,340 L1128,295 L1130,348 L1252,387 Z" fill="none" stroke="yellow" />
<path d="M1278,379 L1361,427 L1362,450 L1255,425 L1252,387 Z" fill="none" stroke="yellow" />
<path d="M97,82 L414,92 L415,57 Z" fill="none" stroke="yellow" />
<path d="M540,90 L616,85 L616,97 Z" fill="none" stroke="yellow" />
<path d="M1042,84 L1047,70 L621,50 L616,85 Z" fill="none" stroke="yellow" />
<path d="M414,92 L415,57 L621,50 L616,85 L540,90 Z" fill="none" stroke="yellow" />
<path d="M722,257 L724,236 L552,163 L544,168 Z" fill="none" stroke="yellow" />
<path d="M453,150 L544,168 L552,163 L551,149 Z" fill="none" stroke="yellow" />
<path d="M1060,167 L1112,163 L1078,108 L1060,103 L624,99 L640,125 Z" fill="none" stroke="yellow" />
<path d="M724,236 L735,233 L724,206 L618,149 L551,149 L552,163 Z" fill="none" stroke="yellow" />
<path d="M722,257 L724,236 L735,233 L853,272 L849,304 Z" fill="none" stroke="yellow" />
<path d="M1305,60 L1306,97 L1078,108 L1060,103 L1042,84 L1047,70 Z" fill="none" stroke="yellow" />
<path d="M104,130 L95,133 L80,124 L69,116 L97,82 L414,92 L540,90 L616,97 L624,99 L640,125 L618,149 L551,149 L453,150 L114,131 Z" fill="none" stroke="yellow" />
<path d="M1278,379 L1361,427 L1427,419 L1435,387 L1281,340 Z" fill="none" stroke="yellow" />
<path d="M869,186 L997,215 L1142,243 L1149,210 L1060,167 L640,125 L694,151 Z" fill="none" stroke="yellow" />
<path d="M1435,387 L1427,419 L1449,468 L1527,482 L1511,410 Z" fill="none" stroke="yellow" />
<path d="M1645,438 L1661,501 L1592,492 L1582,424 L1593,424 Z" fill="none" stroke="yellow" />
<path d="M1511,410 L1527,482 L1592,492 L1582,424 Z" fill="none" stroke="yellow" />
<path d="M1645,438 L1661,501 L1731,508 L1725,457 Z" fill="none" stroke="yellow" />
<path d="M1725,457 L1731,508 L1837,515 L1742,457 Z" fill="none" stroke="yellow" />
<path d="M1435,387 L1452,327 L1465,327 L1609,371 L1593,424 L1582,424 L1511,410 Z" fill="none" stroke="yellow" />
<path d="M1742,457 L1753,417 L1793,408 L1875,453 L1892,517 L1837,515 Z" fill="none" stroke="yellow" />
<path d="M1973,478 L1984,516 L1892,517 L1875,453 L1922,443 Z" fill="none" stroke="yellow" />
<path d="M1973,478 L1984,516 L2074,513 L2030,458 Z" fill="none" stroke="yellow" />
<path d="M1973,478 L2030,458 L2029,421 L1919,393 L1922,443 Z" fill="none" stroke="yellow" />
<path d="M2134,509 L2074,513 L2030,458 L2029,421 L2039,421 L2088,433 Z" fill="none" stroke="yellow" />
<path d="M1975,164 L1985,167 L1998,232 L1968,272 L1833,237 L1844,158 Z" fill="none" stroke="yellow" />
<path d="M1975,164 L1985,167 L2116,171 L2157,124 L2107,113 L1980,105 Z" fill="none" stroke="yellow" />
<path d="M2134,509 L2191,504 L2158,439 L2088,433 Z" fill="none" stroke="yellow" />
<path d="M2166,438 L2169,396 L2197,389 L2275,424 L2268,455 L2217,448 Z" fill="none" stroke="yellow" />
<path d="M2158,439 L2166,438 L2217,448 L2237,498 L2191,504 Z" fill="none" stroke="yellow" />
<path d="M2158,439 L2166,438 L2169,396 L2073,363 L2053,365 L2039,421 L2088,433 Z" fill="none" stroke="yellow" />
<path d="M2157,124 L2238,124 L2117,79 L2107,113 Z" fill="none" stroke="yellow" />
<path d="M2276,127 L2277,138 L2258,152 L2238,124 Z" fill="none" stroke="yellow" />
<path d="M1633,367 L1753,417 L1742,457 L1725,457 L1645,438 L1593,424 L1609,371 Z" fill="none" stroke="yellow" />
<path d="M2276,127 L2277,138 L2305,135 Z" fill="none" stroke="yellow" />
<path d="M2277,138 L2305,135 L2409,185 L2354,202 L2272,171 L2258,152 Z" fill="none" stroke="yellow" />
<path d="M2348,264 L2376,224 L2354,202 L2272,171 L2245,222 Z" fill="none" stroke="yellow" />
<path d="M2128,180 L2245,222 L2272,171 L2258,152 L2238,124 L2157,124 L2116,171 Z" fill="none" stroke="yellow" />
<path d="M2414,447 L2387,429 L2374,437 L2389,459 Z" fill="none" stroke="yellow" />
<path d="M2453,230 L2482,271 L2453,272 L2407,235 Z" fill="none" stroke="yellow" />
<path d="M2419,414 L2430,438 L2451,426 Z" fill="none" stroke="yellow" />
<path d="M2419,414 L2451,426 L2467,415 L2421,374 L2402,405 Z" fill="none" stroke="yellow" />
<path d="M2501,315 L2479,308 L2453,272 L2482,271 Z" fill="none" stroke="yellow" />
<path d="M2414,447 L2430,438 L2419,414 L2402,405 L2384,405 L2387,429 Z" fill="none" stroke="yellow" />
<path d="M2501,315 L2504,342 L2474,326 L2479,308 Z" fill="none" stroke="yellow" />
<path d="M2453,230 L2407,235 L2376,224 L2354,202 L2409,185 Z" fill="none" stroke="yellow" />
<path d="M2495,384 L2501,368 L2477,357 L2476,373 Z" fill="none" stroke="yellow" />
<path d="M2495,384 L2476,373 L2464,381 L2484,398 Z" fill="none" stroke="yellow" />
<path d="M2444,328 L2458,332 L2474,326 L2479,308 L2453,272 L2407,235 L2376,224 L2348,264 L2358,275 Z" fill="none" stroke="yellow" />
<path d="M2501,368 L2504,342 L2474,326 L2458,332 L2477,357 Z" fill="none" stroke="yellow" />
<path d="M2421,374 L2444,328 L2458,332 L2477,357 L2476,373 L2464,381 Z" fill="none" stroke="yellow" />
</svg>