<?xml version="1.0" encoding="UTF-8"?>
<svg xmlns="http://www.w3.org/2000/svg" xmlns:xlink="http://www.w3.org/1999/xlink"
     width="2805.6338028169016" height="600" viewBox="0 0 2805.6338028169016 600">
<defs>
</defs>
<path d="M1911,268 L1913.0,274.0 L1893.0,312.0 L1895,314 L1889.0,310.0 L1844.0,291.0 L1843,289 L1863.0,253.0 L1868.0,243.0 L1868,240 L1869.0,242.0 L1872.0,242.0 L1877.0,245.0 L1905.0,264.0 L1909.0,265.0 Z" fill="none" stroke="yellow" />
<path d="M1692,335 L1667.0,331.0 L1627.0,321.0 L1624,322 L1622.0,323.0 L1622.0,330.0 L1617.0,351.0 L1617.0,357.0 L1615,359 L1616.0,358.0 L1621.0,360.0 L1628.0,360.0 L1684,370 L1688.0,340.0 L1689.0,336.0 Z" fill="none" stroke="yellow" />
<path d="M1692,335 L1667.0,331.0 L1627.0,321.0 L1624,322 L1627.0,321.0 L1627.0,315.0 L1635.0,286.0 L1636,276 L1705,295 L1696.0,329.0 L1696.0,334.0 Z" fill="none" stroke="yellow" />
<path d="M1417,190 L1490.0,190.0 L1493,193 L1490.0,190.0 L1490.0,164.0 L1487,140 L1406,139 L1408.0,140.0 L1411.0,166.0 Z" fill="none" stroke="yellow" />
<path d="M1417,190 L1490.0,190.0 L1493,193 L1496.0,196.0 L1496.0,200.0 L1491.0,211.0 L1483.0,237.0 L1481.0,239.0 L1482,240 L1400,223 L1399.0,222.0 L1402.0,215.0 Z" fill="none" stroke="yellow" />
<path d="M1487,140 L1490.0,164.0 L1490.0,190.0 L1493,193 L1497.0,197.0 L1575,202 L1575.0,190.0 L1573.0,187.0 L1567.0,162.0 L1565.0,148.0 L1563.0,144.0 L1561,144 L1558.0,142.0 L1552.0,143.0 Z" fill="none" stroke="yellow" />
<path d="M1493,193 L1496.0,196.0 L1496.0,200.0 L1491.0,211.0 L1483.0,237.0 L1481.0,239.0 L1482,240 L1563,258 L1577.0,208.0 L1577.0,204.0 L1575,202 L1497.0,197.0 Z" fill="none" stroke="yellow" />
<path d="M1298,340 L1295.0,343.0 L1295.0,346.0 L1299,381 L1303.0,383.0 L1326.0,386.0 L1344.0,388.0 L1348,387 L1345.0,368.0 L1345,355 L1302.0,338.0 Z" fill="none" stroke="yellow" />
<path d="M1298,340 L1296.0,342.0 L1292.0,342.0 L1266.0,337.0 L1245,336 L1246.0,349.0 L1254,375 L1291.0,381.0 L1299,381 L1295.0,346.0 L1295.0,343.0 Z" fill="none" stroke="yellow" />
<path d="M407,62 L431.0,66.0 L515.0,75.0 L575.0,84.0 L612.0,85.0 L615,83 L617.0,80.0 L615.0,76.0 L599.0,72.0 L489.0,53.0 L453.0,49.0 L420.0,43.0 L408,43 Z" fill="none" stroke="yellow" />
<path d="M1973,249 L1975.0,251.0 L1977.0,258.0 L1980,281 L1976.0,281.0 L1966,276 L1966.0,274.0 L1954.0,259.0 L1951,253 L1955.0,251.0 Z" fill="none" stroke="yellow" />
<path d="M1923,328 L1942.0,348.0 L1942,350 L1946.0,349.0 L1959.0,340.0 L1963.0,336.0 L1964,332 L1948,320 L1935.0,321.0 L1924.0,326.0 Z" fill="none" stroke="yellow" />
<path d="M1977,310 L1955.0,300.0 L1951,296 L1953.0,298.0 L1953.0,301.0 L1949.0,310.0 L1948,320 L1964,332 L1967.0,331.0 L1973.0,323.0 L1976.0,317.0 Z" fill="none" stroke="yellow" />
<path d="M1977,310 L1980.0,299.0 L1980,281 L1976.0,281.0 L1966,276 L1949.0,293.0 L1951,296 L1955.0,300.0 Z" fill="none" stroke="yellow" />
<path d="M1687,115 L1684.0,113.0 L1684.0,110.0 L1690,87 L1735,93 L1726.0,108.0 L1722,118 Z" fill="none" stroke="yellow" />
<path d="M1632,108 L1640.0,89.0 L1641,83 L1690,87 L1684.0,110.0 L1684.0,113.0 L1687,115 L1684.0,113.0 L1671.0,113.0 Z" fill="none" stroke="yellow" />
<path d="M1624,322 L1627.0,321.0 L1627.0,315.0 L1635.0,286.0 L1636,276 L1563,258 L1560.0,279.0 L1558.0,282.0 L1554.0,299.0 L1554.0,306.0 L1551,308 Z" fill="none" stroke="yellow" />
<path d="M1543,348 L1551,308 L1624,322 L1622.0,323.0 L1622.0,330.0 L1617.0,351.0 L1617.0,357.0 L1615,359 L1589.0,354.0 Z" fill="none" stroke="yellow" />
<path d="M1472,291 L1474.0,288.0 L1476.0,269.0 L1482,240 L1563,258 L1560.0,279.0 L1558.0,282.0 L1554.0,299.0 L1554.0,306.0 L1551,308 L1531.0,305.0 L1506.0,298.0 Z" fill="none" stroke="yellow" />
<path d="M1575,202 L1579.0,205.0 L1602.0,208.0 L1658,222 L1636,276 L1563,258 L1577.0,208.0 L1577.0,204.0 Z" fill="none" stroke="yellow" />
<path d="M1616,146 L1622.0,117.0 L1622,109 L1595.0,106.0 L1579.0,106.0 L1565.0,104.0 L1564,105 L1558.0,138.0 L1558.0,142.0 L1561,144 L1603.0,146.0 L1607.0,148.0 L1607,150 L1608.0,147.0 Z" fill="none" stroke="yellow" />
<path d="M1616,146 L1622.0,117.0 L1622,109 L1632,108 L1671.0,113.0 L1684.0,113.0 L1687,115 L1690.0,116.0 L1689.0,123.0 L1682.0,153.0 L1680,155 L1679.0,156.0 L1651.0,151.0 L1622.0,148.0 Z" fill="none" stroke="yellow" />
<path d="M1622,109 L1632,108 L1640.0,89.0 L1641,83 L1570,78 L1564,105 L1565.0,104.0 L1579.0,106.0 L1595.0,106.0 Z" fill="none" stroke="yellow" />
<path d="M1487,140 L1488,102 L1517.0,102.0 L1564,105 L1558.0,138.0 L1558.0,142.0 L1561,144 L1558.0,142.0 L1552.0,143.0 Z" fill="none" stroke="yellow" />
<path d="M1239,138 L1323,137 L1324,99 L1234,100 L1236.0,110.0 L1237.0,136.0 Z" fill="none" stroke="yellow" />
<path d="M1239,138 L1323,137 L1327.0,170.0 L1327.0,183.0 L1323,210 L1285.0,206.0 L1238,198 L1240.0,196.0 L1244.0,168.0 L1242.0,139.0 Z" fill="none" stroke="yellow" />
<path d="M1144,143 L1145.0,132.0 L1143,102 L1184.0,100.0 L1234,100 L1236.0,110.0 L1237.0,136.0 L1239,138 L1237.0,136.0 L1233.0,138.0 L1192.0,139.0 Z" fill="none" stroke="yellow" />
<path d="M1143,102 L1090.0,102.0 L1048,104 L1050,72 L1144,71 L1144.0,84.0 L1142.0,96.0 Z" fill="none" stroke="yellow" />
<path d="M1144,143 L1192.0,139.0 L1233.0,138.0 L1237.0,136.0 L1239,138 L1242.0,139.0 L1244.0,168.0 L1240.0,196.0 L1238,198 L1208.0,193.0 L1154,177 L1135.0,158.0 L1130,148 L1132.0,146.0 L1141.0,145.0 Z" fill="none" stroke="yellow" />
<path d="M955,198 L958.0,196.0 L959.0,185.0 L959,147 L1012.0,145.0 L1023.0,146.0 L1051.0,144.0 L1054,145 L1057.0,147.0 L1057.0,177.0 L1050.0,210.0 L1048,211 Z" fill="none" stroke="yellow" />
<path d="M959,147 L959.0,136.0 L955.0,116.0 L955.0,109.0 L953,104 L1048,104 L1050.0,116.0 L1051.0,144.0 L1054,145 L1051.0,144.0 L1023.0,146.0 L1012.0,145.0 Z" fill="none" stroke="yellow" />
<path d="M747,257 L748.0,259.0 L763.0,264.0 L802.0,276.0 L808,276 L810.0,270.0 L813,242 L799.0,236.0 L756,223 L754.0,224.0 L754.0,229.0 L748.0,247.0 Z" fill="none" stroke="yellow" />
<path d="M686,203 L731.0,217.0 L756,223 L760.0,221.0 L764,195 L727.0,188.0 L697,179 L685.0,202.0 Z" fill="none" stroke="yellow" />
<path d="M686,203 L682.0,216.0 L680,234 L681.0,236.0 L686.0,238.0 L742.0,257.0 L747,257 L748.0,247.0 L754.0,229.0 L754.0,224.0 L756,223 L731.0,217.0 Z" fill="none" stroke="yellow" />
<path d="M625,105 L624.0,101.0 L613.0,88.0 L612.0,85.0 L615,83 L612.0,85.0 L575.0,84.0 L515.0,75.0 L431.0,66.0 L407,62 L407,76 L428,82 L444.0,82.0 L496.0,87.0 L603.0,102.0 L622.0,106.0 Z" fill="none" stroke="yellow" />
<path d="M512,155 L519.0,146.0 L519,144 L519.0,142.0 L515.0,139.0 L458.0,105.0 L447.0,100.0 L445.0,96.0 L442,95 L438.0,97.0 L434,104 L436.0,107.0 L507.0,150.0 Z" fill="none" stroke="yellow" />
<path d="M693,155 L694.0,159.0 L703,169 L699.0,178.0 L697,179 L688.0,177.0 L671.0,170.0 L656.0,160.0 L653,154 L658.0,153.0 Z" fill="none" stroke="yellow" />
<path d="M625,105 L635,108 L636.0,115.0 L651.0,144.0 L653,154 L615.0,148.0 L560.0,134.0 L526.0,123.0 L455.0,96.0 L442,95 L434.0,91.0 L430.0,87.0 L428,82 L444.0,82.0 L496.0,87.0 L603.0,102.0 L622.0,106.0 Z" fill="none" stroke="yellow" />
<path d="M273,53 L276.0,56.0 L276,62 L184.0,56.0 L177.0,55.0 L176,51 L177.0,49.0 L203.0,49.0 Z" fill="none" stroke="yellow" />
<path d="M407,62 L303.0,54.0 L273,53 L270,33 L288.0,33.0 L337.0,38.0 L399.0,41.0 L408,43 Z" fill="none" stroke="yellow" />
<path d="M407,62 L303.0,54.0 L273,53 L276.0,56.0 L276,62 L407,76 Z" fill="none" stroke="yellow" />
<path d="M625,105 L624.0,101.0 L613.0,88.0 L612.0,85.0 L615,83 L617.0,80.0 L615.0,76.0 L599.0,72.0 L489.0,53.0 L453.0,49.0 L420.0,43.0 L408,43 L399.0,41.0 L337.0,38.0 L288.0,33.0 L270,33 L199.0,31.0 L132.0,32.0 L65.0,28.0 L57.0,26.0 L40.0,25.0 L33.0,26.0 L30.0,28.0 L26,40 L23.0,43.0 L23.0,52.0 L25.0,56.0 L27.0,58.0 L32.0,58.0 L34.0,60.0 L46,61 L48.0,65.0 L51.0,65.0 L54,61 L57.0,63.0 L57.0,66.0 L60,67 L65.0,66.0 L91.0,71.0 L101.0,71.0 L125.0,75.0 L136.0,75.0 L204.0,84.0 L226.0,85.0 L233.0,87.0 L244.0,87.0 L249.0,89.0 L285,92 L287.0,95.0 L291.0,95.0 L292,93 L293.0,91.0 L305.0,91.0 L327.0,94.0 L381.0,97.0 L408.0,100.0 L426.0,104.0 L434,104 L438.0,97.0 L442,95 L434.0,91.0 L430.0,87.0 L428,82 L444.0,82.0 L496.0,87.0 L603.0,102.0 L622.0,106.0 Z" fill="none" stroke="yellow" />
<path d="M1911,268 L1911.0,264.0 L1936.0,242.0 L1938,242 L1916.0,219.0 L1915,216 L1912.0,216.0 L1901.0,208.0 L1893,205 L1891.0,210.0 L1868,240 L1869.0,242.0 L1872.0,242.0 L1877.0,245.0 L1905.0,264.0 L1909.0,265.0 Z" fill="none" stroke="yellow" />
<path d="M1938,242 L1916.0,219.0 L1915,216 L1924.0,210.0 L1948,202 L1950.0,202.0 L1957.0,211.0 L1966,230 Z" fill="none" stroke="yellow" />
<path d="M1973,249 L1955.0,251.0 L1951,253 L1949.0,253.0 L1938,242 L1966,230 L1971.0,239.0 Z" fill="none" stroke="yellow" />
<path d="M1868,240 L1868.0,243.0 L1863.0,253.0 L1843,289 L1793.0,268.0 L1789.0,268.0 L1788,266 L1788.0,261.0 L1810.0,216.0 L1813,206 L1815.0,209.0 L1826.0,214.0 L1865.0,238.0 L1867.0,238.0 Z" fill="none" stroke="yellow" />
<path d="M1883,342 L1894.0,321.0 L1896.0,316.0 L1895,314 L1889.0,310.0 L1844.0,291.0 L1843,289 L1839.0,302.0 L1826.0,329.0 L1827,330 L1844.0,333.0 L1872,342 Z" fill="none" stroke="yellow" />
<path d="M1705,295 L1736.0,305.0 L1769,313 L1788,266 L1786.0,264.0 L1774.0,261.0 L1738.0,247.0 L1728.0,245.0 L1727,243 L1727.0,247.0 L1709.0,290.0 Z" fill="none" stroke="yellow" />
<path d="M1843,289 L1839.0,302.0 L1826.0,329.0 L1827,330 L1769,313 L1788,266 L1789.0,268.0 L1793.0,268.0 Z" fill="none" stroke="yellow" />
<path d="M1868,240 L1891.0,210.0 L1893,205 L1893.0,203.0 L1887.0,197.0 L1886,194 L1883.0,194.0 L1851.0,177.0 L1844,175 L1842.0,179.0 L1822.0,196.0 L1813,206 L1815.0,209.0 L1826.0,214.0 L1865.0,238.0 L1867.0,238.0 Z" fill="none" stroke="yellow" />
<path d="M1756,177 L1776.0,185.0 L1813,206 L1810.0,216.0 L1788.0,261.0 L1788,266 L1786.0,264.0 L1774.0,261.0 L1738.0,247.0 L1728.0,245.0 L1727,243 L1726.0,242.0 L1730.0,230.0 Z" fill="none" stroke="yellow" />
<path d="M1756,177 L1730.0,230.0 L1726.0,242.0 L1727,243 L1658,222 L1660.0,220.0 L1660.0,216.0 L1670.0,188.0 L1678.0,157.0 L1680,155 L1750,169 L1756.0,175.0 Z" fill="none" stroke="yellow" />
<path d="M1750,350 L1702.0,337.0 L1696.0,334.0 L1692,335 L1696.0,334.0 L1696.0,329.0 L1705,295 L1736.0,305.0 L1769,313 L1763.0,342.0 L1763,350 Z" fill="none" stroke="yellow" />
<path d="M1705,295 L1709.0,290.0 L1727.0,247.0 L1727,243 L1658,222 L1636,276 Z" fill="none" stroke="yellow" />
<path d="M1687,115 L1722,118 L1782,129 L1782.0,132.0 L1777.0,140.0 L1750,169 L1680,155 L1682.0,153.0 L1689.0,123.0 L1690.0,116.0 Z" fill="none" stroke="yellow" />
<path d="M1882,140 L1881.0,135.0 L1877.0,131.0 L1854.0,119.0 L1823.0,109.0 L1802.0,104.0 L1796,104 L1795.0,110.0 L1783.0,122.0 L1781.0,127.0 L1782,129 L1783.0,131.0 L1799.0,135.0 L1818.0,143.0 L1831,145 L1860.0,144.0 Z" fill="none" stroke="yellow" />
<path d="M1796,104 L1795.0,110.0 L1783.0,122.0 L1781.0,127.0 L1782,129 L1722,118 L1726.0,108.0 L1735,93 L1743.0,93.0 L1787.0,100.0 L1794.0,102.0 Z" fill="none" stroke="yellow" />
<path d="M1882,140 L1890.0,142.0 L1901.0,150.0 L1922.0,169.0 L1922,172 L1904.0,181.0 L1886,194 L1883.0,194.0 L1851.0,177.0 L1844,175 L1843.0,171.0 L1832.0,154.0 L1831,145 L1860.0,144.0 Z" fill="none" stroke="yellow" />
<path d="M1543,348 L1463,335 L1465.0,322.0 L1470.0,306.0 L1472,291 L1506.0,298.0 L1531.0,305.0 L1551,308 Z" fill="none" stroke="yellow" />
<path d="M1487,140 L1488,102 L1408,100 L1408.0,116.0 L1405.0,135.0 L1406,139 Z" fill="none" stroke="yellow" />
<path d="M1408,100 L1325.0,98.0 L1324,99 L1323,137 L1406,139 L1405.0,135.0 L1408.0,116.0 Z" fill="none" stroke="yellow" />
<path d="M1392,275 L1389.0,299.0 L1384,322 L1303,307 L1305.0,301.0 L1308.0,274.0 L1312,260 Z" fill="none" stroke="yellow" />
<path d="M1229,244 L1223.0,267.0 L1221.0,282.0 L1218.0,290.0 L1219,291 L1271.0,302.0 L1303,307 L1305.0,301.0 L1308.0,274.0 L1312,260 Z" fill="none" stroke="yellow" />
<path d="M1400,223 L1400.0,233.0 L1392,275 L1312,260 L1314.0,259.0 L1314.0,253.0 L1321.0,226.0 L1323,210 L1389.0,220.0 Z" fill="none" stroke="yellow" />
<path d="M1472,291 L1474.0,288.0 L1476.0,269.0 L1482,240 L1400,223 L1400.0,233.0 L1392,275 L1395.0,277.0 L1436.0,283.0 Z" fill="none" stroke="yellow" />
<path d="M1472,291 L1470.0,306.0 L1465.0,322.0 L1463,335 L1384,322 L1389.0,299.0 L1392,275 L1395.0,277.0 L1436.0,283.0 Z" fill="none" stroke="yellow" />
<path d="M1229,244 L1312,260 L1314.0,259.0 L1314.0,253.0 L1321.0,226.0 L1323,210 L1285.0,206.0 L1238,198 L1232.0,234.0 Z" fill="none" stroke="yellow" />
<path d="M1229,244 L1157.0,230.0 L1143.0,226.0 L1137.0,226.0 L1135,224 L1154,177 L1208.0,193.0 L1238,198 L1232.0,234.0 Z" fill="none" stroke="yellow" />
<path d="M1229,244 L1223.0,267.0 L1221.0,282.0 L1218.0,290.0 L1219,291 L1127,271 L1133.0,244.0 L1135,224 L1137.0,226.0 L1143.0,226.0 L1157.0,230.0 Z" fill="none" stroke="yellow" />
<path d="M1135,224 L1133.0,244.0 L1127,271 L1039,253 L1048,211 L1050.0,210.0 L1055.0,212.0 Z" fill="none" stroke="yellow" />
<path d="M955,198 L946,234 L1039,253 L1048,211 Z" fill="none" stroke="yellow" />
<path d="M765,174 L767.0,176.0 L832.0,183.0 L848.0,186.0 L859,186 L859.0,191.0 L854.0,207.0 L854.0,213.0 L852,214 L795.0,203.0 L764,195 L767.0,182.0 L767.0,176.0 Z" fill="none" stroke="yellow" />
<path d="M955,198 L946,234 L852,214 L854.0,213.0 L854.0,207.0 L859.0,191.0 L859,186 L862.0,188.0 Z" fill="none" stroke="yellow" />
<path d="M955,198 L958.0,196.0 L959.0,185.0 L959,147 L857,148 L860.0,176.0 L859,186 L862.0,188.0 Z" fill="none" stroke="yellow" />
<path d="M758,151 L750.0,122.0 L748.0,108.0 L746,107 L856,105 L858.0,137.0 L857,148 Z" fill="none" stroke="yellow" />
<path d="M765,174 L762.0,165.0 L761.0,154.0 L758,151 L757.0,150.0 L745.0,152.0 L724.0,152.0 L693,155 L694.0,159.0 L703,169 Z" fill="none" stroke="yellow" />
<path d="M765,174 L762.0,165.0 L761.0,154.0 L758,151 L857,148 L860.0,176.0 L859,186 L848.0,186.0 L832.0,183.0 L767.0,176.0 Z" fill="none" stroke="yellow" />
<path d="M765,174 L703,169 L699.0,178.0 L697,179 L727.0,188.0 L764,195 L767.0,182.0 L767.0,176.0 Z" fill="none" stroke="yellow" />
<path d="M635,108 L745.0,106.0 L746,107 L748.0,108.0 L750.0,122.0 L758,151 L757.0,150.0 L745.0,152.0 L724.0,152.0 L693,155 L658.0,153.0 L653,154 L651.0,144.0 L636.0,115.0 Z" fill="none" stroke="yellow" />
<path d="M625,105 L635,108 L745.0,106.0 L746,107 L745,77 L721.0,76.0 L618.0,79.0 L615,83 L612.0,85.0 L613.0,88.0 L624.0,101.0 Z" fill="none" stroke="yellow" />
<path d="M959,147 L959.0,136.0 L955.0,116.0 L955.0,109.0 L953,104 L856,105 L858.0,137.0 L857,148 Z" fill="none" stroke="yellow" />
<path d="M954,73 L953,104 L856,105 L859,75 L899.0,73.0 Z" fill="none" stroke="yellow" />
<path d="M746,107 L745,77 L780.0,75.0 L859,75 L856,105 Z" fill="none" stroke="yellow" />
<path d="M512,155 L507,168 L509.0,171.0 L529.0,180.0 L560.0,192.0 L567,193 L567.0,191.0 L562.0,186.0 L552.0,179.0 L519.0,158.0 Z" fill="none" stroke="yellow" />
<path d="M26,40 L28.0,42.0 L69.0,43.0 L89.0,46.0 L136.0,48.0 L166,51 L168.0,48.0 L175.0,48.0 L176,51 L177.0,49.0 L203.0,49.0 L273,53 L270,33 L199.0,31.0 L132.0,32.0 L65.0,28.0 L57.0,26.0 L40.0,25.0 L33.0,26.0 L30.0,28.0 Z" fill="none" stroke="yellow" />
<path d="M1779,397 L1778.0,399.0 L1764.0,401.0 L1741.0,403.0 L1736,402 L1731.0,384.0 L1732,378 L1742,377 L1756.0,382.0 L1774.0,391.0 L1779.0,395.0 Z" fill="none" stroke="yellow" />
<path d="M1616,374 L1619.0,374.0 L1646.0,391.0 L1654.0,395.0 L1657,395 L1675.0,388.0 L1684,387 L1684,370 L1628.0,360.0 L1621.0,360.0 L1616.0,358.0 L1615,359 Z" fill="none" stroke="yellow" />
<path d="M1616,146 L1608.0,147.0 L1607,150 L1607.0,148.0 L1603.0,146.0 L1561,144 L1563.0,144.0 L1565.0,148.0 L1567.0,162.0 L1573.0,187.0 L1575.0,190.0 L1575,202 L1579.0,205.0 L1602.0,208.0 L1658,222 L1660.0,220.0 L1660.0,216.0 L1670.0,188.0 L1678.0,157.0 L1680,155 L1679.0,156.0 L1651.0,151.0 L1622.0,148.0 Z" fill="none" stroke="yellow" />
<path d="M1488,102 L1494,75 L1570,78 L1564,105 L1517.0,102.0 Z" fill="none" stroke="yellow" />
<path d="M1417,190 L1402.0,215.0 L1399.0,222.0 L1400,223 L1389.0,220.0 L1323,210 L1327.0,183.0 L1327.0,170.0 L1323,137 L1406,139 L1408.0,140.0 L1411.0,166.0 Z" fill="none" stroke="yellow" />
<path d="M1298,340 L1302.0,338.0 L1345,355 L1365.0,352.0 L1386,352 L1384.0,340.0 L1384,322 L1303,307 L1302.0,338.0 Z" fill="none" stroke="yellow" />
<path d="M1408,100 L1488,102 L1494,75 L1413,73 L1408.0,94.0 Z" fill="none" stroke="yellow" />
<path d="M1236,71 L1329,72 L1324,99 L1234,100 L1233.0,97.0 Z" fill="none" stroke="yellow" />
<path d="M1437,367 L1441,398 L1409.0,396.0 L1397,393 L1386,352 L1401.0,355.0 Z" fill="none" stroke="yellow" />
<path d="M1386,352 L1365.0,352.0 L1345,355 L1345.0,368.0 L1348,387 L1353.0,389.0 L1397,393 Z" fill="none" stroke="yellow" />
<path d="M1437,367 L1465,360 L1463,335 L1384,322 L1384.0,340.0 L1386,352 L1401.0,355.0 Z" fill="none" stroke="yellow" />
<path d="M1408,100 L1325.0,98.0 L1324,99 L1329,72 L1347.0,71.0 L1413,73 L1408.0,94.0 Z" fill="none" stroke="yellow" />
<path d="M1219,291 L1219,322 L1245,336 L1266.0,337.0 L1292.0,342.0 L1296.0,342.0 L1298,340 L1302.0,338.0 L1303,307 L1271.0,302.0 Z" fill="none" stroke="yellow" />
<path d="M1154,177 L1135,224 L1055.0,212.0 L1050.0,210.0 L1048,211 L1050.0,210.0 L1057.0,177.0 L1057.0,147.0 L1054,145 L1130,148 L1135.0,158.0 Z" fill="none" stroke="yellow" />
<path d="M1143,102 L1184.0,100.0 L1234,100 L1233.0,97.0 L1236,71 L1144,71 L1144.0,84.0 L1142.0,96.0 Z" fill="none" stroke="yellow" />
<path d="M1144,143 L1145.0,132.0 L1143,102 L1090.0,102.0 L1048,104 L1050.0,116.0 L1051.0,144.0 L1054,145 L1130,148 L1132.0,146.0 L1141.0,145.0 Z" fill="none" stroke="yellow" />
<path d="M954,73 L953,104 L1048,104 L1050,72 Z" fill="none" stroke="yellow" />
<path d="M1022,334 L1024,289 L1035,287 L1069,301 L1070,344 L1063.0,344.0 L1049.0,340.0 L1030.0,337.0 Z" fill="none" stroke="yellow" />
<path d="M601,178 L609.0,179.0 L640.0,188.0 L679.0,201.0 L684.0,201.0 L686,203 L685.0,202.0 L697,179 L688.0,177.0 L671.0,170.0 L656.0,160.0 L653,154 L615.0,148.0 L560.0,134.0 L526.0,123.0 L455.0,96.0 L442,95 L445.0,96.0 L447.0,100.0 L458.0,105.0 L515.0,139.0 L519.0,142.0 L519,144 L529.0,146.0 L595.0,174.0 Z" fill="none" stroke="yellow" />
<path d="M813,242 L835.0,245.0 L847,245 L852,214 L795.0,203.0 L764,195 L760.0,221.0 L756,223 L799.0,236.0 Z" fill="none" stroke="yellow" />
<path d="M512,155 L507.0,150.0 L436.0,107.0 L434,104 L426.0,104.0 L408.0,100.0 L381.0,97.0 L327.0,94.0 L305.0,91.0 L293.0,91.0 L292,93 L293.0,96.0 L296.0,97.0 L355.0,108.0 L390.0,118.0 L422.0,130.0 L497.0,166.0 L507,168 Z" fill="none" stroke="yellow" />
<path d="M601,178 L609.0,179.0 L640.0,188.0 L679.0,201.0 L684.0,201.0 L686,203 L682.0,216.0 L680,234 L671.0,233.0 L638.0,221.0 L602.0,207.0 L593,202 L601.0,182.0 Z" fill="none" stroke="yellow" />
<path d="M601,178 L595.0,174.0 L529.0,146.0 L519,144 L519.0,146.0 L512,155 L519.0,158.0 L552.0,179.0 L562.0,186.0 L567.0,191.0 L567,193 L593,202 L601.0,182.0 Z" fill="none" stroke="yellow" />
<path d="M866,255 L869.0,287.0 L868,294 L883.0,300.0 L887.0,300.0 L919.0,310.0 L924,310 L929.0,280.0 L929,268 L915.0,264.0 Z" fill="none" stroke="yellow" />
<path d="M808,276 L810.0,270.0 L813,242 L835.0,245.0 L847,245 L848.0,247.0 L866,255 L869.0,287.0 L868,294 L856.0,292.0 L822.0,282.0 L810.0,278.0 Z" fill="none" stroke="yellow" />
<path d="M938,267 L971,281 L973.0,310.0 L972,323 L966.0,323.0 L947.0,318.0 L924,310 L929.0,280.0 L929,268 Z" fill="none" stroke="yellow" />
<path d="M938,267 L971,281 L1024,289 L1035,287 L1039,253 L946,234 L944.0,238.0 L942.0,254.0 Z" fill="none" stroke="yellow" />
<path d="M971,281 L973.0,310.0 L972,323 L975.0,325.0 L991.0,329.0 L996.0,329.0 L1015.0,334.0 L1022,334 L1024,289 Z" fill="none" stroke="yellow" />
<path d="M1035,287 L1039,253 L1127,271 L1128.0,277.0 L1125,306 L1116,307 L1108.0,307.0 L1089.0,303.0 L1069,301 Z" fill="none" stroke="yellow" />
<path d="M938,267 L942.0,254.0 L944.0,238.0 L946,234 L852,214 L847,245 L848.0,247.0 L866,255 L915.0,264.0 L929,268 Z" fill="none" stroke="yellow" />
<path d="M1118,335 L1116.0,330.0 L1116,307 L1108.0,307.0 L1089.0,303.0 L1069,301 L1070,344 L1074.0,346.0 L1118,352 Z" fill="none" stroke="yellow" />
<path d="M1156,320 L1159.0,343.0 L1159,359 L1162.0,361.0 L1188.0,366.0 L1203,367 L1202,326 L1177.0,321.0 Z" fill="none" stroke="yellow" />
<path d="M1219,291 L1127,271 L1128.0,277.0 L1125,306 L1132.0,308.0 L1156,320 L1177.0,321.0 L1202,326 L1208.0,326.0 L1219,322 Z" fill="none" stroke="yellow" />
<path d="M1202,326 L1203,367 L1206.0,369.0 L1217.0,371.0 L1244.0,375.0 L1254,375 L1246.0,349.0 L1245,336 L1219,322 L1208.0,326.0 Z" fill="none" stroke="yellow" />
<path d="M1156,320 L1159.0,343.0 L1159,359 L1134.0,356.0 L1118,352 L1118,335 L1116.0,330.0 L1116,307 L1125,306 L1132.0,308.0 Z" fill="none" stroke="yellow" />
<path d="M1476,367 L1476.0,376.0 L1482,401 L1491.0,403.0 L1528,404 L1521,378 L1502.0,371.0 Z" fill="none" stroke="yellow" />
<path d="M1437,367 L1441,398 L1461.0,401.0 L1482,401 L1476.0,376.0 L1476,367 L1465,360 Z" fill="none" stroke="yellow" />
<path d="M1521,378 L1528,404 L1570,406 L1566.0,392.0 L1566,381 L1547.0,368.0 L1544,368 L1534.0,371.0 Z" fill="none" stroke="yellow" />
<path d="M1566,381 L1566.0,392.0 L1570,406 L1601.0,408.0 L1613,407 L1604,384 L1590.0,381.0 Z" fill="none" stroke="yellow" />
<path d="M1543,348 L1544,368 L1547.0,368.0 L1566,381 L1590.0,381.0 L1604,384 L1609.0,378.0 L1616,374 L1615,359 L1589.0,354.0 Z" fill="none" stroke="yellow" />
<path d="M1616,374 L1619.0,374.0 L1646.0,391.0 L1654.0,395.0 L1657,395 L1658,405 L1645.0,407.0 L1613,407 L1604,384 L1609.0,378.0 Z" fill="none" stroke="yellow" />
<path d="M1657,395 L1658,405 L1700,405 L1699.0,401.0 L1684,387 L1675.0,388.0 Z" fill="none" stroke="yellow" />
<path d="M1543,348 L1463,335 L1465,360 L1476,367 L1502.0,371.0 L1521,378 L1534.0,371.0 L1544,368 Z" fill="none" stroke="yellow" />
<path d="M1684,387 L1699.0,401.0 L1700,405 L1718.0,405.0 L1736,402 L1731.0,384.0 L1732,378 L1700.0,371.0 L1692.0,371.0 L1685.0,369.0 L1684,370 Z" fill="none" stroke="yellow" />
<path d="M1750,350 L1702.0,337.0 L1696.0,334.0 L1692,335 L1689.0,336.0 L1688.0,340.0 L1684,370 L1685.0,369.0 L1692.0,371.0 L1700.0,371.0 L1732,378 L1742,377 L1749.0,358.0 Z" fill="none" stroke="yellow" />
<path d="M1785,360 L1785.0,367.0 L1791.0,382.0 L1796.0,390.0 L1797,395 L1819.0,392.0 L1830,388 L1827.0,382.0 L1812,364 L1799.0,361.0 Z" fill="none" stroke="yellow" />
<path d="M1812,364 L1821.0,355.0 L1825,353 L1827.0,353.0 L1853.0,370.0 L1864.0,379.0 L1864,381 L1845.0,386.0 L1830,388 L1827.0,382.0 Z" fill="none" stroke="yellow" />
<path d="M1750,350 L1763,350 L1785,360 L1785.0,367.0 L1791.0,382.0 L1796.0,390.0 L1797,395 L1791.0,397.0 L1779,397 L1779.0,395.0 L1774.0,391.0 L1756.0,382.0 L1742,377 L1749.0,358.0 Z" fill="none" stroke="yellow" />
<path d="M1875,378 L1872.0,380.0 L1864,381 L1864.0,379.0 L1853.0,370.0 L1827.0,353.0 L1825,353 L1825.0,334.0 L1827,330 L1844.0,333.0 L1872,342 L1872.0,366.0 Z" fill="none" stroke="yellow" />
<path d="M1886,194 L1887.0,197.0 L1893.0,203.0 L1893,205 L1901.0,208.0 L1912.0,216.0 L1915,216 L1924.0,210.0 L1948,202 L1948.0,199.0 L1935.0,182.0 L1926.0,173.0 L1922,172 L1904.0,181.0 Z" fill="none" stroke="yellow" />
<path d="M1875,378 L1886.0,376.0 L1906.0,369.0 L1917.0,364.0 L1918,362 L1918.0,360.0 L1914.0,357.0 L1883,342 L1872,342 L1872.0,366.0 Z" fill="none" stroke="yellow" />
<path d="M1763,350 L1785,360 L1799.0,361.0 L1812,364 L1821.0,355.0 L1825,353 L1825.0,334.0 L1827,330 L1769,313 L1763.0,342.0 Z" fill="none" stroke="yellow" />
<path d="M1895,314 L1896.0,316.0 L1894.0,321.0 L1883,342 L1914.0,357.0 L1918.0,360.0 L1918,362 L1924.0,361.0 L1938.0,354.0 L1942,350 L1942.0,348.0 L1923,328 Z" fill="none" stroke="yellow" />
<path d="M1756,177 L1776.0,185.0 L1813,206 L1822.0,196.0 L1842.0,179.0 L1844,175 L1843.0,171.0 L1832.0,154.0 L1831,145 L1818.0,143.0 L1799.0,135.0 L1783.0,131.0 L1782,129 L1782.0,132.0 L1777.0,140.0 L1750,169 L1756.0,175.0 Z" fill="none" stroke="yellow" />
<path d="M1911,268 L1913.0,274.0 L1893.0,312.0 L1895,314 L1923,328 L1924.0,326.0 L1935.0,321.0 L1948,320 L1949.0,310.0 L1953.0,301.0 L1953.0,298.0 L1951,296 L1949.0,293.0 L1919.0,274.0 L1915.0,273.0 Z" fill="none" stroke="yellow" />
<path d="M1911,268 L1911.0,264.0 L1936.0,242.0 L1938,242 L1949.0,253.0 L1951,253 L1954.0,259.0 L1966.0,274.0 L1966,276 L1949.0,293.0 L1951,296 L1949.0,293.0 L1919.0,274.0 L1915.0,273.0 Z" fill="none" stroke="yellow" />
</svg>