<?xml version="1.0" encoding="UTF-8"?>
<svg xmlns="http://www.w3.org/2000/svg" xmlns:xlink="http://www.w3.org/1999/xlink"
     width="2805.6338028169016" height="600" viewBox="0 0 2805.6338028169016 600">
<defs>
</defs>
<path d="M1911,268 L1938,242" cw="True" stroke="yellow" stroke-width="1" />
<path d="M1911,268 L1951,296" cw="True" stroke="yellow" stroke-width="1" />
<path d="M1911,268 L1868,240" cw="True" stroke="yellow" stroke-width="1" />
<path d="M1911,268 L1895,314" cw="True" stroke="yellow" stroke-width="1" />
<path d="M1938,242 L1951,253" cw="True" stroke="yellow" stroke-width="1" />
<path d="M1938,242 L1915,216" cw="True" stroke="yellow" stroke-width="1" />
<path d="M1938,242 L1966,230" cw="True" stroke="yellow" stroke-width="1" />
<path d="M1951,296 L1966,276" cw="True" stroke="yellow" stroke-width="1" />
<path d="M1951,296 L1948,320" cw="True" stroke="yellow" stroke-width="1" />
<path d="M1951,296 L1977,310" cw="True" stroke="yellow" stroke-width="1" />
<path d="M1868,240 L1893,205" cw="True" stroke="yellow" stroke-width="1" />
<path d="M1868,240 L1843,289" cw="True" stroke="yellow" stroke-width="1" />
<path d="M1868,240 L1813,206" cw="True" stroke="yellow" stroke-width="1" />
<path d="M1895,314 L1883,342" cw="True" stroke="yellow" stroke-width="1" />
<path d="M1895,314 L1923,328" cw="True" stroke="yellow" stroke-width="1" />
<path d="M1895,314 L1843,289" cw="True" stroke="yellow" stroke-width="1" />
<path d="M1692,335 L1684,370" cw="True" stroke="yellow" stroke-width="1" />
<path d="M1692,335 L1705,295" cw="True" stroke="yellow" stroke-width="1" />
<path d="M1692,335 L1750,350" cw="True" stroke="yellow" stroke-width="1" />
<path d="M1692,335 L1624,322" cw="True" stroke="yellow" stroke-width="1" />
<path d="M1684,370 L1684,387" cw="True" stroke="yellow" stroke-width="1" />
<path d="M1684,370 L1732,378" cw="True" stroke="yellow" stroke-width="1" />
<path d="M1684,370 L1615,359" cw="True" stroke="yellow" stroke-width="1" />
<path d="M1705,295 L1727,243" cw="True" stroke="yellow" stroke-width="1" />
<path d="M1705,295 L1769,313" cw="True" stroke="yellow" stroke-width="1" />
<path d="M1705,295 L1636,276" cw="True" stroke="yellow" stroke-width="1" />
<path d="M1750,350 L1742,377" cw="True" stroke="yellow" stroke-width="1" />
<path d="M1750,350 L1763,350" cw="True" stroke="yellow" stroke-width="1" />
<path d="M1624,322 L1615,359" cw="True" stroke="yellow" stroke-width="1" />
<path d="M1624,322 L1636,276" cw="True" stroke="yellow" stroke-width="1" />
<path d="M1624,322 L1551,308" cw="True" stroke="yellow" stroke-width="1" />
<path d="M1493,193 L1482,240" cw="True" stroke="yellow" stroke-width="1" />
<path d="M1493,193 L1487,140" cw="True" stroke="yellow" stroke-width="1" />
<path d="M1493,193 L1417,190" cw="True" stroke="yellow" stroke-width="1" />
<path d="M1493,193 L1575,202" cw="True" stroke="yellow" stroke-width="1" />
<path d="M1482,240 L1563,258" cw="True" stroke="yellow" stroke-width="1" />
<path d="M1482,240 L1472,291" cw="True" stroke="yellow" stroke-width="1" />
<path d="M1482,240 L1400,223" cw="True" stroke="yellow" stroke-width="1" />
<path d="M1487,140 L1561,144" cw="True" stroke="yellow" stroke-width="1" />
<path d="M1487,140 L1406,139" cw="True" stroke="yellow" stroke-width="1" />
<path d="M1487,140 L1488,102" cw="True" stroke="yellow" stroke-width="1" />
<path d="M1417,190 L1406,139" cw="True" stroke="yellow" stroke-width="1" />
<path d="M1417,190 L1400,223" cw="True" stroke="yellow" stroke-width="1" />
<path d="M1575,202 L1561,144" cw="True" stroke="yellow" stroke-width="1" />
<path d="M1575,202 L1563,258" cw="True" stroke="yellow" stroke-width="1" />
<path d="M1575,202 L1658,222" cw="True" stroke="yellow" stroke-width="1" />
<path d="M1298,340 L1303,307" cw="True" stroke="yellow" stroke-width="1" />
<path d="M1298,340 L1299,381" cw="True" stroke="yellow" stroke-width="1" />
<path d="M1298,340 L1345,355" cw="True" stroke="yellow" stroke-width="1" />
<path d="M1298,340 L1245,336" cw="True" stroke="yellow" stroke-width="1" />
<path d="M1303,307 L1312,260" cw="True" stroke="yellow" stroke-width="1" />
<path d="M1303,307 L1384,322" cw="True" stroke="yellow" stroke-width="1" />
<path d="M1303,307 L1219,291" cw="True" stroke="yellow" stroke-width="1" />
<path d="M1299,381 L1254,375" cw="True" stroke="yellow" stroke-width="1" />
<path d="M1299,381 L1348,387" cw="True" stroke="yellow" stroke-width="1" />
<path d="M1345,355 L1386,352" cw="True" stroke="yellow" stroke-width="1" />
<path d="M1345,355 L1348,387" cw="True" stroke="yellow" stroke-width="1" />
<path d="M1245,336 L1219,322" cw="True" stroke="yellow" stroke-width="1" />
<path d="M1245,336 L1254,375" cw="True" stroke="yellow" stroke-width="1" />
<path d="M615,83 L625,105" cw="True" stroke="yellow" stroke-width="1" />
<path d="M615,83 L745,77" cw="True" stroke="yellow" stroke-width="1" />
<path d="M615,83 L407,62" cw="True" stroke="yellow" stroke-width="1" />
<path d="M615,83 L408,43" cw="True" stroke="yellow" stroke-width="1" />
<path d="M625,105 L428,82" cw="True" stroke="yellow" stroke-width="1" />
<path d="M625,105 L635,108" cw="True" stroke="yellow" stroke-width="1" />
<path d="M745,77 L746,107" cw="True" stroke="yellow" stroke-width="1" />
<path d="M745,77 L859,75" cw="True" stroke="yellow" stroke-width="1" />
<path d="M407,62 L273,53" cw="True" stroke="yellow" stroke-width="1" />
<path d="M407,62 L407,76" cw="True" stroke="yellow" stroke-width="1" />
<path d="M407,62 L408,43" cw="True" stroke="yellow" stroke-width="1" />
<path d="M408,43 L270,33" cw="True" stroke="yellow" stroke-width="1" />
<path d="M1966,276 L1951,253" cw="True" stroke="yellow" stroke-width="1" />
<path d="M1966,276 L1980,281" cw="True" stroke="yellow" stroke-width="1" />
<path d="M1948,320 L1923,328" cw="True" stroke="yellow" stroke-width="1" />
<path d="M1948,320 L1964,332" cw="True" stroke="yellow" stroke-width="1" />
<path d="M1977,310 L1964,332" cw="True" stroke="yellow" stroke-width="1" />
<path d="M1977,310 L1980,281" cw="True" stroke="yellow" stroke-width="1" />
<path d="M1687,115 L1690,87" cw="True" stroke="yellow" stroke-width="1" />
<path d="M1687,115 L1722,118" cw="True" stroke="yellow" stroke-width="1" />
<path d="M1687,115 L1680,155" cw="True" stroke="yellow" stroke-width="1" />
<path d="M1687,115 L1632,108" cw="True" stroke="yellow" stroke-width="1" />
<path d="M1690,87 L1641,83" cw="True" stroke="yellow" stroke-width="1" />
<path d="M1690,87 L1735,93" cw="True" stroke="yellow" stroke-width="1" />
<path d="M1722,118 L1782,129" cw="True" stroke="yellow" stroke-width="1" />
<path d="M1722,118 L1735,93" cw="True" stroke="yellow" stroke-width="1" />
<path d="M1680,155 L1616,146" cw="True" stroke="yellow" stroke-width="1" />
<path d="M1680,155 L1658,222" cw="True" stroke="yellow" stroke-width="1" />
<path d="M1680,155 L1750,169" cw="True" stroke="yellow" stroke-width="1" />
<path d="M1632,108 L1622,109" cw="True" stroke="yellow" stroke-width="1" />
<path d="M1632,108 L1641,83" cw="True" stroke="yellow" stroke-width="1" />
<path d="M1615,359 L1616,374" cw="True" stroke="yellow" stroke-width="1" />
<path d="M1615,359 L1543,348" cw="True" stroke="yellow" stroke-width="1" />
<path d="M1636,276 L1658,222" cw="True" stroke="yellow" stroke-width="1" />
<path d="M1636,276 L1563,258" cw="True" stroke="yellow" stroke-width="1" />
<path d="M1551,308 L1543,348" cw="True" stroke="yellow" stroke-width="1" />
<path d="M1551,308 L1563,258" cw="True" stroke="yellow" stroke-width="1" />
<path d="M1551,308 L1472,291" cw="True" stroke="yellow" stroke-width="1" />
<path d="M1607,150 L1616,146" cw="True" stroke="yellow" stroke-width="1" />
<path d="M1607,150 L1561,144" cw="True" stroke="yellow" stroke-width="1" />
<path d="M1616,146 L1622,109" cw="True" stroke="yellow" stroke-width="1" />
<path d="M1561,144 L1564,105" cw="True" stroke="yellow" stroke-width="1" />
<path d="M1564,105 L1570,78" cw="True" stroke="yellow" stroke-width="1" />
<path d="M1564,105 L1622,109" cw="True" stroke="yellow" stroke-width="1" />
<path d="M1564,105 L1488,102" cw="True" stroke="yellow" stroke-width="1" />
<path d="M1239,138 L1234,100" cw="True" stroke="yellow" stroke-width="1" />
<path d="M1239,138 L1238,198" cw="True" stroke="yellow" stroke-width="1" />
<path d="M1239,138 L1323,137" cw="True" stroke="yellow" stroke-width="1" />
<path d="M1239,138 L1144,143" cw="True" stroke="yellow" stroke-width="1" />
<path d="M1234,100 L1324,99" cw="True" stroke="yellow" stroke-width="1" />
<path d="M1234,100 L1236,71" cw="True" stroke="yellow" stroke-width="1" />
<path d="M1234,100 L1143,102" cw="True" stroke="yellow" stroke-width="1" />
<path d="M1238,198 L1323,210" cw="True" stroke="yellow" stroke-width="1" />
<path d="M1238,198 L1229,244" cw="True" stroke="yellow" stroke-width="1" />
<path d="M1238,198 L1154,177" cw="True" stroke="yellow" stroke-width="1" />
<path d="M1323,137 L1406,139" cw="True" stroke="yellow" stroke-width="1" />
<path d="M1323,137 L1324,99" cw="True" stroke="yellow" stroke-width="1" />
<path d="M1323,137 L1323,210" cw="True" stroke="yellow" stroke-width="1" />
<path d="M1144,143 L1143,102" cw="True" stroke="yellow" stroke-width="1" />
<path d="M1144,143 L1130,148" cw="True" stroke="yellow" stroke-width="1" />
<path d="M1054,145 L1048,104" cw="True" stroke="yellow" stroke-width="1" />
<path d="M1054,145 L1048,211" cw="True" stroke="yellow" stroke-width="1" />
<path d="M1054,145 L1130,148" cw="True" stroke="yellow" stroke-width="1" />
<path d="M1054,145 L959,147" cw="True" stroke="yellow" stroke-width="1" />
<path d="M1048,104 L1143,102" cw="True" stroke="yellow" stroke-width="1" />
<path d="M1048,104 L1050,72" cw="True" stroke="yellow" stroke-width="1" />
<path d="M1048,104 L953,104" cw="True" stroke="yellow" stroke-width="1" />
<path d="M1048,211 L1039,253" cw="True" stroke="yellow" stroke-width="1" />
<path d="M1048,211 L1135,224" cw="True" stroke="yellow" stroke-width="1" />
<path d="M1048,211 L955,198" cw="True" stroke="yellow" stroke-width="1" />
<path d="M1130,148 L1154,177" cw="True" stroke="yellow" stroke-width="1" />
<path d="M959,147 L955,198" cw="True" stroke="yellow" stroke-width="1" />
<path d="M959,147 L953,104" cw="True" stroke="yellow" stroke-width="1" />
<path d="M959,147 L857,148" cw="True" stroke="yellow" stroke-width="1" />
<path d="M756,223 L764,195" cw="True" stroke="yellow" stroke-width="1" />
<path d="M756,223 L747,257" cw="True" stroke="yellow" stroke-width="1" />
<path d="M756,223 L813,242" cw="True" stroke="yellow" stroke-width="1" />
<path d="M756,223 L686,203" cw="True" stroke="yellow" stroke-width="1" />
<path d="M764,195 L765,174" cw="True" stroke="yellow" stroke-width="1" />
<path d="M764,195 L852,214" cw="True" stroke="yellow" stroke-width="1" />
<path d="M764,195 L697,179" cw="True" stroke="yellow" stroke-width="1" />
<path d="M747,257 L680,234" cw="True" stroke="yellow" stroke-width="1" />
<path d="M747,257 L808,276" cw="True" stroke="yellow" stroke-width="1" />
<path d="M813,242 L808,276" cw="True" stroke="yellow" stroke-width="1" />
<path d="M813,242 L847,245" cw="True" stroke="yellow" stroke-width="1" />
<path d="M686,203 L697,179" cw="True" stroke="yellow" stroke-width="1" />
<path d="M686,203 L601,178" cw="True" stroke="yellow" stroke-width="1" />
<path d="M686,203 L680,234" cw="True" stroke="yellow" stroke-width="1" />
<path d="M442,95 L434,104" cw="True" stroke="yellow" stroke-width="1" />
<path d="M442,95 L428,82" cw="True" stroke="yellow" stroke-width="1" />
<path d="M442,95 L519,144" cw="True" stroke="yellow" stroke-width="1" />
<path d="M442,95 L653,154" cw="True" stroke="yellow" stroke-width="1" />
<path d="M434,104 L292,93" cw="True" stroke="yellow" stroke-width="1" />
<path d="M434,104 L512,155" cw="True" stroke="yellow" stroke-width="1" />
<path d="M428,82 L407,76" cw="True" stroke="yellow" stroke-width="1" />
<path d="M519,144 L512,155" cw="True" stroke="yellow" stroke-width="1" />
<path d="M519,144 L601,178" cw="True" stroke="yellow" stroke-width="1" />
<path d="M653,154 L697,179" cw="True" stroke="yellow" stroke-width="1" />
<path d="M653,154 L693,155" cw="True" stroke="yellow" stroke-width="1" />
<path d="M653,154 L635,108" cw="True" stroke="yellow" stroke-width="1" />
<path d="M176,51 L166,51" cw="True" stroke="yellow" stroke-width="1" />
<path d="M176,51 L273,53" cw="True" stroke="yellow" stroke-width="1" />
<path d="M176,51 L276,62" cw="True" stroke="yellow" stroke-width="1" />
<path d="M166,51 L26,40" cw="True" stroke="yellow" stroke-width="1" />
<path d="M273,53 L276,62" cw="True" stroke="yellow" stroke-width="1" />
<path d="M273,53 L270,33" cw="True" stroke="yellow" stroke-width="1" />
<path d="M276,62 L407,76" cw="True" stroke="yellow" stroke-width="1" />
<path d="M60,67 L54,61" cw="True" stroke="yellow" stroke-width="1" />
<path d="M60,67 L285,92" cw="True" stroke="yellow" stroke-width="1" />
<path d="M54,61 L46,61" cw="True" stroke="yellow" stroke-width="1" />
<path d="M285,92 L292,93" cw="True" stroke="yellow" stroke-width="1" />
<path d="M46,61 L26,40" cw="True" stroke="yellow" stroke-width="1" />
<path d="M1951,253 L1973,249" cw="True" stroke="yellow" stroke-width="1" />
<path d="M1915,216 L1893,205" cw="True" stroke="yellow" stroke-width="1" />
<path d="M1915,216 L1948,202" cw="True" stroke="yellow" stroke-width="1" />
<path d="M1966,230 L1948,202" cw="True" stroke="yellow" stroke-width="1" />
<path d="M1966,230 L1973,249" cw="True" stroke="yellow" stroke-width="1" />
<path d="M1883,342 L1872,342" cw="True" stroke="yellow" stroke-width="1" />
<path d="M1883,342 L1918,362" cw="True" stroke="yellow" stroke-width="1" />
<path d="M1923,328 L1942,350" cw="True" stroke="yellow" stroke-width="1" />
<path d="M1843,289 L1827,330" cw="True" stroke="yellow" stroke-width="1" />
<path d="M1843,289 L1788,266" cw="True" stroke="yellow" stroke-width="1" />
<path d="M1893,205 L1886,194" cw="True" stroke="yellow" stroke-width="1" />
<path d="M1813,206 L1844,175" cw="True" stroke="yellow" stroke-width="1" />
<path d="M1813,206 L1756,177" cw="True" stroke="yellow" stroke-width="1" />
<path d="M1813,206 L1788,266" cw="True" stroke="yellow" stroke-width="1" />
<path d="M1827,330 L1769,313" cw="True" stroke="yellow" stroke-width="1" />
<path d="M1827,330 L1825,353" cw="True" stroke="yellow" stroke-width="1" />
<path d="M1827,330 L1872,342" cw="True" stroke="yellow" stroke-width="1" />
<path d="M1788,266 L1769,313" cw="True" stroke="yellow" stroke-width="1" />
<path d="M1788,266 L1727,243" cw="True" stroke="yellow" stroke-width="1" />
<path d="M1844,175 L1831,145" cw="True" stroke="yellow" stroke-width="1" />
<path d="M1844,175 L1886,194" cw="True" stroke="yellow" stroke-width="1" />
<path d="M1756,177 L1727,243" cw="True" stroke="yellow" stroke-width="1" />
<path d="M1756,177 L1750,169" cw="True" stroke="yellow" stroke-width="1" />
<path d="M1769,313 L1763,350" cw="True" stroke="yellow" stroke-width="1" />
<path d="M1727,243 L1658,222" cw="True" stroke="yellow" stroke-width="1" />
<path d="M1782,129 L1796,104" cw="True" stroke="yellow" stroke-width="1" />
<path d="M1782,129 L1750,169" cw="True" stroke="yellow" stroke-width="1" />
<path d="M1782,129 L1831,145" cw="True" stroke="yellow" stroke-width="1" />
<path d="M1796,104 L1735,93" cw="True" stroke="yellow" stroke-width="1" />
<path d="M1796,104 L1882,140" cw="True" stroke="yellow" stroke-width="1" />
<path d="M1831,145 L1882,140" cw="True" stroke="yellow" stroke-width="1" />
<path d="M1543,348 L1544,368" cw="True" stroke="yellow" stroke-width="1" />
<path d="M1543,348 L1463,335" cw="True" stroke="yellow" stroke-width="1" />
<path d="M1472,291 L1463,335" cw="True" stroke="yellow" stroke-width="1" />
<path d="M1472,291 L1392,275" cw="True" stroke="yellow" stroke-width="1" />
<path d="M1406,139 L1408,100" cw="True" stroke="yellow" stroke-width="1" />
<path d="M1408,100 L1413,73" cw="True" stroke="yellow" stroke-width="1" />
<path d="M1408,100 L1488,102" cw="True" stroke="yellow" stroke-width="1" />
<path d="M1408,100 L1324,99" cw="True" stroke="yellow" stroke-width="1" />
<path d="M1312,260 L1323,210" cw="True" stroke="yellow" stroke-width="1" />
<path d="M1312,260 L1392,275" cw="True" stroke="yellow" stroke-width="1" />
<path d="M1312,260 L1229,244" cw="True" stroke="yellow" stroke-width="1" />
<path d="M1323,210 L1400,223" cw="True" stroke="yellow" stroke-width="1" />
<path d="M1392,275 L1400,223" cw="True" stroke="yellow" stroke-width="1" />
<path d="M1392,275 L1384,322" cw="True" stroke="yellow" stroke-width="1" />
<path d="M1229,244 L1219,291" cw="True" stroke="yellow" stroke-width="1" />
<path d="M1229,244 L1135,224" cw="True" stroke="yellow" stroke-width="1" />
<path d="M1039,253 L1127,271" cw="True" stroke="yellow" stroke-width="1" />
<path d="M1039,253 L1035,287" cw="True" stroke="yellow" stroke-width="1" />
<path d="M1039,253 L946,234" cw="True" stroke="yellow" stroke-width="1" />
<path d="M1135,224 L1154,177" cw="True" stroke="yellow" stroke-width="1" />
<path d="M1135,224 L1127,271" cw="True" stroke="yellow" stroke-width="1" />
<path d="M955,198 L946,234" cw="True" stroke="yellow" stroke-width="1" />
<path d="M955,198 L859,186" cw="True" stroke="yellow" stroke-width="1" />
<path d="M946,234 L852,214" cw="True" stroke="yellow" stroke-width="1" />
<path d="M946,234 L938,267" cw="True" stroke="yellow" stroke-width="1" />
<path d="M859,186 L765,174" cw="True" stroke="yellow" stroke-width="1" />
<path d="M859,186 L852,214" cw="True" stroke="yellow" stroke-width="1" />
<path d="M859,186 L857,148" cw="True" stroke="yellow" stroke-width="1" />
<path d="M765,174 L758,151" cw="True" stroke="yellow" stroke-width="1" />
<path d="M765,174 L703,169" cw="True" stroke="yellow" stroke-width="1" />
<path d="M758,151 L746,107" cw="True" stroke="yellow" stroke-width="1" />
<path d="M758,151 L693,155" cw="True" stroke="yellow" stroke-width="1" />
<path d="M758,151 L857,148" cw="True" stroke="yellow" stroke-width="1" />
<path d="M703,169 L697,179" cw="True" stroke="yellow" stroke-width="1" />
<path d="M703,169 L693,155" cw="True" stroke="yellow" stroke-width="1" />
<path d="M746,107 L856,105" cw="True" stroke="yellow" stroke-width="1" />
<path d="M746,107 L635,108" cw="True" stroke="yellow" stroke-width="1" />
<path d="M857,148 L856,105" cw="True" stroke="yellow" stroke-width="1" />
<path d="M856,105 L953,104" cw="True" stroke="yellow" stroke-width="1" />
<path d="M856,105 L859,75" cw="True" stroke="yellow" stroke-width="1" />
<path d="M292,93 L507,168" cw="True" stroke="yellow" stroke-width="1" />
<path d="M507,168 L512,155" cw="True" stroke="yellow" stroke-width="1" />
<path d="M507,168 L567,193" cw="True" stroke="yellow" stroke-width="1" />
<path d="M270,33 L26,40" cw="True" stroke="yellow" stroke-width="1" />
<path d="M1763,350 L1785,360" cw="True" stroke="yellow" stroke-width="1" />
<path d="M1684,387 L1657,395" cw="True" stroke="yellow" stroke-width="1" />
<path d="M1684,387 L1700,405" cw="True" stroke="yellow" stroke-width="1" />
<path d="M1732,378 L1742,377" cw="True" stroke="yellow" stroke-width="1" />
<path d="M1732,378 L1736,402" cw="True" stroke="yellow" stroke-width="1" />
<path d="M1616,374 L1604,384" cw="True" stroke="yellow" stroke-width="1" />
<path d="M1616,374 L1657,395" cw="True" stroke="yellow" stroke-width="1" />
<path d="M1570,78 L1494,75" cw="True" stroke="yellow" stroke-width="1" />
<path d="M1570,78 L1641,83" cw="True" stroke="yellow" stroke-width="1" />
<path d="M1488,102 L1494,75" cw="True" stroke="yellow" stroke-width="1" />
<path d="M1544,368 L1521,378" cw="True" stroke="yellow" stroke-width="1" />
<path d="M1544,368 L1566,381" cw="True" stroke="yellow" stroke-width="1" />
<path d="M1463,335 L1465,360" cw="True" stroke="yellow" stroke-width="1" />
<path d="M1463,335 L1384,322" cw="True" stroke="yellow" stroke-width="1" />
<path d="M1465,360 L1437,367" cw="True" stroke="yellow" stroke-width="1" />
<path d="M1465,360 L1476,367" cw="True" stroke="yellow" stroke-width="1" />
<path d="M1384,322 L1386,352" cw="True" stroke="yellow" stroke-width="1" />
<path d="M1413,73 L1329,72" cw="True" stroke="yellow" stroke-width="1" />
<path d="M1413,73 L1494,75" cw="True" stroke="yellow" stroke-width="1" />
<path d="M1324,99 L1329,72" cw="True" stroke="yellow" stroke-width="1" />
<path d="M1386,352 L1397,393" cw="True" stroke="yellow" stroke-width="1" />
<path d="M1386,352 L1437,367" cw="True" stroke="yellow" stroke-width="1" />
<path d="M1397,393 L1348,387" cw="True" stroke="yellow" stroke-width="1" />
<path d="M1397,393 L1441,398" cw="True" stroke="yellow" stroke-width="1" />
<path d="M1437,367 L1441,398" cw="True" stroke="yellow" stroke-width="1" />
<path d="M1329,72 L1236,71" cw="True" stroke="yellow" stroke-width="1" />
<path d="M1219,291 L1219,322" cw="True" stroke="yellow" stroke-width="1" />
<path d="M1219,291 L1127,271" cw="True" stroke="yellow" stroke-width="1" />
<path d="M1236,71 L1144,71" cw="True" stroke="yellow" stroke-width="1" />
<path d="M1143,102 L1144,71" cw="True" stroke="yellow" stroke-width="1" />
<path d="M1219,322 L1202,326" cw="True" stroke="yellow" stroke-width="1" />
<path d="M1127,271 L1125,306" cw="True" stroke="yellow" stroke-width="1" />
<path d="M1144,71 L1050,72" cw="True" stroke="yellow" stroke-width="1" />
<path d="M1125,306 L1116,307" cw="True" stroke="yellow" stroke-width="1" />
<path d="M1125,306 L1156,320" cw="True" stroke="yellow" stroke-width="1" />
<path d="M1118,335 L1118,352" cw="True" stroke="yellow" stroke-width="1" />
<path d="M1118,335 L1116,307" cw="True" stroke="yellow" stroke-width="1" />
<path d="M1118,352 L1070,344" cw="True" stroke="yellow" stroke-width="1" />
<path d="M1118,352 L1159,359" cw="True" stroke="yellow" stroke-width="1" />
<path d="M1116,307 L1069,301" cw="True" stroke="yellow" stroke-width="1" />
<path d="M1050,72 L954,73" cw="True" stroke="yellow" stroke-width="1" />
<path d="M953,104 L954,73" cw="True" stroke="yellow" stroke-width="1" />
<path d="M1035,287 L1024,289" cw="True" stroke="yellow" stroke-width="1" />
<path d="M1035,287 L1069,301" cw="True" stroke="yellow" stroke-width="1" />
<path d="M954,73 L859,75" cw="True" stroke="yellow" stroke-width="1" />
<path d="M852,214 L847,245" cw="True" stroke="yellow" stroke-width="1" />
<path d="M847,245 L866,255" cw="True" stroke="yellow" stroke-width="1" />
<path d="M512,155 L567,193" cw="True" stroke="yellow" stroke-width="1" />
<path d="M567,193 L593,202" cw="True" stroke="yellow" stroke-width="1" />
<path d="M601,178 L593,202" cw="True" stroke="yellow" stroke-width="1" />
<path d="M593,202 L680,234" cw="True" stroke="yellow" stroke-width="1" />
<path d="M808,276 L868,294" cw="True" stroke="yellow" stroke-width="1" />
<path d="M868,294 L866,255" cw="True" stroke="yellow" stroke-width="1" />
<path d="M868,294 L924,310" cw="True" stroke="yellow" stroke-width="1" />
<path d="M866,255 L929,268" cw="True" stroke="yellow" stroke-width="1" />
<path d="M929,268 L924,310" cw="True" stroke="yellow" stroke-width="1" />
<path d="M929,268 L938,267" cw="True" stroke="yellow" stroke-width="1" />
<path d="M924,310 L972,323" cw="True" stroke="yellow" stroke-width="1" />
<path d="M972,323 L971,281" cw="True" stroke="yellow" stroke-width="1" />
<path d="M972,323 L1022,334" cw="True" stroke="yellow" stroke-width="1" />
<path d="M938,267 L971,281" cw="True" stroke="yellow" stroke-width="1" />
<path d="M971,281 L1024,289" cw="True" stroke="yellow" stroke-width="1" />
<path d="M1024,289 L1022,334" cw="True" stroke="yellow" stroke-width="1" />
<path d="M1022,334 L1070,344" cw="True" stroke="yellow" stroke-width="1" />
<path d="M1070,344 L1069,301" cw="True" stroke="yellow" stroke-width="1" />
<path d="M1159,359 L1156,320" cw="True" stroke="yellow" stroke-width="1" />
<path d="M1159,359 L1203,367" cw="True" stroke="yellow" stroke-width="1" />
<path d="M1156,320 L1202,326" cw="True" stroke="yellow" stroke-width="1" />
<path d="M1202,326 L1203,367" cw="True" stroke="yellow" stroke-width="1" />
<path d="M1203,367 L1254,375" cw="True" stroke="yellow" stroke-width="1" />
<path d="M1441,398 L1482,401" cw="True" stroke="yellow" stroke-width="1" />
<path d="M1482,401 L1476,367" cw="True" stroke="yellow" stroke-width="1" />
<path d="M1482,401 L1528,404" cw="True" stroke="yellow" stroke-width="1" />
<path d="M1476,367 L1521,378" cw="True" stroke="yellow" stroke-width="1" />
<path d="M1521,378 L1528,404" cw="True" stroke="yellow" stroke-width="1" />
<path d="M1528,404 L1570,406" cw="True" stroke="yellow" stroke-width="1" />
<path d="M1570,406 L1566,381" cw="True" stroke="yellow" stroke-width="1" />
<path d="M1570,406 L1613,407" cw="True" stroke="yellow" stroke-width="1" />
<path d="M1566,381 L1604,384" cw="True" stroke="yellow" stroke-width="1" />
<path d="M1604,384 L1613,407" cw="True" stroke="yellow" stroke-width="1" />
<path d="M1613,407 L1658,405" cw="True" stroke="yellow" stroke-width="1" />
<path d="M1658,405 L1657,395" cw="True" stroke="yellow" stroke-width="1" />
<path d="M1658,405 L1700,405" cw="True" stroke="yellow" stroke-width="1" />
<path d="M1700,405 L1736,402" cw="True" stroke="yellow" stroke-width="1" />
<path d="M1736,402 L1779,397" cw="True" stroke="yellow" stroke-width="1" />
<path d="M1742,377 L1779,397" cw="True" stroke="yellow" stroke-width="1" />
<path d="M1779,397 L1797,395" cw="True" stroke="yellow" stroke-width="1" />
<path d="M1785,360 L1812,364" cw="True" stroke="yellow" stroke-width="1" />
<path d="M1785,360 L1797,395" cw="True" stroke="yellow" stroke-width="1" />
<path d="M1797,395 L1830,388" cw="True" stroke="yellow" stroke-width="1" />
<path d="M1812,364 L1825,353" cw="True" stroke="yellow" stroke-width="1" />
<path d="M1812,364 L1830,388" cw="True" stroke="yellow" stroke-width="1" />
<path d="M1882,140 L1922,172" cw="True" stroke="yellow" stroke-width="1" />
<path d="M1830,388 L1864,381" cw="True" stroke="yellow" stroke-width="1" />
<path d="M1809,112 L1819,115" cw="True" stroke="yellow" stroke-width="1" />
<path d="M1825,353 L1864,381" cw="True" stroke="yellow" stroke-width="1" />
<path d="M1864,381 L1875,378" cw="True" stroke="yellow" stroke-width="1" />
<path d="M1886,194 L1922,172" cw="True" stroke="yellow" stroke-width="1" />
<path d="M1875,378 L1872,342" cw="True" stroke="yellow" stroke-width="1" />
<path d="M1875,378 L1918,362" cw="True" stroke="yellow" stroke-width="1" />
<path d="M1918,362 L1942,350" cw="True" stroke="yellow" stroke-width="1" />
<path d="M1922,172 L1948,202" cw="True" stroke="yellow" stroke-width="1" />
<path d="M1942,350 L1964,332" cw="True" stroke="yellow" stroke-width="1" />
<path d="M1973,249 L1980,281" cw="True" stroke="yellow" stroke-width="1" />
</svg>