<?xml version="1.0" encoding="UTF-8"?>
<svg xmlns="http://www.w3.org/2000/svg" xmlns:xlink="http://www.w3.org/1999/xlink"
     width="2805.6338028169016" height="600" viewBox="0 0 2805.6338028169016 600">
<defs>
</defs>
<path d="M1911,268 L1895,314 L1843,289 L1868,240 Z" fill="none" stroke="yellow" />
<path d="M1692,335 L1624,322 L1615,359 L1684,370 Z" fill="none" stroke="yellow" />
<path d="M1692,335 L1624,322 L1636,276 L1705,295 Z" fill="none" stroke="yellow" />
<path d="M1417,190 L1493,193 L1487,140 L1406,139 Z" fill="none" stroke="yellow" />
<path d="M1417,190 L1493,193 L1482,240 L1400,223 Z" fill="none" stroke="yellow" />
<path d="M1487,140 L1493,193 L1575,202 L1561,144 Z" fill="none" stroke="yellow" />
<path d="M1493,193 L1482,240 L1563,258 L1575,202 Z" fill="none" stroke="yellow" />
<path d="M1298,340 L1299,381 L1348,387 L1345,355 Z" fill="none" stroke="yellow" />
<path d="M1298,340 L1245,336 L1254,375 L1299,381 Z" fill="none" stroke="yellow" />
<path d="M407,62 L615,83 L408,43 Z" fill="none" stroke="yellow" />
<path d="M1973,249 L1980,281 L1966,276 L1951,253 Z" fill="none" stroke="yellow" />
<path d="M1923,328 L1942,350 L1964,332 L1948,320 Z" fill="none" stroke="yellow" />
<path d="M1977,310 L1951,296 L1948,320 L1964,332 Z" fill="none" stroke="yellow" />
<path d="M1977,310 L1980,281 L1966,276 L1951,296 Z" fill="none" stroke="yellow" />
<path d="M1687,115 L1690,87 L1735,93 L1722,118 Z" fill="none" stroke="yellow" />
<path d="M1632,108 L1641,83 L1690,87 L1687,115 Z" fill="none" stroke="yellow" />
<path d="M1624,322 L1636,276 L1563,258 L1551,308 Z" fill="none" stroke="yellow" />
<path d="M1543,348 L1551,308 L1624,322 L1615,359 Z" fill="none" stroke="yellow" />
<path d="M1472,291 L1482,240 L1563,258 L1551,308 Z" fill="none" stroke="yellow" />
<path d="M1575,202 L1658,222 L1636,276 L1563,258 Z" fill="none" stroke="yellow" />
<path d="M1616,146 L1622,109 L1564,105 L1561,144 L1607,150 Z" fill="none" stroke="yellow" />
<path d="M1616,146 L1622,109 L1632,108 L1687,115 L1680,155 Z" fill="none" stroke="yellow" />
<path d="M1622,109 L1632,108 L1641,83 L1570,78 L1564,105 Z" fill="none" stroke="yellow" />
<path d="M1487,140 L1488,102 L1564,105 L1561,144 Z" fill="none" stroke="yellow" />
<path d="M1239,138 L1323,137 L1324,99 L1234,100 Z" fill="none" stroke="yellow" />
<path d="M1239,138 L1323,137 L1323,210 L1238,198 Z" fill="none" stroke="yellow" />
<path d="M1144,143 L1143,102 L1234,100 L1239,138 Z" fill="none" stroke="yellow" />
<path d="M1143,102 L1048,104 L1050,72 L1144,71 Z" fill="none" stroke="yellow" />
<path d="M1144,143 L1239,138 L1238,198 L1154,177 L1130,148 Z" fill="none" stroke="yellow" />
<path d="M955,198 L959,147 L1054,145 L1048,211 Z" fill="none" stroke="yellow" />
<path d="M959,147 L953,104 L1048,104 L1054,145 Z" fill="none" stroke="yellow" />
<path d="M747,257 L808,276 L813,242 L756,223 Z" fill="none" stroke="yellow" />
<path d="M686,203 L756,223 L764,195 L697,179 Z" fill="none" stroke="yellow" />
<path d="M686,203 L680,234 L747,257 L756,223 Z" fill="none" stroke="yellow" />
<path d="M625,105 L615,83 L407,62 L407,76 L428,82 Z" fill="none" stroke="yellow" />
<path d="M512,155 L519,144 L442,95 L434,104 Z" fill="none" stroke="yellow" />
<path d="M693,155 L703,169 L697,179 L653,154 Z" fill="none" stroke="yellow" />
<path d="M625,105 L635,108 L653,154 L442,95 L428,82 Z" fill="none" stroke="yellow" />
<path d="M273,53 L276,62 L176,51 Z" fill="none" stroke="yellow" />
<path d="M407,62 L273,53 L270,33 L408,43 Z" fill="none" stroke="yellow" />
<path d="M407,62 L273,53 L276,62 L407,76 Z" fill="none" stroke="yellow" />
<path d="M625,105 L615,83 L408,43 L270,33 L26,40 L46,61 L54,61 L60,67 L285,92 L292,93 L434,104 L442,95 L428,82 Z" fill="none" stroke="yellow" />
<path d="M1911,268 L1938,242 L1915,216 L1893,205 L1868,240 Z" fill="none" stroke="yellow" />
<path d="M1938,242 L1915,216 L1948,202 L1966,230 Z" fill="none" stroke="yellow" />
<path d="M1973,249 L1951,253 L1938,242 L1966,230 Z" fill="none" stroke="yellow" />
<path d="M1868,240 L1843,289 L1788,266 L1813,206 Z" fill="none" stroke="yellow" />
<path d="M1883,342 L1895,314 L1843,289 L1827,330 L1872,342 Z" fill="none" stroke="yellow" />
<path d="M1705,295 L1769,313 L1788,266 L1727,243 Z" fill="none" stroke="yellow" />
<path d="M1843,289 L1827,330 L1769,313 L1788,266 Z" fill="none" stroke="yellow" />
<path d="M1868,240 L1893,205 L1886,194 L1844,175 L1813,206 Z" fill="none" stroke="yellow" />
<path d="M1756,177 L1813,206 L1788,266 L1727,243 Z" fill="none" stroke="yellow" />
<path d="M1756,177 L1727,243 L1658,222 L1680,155 L1750,169 Z" fill="none" stroke="yellow" />
<path d="M1750,350 L1692,335 L1705,295 L1769,313 L1763,350 Z" fill="none" stroke="yellow" />
<path d="M1705,295 L1727,243 L1658,222 L1636,276 Z" fill="none" stroke="yellow" />
<path d="M1687,115 L1722,118 L1782,129 L1750,169 L1680,155 Z" fill="none" stroke="yellow" />
<path d="M1882,140 L1796,104 L1782,129 L1831,145 Z" fill="none" stroke="yellow" />
<path d="M1796,104 L1782,129 L1722,118 L1735,93 Z" fill="none" stroke="yellow" />
<path d="M1882,140 L1922,172 L1886,194 L1844,175 L1831,145 Z" fill="none" stroke="yellow" />
<path d="M1543,348 L1463,335 L1472,291 L1551,308 Z" fill="none" stroke="yellow" />
<path d="M1487,140 L1488,102 L1408,100 L1406,139 Z" fill="none" stroke="yellow" />
<path d="M1408,100 L1324,99 L1323,137 L1406,139 Z" fill="none" stroke="yellow" />
<path d="M1392,275 L1384,322 L1303,307 L1312,260 Z" fill="none" stroke="yellow" />
<path d="M1229,244 L1219,291 L1303,307 L1312,260 Z" fill="none" stroke="yellow" />
<path d="M1400,223 L1392,275 L1312,260 L1323,210 Z" fill="none" stroke="yellow" />
<path d="M1472,291 L1482,240 L1400,223 L1392,275 Z" fill="none" stroke="yellow" />
<path d="M1472,291 L1463,335 L1384,322 L1392,275 Z" fill="none" stroke="yellow" />
<path d="M1229,244 L1312,260 L1323,210 L1238,198 Z" fill="none" stroke="yellow" />
<path d="M1229,244 L1135,224 L1154,177 L1238,198 Z" fill="none" stroke="yellow" />
<path d="M1229,244 L1219,291 L1127,271 L1135,224 Z" fill="none" stroke="yellow" />
<path d="M1135,224 L1127,271 L1039,253 L1048,211 Z" fill="none" stroke="yellow" />
<path d="M955,198 L946,234 L1039,253 L1048,211 Z" fill="none" stroke="yellow" />
<path d="M765,174 L859,186 L852,214 L764,195 Z" fill="none" stroke="yellow" />
<path d="M955,198 L946,234 L852,214 L859,186 Z" fill="none" stroke="yellow" />
<path d="M955,198 L959,147 L857,148 L859,186 Z" fill="none" stroke="yellow" />
<path d="M758,151 L746,107 L856,105 L857,148 Z" fill="none" stroke="yellow" />
<path d="M765,174 L758,151 L693,155 L703,169 Z" fill="none" stroke="yellow" />
<path d="M765,174 L758,151 L857,148 L859,186 Z" fill="none" stroke="yellow" />
<path d="M765,174 L703,169 L697,179 L764,195 Z" fill="none" stroke="yellow" />
<path d="M635,108 L746,107 L758,151 L693,155 L653,154 Z" fill="none" stroke="yellow" />
<path d="M625,105 L635,108 L746,107 L745,77 L615,83 Z" fill="none" stroke="yellow" />
<path d="M959,147 L953,104 L856,105 L857,148 Z" fill="none" stroke="yellow" />
<path d="M954,73 L953,104 L856,105 L859,75 Z" fill="none" stroke="yellow" />
<path d="M746,107 L745,77 L859,75 L856,105 Z" fill="none" stroke="yellow" />
<path d="M512,155 L507,168 L567,193 Z" fill="none" stroke="yellow" />
<path d="M26,40 L166,51 L176,51 L273,53 L270,33 Z" fill="none" stroke="yellow" />
<path d="M1779,397 L1736,402 L1732,378 L1742,377 Z" fill="none" stroke="yellow" />
<path d="M1616,374 L1657,395 L1684,387 L1684,370 L1615,359 Z" fill="none" stroke="yellow" />
<path d="M1616,146 L1607,150 L1561,144 L1575,202 L1658,222 L1680,155 Z" fill="none" stroke="yellow" />
<path d="M1488,102 L1494,75 L1570,78 L1564,105 Z" fill="none" stroke="yellow" />
<path d="M1417,190 L1400,223 L1323,210 L1323,137 L1406,139 Z" fill="none" stroke="yellow" />
<path d="M1298,340 L1345,355 L1386,352 L1384,322 L1303,307 Z" fill="none" stroke="yellow" />
<path d="M1408,100 L1488,102 L1494,75 L1413,73 Z" fill="none" stroke="yellow" />
<path d="M1236,71 L1329,72 L1324,99 L1234,100 Z" fill="none" stroke="yellow" />
<path d="M1437,367 L1441,398 L1397,393 L1386,352 Z" fill="none" stroke="yellow" />
<path d="M1386,352 L1345,355 L1348,387 L1397,393 Z" fill="none" stroke="yellow" />
<path d="M1437,367 L1465,360 L1463,335 L1384,322 L1386,352 Z" fill="none" stroke="yellow" />
<path d="M1408,100 L1324,99 L1329,72 L1413,73 Z" fill="none" stroke="yellow" />
<path d="M1219,291 L1219,322 L1245,336 L1298,340 L1303,307 Z" fill="none" stroke="yellow" />
<path d="M1154,177 L1135,224 L1048,211 L1054,145 L1130,148 Z" fill="none" stroke="yellow" />
<path d="M1143,102 L1234,100 L1236,71 L1144,71 Z" fill="none" stroke="yellow" />
<path d="M1144,143 L1143,102 L1048,104 L1054,145 L1130,148 Z" fill="none" stroke="yellow" />
<path d="M954,73 L953,104 L1048,104 L1050,72 Z" fill="none" stroke="yellow" />
<path d="M1022,334 L1024,289 L1035,287 L1069,301 L1070,344 Z" fill="none" stroke="yellow" />
<path d="M601,178 L686,203 L697,179 L653,154 L442,95 L519,144 Z" fill="none" stroke="yellow" />
<path d="M813,242 L847,245 L852,214 L764,195 L756,223 Z" fill="none" stroke="yellow" />
<path d="M512,155 L434,104 L292,93 L507,168 Z" fill="none" stroke="yellow" />
<path d="M601,178 L686,203 L680,234 L593,202 Z" fill="none" stroke="yellow" />
<path d="M601,178 L519,144 L512,155 L567,193 L593,202 Z" fill="none" stroke="yellow" />
<path d="M866,255 L868,294 L924,310 L929,268 Z" fill="none" stroke="yellow" />
<path d="M808,276 L813,242 L847,245 L866,255 L868,294 Z" fill="none" stroke="yellow" />
<path d="M938,267 L971,281 L972,323 L924,310 L929,268 Z" fill="none" stroke="yellow" />
<path d="M938,267 L971,281 L1024,289 L1035,287 L1039,253 L946,234 Z" fill="none" stroke="yellow" />
<path d="M971,281 L972,323 L1022,334 L1024,289 Z" fill="none" stroke="yellow" />
<path d="M1035,287 L1039,253 L1127,271 L1125,306 L1116,307 L1069,301 Z" fill="none" stroke="yellow" />
<path d="M938,267 L946,234 L852,214 L847,245 L866,255 L929,268 Z" fill="none" stroke="yellow" />
<path d="M1118,335 L1116,307 L1069,301 L1070,344 L1118,352 Z" fill="none" stroke="yellow" />
<path d="M1156,320 L1159,359 L1203,367 L1202,326 Z" fill="none" stroke="yellow" />
<path d="M1219,291 L1127,271 L1125,306 L1156,320 L1202,326 L1219,322 Z" fill="none" stroke="yellow" />
<path d="M1202,326 L1203,367 L1254,375 L1245,336 L1219,322 Z" fill="none" stroke="yellow" />
<path d="M1156,320 L1159,359 L1118,352 L1118,335 L1116,307 L1125,306 Z" fill="none" stroke="yellow" />
<path d="M1476,367 L1482,401 L1528,404 L1521,378 Z" fill="none" stroke="yellow" />
<path d="M1437,367 L1441,398 L1482,401 L1476,367 L1465,360 Z" fill="none" stroke="yellow" />
<path d="M1521,378 L1528,404 L1570,406 L1566,381 L1544,368 Z" fill="none" stroke="yellow" />
<path d="M1566,381 L1570,406 L1613,407 L1604,384 Z" fill="none" stroke="yellow" />
<path d="M1543,348 L1544,368 L1566,381 L1604,384 L1616,374 L1615,359 Z" fill="none" stroke="yellow" />
<path d="M1616,374 L1657,395 L1658,405 L1613,407 L1604,384 Z" fill="none" stroke="yellow" />
<path d="M1657,395 L1658,405 L1700,405 L1684,387 Z" fill="none" stroke="yellow" />
<path d="M1543,348 L1463,335 L1465,360 L1476,367 L1521,378 L1544,368 Z" fill="none" stroke="yellow" />
<path d="M1684,387 L1700,405 L1736,402 L1732,378 L1684,370 Z" fill="none" stroke="yellow" />
<path d="M1750,350 L1692,335 L1684,370 L1732,378 L1742,377 Z" fill="none" stroke="yellow" />
<path d="M1785,360 L1797,395 L1830,388 L1812,364 Z" fill="none" stroke="yellow" />
<path d="M1812,364 L1825,353 L1864,381 L1830,388 Z" fill="none" stroke="yellow" />
<path d="M1750,350 L1763,350 L1785,360 L1797,395 L1779,397 L1742,377 Z" fill="none" stroke="yellow" />
<path d="M1875,378 L1864,381 L1825,353 L1827,330 L1872,342 Z" fill="none" stroke="yellow" />
<path d="M1886,194 L1893,205 L1915,216 L1948,202 L1922,172 Z" fill="none" stroke="yellow" />
<path d="M1875,378 L1918,362 L1883,342 L1872,342 Z" fill="none" stroke="yellow" />
<path d="M1763,350 L1785,360 L1812,364 L1825,353 L1827,330 L1769,313 Z" fill="none" stroke="yellow" />
<path d="M1895,314 L1883,342 L1918,362 L1942,350 L1923,328 Z" fill="none" stroke="yellow" />
<path d="M1756,177 L1813,206 L1844,175 L1831,145 L1782,129 L1750,169 Z" fill="none" stroke="yellow" />
<path d="M1911,268 L1895,314 L1923,328 L1948,320 L1951,296 Z" fill="none" stroke="yellow" />
<path d="M1911,268 L1938,242 L1951,253 L1966,276 L1951,296 Z" fill="none" stroke="yellow" />
</svg>