<?xml version="1.0" encoding="UTF-8"?>
<svg xmlns="http://www.w3.org/2000/svg" xmlns:xlink="http://www.w3.org/1999/xlink"
     width="3000" height="1000" viewBox="0 0 3000 1000">
<defs>
</defs>
<path d="M5544,866 L5545.0,870.0 L5551.0,871.0 L5559.0,876.0 L5585.0,894.0 L5594,902 L5588.0,910.0 L5586.0,910.0 L5578.0,918.0 L5559.0,931.0 L5547.0,937.0 L5537,939 L5532.0,934.0 L5511.0,923.0 L5508,919 L5514.0,909.0 L5543.0,872.0 Z" fill="none" stroke="yellow" />
<path d="M5544,866 L5544.0,863.0 L5557.0,853.0 L5583.0,838.0 L5591,835 L5605.0,841.0 L5626.0,853.0 L5634.0,855.0 L5637,858 L5635.0,865.0 L5628.0,874.0 L5603.0,898.0 L5594,902 L5585.0,894.0 L5559.0,876.0 L5551.0,871.0 L5545.0,870.0 Z" fill="none" stroke="yellow" />
<path d="M4404,361 L4408.0,360.0 L4409.0,352.0 L4411.0,314.0 L4414.0,299.0 L4414.0,283.0 L4416.0,277.0 L4416.0,256.0 L4418.0,253.0 L4419.0,242.0 L4419.0,230.0 L4417,228 L4369.0,226.0 L4270.0,225.0 L4244.0,223.0 L4190,223 L4192.0,224.0 L4192.0,234.0 L4188.0,262.0 L4188.0,274.0 L4186.0,282.0 L4184.0,309.0 L4182.0,312.0 L4181.0,344.0 L4180.0,351.0 L4178,352 L4180.0,351.0 L4196.0,353.0 L4222.0,353.0 L4233.0,355.0 L4265.0,355.0 L4300.0,358.0 Z" fill="none" stroke="yellow" />
<path d="M4645,378 L4643.0,376.0 L4632.0,377.0 L4624.0,375.0 L4599.0,375.0 L4592.0,373.0 L4574.0,373.0 L4508.0,368.0 L4499.0,366.0 L4452.0,364.0 L4445.0,362.0 L4423.0,362.0 L4408.0,360.0 L4404,361 L4401.0,362.0 L4401.0,371.0 L4403.0,404.0 L4405.0,410.0 L4407.0,436.0 L4417.0,480.0 L4430,520 L4446.0,523.0 L4458.0,523.0 L4461.0,525.0 L4473.0,525.0 L4491.0,529.0 L4502.0,529.0 L4506.0,531.0 L4513.0,531.0 L4523.0,534.0 L4551.0,538.0 L4588.0,547.0 L4609,550 L4612.0,549.0 L4613.0,539.0 L4617.0,528.0 L4617.0,520.0 L4635.0,452.0 L4635.0,447.0 L4637.0,444.0 L4639.0,429.0 L4641.0,426.0 L4641.0,419.0 L4647.0,387.0 L4647.0,380.0 Z" fill="none" stroke="yellow" />
<path d="M5544,866 L5543.0,863.0 L5538.0,862.0 L5522.0,853.0 L5497.0,843.0 L5476.0,832.0 L5464.0,828.0 L5456.0,823.0 L5439,817 L5436.0,818.0 L5434.0,830.0 L5428.0,846.0 L5428.0,850.0 L5426.0,852.0 L5425.0,861.0 L5421.0,868.0 L5413,900 L5427.0,905.0 L5435.0,906.0 L5457.0,914.0 L5459,916 L5478.0,916.0 L5484.0,918.0 L5508,919 L5514.0,909.0 L5543.0,872.0 Z" fill="none" stroke="yellow" />
<path d="M4645,378 L4855,401 L4853.0,401.0 L4851.0,404.0 L4851.0,414.0 L4849.0,418.0 L4849.0,433.0 L4847.0,437.0 L4847.0,444.0 L4835.0,495.0 L4831.0,504.0 L4827.0,520.0 L4809.0,565.0 L4799,597 L4798.0,595.0 L4782.0,593.0 L4779.0,591.0 L4762.0,588.0 L4753.0,584.0 L4748.0,584.0 L4701.0,571.0 L4659.0,562.0 L4621.0,551.0 L4614.0,551.0 L4612.0,549.0 L4609,550 L4612.0,549.0 L4613.0,539.0 L4617.0,528.0 L4617.0,520.0 L4635.0,452.0 L4635.0,447.0 L4637.0,444.0 L4639.0,429.0 L4641.0,426.0 L4641.0,419.0 L4647.0,387.0 L4647.0,380.0 Z" fill="none" stroke="yellow" />
<path d="M4609,550 L4612.0,549.0 L4614.0,551.0 L4621.0,551.0 L4659.0,562.0 L4701.0,571.0 L4748.0,584.0 L4753.0,584.0 L4762.0,588.0 L4779.0,591.0 L4782.0,593.0 L4798.0,595.0 L4799,597 L4791.0,622.0 L4785.0,634.0 L4785.0,639.0 L4776.0,658.0 L4768.0,683.0 L4766.0,685.0 L4759.0,706.0 L4756.0,711.0 L4756.0,714.0 L4746.0,735.0 L4745.0,741.0 L4742,744 L4729.0,740.0 L4710.0,737.0 L4708.0,735.0 L4684.0,730.0 L4674.0,726.0 L4660.0,724.0 L4658.0,722.0 L4653.0,722.0 L4650.0,720.0 L4645.0,720.0 L4625.0,713.0 L4620.0,713.0 L4610.0,709.0 L4574.0,700.0 L4557.0,693.0 L4546.0,692.0 L4544,690 L4543.0,689.0 L4545.0,687.0 L4546.0,681.0 L4574.0,625.0 L4577.0,622.0 L4579.0,614.0 L4583.0,608.0 L4586.0,598.0 L4597.0,576.0 L4605.0,552.0 Z" fill="none" stroke="yellow" />
<path d="M4349,634 L4352.0,632.0 L4358.0,617.0 L4381.0,579.0 L4397.0,558.0 L4421.0,532.0 L4430,520 L4446.0,523.0 L4458.0,523.0 L4461.0,525.0 L4473.0,525.0 L4491.0,529.0 L4502.0,529.0 L4506.0,531.0 L4513.0,531.0 L4523.0,534.0 L4551.0,538.0 L4588.0,547.0 L4609,550 L4605.0,552.0 L4597.0,576.0 L4586.0,598.0 L4583.0,608.0 L4579.0,614.0 L4577.0,622.0 L4574.0,625.0 L4546.0,681.0 L4545.0,687.0 L4543.0,689.0 L4544,690 L4542.0,688.0 L4534.0,687.0 L4531.0,685.0 L4527.0,685.0 L4499.0,676.0 L4494.0,676.0 L4492.0,674.0 L4456.0,665.0 L4454.0,663.0 L4450.0,663.0 L4431.0,656.0 L4396.0,647.0 L4387.0,643.0 L4376.0,641.0 L4362.0,636.0 L4354.0,636.0 Z" fill="none" stroke="yellow" />
<path d="M2988,148 L3248,147 L3242,228 L2988,233 L2986.0,231.0 L2986.0,210.0 L2988.0,188.0 Z" fill="none" stroke="yellow" />
<path d="M2731,238 L2734.0,239.0 L2801.0,236.0 L2952.0,234.0 L2984.0,233.0 L2986.0,231.0 L2988,233 L2986.0,231.0 L2986.0,210.0 L2988.0,188.0 L2988,148 L2728,153 L2728.0,195.0 L2730.0,203.0 L2729.0,237.0 Z" fill="none" stroke="yellow" />
<path d="M2731,238 L2734.0,239.0 L2801.0,236.0 L2952.0,234.0 L2984.0,233.0 L2986.0,231.0 L2988,233 L2991.0,234.0 L2994.0,260.0 L2994.0,276.0 L2996.0,281.0 L2996.0,294.0 L2998.0,299.0 L3002,361 L2960.0,364.0 L2921.0,364.0 L2906.0,366.0 L2870.0,366.0 L2857.0,368.0 L2766.0,370.0 L2746,372 L2746.0,353.0 L2742.0,329.0 L2740.0,299.0 L2738.0,294.0 L2735.0,253.0 L2733.0,240.0 Z" fill="none" stroke="yellow" />
<path d="M2275,486 L2277.0,488.0 L2277.0,517.0 L2279.0,534.0 L2279.0,578.0 L2277.0,581.0 L2279,583 L2277.0,581.0 L2262.0,579.0 L2253.0,575.0 L2151.0,546.0 L2149.0,544.0 L2145.0,544.0 L2137.0,540.0 L2117.0,535.0 L2114.0,533.0 L2110.0,533.0 L2108.0,531.0 L2083,523 L2089.0,507.0 L2091.0,505.0 L2091.0,502.0 L2101.0,483.0 L2117,446 L2140.0,455.0 L2153.0,457.0 L2156.0,459.0 L2180.0,464.0 L2183.0,466.0 L2206.0,470.0 L2230.0,477.0 L2236.0,477.0 L2238.0,479.0 L2243.0,479.0 L2247.0,481.0 L2253.0,481.0 Z" fill="none" stroke="yellow" />
<path d="M2067,587 L2070.0,590.0 L2073.0,590.0 L2085.0,596.0 L2126.0,610.0 L2142.0,617.0 L2157.0,621.0 L2159.0,623.0 L2163.0,623.0 L2177.0,629.0 L2200.0,636.0 L2202.0,638.0 L2229.0,647.0 L2233.0,647.0 L2235.0,649.0 L2250.0,654.0 L2260.0,656.0 L2265.0,659.0 L2275,661 L2279.0,634.0 L2279.0,617.0 L2282.0,589.0 L2282.0,586.0 L2279,583 L2277.0,581.0 L2262.0,579.0 L2253.0,575.0 L2151.0,546.0 L2149.0,544.0 L2145.0,544.0 L2137.0,540.0 L2117.0,535.0 L2114.0,533.0 L2110.0,533.0 L2108.0,531.0 L2083,523 L2081.0,526.0 Z" fill="none" stroke="yellow" />
<path d="M2494,643 L2490.0,641.0 L2478.0,640.0 L2454.0,632.0 L2417.0,623.0 L2390.0,614.0 L2378.0,612.0 L2375.0,610.0 L2344.0,603.0 L2334.0,599.0 L2329.0,599.0 L2326.0,597.0 L2304.0,592.0 L2294.0,588.0 L2285.0,587.0 L2279,583 L2282.0,586.0 L2282.0,589.0 L2279.0,617.0 L2279.0,634.0 L2275,661 L2291.0,668.0 L2315.0,675.0 L2317.0,677.0 L2325.0,678.0 L2340.0,684.0 L2344.0,684.0 L2358.0,690.0 L2451.0,721.0 L2476.0,728.0 L2484,728 L2486.0,720.0 L2487.0,698.0 Z" fill="none" stroke="yellow" />
<path d="M2494,643 L2490.0,641.0 L2478.0,640.0 L2454.0,632.0 L2417.0,623.0 L2390.0,614.0 L2378.0,612.0 L2375.0,610.0 L2344.0,603.0 L2334.0,599.0 L2329.0,599.0 L2326.0,597.0 L2304.0,592.0 L2294.0,588.0 L2285.0,587.0 L2279,583 L2277.0,581.0 L2279.0,578.0 L2279.0,534.0 L2277.0,517.0 L2277.0,488.0 L2275,486 L2281.0,489.0 L2296.0,490.0 L2299.0,492.0 L2305.0,492.0 L2309.0,494.0 L2315.0,494.0 L2346.0,501.0 L2352.0,501.0 L2356.0,503.0 L2362.0,503.0 L2366.0,505.0 L2372.0,505.0 L2409.0,514.0 L2415.0,514.0 L2426.0,518.0 L2433.0,518.0 L2461.0,525.0 L2467.0,525.0 L2479.0,529.0 L2500.0,532.0 L2503,534 L2501.0,535.0 L2500.0,546.0 L2499.0,587.0 L2493.0,642.0 Z" fill="none" stroke="yellow" />
<path d="M1307,186 L1307.0,163.0 L1305.0,145.0 L1303,143 L1147.0,133.0 L1122.0,133.0 L1116.0,131.0 L1081.0,131.0 L1071.0,129.0 L1048.0,129.0 L997.0,125.0 L879,120 L882.0,121.0 L882,154 L976.0,161.0 L1033.0,163.0 L1041.0,165.0 L1061.0,165.0 L1068.0,167.0 L1112.0,169.0 L1133.0,172.0 L1147.0,172.0 L1155.0,174.0 L1171.0,174.0 L1179.0,176.0 L1197.0,176.0 L1203.0,178.0 L1226.0,178.0 L1232.0,180.0 L1246.0,180.0 L1254.0,182.0 Z" fill="none" stroke="yellow" />
<path d="M879,120 L997.0,125.0 L1048.0,129.0 L1071.0,129.0 L1081.0,131.0 L1116.0,131.0 L1122.0,133.0 L1147.0,133.0 L1303,143 L1303,89 L1298.0,87.0 L1285.0,87.0 L1275.0,85.0 L1211.0,83.0 L1203.0,81.0 L1165.0,81.0 L1153.0,79.0 L1109.0,78.0 L1074.0,75.0 L983.0,72.0 L974.0,70.0 L950.0,70.0 L904.0,66.0 L869,66 L870.0,84.0 L874.0,95.0 L877.0,118.0 Z" fill="none" stroke="yellow" />
<path d="M879,120 L812.0,120.0 L798.0,118.0 L727.0,118.0 L700.0,116.0 L554.0,114.0 L467.0,110.0 L430.0,110.0 L415.0,108.0 L368.0,107.0 L347.0,105.0 L305.0,105.0 L298.0,103.0 L199,99 L194.0,103.0 L182,103 L173.0,103.0 L171,100 L185.0,114.0 L190.0,115.0 L232.0,117.0 L239.0,119.0 L254.0,119.0 L261.0,121.0 L288.0,122.0 L299.0,124.0 L322.0,124.0 L359.0,128.0 L397.0,129.0 L407.0,131.0 L439.0,131.0 L447.0,133.0 L469.0,133.0 L477.0,135.0 L534.0,136.0 L582.0,140.0 L609.0,140.0 L620.0,142.0 L649.0,142.0 L661.0,144.0 L691.0,144.0 L698.0,146.0 L728.0,146.0 L740.0,148.0 L882,154 L882.0,121.0 Z" fill="none" stroke="yellow" />
<path d="M166,73 L168.0,76.0 L168.0,94.0 L171.0,97.0 L171,100 L171.0,97.0 L188.0,81.0 L188.0,74.0 L179,65 L172.0,66.0 Z" fill="none" stroke="yellow" />
<path d="M879,120 L877.0,118.0 L874.0,95.0 L870.0,84.0 L869,66 L674.0,66.0 L465.0,71.0 L326.0,71.0 L240.0,68.0 L203.0,63.0 L183.0,63.0 L179,65 L188.0,74.0 L188.0,81.0 L171.0,97.0 L171,100 L185.0,114.0 L190.0,115.0 L232.0,117.0 L239.0,119.0 L254.0,119.0 L261.0,121.0 L288.0,122.0 L299.0,124.0 L322.0,124.0 L359.0,128.0 L397.0,129.0 L407.0,131.0 L439.0,131.0 L447.0,133.0 L469.0,133.0 L477.0,135.0 L534.0,136.0 L582.0,140.0 L609.0,140.0 L620.0,142.0 L649.0,142.0 L661.0,144.0 L691.0,144.0 L698.0,146.0 L728.0,146.0 L740.0,148.0 L882,154 L882.0,121.0 Z" fill="none" stroke="yellow" />
<path d="M5372,959 L5382.0,940.0 L5384.0,932.0 L5390.0,920.0 L5390.0,915.0 L5393.0,909.0 L5394,901 L5358.0,892.0 L5353.0,892.0 L5350.0,890.0 L5345.0,890.0 L5342.0,888.0 L5320.0,884.0 L5305.0,879.0 L5300.0,879.0 L5297.0,877.0 L5285.0,875.0 L5270.0,870.0 L5268,871 L5266.0,883.0 L5266.0,902.0 L5269.0,916.0 L5269.0,935.0 L5271.0,938.0 L5271,944 L5301.0,948.0 L5306.0,950.0 L5318.0,951.0 L5347.0,957.0 L5363.0,958.0 L5368.0,960.0 Z" fill="none" stroke="yellow" />
<path d="M5439,817 L5443.0,816.0 L5446.0,807.0 L5451.0,801.0 L5467.0,772.0 L5476.0,759.0 L5498,715 L5495,705 L5486.0,702.0 L5464.0,688.0 L5448.0,680.0 L5437.0,672.0 L5419.0,663.0 L5384.0,641.0 L5370,634 L5347.0,678.0 L5344.0,681.0 L5339.0,692.0 L5324.0,716.0 L5323.0,721.0 L5314.0,735.0 L5306.0,755.0 L5302.0,761.0 L5302,765 L5303.0,767.0 L5307.0,767.0 L5330.0,777.0 L5353.0,784.0 L5363.0,789.0 L5404.0,803.0 L5424.0,812.0 L5432.0,814.0 L5436.0,817.0 Z" fill="none" stroke="yellow" />
<path d="M5370,634 L5368.0,631.0 L5328.0,610.0 L5236.0,554.0 L5225.0,550.0 L5224,547 L5221.0,556.0 L5191.0,609.0 L5155.0,680.0 L5155.0,683.0 L5152.0,687.0 L5147.0,703.0 L5145.0,705.0 L5146,707 L5149.0,710.0 L5153.0,710.0 L5158.0,713.0 L5167.0,715.0 L5181.0,722.0 L5190.0,724.0 L5195.0,727.0 L5249.0,745.0 L5259.0,750.0 L5302,765 L5302.0,761.0 L5306.0,755.0 L5314.0,735.0 L5323.0,721.0 L5324.0,716.0 L5339.0,692.0 L5344.0,681.0 L5347.0,678.0 Z" fill="none" stroke="yellow" />
<path d="M5268,871 L5271.0,869.0 L5273.0,858.0 L5286.0,821.0 L5286.0,817.0 L5297.0,785.0 L5302,765 L5259.0,750.0 L5249.0,745.0 L5195.0,727.0 L5190.0,724.0 L5181.0,722.0 L5167.0,715.0 L5158.0,713.0 L5153.0,710.0 L5149.0,710.0 L5146,707 L5138.0,734.0 L5138.0,740.0 L5135.0,746.0 L5135.0,752.0 L5133.0,756.0 L5133.0,762.0 L5131.0,766.0 L5128.0,785.0 L5124.0,796.0 L5122.0,810.0 L5118.0,820.0 L5115,836 L5118.0,838.0 L5132.0,840.0 L5135.0,842.0 L5148.0,844.0 L5156.0,847.0 L5180.0,851.0 L5184.0,853.0 L5189.0,853.0 L5201.0,857.0 L5207.0,857.0 L5215.0,860.0 L5231.0,862.0 L5235.0,864.0 L5242.0,864.0 L5245.0,866.0 L5260.0,868.0 Z" fill="none" stroke="yellow" />
<path d="M5439,817 L5436.0,818.0 L5434.0,830.0 L5428.0,846.0 L5428.0,850.0 L5426.0,852.0 L5425.0,861.0 L5421.0,868.0 L5413,900 L5394,901 L5358.0,892.0 L5353.0,892.0 L5350.0,890.0 L5345.0,890.0 L5342.0,888.0 L5320.0,884.0 L5305.0,879.0 L5300.0,879.0 L5297.0,877.0 L5285.0,875.0 L5270.0,870.0 L5268,871 L5271.0,869.0 L5273.0,858.0 L5286.0,821.0 L5286.0,817.0 L5297.0,785.0 L5302,765 L5303.0,767.0 L5307.0,767.0 L5330.0,777.0 L5353.0,784.0 L5363.0,789.0 L5404.0,803.0 L5424.0,812.0 L5432.0,814.0 L5436.0,817.0 Z" fill="none" stroke="yellow" />
<path d="M5064,444 L5071.0,445.0 L5086.0,454.0 L5139.0,492.0 L5211.0,539.0 L5222.0,544.0 L5224,547 L5221.0,556.0 L5191.0,609.0 L5155.0,680.0 L5155.0,683.0 L5152.0,687.0 L5147.0,703.0 L5145.0,705.0 L5146,707 L5145.0,705.0 L5131.0,702.0 L5104.0,691.0 L5101.0,691.0 L5089.0,685.0 L5080.0,683.0 L5078.0,681.0 L5018.0,661.0 L4997.0,656.0 L4995.0,654.0 L4990.0,654.0 L4987.0,652.0 L4976.0,650.0 L4971,647 L4970.0,645.0 L4972.0,643.0 L4977.0,626.0 L4989.0,598.0 L5012.0,552.0 L5017.0,538.0 L5023.0,528.0 L5030.0,511.0 Z" fill="none" stroke="yellow" />
<path d="M5064,444 L5030.0,511.0 L5023.0,528.0 L5017.0,538.0 L5012.0,552.0 L4989.0,598.0 L4977.0,626.0 L4972.0,643.0 L4970.0,645.0 L4971,647 L4970.0,645.0 L4949.0,641.0 L4916.0,630.0 L4912.0,630.0 L4878.0,619.0 L4860.0,615.0 L4848.0,610.0 L4844.0,610.0 L4834.0,606.0 L4799,597 L4809.0,565.0 L4827.0,520.0 L4831.0,504.0 L4835.0,495.0 L4847.0,444.0 L4847.0,437.0 L4849.0,433.0 L4849.0,418.0 L4851.0,414.0 L4851.0,404.0 L4853.0,401.0 L4855,401 L4858.0,400.0 L4962.0,415.0 L4971.0,415.0 L5055,430 L5056.0,433.0 L5063.0,440.0 Z" fill="none" stroke="yellow" />
<path d="M4935,793 L4934.0,792.0 L4936.0,784.0 L4945.0,760.0 L4945.0,756.0 L4947.0,754.0 L4956.0,718.0 L4958.0,715.0 L4963.0,684.0 L4967.0,671.0 L4967.0,665.0 L4972.0,649.0 L4971,647 L4970.0,645.0 L4949.0,641.0 L4916.0,630.0 L4912.0,630.0 L4878.0,619.0 L4860.0,615.0 L4848.0,610.0 L4844.0,610.0 L4834.0,606.0 L4799,597 L4791.0,622.0 L4785.0,634.0 L4785.0,639.0 L4776.0,658.0 L4768.0,683.0 L4766.0,685.0 L4759.0,706.0 L4756.0,711.0 L4756.0,714.0 L4746.0,735.0 L4745.0,741.0 L4742,744 L4744.0,743.0 L4746.0,745.0 L4755.0,746.0 L4765.0,750.0 L4781.0,753.0 L4800.0,759.0 L4807.0,759.0 L4817.0,763.0 L4866.0,774.0 L4880.0,779.0 L4892.0,781.0 L4895.0,783.0 L4900.0,783.0 L4915.0,788.0 L4932.0,791.0 Z" fill="none" stroke="yellow" />
<path d="M4935,793 L4943.0,794.0 L4971.0,803.0 L4993.0,807.0 L5015.0,814.0 L5020.0,814.0 L5049.0,822.0 L5064.0,824.0 L5071.0,827.0 L5077.0,827.0 L5080.0,829.0 L5115,836 L5118.0,820.0 L5122.0,810.0 L5124.0,796.0 L5128.0,785.0 L5131.0,766.0 L5133.0,762.0 L5133.0,756.0 L5135.0,752.0 L5135.0,746.0 L5138.0,740.0 L5138.0,734.0 L5146,707 L5145.0,705.0 L5131.0,702.0 L5104.0,691.0 L5101.0,691.0 L5089.0,685.0 L5080.0,683.0 L5078.0,681.0 L5018.0,661.0 L4997.0,656.0 L4995.0,654.0 L4990.0,654.0 L4987.0,652.0 L4976.0,650.0 L4971,647 L4972.0,649.0 L4967.0,665.0 L4967.0,671.0 L4963.0,684.0 L4958.0,715.0 L4956.0,718.0 L4947.0,754.0 L4945.0,756.0 L4945.0,760.0 L4936.0,784.0 L4934.0,792.0 Z" fill="none" stroke="yellow" />
<path d="M4895,1058 L4920.0,1058.0 L4945.0,1055.0 L4963.0,1055.0 L4972.0,1053.0 L4981.0,1054.0 L5026,1052 L5025.0,1044.0 L5022.0,1038.0 L5022.0,1033.0 L5019.0,1027.0 L5019.0,1022.0 L5017.0,1019.0 L5017.0,1012.0 L5015.0,1009.0 L5013,992 L4973.0,989.0 L4966.0,987.0 L4945.0,986.0 L4936.0,984.0 L4923.0,984.0 L4917.0,982.0 L4892.0,980.0 L4878.0,977.0 L4876,978 L4875.0,983.0 L4877.0,987.0 L4878.0,1001.0 L4888.0,1034.0 L4890.0,1036.0 L4890.0,1040.0 L4895.0,1051.0 Z" fill="none" stroke="yellow" />
<path d="M4713,857 L4705,858 L4699.0,857.0 L4697.0,855.0 L4682.0,855.0 L4636.0,846.0 L4630.0,846.0 L4625.0,844.0 L4606.0,842.0 L4602.0,840.0 L4584.0,838.0 L4566.0,833.0 L4557.0,833.0 L4545.0,829.0 L4539.0,829.0 L4535.0,827.0 L4529.0,827.0 L4525.0,825.0 L4512,823 L4512.0,815.0 L4529.0,755.0 L4531.0,741.0 L4533.0,739.0 L4535.0,728.0 L4538.0,721.0 L4544,690 L4546.0,692.0 L4557.0,693.0 L4574.0,700.0 L4610.0,709.0 L4620.0,713.0 L4625.0,713.0 L4645.0,720.0 L4650.0,720.0 L4653.0,722.0 L4658.0,722.0 L4660.0,724.0 L4674.0,726.0 L4684.0,730.0 L4708.0,735.0 L4710.0,737.0 L4729.0,740.0 L4742,744 L4739.0,746.0 L4735.0,771.0 L4730.0,779.0 L4728.0,794.0 L4726.0,797.0 L4724.0,809.0 L4721.0,816.0 L4721.0,821.0 L4719.0,824.0 L4718.0,835.0 L4716.0,837.0 L4714.0,846.0 Z" fill="none" stroke="yellow" />
<path d="M4713,857 L4722.0,860.0 L4751.0,864.0 L4755.0,866.0 L4761.0,866.0 L4765.0,868.0 L4805.0,875.0 L4809.0,877.0 L4816.0,877.0 L4819.0,879.0 L4825.0,879.0 L4834.0,882.0 L4847.0,883.0 L4853.0,886.0 L4866.0,888.0 L4869.0,890.0 L4877.0,890.0 L4880.0,892.0 L4891,894 L4909,891 L4912.0,876.0 L4918.0,858.0 L4918.0,853.0 L4921.0,847.0 L4923.0,835.0 L4928.0,820.0 L4932.0,797.0 L4935,793 L4932.0,791.0 L4915.0,788.0 L4900.0,783.0 L4895.0,783.0 L4892.0,781.0 L4880.0,779.0 L4866.0,774.0 L4817.0,763.0 L4807.0,759.0 L4800.0,759.0 L4781.0,753.0 L4765.0,750.0 L4755.0,746.0 L4746.0,745.0 L4744.0,743.0 L4742,744 L4739.0,746.0 L4735.0,771.0 L4730.0,779.0 L4728.0,794.0 L4726.0,797.0 L4724.0,809.0 L4721.0,816.0 L4721.0,821.0 L4719.0,824.0 L4718.0,835.0 L4716.0,837.0 L4714.0,846.0 Z" fill="none" stroke="yellow" />
<path d="M4645,378 L4643.0,376.0 L4632.0,377.0 L4624.0,375.0 L4599.0,375.0 L4592.0,373.0 L4574.0,373.0 L4508.0,368.0 L4499.0,366.0 L4452.0,364.0 L4445.0,362.0 L4423.0,362.0 L4408.0,360.0 L4404,361 L4408.0,360.0 L4409.0,352.0 L4411.0,314.0 L4414.0,299.0 L4414.0,283.0 L4416.0,277.0 L4416.0,256.0 L4418.0,253.0 L4419.0,242.0 L4419.0,230.0 L4417,228 L4516.0,232.0 L4588,233 L4624.0,237.0 L4671,245 L4667.0,271.0 L4663.0,284.0 L4663.0,290.0 L4661.0,293.0 L4661.0,299.0 L4659.0,301.0 L4659.0,306.0 L4654.0,321.0 L4652.0,334.0 L4650.0,337.0 L4645.0,359.0 L4645.0,367.0 L4643.0,373.0 L4643.0,376.0 Z" fill="none" stroke="yellow" />
<path d="M4417,228 L4415.0,227.0 L4415.0,211.0 L4418.0,193.0 L4419.0,168.0 L4421,162 L4528.0,167.0 L4541.0,169.0 L4569.0,169.0 L4572.0,171.0 L4591.0,171.0 L4595,173 L4593.0,190.0 L4591.0,195.0 L4591.0,208.0 L4589.0,216.0 L4588,233 L4516.0,232.0 Z" fill="none" stroke="yellow" />
<path d="M4417,228 L4415.0,227.0 L4415.0,211.0 L4418.0,193.0 L4419.0,168.0 L4421,162 L4374.0,159.0 L4194,155 L4192.0,188.0 L4190.0,194.0 L4190.0,210.0 L4188.0,217.0 L4188.0,221.0 L4190,223 L4244.0,223.0 L4270.0,225.0 L4369.0,226.0 Z" fill="none" stroke="yellow" />
<path d="M4140,586 L4141.0,585.0 L4143.0,587.0 L4156.0,588.0 L4159.0,590.0 L4165.0,590.0 L4173.0,593.0 L4188.0,595.0 L4191.0,597.0 L4199.0,597.0 L4202.0,599.0 L4208.0,599.0 L4212.0,601.0 L4218.0,601.0 L4246.0,607.0 L4254.0,610.0 L4260.0,610.0 L4349,634 L4347.0,636.0 L4344.0,656.0 L4332.0,698.0 L4315.0,743.0 L4313.0,752.0 L4311.0,754.0 L4311.0,758.0 L4306.0,772.0 L4306.0,777.0 L4303,779 L4274.0,774.0 L4271.0,772.0 L4264.0,772.0 L4261.0,770.0 L4255.0,770.0 L4226.0,763.0 L4220.0,763.0 L4197.0,757.0 L4165.0,752.0 L4153.0,748.0 L4135.0,746.0 L4131.0,744.0 L4103.0,739.0 L4101.0,737.0 L4099,738 L4102.0,736.0 L4103.0,725.0 L4110.0,704.0 L4118.0,672.0 L4118.0,667.0 L4123.0,652.0 L4125.0,638.0 L4129.0,628.0 L4132.0,610.0 L4136.0,599.0 L4136.0,594.0 L4138.0,587.0 Z" fill="none" stroke="yellow" />
<path d="M4512,823 L4503.0,820.0 L4496.0,820.0 L4486.0,818.0 L4483.0,816.0 L4477.0,816.0 L4461.0,811.0 L4455.0,811.0 L4443.0,807.0 L4419.0,803.0 L4415.0,801.0 L4393.0,798.0 L4381.0,794.0 L4375.0,794.0 L4347.0,787.0 L4341.0,787.0 L4338.0,785.0 L4331.0,785.0 L4328.0,783.0 L4307.0,780.0 L4305.0,778.0 L4303,779 L4306.0,777.0 L4306.0,772.0 L4311.0,758.0 L4311.0,754.0 L4313.0,752.0 L4315.0,743.0 L4332.0,698.0 L4344.0,656.0 L4347.0,636.0 L4349,634 L4354.0,636.0 L4362.0,636.0 L4376.0,641.0 L4387.0,643.0 L4396.0,647.0 L4431.0,656.0 L4450.0,663.0 L4454.0,663.0 L4456.0,665.0 L4492.0,674.0 L4494.0,676.0 L4499.0,676.0 L4527.0,685.0 L4531.0,685.0 L4534.0,687.0 L4542.0,688.0 L4544,690 L4538.0,721.0 L4535.0,728.0 L4533.0,739.0 L4531.0,741.0 L4529.0,755.0 L4512.0,815.0 Z" fill="none" stroke="yellow" />
<path d="M4140,586 L4102.0,577.0 L4094.0,577.0 L4082.0,573.0 L4026.0,564.0 L4022.0,562.0 L4004.0,560.0 L3999.0,558.0 L3991.0,558.0 L3989.0,556.0 L3967.0,553.0 L3963.0,551.0 L3957.0,551.0 L3954.0,549.0 L3939.0,548.0 L3934,546 L3928.0,571.0 L3923.0,583.0 L3922.0,590.0 L3914.0,612.0 L3900.0,661.0 L3898.0,673.0 L3893.0,688.0 L3893.0,694.0 L3891,695 L3893.0,694.0 L3896.0,696.0 L3927.0,702.0 L3930.0,704.0 L3957.0,708.0 L3965.0,711.0 L3971.0,711.0 L3975.0,713.0 L3981.0,713.0 L3985.0,715.0 L4024.0,722.0 L4068.0,733.0 L4084.0,735.0 L4087.0,737.0 L4093.0,737.0 L4097.0,739.0 L4099,738 L4102.0,736.0 L4103.0,725.0 L4110.0,704.0 L4118.0,672.0 L4118.0,667.0 L4123.0,652.0 L4125.0,638.0 L4129.0,628.0 L4132.0,610.0 L4136.0,599.0 L4136.0,594.0 L4138.0,587.0 Z" fill="none" stroke="yellow" />
<path d="M4512,823 L4503.0,820.0 L4496.0,820.0 L4486.0,818.0 L4483.0,816.0 L4477.0,816.0 L4461.0,811.0 L4455.0,811.0 L4443.0,807.0 L4419.0,803.0 L4415.0,801.0 L4393.0,798.0 L4381.0,794.0 L4375.0,794.0 L4347.0,787.0 L4341.0,787.0 L4338.0,785.0 L4331.0,785.0 L4328.0,783.0 L4307.0,780.0 L4305.0,778.0 L4303,779 L4300.0,781.0 L4300.0,788.0 L4298.0,791.0 L4298.0,797.0 L4296.0,802.0 L4293.0,841.0 L4291.0,846.0 L4291.0,859.0 L4284,900 L4285.0,899.0 L4289.0,901.0 L4296.0,901.0 L4299.0,903.0 L4305.0,903.0 L4336.0,910.0 L4343.0,910.0 L4347.0,912.0 L4354.0,912.0 L4357.0,914.0 L4381.0,916.0 L4386.0,918.0 L4416.0,919.0 L4422.0,921.0 L4446.0,923.0 L4450.0,925.0 L4459.0,925.0 L4463.0,927.0 L4491,929 L4503.0,860.0 L4506.0,850.0 L4506.0,844.0 L4508.0,841.0 L4508.0,833.0 Z" fill="none" stroke="yellow" />
<path d="M4079,862 L4081.0,859.0 L4081.0,851.0 L4083.0,848.0 L4083.0,840.0 L4088.0,813.0 L4088.0,803.0 L4090.0,797.0 L4090.0,787.0 L4092.0,780.0 L4096.0,740.0 L4099,738 L4101.0,737.0 L4103.0,739.0 L4131.0,744.0 L4135.0,746.0 L4153.0,748.0 L4165.0,752.0 L4197.0,757.0 L4220.0,763.0 L4226.0,763.0 L4255.0,770.0 L4261.0,770.0 L4264.0,772.0 L4271.0,772.0 L4274.0,774.0 L4303,779 L4300.0,781.0 L4300.0,788.0 L4298.0,791.0 L4298.0,797.0 L4296.0,802.0 L4293.0,841.0 L4291.0,846.0 L4291.0,859.0 L4284,900 L4275.0,897.0 L4268.0,897.0 L4236.0,890.0 L4230.0,890.0 L4227.0,888.0 L4220.0,888.0 L4216.0,886.0 L4209.0,886.0 L4187.0,881.0 L4169.0,879.0 L4166.0,877.0 L4158.0,877.0 L4155.0,875.0 L4148.0,875.0 L4135.0,871.0 L4113.0,868.0 L4109.0,866.0 L4083.0,863.0 L4080.0,861.0 Z" fill="none" stroke="yellow" />
<path d="M4512,823 L4508.0,833.0 L4508.0,841.0 L4506.0,844.0 L4506.0,850.0 L4503.0,860.0 L4491,929 L4494.0,931.0 L4529.0,934.0 L4554.0,939.0 L4583.0,943.0 L4593.0,943.0 L4597.0,945.0 L4607.0,945.0 L4611.0,947.0 L4621.0,947.0 L4625.0,949.0 L4636.0,949.0 L4640.0,951.0 L4657.0,952.0 L4662.0,954.0 L4698,957 L4700.0,911.0 L4705,858 L4699.0,857.0 L4697.0,855.0 L4682.0,855.0 L4636.0,846.0 L4630.0,846.0 L4625.0,844.0 L4606.0,842.0 L4602.0,840.0 L4584.0,838.0 L4566.0,833.0 L4557.0,833.0 L4545.0,829.0 L4539.0,829.0 L4535.0,827.0 L4529.0,827.0 L4525.0,825.0 Z" fill="none" stroke="yellow" />
<path d="M4713,857 L4722.0,860.0 L4751.0,864.0 L4755.0,866.0 L4761.0,866.0 L4765.0,868.0 L4805.0,875.0 L4809.0,877.0 L4816.0,877.0 L4819.0,879.0 L4825.0,879.0 L4834.0,882.0 L4847.0,883.0 L4853.0,886.0 L4866.0,888.0 L4869.0,890.0 L4877.0,890.0 L4880.0,892.0 L4891,894 L4889.0,916.0 L4886.0,927.0 L4886.0,936.0 L4883.0,943.0 L4878.0,977.0 L4876,978 L4873.0,979.0 L4854.0,976.0 L4822.0,975.0 L4817.0,973.0 L4798.0,973.0 L4765.0,967.0 L4707.0,960.0 L4698,957 L4700.0,911.0 L4705,858 Z" fill="none" stroke="yellow" />
<path d="M3955,220 L4187.0,222.0 L4188.0,221.0 L4190,223 L4192.0,224.0 L4192.0,234.0 L4188.0,262.0 L4188.0,274.0 L4186.0,282.0 L4184.0,309.0 L4182.0,312.0 L4181.0,344.0 L4180.0,351.0 L4178,352 L4128.0,349.0 L4076.0,348.0 L4058.0,346.0 L4024.0,346.0 L4007.0,344.0 L3955.0,344.0 L3953,342 L3952.0,305.0 L3955.0,267.0 Z" fill="none" stroke="yellow" />
<path d="M3955,220 L4187.0,222.0 L4188.0,221.0 L4190,223 L4188.0,221.0 L4188.0,217.0 L4190.0,210.0 L4190.0,194.0 L4192.0,188.0 L4194,155 L4128.0,152.0 L4091.0,153.0 L3964,150 L3963.0,168.0 L3961.0,172.0 L3961.0,182.0 L3958.0,194.0 L3958.0,204.0 Z" fill="none" stroke="yellow" />
<path d="M4140,586 L4102.0,577.0 L4094.0,577.0 L4082.0,573.0 L4026.0,564.0 L4022.0,562.0 L4004.0,560.0 L3999.0,558.0 L3991.0,558.0 L3989.0,556.0 L3967.0,553.0 L3963.0,551.0 L3957.0,551.0 L3954.0,549.0 L3939.0,548.0 L3934,546 L3936.0,545.0 L3937.0,537.0 L3942.0,522.0 L3948.0,495.0 L3950.0,478.0 L3952.0,474.0 L3954.0,456.0 L3954.0,436.0 L3956.0,420.0 L3956.0,371.0 L3954.0,350.0 L3955.0,344.0 L3953,342 L3955.0,344.0 L4007.0,344.0 L4024.0,346.0 L4058.0,346.0 L4076.0,348.0 L4128.0,349.0 L4178,352 L4175.0,438.0 L4173.0,446.0 L4173.0,457.0 L4171.0,462.0 L4169.0,487.0 L4162.0,518.0 L4149.0,559.0 L4145.0,567.0 Z" fill="none" stroke="yellow" />
<path d="M4079,862 L4048.0,855.0 L4040.0,855.0 L4037.0,853.0 L4002.0,849.0 L3998.0,847.0 L3967.0,842.0 L3964.0,840.0 L3958.0,840.0 L3931.0,833.0 L3924.0,833.0 L3921.0,831.0 L3914.0,831.0 L3911.0,829.0 L3903.0,829.0 L3900.0,827.0 L3869.0,822.0 L3866.0,820.0 L3865,821 L3867.0,818.0 L3869.0,800.0 L3878.0,764.0 L3878.0,756.0 L3880.0,746.0 L3882.0,743.0 L3882.0,735.0 L3884.0,731.0 L3889.0,699.0 L3891,695 L3893.0,694.0 L3896.0,696.0 L3927.0,702.0 L3930.0,704.0 L3957.0,708.0 L3965.0,711.0 L3971.0,711.0 L3975.0,713.0 L3981.0,713.0 L3985.0,715.0 L4024.0,722.0 L4068.0,733.0 L4084.0,735.0 L4087.0,737.0 L4093.0,737.0 L4097.0,739.0 L4099,738 L4096.0,740.0 L4092.0,780.0 L4090.0,787.0 L4090.0,797.0 L4088.0,803.0 L4088.0,813.0 L4083.0,840.0 L4083.0,848.0 L4081.0,851.0 L4081.0,859.0 Z" fill="none" stroke="yellow" />
<path d="M3680,646 L3758.0,663.0 L3761.0,665.0 L3777.0,667.0 L3780.0,669.0 L3785.0,669.0 L3819.0,678.0 L3825.0,678.0 L3828.0,680.0 L3833.0,680.0 L3836.0,682.0 L3841.0,682.0 L3891,695 L3893.0,694.0 L3893.0,688.0 L3898.0,673.0 L3900.0,661.0 L3914.0,612.0 L3922.0,590.0 L3923.0,583.0 L3928.0,571.0 L3934,546 L3913.0,542.0 L3910.0,540.0 L3904.0,540.0 L3892.0,536.0 L3884.0,536.0 L3881.0,534.0 L3875.0,534.0 L3862.0,530.0 L3852.0,529.0 L3850.0,527.0 L3845.0,527.0 L3842.0,525.0 L3814.0,519.0 L3807.0,516.0 L3802.0,516.0 L3800.0,514.0 L3794.0,514.0 L3780.0,508.0 L3754.0,501.0 L3752.0,499.0 L3737.0,496.0 L3734,494 L3732.0,496.0 L3731.0,503.0 L3729.0,505.0 L3718.0,539.0 L3699.0,585.0 L3693.0,604.0 L3691.0,606.0 L3683.0,630.0 L3681.0,643.0 L3679.0,645.0 Z" fill="none" stroke="yellow" />
<path d="M3747,344 L3769.0,342.0 L3953,342 L3955.0,344.0 L3954.0,350.0 L3956.0,371.0 L3956.0,420.0 L3954.0,436.0 L3954.0,456.0 L3952.0,474.0 L3950.0,478.0 L3948.0,495.0 L3942.0,522.0 L3937.0,537.0 L3936.0,545.0 L3934,546 L3913.0,542.0 L3910.0,540.0 L3904.0,540.0 L3892.0,536.0 L3884.0,536.0 L3881.0,534.0 L3875.0,534.0 L3862.0,530.0 L3852.0,529.0 L3850.0,527.0 L3845.0,527.0 L3842.0,525.0 L3814.0,519.0 L3807.0,516.0 L3802.0,516.0 L3800.0,514.0 L3794.0,514.0 L3780.0,508.0 L3754.0,501.0 L3752.0,499.0 L3737.0,496.0 L3734,494 L3737.0,492.0 L3738.0,484.0 L3744.0,469.0 L3751.0,427.0 L3751.0,397.0 Z" fill="none" stroke="yellow" />
<path d="M3680,646 L3679.0,645.0 L3681.0,643.0 L3683.0,630.0 L3691.0,606.0 L3693.0,604.0 L3699.0,585.0 L3718.0,539.0 L3729.0,505.0 L3731.0,503.0 L3732.0,496.0 L3734,494 L3672.0,471.0 L3570.0,426.0 L3559,424 L3522.0,467.0 L3496.0,505.0 L3474.0,546.0 L3466.0,567.0 L3459.0,577.0 L3458.0,592.0 L3455,596 L3457.0,595.0 L3459.0,597.0 L3476.0,599.0 L3480.0,601.0 L3515.0,608.0 L3522.0,608.0 L3525.0,610.0 L3531.0,610.0 L3544.0,614.0 L3551.0,614.0 L3572.0,619.0 L3578.0,619.0 L3596.0,625.0 L3621.0,630.0 L3624.0,632.0 L3636.0,634.0 L3667.0,643.0 L3677.0,644.0 Z" fill="none" stroke="yellow" />
<path d="M3680,646 L3677.0,652.0 L3677.0,658.0 L3670.0,683.0 L3666.0,706.0 L3654.0,746.0 L3654.0,750.0 L3649.0,763.0 L3648.0,773.0 L3646,776 L3649.0,778.0 L3655.0,778.0 L3673.0,783.0 L3680.0,783.0 L3683.0,785.0 L3689.0,785.0 L3705.0,790.0 L3730.0,794.0 L3742.0,798.0 L3776.0,803.0 L3780.0,805.0 L3789.0,805.0 L3791.0,807.0 L3799.0,807.0 L3802.0,809.0 L3845.0,816.0 L3848.0,818.0 L3855.0,818.0 L3858.0,820.0 L3865,821 L3867.0,818.0 L3869.0,800.0 L3878.0,764.0 L3878.0,756.0 L3880.0,746.0 L3882.0,743.0 L3882.0,735.0 L3884.0,731.0 L3889.0,699.0 L3891,695 L3841.0,682.0 L3836.0,682.0 L3833.0,680.0 L3828.0,680.0 L3825.0,678.0 L3819.0,678.0 L3785.0,669.0 L3780.0,669.0 L3777.0,667.0 L3761.0,665.0 L3758.0,663.0 Z" fill="none" stroke="yellow" />
<path d="M4140,586 L4141.0,585.0 L4143.0,587.0 L4156.0,588.0 L4159.0,590.0 L4165.0,590.0 L4173.0,593.0 L4188.0,595.0 L4191.0,597.0 L4199.0,597.0 L4202.0,599.0 L4208.0,599.0 L4212.0,601.0 L4218.0,601.0 L4246.0,607.0 L4254.0,610.0 L4260.0,610.0 L4349,634 L4352.0,632.0 L4358.0,617.0 L4381.0,579.0 L4397.0,558.0 L4421.0,532.0 L4430,520 L4417.0,480.0 L4407.0,436.0 L4405.0,410.0 L4403.0,404.0 L4401.0,371.0 L4401.0,362.0 L4404,361 L4300.0,358.0 L4265.0,355.0 L4233.0,355.0 L4222.0,353.0 L4196.0,353.0 L4180.0,351.0 L4178,352 L4175.0,438.0 L4173.0,446.0 L4173.0,457.0 L4171.0,462.0 L4169.0,487.0 L4162.0,518.0 L4149.0,559.0 L4145.0,567.0 Z" fill="none" stroke="yellow" />
<path d="M3955,220 L3955.0,267.0 L3952.0,305.0 L3953,342 L3769.0,342.0 L3747,344 L3735,343 L3735.0,318.0 L3733.0,310.0 L3733.0,294.0 L3731.0,284.0 L3731.0,249.0 L3729.0,237.0 L3729.0,224.0 L3727,222 L3746.0,223.0 Z" fill="none" stroke="yellow" />
<path d="M3728,149 L3869.0,148.0 L3964,150 L3963.0,168.0 L3961.0,172.0 L3961.0,182.0 L3958.0,194.0 L3958.0,204.0 L3955,220 L3746.0,223.0 L3727,222 L3725.0,221.0 L3725.0,213.0 L3728.0,171.0 Z" fill="none" stroke="yellow" />
<path d="M3735,343 L3747,344 L3751.0,397.0 L3751.0,427.0 L3744.0,469.0 L3738.0,484.0 L3737.0,492.0 L3734,494 L3672.0,471.0 L3570.0,426.0 L3559,424 L3558.0,418.0 L3543.0,397.0 L3526.0,369.0 L3524,361 L3531.0,359.0 L3544.0,359.0 L3580.0,355.0 L3594.0,355.0 L3603.0,353.0 L3617.0,353.0 L3625.0,351.0 L3643.0,351.0 L3675.0,347.0 Z" fill="none" stroke="yellow" />
<path d="M3424,728 L3462.0,735.0 L3465.0,737.0 L3471.0,737.0 L3483.0,741.0 L3489.0,741.0 L3503.0,746.0 L3518.0,748.0 L3521.0,750.0 L3527.0,750.0 L3531.0,752.0 L3569.0,759.0 L3572.0,761.0 L3577.0,761.0 L3579.0,763.0 L3586.0,763.0 L3646,776 L3648.0,773.0 L3649.0,763.0 L3654.0,750.0 L3654.0,746.0 L3666.0,706.0 L3670.0,683.0 L3677.0,658.0 L3677.0,652.0 L3680,646 L3677.0,644.0 L3667.0,643.0 L3636.0,634.0 L3624.0,632.0 L3621.0,630.0 L3596.0,625.0 L3578.0,619.0 L3572.0,619.0 L3551.0,614.0 L3544.0,614.0 L3531.0,610.0 L3525.0,610.0 L3522.0,608.0 L3515.0,608.0 L3480.0,601.0 L3476.0,599.0 L3459.0,597.0 L3457.0,595.0 L3455,596 L3440.0,671.0 L3436.0,681.0 L3428.0,714.0 L3425.0,720.0 L3425.0,725.0 L3423.0,727.0 Z" fill="none" stroke="yellow" />
<path d="M3424,728 L3422.0,726.0 L3395.0,722.0 L3378.0,717.0 L3372.0,717.0 L3369.0,715.0 L3362.0,715.0 L3359.0,713.0 L3343.0,711.0 L3340.0,709.0 L3319.0,706.0 L3316.0,704.0 L3309.0,704.0 L3306.0,702.0 L3300.0,702.0 L3280.0,696.0 L3263.0,693.0 L3260.0,691.0 L3255.0,691.0 L3252.0,689.0 L3245.0,689.0 L3242.0,687.0 L3228.0,685.0 L3210.0,680.0 L3204.0,680.0 L3202.0,678.0 L3201,679 L3222.0,614.0 L3226.0,592.0 L3230.0,581.0 L3232.0,563.0 L3233.0,559.0 L3235,558 L3237.0,557.0 L3240.0,559.0 L3291.0,566.0 L3312.0,571.0 L3331.0,573.0 L3335.0,575.0 L3343.0,575.0 L3369.0,581.0 L3404.0,586.0 L3408.0,588.0 L3415.0,588.0 L3455,596 L3440.0,671.0 L3436.0,681.0 L3428.0,714.0 L3425.0,720.0 L3425.0,725.0 L3423.0,727.0 Z" fill="none" stroke="yellow" />
<path d="M3264,358 L3178.0,360.0 L3069.0,360.0 L3012.0,362.0 L3002,361 L3004.0,369.0 L3005.0,402.0 L3007.0,416.0 L3007.0,458.0 L3005.0,468.0 L3005.0,487.0 L3001.0,508.0 L3000.0,525.0 L2997,528 L2999.0,527.0 L3002.0,529.0 L3028.0,531.0 L3035.0,533.0 L3146.0,544.0 L3166.0,548.0 L3180.0,549.0 L3184.0,551.0 L3192.0,551.0 L3197.0,553.0 L3206.0,553.0 L3235,558 L3238.0,554.0 L3239.0,542.0 L3252.0,492.0 L3257.0,462.0 L3259.0,437.0 L3261.0,429.0 L3262.0,361.0 Z" fill="none" stroke="yellow" />
<path d="M3242,228 L3250,229 L3252.0,249.0 L3254.0,253.0 L3256.0,275.0 L3260.0,294.0 L3261.0,314.0 L3263.0,320.0 L3263.0,335.0 L3265.0,340.0 L3264,358 L3178.0,360.0 L3069.0,360.0 L3012.0,362.0 L3002,361 L2998.0,299.0 L2996.0,294.0 L2996.0,281.0 L2994.0,276.0 L2994.0,260.0 L2991.0,234.0 L2988,233 Z" fill="none" stroke="yellow" />
<path d="M3250,229 L3252.0,249.0 L3254.0,253.0 L3256.0,275.0 L3260.0,294.0 L3261.0,314.0 L3263.0,320.0 L3263.0,335.0 L3265.0,340.0 L3264,358 L3333.0,357.0 L3461.0,360.0 L3512,359 L3510.0,325.0 L3508.0,319.0 L3508.0,301.0 L3506.0,293.0 L3506.0,282.0 L3499,227 L3482,225 L3415.0,225.0 L3387.0,227.0 Z" fill="none" stroke="yellow" />
<path d="M3201,679 L3167.0,672.0 L3159.0,669.0 L3153.0,669.0 L3140.0,665.0 L3102.0,658.0 L3098.0,656.0 L3092.0,656.0 L3081.0,652.0 L3074.0,652.0 L3048.0,645.0 L3043.0,645.0 L3040.0,643.0 L3034.0,643.0 L3031.0,641.0 L3001.0,636.0 L2988.0,632.0 L2974.0,631.0 L2970,629 L2972.0,626.0 L2972.0,619.0 L2974.0,616.0 L2979.0,595.0 L2983.0,585.0 L2985.0,573.0 L2988.0,566.0 L2995.0,530.0 L2997,528 L2999.0,527.0 L3002.0,529.0 L3028.0,531.0 L3035.0,533.0 L3146.0,544.0 L3166.0,548.0 L3180.0,549.0 L3184.0,551.0 L3192.0,551.0 L3197.0,553.0 L3206.0,553.0 L3235,558 L3233.0,559.0 L3232.0,563.0 L3230.0,581.0 L3226.0,592.0 L3222.0,614.0 Z" fill="none" stroke="yellow" />
<path d="M3201,679 L3167.0,672.0 L3159.0,669.0 L3153.0,669.0 L3140.0,665.0 L3102.0,658.0 L3098.0,656.0 L3092.0,656.0 L3081.0,652.0 L3074.0,652.0 L3048.0,645.0 L3043.0,645.0 L3040.0,643.0 L3034.0,643.0 L3031.0,641.0 L3001.0,636.0 L2988.0,632.0 L2974.0,631.0 L2970,629 L2968.0,631.0 L2966.0,650.0 L2963.0,662.0 L2963.0,677.0 L2961.0,684.0 L2961.0,696.0 L2959.0,701.0 L2959.0,716.0 L2957.0,723.0 L2956.0,743.0 L2954,746 L2965.0,750.0 L2990.0,754.0 L3018.0,761.0 L3025.0,761.0 L3052.0,768.0 L3128.0,783.0 L3131.0,785.0 L3136.0,785.0 L3160.0,792.0 L3176.0,794.0 L3178,793 L3180.0,792.0 L3180.0,786.0 L3182.0,783.0 L3199.0,680.0 Z" fill="none" stroke="yellow" />
<path d="M3174,891 L3175.0,795.0 L3178,793 L3176.0,794.0 L3160.0,792.0 L3136.0,785.0 L3131.0,785.0 L3128.0,783.0 L3052.0,768.0 L3025.0,761.0 L3018.0,761.0 L2990.0,754.0 L2965.0,750.0 L2954,746 L2952.0,749.0 L2952.0,765.0 L2950.0,780.0 L2950,846 L2953.0,848.0 L2969.0,850.0 L2973.0,852.0 L3003.0,855.0 L3008.0,857.0 L3047.0,863.0 L3051.0,865.0 L3059.0,865.0 L3068.0,868.0 L3074.0,868.0 L3092.0,874.0 L3111.0,878.0 L3119.0,878.0 L3137.0,885.0 Z" fill="none" stroke="yellow" />
<path d="M3174,891 L3189.0,896.0 L3196.0,896.0 L3206.0,899.0 L3223.0,901.0 L3227.0,903.0 L3235.0,903.0 L3249.0,907.0 L3266.0,909.0 L3270.0,911.0 L3294.0,914.0 L3298.0,916.0 L3323.0,920.0 L3327.0,922.0 L3335.0,922.0 L3344.0,925.0 L3351.0,925.0 L3376.0,931.0 L3397,933 L3402,837 L3384.0,835.0 L3380.0,833.0 L3372.0,833.0 L3369.0,831.0 L3363.0,831.0 L3359.0,829.0 L3333.0,826.0 L3329.0,824.0 L3303.0,820.0 L3300.0,818.0 L3288.0,817.0 L3265.0,811.0 L3259.0,811.0 L3239.0,805.0 L3223.0,803.0 L3178,793 L3175.0,795.0 Z" fill="none" stroke="yellow" />
<path d="M3424,728 L3422.0,726.0 L3395.0,722.0 L3378.0,717.0 L3372.0,717.0 L3369.0,715.0 L3362.0,715.0 L3359.0,713.0 L3343.0,711.0 L3340.0,709.0 L3319.0,706.0 L3316.0,704.0 L3309.0,704.0 L3306.0,702.0 L3300.0,702.0 L3280.0,696.0 L3263.0,693.0 L3260.0,691.0 L3255.0,691.0 L3252.0,689.0 L3245.0,689.0 L3242.0,687.0 L3228.0,685.0 L3210.0,680.0 L3204.0,680.0 L3202.0,678.0 L3201,679 L3199.0,680.0 L3182.0,783.0 L3180.0,786.0 L3180.0,792.0 L3178,793 L3223.0,803.0 L3239.0,805.0 L3259.0,811.0 L3265.0,811.0 L3288.0,817.0 L3300.0,818.0 L3303.0,820.0 L3329.0,824.0 L3333.0,826.0 L3359.0,829.0 L3363.0,831.0 L3369.0,831.0 L3372.0,833.0 L3380.0,833.0 L3384.0,835.0 L3402,837 L3411,835 L3412.0,816.0 L3416.0,799.0 L3416.0,790.0 L3418.0,785.0 L3417.0,782.0 L3421.0,754.0 L3422.0,730.0 Z" fill="none" stroke="yellow" />
<path d="M2970,629 L2956.0,627.0 L2943.0,623.0 L2937.0,623.0 L2934.0,621.0 L2927.0,621.0 L2913.0,617.0 L2906.0,617.0 L2903.0,615.0 L2892.0,614.0 L2878.0,610.0 L2849.0,606.0 L2831.0,601.0 L2825.0,601.0 L2822.0,599.0 L2814.0,599.0 L2810.0,597.0 L2763.0,588.0 L2759.0,586.0 L2752.0,586.0 L2744.0,583.0 L2736.0,583.0 L2734,581 L2738.0,561.0 L2745.0,540.0 L2749.0,514.0 L2753,500 L2755.0,499.0 L2758.0,501.0 L2789.0,503.0 L2795.0,505.0 L2808.0,505.0 L2814.0,507.0 L2824.0,507.0 L2860.0,513.0 L2879.0,514.0 L2884.0,516.0 L2897.0,516.0 L2901.0,518.0 L2928.0,520.0 L2933.0,522.0 L2974.0,525.0 L2981.0,527.0 L2991.0,527.0 L2996.0,529.0 L2997,528 L2995.0,530.0 L2988.0,566.0 L2985.0,573.0 L2983.0,585.0 L2979.0,595.0 L2974.0,616.0 L2972.0,619.0 L2972.0,626.0 Z" fill="none" stroke="yellow" />
<path d="M3002,361 L2960.0,364.0 L2921.0,364.0 L2906.0,366.0 L2870.0,366.0 L2857.0,368.0 L2766.0,370.0 L2746,372 L2745.0,375.0 L2749.0,399.0 L2749.0,409.0 L2751.0,414.0 L2755.0,465.0 L2755.0,499.0 L2753,500 L2755.0,499.0 L2758.0,501.0 L2789.0,503.0 L2795.0,505.0 L2808.0,505.0 L2814.0,507.0 L2824.0,507.0 L2860.0,513.0 L2879.0,514.0 L2884.0,516.0 L2897.0,516.0 L2901.0,518.0 L2928.0,520.0 L2933.0,522.0 L2974.0,525.0 L2981.0,527.0 L2991.0,527.0 L2996.0,529.0 L2997,528 L3000.0,525.0 L3001.0,508.0 L3005.0,487.0 L3005.0,468.0 L3007.0,458.0 L3007.0,416.0 L3005.0,402.0 L3004.0,369.0 Z" fill="none" stroke="yellow" />
<path d="M2494,643 L2495.0,645.0 L2510.0,647.0 L2512.0,649.0 L2517.0,649.0 L2542.0,656.0 L2548.0,656.0 L2561.0,660.0 L2566.0,660.0 L2569.0,662.0 L2575.0,662.0 L2591.0,667.0 L2605.0,669.0 L2608.0,671.0 L2653.0,680.0 L2656.0,682.0 L2662.0,682.0 L2706.0,693.0 L2716,694 L2725.0,642.0 L2725.0,633.0 L2727.0,629.0 L2731.0,592.0 L2734,581 L2710.0,575.0 L2704.0,575.0 L2701.0,573.0 L2693.0,573.0 L2690.0,571.0 L2674.0,569.0 L2656.0,564.0 L2650.0,564.0 L2646.0,562.0 L2628.0,560.0 L2624.0,558.0 L2599.0,553.0 L2593.0,553.0 L2590.0,551.0 L2583.0,551.0 L2580.0,549.0 L2565.0,547.0 L2562.0,545.0 L2543.0,542.0 L2530.0,538.0 L2503,534 L2501.0,535.0 L2500.0,546.0 L2499.0,587.0 L2493.0,642.0 Z" fill="none" stroke="yellow" />
<path d="M2970,629 L2968.0,631.0 L2966.0,650.0 L2963.0,662.0 L2963.0,677.0 L2961.0,684.0 L2961.0,696.0 L2959.0,701.0 L2959.0,716.0 L2957.0,723.0 L2956.0,743.0 L2954,746 L2938.0,745.0 L2917.0,739.0 L2912.0,739.0 L2909.0,737.0 L2895.0,735.0 L2878.0,730.0 L2872.0,730.0 L2861.0,726.0 L2855.0,726.0 L2837.0,721.0 L2812.0,717.0 L2809.0,715.0 L2794.0,713.0 L2791.0,711.0 L2774.0,708.0 L2762.0,704.0 L2756.0,704.0 L2753.0,702.0 L2722.0,697.0 L2716,694 L2725.0,642.0 L2725.0,633.0 L2727.0,629.0 L2731.0,592.0 L2734,581 L2736.0,583.0 L2744.0,583.0 L2752.0,586.0 L2759.0,586.0 L2763.0,588.0 L2810.0,597.0 L2814.0,599.0 L2822.0,599.0 L2825.0,601.0 L2831.0,601.0 L2849.0,606.0 L2878.0,610.0 L2892.0,614.0 L2903.0,615.0 L2906.0,617.0 L2913.0,617.0 L2927.0,621.0 L2934.0,621.0 L2937.0,623.0 L2943.0,623.0 L2956.0,627.0 Z" fill="none" stroke="yellow" />
<path d="M2504,471 L2491.0,470.0 L2485.0,468.0 L2471.0,468.0 L2463.0,466.0 L2444.0,465.0 L2436.0,463.0 L2405.0,461.0 L2382.0,457.0 L2370.0,457.0 L2366.0,455.0 L2354.0,455.0 L2348.0,453.0 L2323.0,450.0 L2274,447 L2274.0,463.0 L2276.0,473.0 L2275,486 L2281.0,489.0 L2296.0,490.0 L2299.0,492.0 L2305.0,492.0 L2309.0,494.0 L2315.0,494.0 L2346.0,501.0 L2352.0,501.0 L2356.0,503.0 L2362.0,503.0 L2366.0,505.0 L2372.0,505.0 L2409.0,514.0 L2415.0,514.0 L2426.0,518.0 L2433.0,518.0 L2461.0,525.0 L2467.0,525.0 L2479.0,529.0 L2500.0,532.0 L2503,534 L2502.0,533.0 L2504.0,529.0 L2504.0,495.0 L2506.0,486.0 L2506.0,473.0 Z" fill="none" stroke="yellow" />
<path d="M2504,471 L2502.0,464.0 L2500.0,431.0 L2497.0,415.0 L2497.0,402.0 L2494.0,388.0 L2495.0,383.0 L2493,382 L2540.0,379.0 L2576.0,379.0 L2594.0,377.0 L2627.0,377.0 L2644.0,375.0 L2682.0,375.0 L2697.0,373.0 L2746,372 L2745.0,375.0 L2749.0,399.0 L2749.0,409.0 L2751.0,414.0 L2755.0,465.0 L2755.0,499.0 L2753,500 L2752.0,501.0 L2739.0,498.0 L2710.0,496.0 L2705.0,494.0 L2693.0,494.0 L2688.0,492.0 L2673.0,492.0 L2669.0,490.0 L2626.0,487.0 L2604.0,483.0 L2593.0,483.0 L2589.0,481.0 L2575.0,481.0 L2573.0,479.0 L2562.0,479.0 Z" fill="none" stroke="yellow" />
<path d="M2504,471 L2562.0,479.0 L2573.0,479.0 L2575.0,481.0 L2589.0,481.0 L2593.0,483.0 L2604.0,483.0 L2626.0,487.0 L2669.0,490.0 L2673.0,492.0 L2688.0,492.0 L2693.0,494.0 L2705.0,494.0 L2710.0,496.0 L2739.0,498.0 L2752.0,501.0 L2753,500 L2749.0,514.0 L2745.0,540.0 L2738.0,561.0 L2734,581 L2710.0,575.0 L2704.0,575.0 L2701.0,573.0 L2693.0,573.0 L2690.0,571.0 L2674.0,569.0 L2656.0,564.0 L2650.0,564.0 L2646.0,562.0 L2628.0,560.0 L2624.0,558.0 L2599.0,553.0 L2593.0,553.0 L2590.0,551.0 L2583.0,551.0 L2580.0,549.0 L2565.0,547.0 L2562.0,545.0 L2543.0,542.0 L2530.0,538.0 L2503,534 L2502.0,533.0 L2504.0,529.0 L2504.0,495.0 L2506.0,486.0 L2506.0,473.0 Z" fill="none" stroke="yellow" />
<path d="M2731,238 L2696.0,238.0 L2682.0,240.0 L2638.0,240.0 L2572.0,243.0 L2462,244 L2464.0,245.0 L2467.0,273.0 L2471.0,285.0 L2471.0,292.0 L2480.0,326.0 L2480.0,332.0 L2482.0,335.0 L2486.0,361.0 L2490.0,373.0 L2490.0,379.0 L2493,382 L2540.0,379.0 L2576.0,379.0 L2594.0,377.0 L2627.0,377.0 L2644.0,375.0 L2682.0,375.0 L2697.0,373.0 L2746,372 L2746.0,353.0 L2742.0,329.0 L2740.0,299.0 L2738.0,294.0 L2735.0,253.0 L2733.0,240.0 Z" fill="none" stroke="yellow" />
<path d="M2731,238 L2696.0,238.0 L2682.0,240.0 L2638.0,240.0 L2572.0,243.0 L2462,244 L2460.0,243.0 L2459.0,239.0 L2459,161 L2548.0,158.0 L2568.0,156.0 L2728,153 L2728.0,195.0 L2730.0,203.0 L2729.0,237.0 Z" fill="none" stroke="yellow" />
<path d="M2504,471 L2502.0,464.0 L2500.0,431.0 L2497.0,415.0 L2497.0,402.0 L2494.0,388.0 L2495.0,383.0 L2493,382 L2491.0,381.0 L2478.0,383.0 L2421.0,384.0 L2398.0,386.0 L2346.0,386.0 L2327.0,388.0 L2278.0,388.0 L2250,390 L2250.0,400.0 L2261.0,432.0 L2263,443 L2271.0,447.0 L2274,447 L2323.0,450.0 L2348.0,453.0 L2354.0,455.0 L2366.0,455.0 L2370.0,457.0 L2382.0,457.0 L2405.0,461.0 L2436.0,463.0 L2444.0,465.0 L2463.0,466.0 L2471.0,468.0 L2485.0,468.0 L2491.0,470.0 Z" fill="none" stroke="yellow" />
<path d="M2494,643 L2487.0,698.0 L2486.0,720.0 L2484,728 L2487.0,731.0 L2495.0,734.0 L2516.0,739.0 L2532.0,745.0 L2549.0,748.0 L2566.0,754.0 L2589.0,759.0 L2600.0,763.0 L2605.0,763.0 L2623.0,769.0 L2641.0,772.0 L2644.0,774.0 L2651.0,774.0 L2668.0,780.0 L2676.0,781.0 L2707.0,790.0 L2715,790 L2716,694 L2706.0,693.0 L2662.0,682.0 L2656.0,682.0 L2653.0,680.0 L2608.0,671.0 L2605.0,669.0 L2591.0,667.0 L2575.0,662.0 L2569.0,662.0 L2566.0,660.0 L2561.0,660.0 L2548.0,656.0 L2542.0,656.0 L2517.0,649.0 L2512.0,649.0 L2510.0,647.0 L2495.0,645.0 Z" fill="none" stroke="yellow" />
<path d="M2493,382 L2490.0,379.0 L2490.0,373.0 L2486.0,361.0 L2482.0,335.0 L2480.0,332.0 L2480.0,326.0 L2471.0,292.0 L2471.0,285.0 L2467.0,273.0 L2464.0,245.0 L2462,244 L2460.0,243.0 L2455.0,245.0 L2405.0,245.0 L2382.0,247.0 L2330.0,247.0 L2305.0,249.0 L2251.0,249.0 L2237.0,251.0 L2195,252 L2195.0,259.0 L2198.0,269.0 L2226.0,334.0 L2226.0,338.0 L2228.0,340.0 L2237.0,368.0 L2241,389 L2250,390 L2278.0,388.0 L2327.0,388.0 L2346.0,386.0 L2398.0,386.0 L2421.0,384.0 L2478.0,383.0 L2491.0,381.0 Z" fill="none" stroke="yellow" />
<path d="M2126,430 L2120.0,444.0 L2117,446 L2140.0,455.0 L2153.0,457.0 L2156.0,459.0 L2180.0,464.0 L2183.0,466.0 L2206.0,470.0 L2230.0,477.0 L2236.0,477.0 L2238.0,479.0 L2243.0,479.0 L2247.0,481.0 L2253.0,481.0 L2275,486 L2276.0,473.0 L2274.0,463.0 L2274,447 L2271.0,447.0 L2263,443 L2200.0,440.0 L2156.0,432.0 Z" fill="none" stroke="yellow" />
<path d="M2105,396 L2106.0,403.0 L2126,430 L2120.0,444.0 L2117,446 L2092.0,439.0 L2065.0,426.0 L2037.0,406.0 L2033.0,402.0 L2031,396 L2053.0,394.0 Z" fill="none" stroke="yellow" />
<path d="M1303,143 L1443.0,157.0 L1480.0,162.0 L1541.0,167.0 L1566.0,171.0 L1626.0,176.0 L1631.0,178.0 L1663.0,180.0 L1734.0,189.0 L1747.0,189.0 L1753.0,191.0 L1788.0,191.0 L1811,188 L1818.0,181.0 L1821,175 L1820.0,171.0 L1817.0,168.0 L1810.0,166.0 L1794.0,164.0 L1757.0,156.0 L1750.0,156.0 L1746.0,154.0 L1736.0,153.0 L1734.0,151.0 L1711.0,149.0 L1707.0,147.0 L1699.0,147.0 L1683.0,143.0 L1675.0,143.0 L1671.0,141.0 L1644.0,138.0 L1633.0,135.0 L1607.0,132.0 L1597.0,129.0 L1575.0,127.0 L1545.0,121.0 L1536.0,121.0 L1532.0,119.0 L1523.0,119.0 L1512.0,116.0 L1476.0,112.0 L1465.0,109.0 L1409.0,103.0 L1404.0,101.0 L1383.0,99.0 L1377.0,97.0 L1331.0,92.0 L1327.0,90.0 L1303,89 Z" fill="none" stroke="yellow" />
<path d="M5581,534 L5578.0,537.0 L5526.0,563.0 L5507,576 L5498.0,573.0 L5460.0,550.0 L5450,547 L5450.0,544.0 L5413.0,506.0 L5413,503 L5433.0,490.0 L5498.0,460.0 L5508.0,455.0 L5515,449 L5521.0,451.0 L5527.0,457.0 L5560.0,496.0 L5560.0,498.0 L5576.0,518.0 L5581.0,529.0 Z" fill="none" stroke="yellow" />
<path d="M5413,503 L5413.0,506.0 L5450.0,544.0 L5450,547 L5429.0,572.0 L5370,634 L5368.0,631.0 L5328.0,610.0 L5236.0,554.0 L5225.0,550.0 L5224,547 L5224.0,545.0 L5271.0,494.0 L5293.0,467.0 L5304,451 L5312.0,452.0 L5331.0,463.0 L5355.0,474.0 L5358.0,477.0 L5390.0,494.0 L5404.0,501.0 Z" fill="none" stroke="yellow" />
<path d="M4783,1059 L4678.0,1061.0 L4649,1060 L4647.0,1045.0 L4643.0,1036.0 L4643,1028 L4644.0,1026.0 L4675.0,1013.0 L4685.0,1007.0 L4702,1001 L4726.0,1016.0 L4735.0,1020.0 L4755.0,1035.0 L4759.0,1036.0 L4777.0,1050.0 L4781.0,1054.0 Z" fill="none" stroke="yellow" />
<path d="M4494,995 L4515.0,998.0 L4524.0,1001.0 L4531.0,1001.0 L4548.0,1006.0 L4559.0,1007.0 L4562.0,1009.0 L4589.0,1014.0 L4596.0,1017.0 L4610.0,1019.0 L4617.0,1022.0 L4643,1028 L4644.0,1026.0 L4675.0,1013.0 L4685.0,1007.0 L4702,1001 L4698,957 L4662.0,954.0 L4657.0,952.0 L4640.0,951.0 L4636.0,949.0 L4625.0,949.0 L4621.0,947.0 L4611.0,947.0 L4607.0,945.0 L4597.0,945.0 L4593.0,943.0 L4583.0,943.0 L4554.0,939.0 L4529.0,934.0 L4494.0,931.0 L4491,929 L4490.0,937.0 L4492.0,946.0 Z" fill="none" stroke="yellow" />
<path d="M4287,968 L4209,985 L4176.0,974.0 L4169.0,973.0 L4156.0,967.0 L4151.0,967.0 L4145.0,964.0 L4127.0,960.0 L4117.0,956.0 L4094.0,951.0 L4085.0,947.0 L4076,946 L4077.0,866.0 L4079,862 L4080.0,861.0 L4083.0,863.0 L4109.0,866.0 L4113.0,868.0 L4135.0,871.0 L4148.0,875.0 L4155.0,875.0 L4158.0,877.0 L4166.0,877.0 L4169.0,879.0 L4187.0,881.0 L4209.0,886.0 L4216.0,886.0 L4220.0,888.0 L4227.0,888.0 L4230.0,890.0 L4236.0,890.0 L4268.0,897.0 L4275.0,897.0 L4284,900 Z" fill="none" stroke="yellow" />
<path d="M3632,874 L3635.0,850.0 L3637.0,847.0 L3637.0,833.0 L3640.0,819.0 L3644.0,778.0 L3646,776 L3649.0,778.0 L3655.0,778.0 L3673.0,783.0 L3680.0,783.0 L3683.0,785.0 L3689.0,785.0 L3705.0,790.0 L3730.0,794.0 L3742.0,798.0 L3776.0,803.0 L3780.0,805.0 L3789.0,805.0 L3791.0,807.0 L3799.0,807.0 L3802.0,809.0 L3845.0,816.0 L3848.0,818.0 L3855.0,818.0 L3858.0,820.0 L3865,821 L3863.0,826.0 L3863.0,859.0 L3865.0,878.0 L3865,912 L3789.0,916.0 L3781.0,918.0 L3762,918 L3748.0,914.0 L3740.0,910.0 L3736.0,910.0 L3709.0,899.0 L3705.0,899.0 L3682.0,890.0 Z" fill="none" stroke="yellow" />
<path d="M3242,228 L3248,147 L3489,147 L3488.0,167.0 L3486.0,171.0 L3486.0,182.0 L3483.0,198.0 L3482,225 L3415.0,225.0 L3387.0,227.0 L3250,229 Z" fill="none" stroke="yellow" />
<path d="M3735,343 L3735.0,318.0 L3733.0,310.0 L3733.0,294.0 L3731.0,284.0 L3731.0,249.0 L3729.0,237.0 L3729.0,224.0 L3727,222 L3725.0,221.0 L3704.0,223.0 L3647.0,223.0 L3625.0,225.0 L3553.0,225.0 L3499,227 L3506.0,282.0 L3506.0,293.0 L3508.0,301.0 L3508.0,319.0 L3510.0,325.0 L3512,359 L3524,361 L3531.0,359.0 L3544.0,359.0 L3580.0,355.0 L3594.0,355.0 L3603.0,353.0 L3617.0,353.0 L3625.0,351.0 L3643.0,351.0 L3675.0,347.0 Z" fill="none" stroke="yellow" />
<path d="M2715,790 L2716,694 L2722.0,697.0 L2753.0,702.0 L2756.0,704.0 L2762.0,704.0 L2774.0,708.0 L2791.0,711.0 L2794.0,713.0 L2809.0,715.0 L2812.0,717.0 L2837.0,721.0 L2855.0,726.0 L2861.0,726.0 L2872.0,730.0 L2878.0,730.0 L2895.0,735.0 L2909.0,737.0 L2912.0,739.0 L2917.0,739.0 L2938.0,745.0 L2954,746 L2952.0,749.0 L2952.0,765.0 L2950.0,780.0 L2950,846 L2941.0,846.0 L2926.0,842.0 L2909.0,840.0 L2862.0,828.0 L2848.0,826.0 L2830.0,820.0 L2825.0,820.0 L2822.0,818.0 L2796.0,813.0 L2778.0,807.0 L2773.0,807.0 L2729.0,796.0 L2719.0,793.0 Z" fill="none" stroke="yellow" />
<path d="M1342,258 L1334.0,258.0 L1331.0,256.0 L1306.0,251.0 L1303.0,249.0 L1296.0,249.0 L1292.0,247.0 L1275.0,244.0 L1250.0,242.0 L1245.0,240.0 L1227.0,238.0 L1214.0,238.0 L1208.0,236.0 L1074.0,230.0 L1011.0,229.0 L931.0,224.0 L871,224 L871,242 L888.0,245.0 L913.0,246.0 L919.0,248.0 L932.0,248.0 L940.0,250.0 L996.0,255.0 L1003.0,257.0 L1014.0,257.0 L1020.0,259.0 L1029.0,259.0 L1072.0,266.0 L1080.0,266.0 L1085.0,268.0 L1119.0,272.0 L1129.0,275.0 L1169.0,281.0 L1237.0,297.0 L1242.0,297.0 L1317.0,319.0 L1322.0,322.0 L1334.0,325.0 L1380.0,343.0 L1402.0,350.0 L1409.0,354.0 L1437.0,363.0 L1502.0,389.0 L1506.0,389.0 L1541.0,404.0 L1550.0,406.0 L1567.0,413.0 L1577,414 L1584.0,386.0 L1586.0,382.0 L1589,380 L1523.0,346.0 L1502.0,337.0 L1490.0,330.0 L1487.0,330.0 L1414.0,293.0 L1411.0,293.0 L1382.0,278.0 L1352.0,265.0 L1344.0,261.0 Z" fill="none" stroke="yellow" />
<path d="M115,114 L89.0,125.0 L84.0,130.0 L84.0,146.0 L89.0,158.0 L92.0,160.0 L122,159 L122.0,150.0 L127,137 L127,118 L119.0,118.0 Z" fill="none" stroke="yellow" />
<path d="M115,114 L119.0,118.0 L127,118 L141,118 L145.0,113.0 L149.0,111.0 L158.0,108.0 L165.0,108.0 L171.0,102.0 L171,100 L171.0,97.0 L168.0,94.0 L168.0,76.0 L166,73 L132.0,77.0 L125.0,86.0 L116.0,107.0 Z" fill="none" stroke="yellow" />
<path d="M1577,414 L1578.0,417.0 L1590.0,421.0 L1599.0,426.0 L1603.0,426.0 L1613.0,431.0 L1672.0,451.0 L1696.0,461.0 L1700.0,461.0 L1717.0,468.0 L1746.0,476.0 L1749.0,478.0 L1765,480 L1763,467 L1757.0,466.0 L1747.0,458.0 L1724.0,444.0 L1677.0,419.0 L1625.0,394.0 L1589,380 L1586.0,382.0 L1584.0,386.0 Z" fill="none" stroke="yellow" />
<path d="M2187,251 L2190,168 L2179.0,167.0 L2154.0,169.0 L2108.0,169.0 L2070.0,171.0 L1959.0,171.0 L1821,175 L1818.0,181.0 L1811,188 L1814.0,195.0 L1821.0,202.0 L1850.0,223.0 L1869.0,240.0 L1871,249 L1884,253 L2120.0,253.0 Z" fill="none" stroke="yellow" />
<path d="M1307,186 L1310.0,188.0 L1324.0,190.0 L1329.0,193.0 L1340,196 L1343.0,195.0 L1358.0,197.0 L1375.0,197.0 L1382.0,199.0 L1408.0,199.0 L1415.0,201.0 L1434.0,201.0 L1462.0,205.0 L1495.0,207.0 L1503.0,209.0 L1537.0,211.0 L1564.0,215.0 L1576.0,215.0 L1584.0,217.0 L1625.0,220.0 L1633.0,222.0 L1645.0,222.0 L1650.0,224.0 L1661.0,224.0 L1666.0,226.0 L1676.0,226.0 L1682.0,228.0 L1693.0,228.0 L1698.0,230.0 L1710.0,230.0 L1724.0,233.0 L1734.0,233.0 L1739.0,235.0 L1781.0,239.0 L1819.0,245.0 L1833.0,245.0 L1838.0,247.0 L1848.0,247.0 L1856.0,249.0 L1871,249 L1869.0,240.0 L1850.0,223.0 L1821.0,202.0 L1814.0,195.0 L1811,188 L1788.0,191.0 L1753.0,191.0 L1747.0,189.0 L1734.0,189.0 L1663.0,180.0 L1631.0,178.0 L1626.0,176.0 L1566.0,171.0 L1541.0,167.0 L1480.0,162.0 L1443.0,157.0 L1303,143 L1305.0,145.0 L1307.0,163.0 Z" fill="none" stroke="yellow" />
<path d="M2117,446 L2101.0,483.0 L2091.0,502.0 L2091.0,505.0 L2089.0,507.0 L2083,523 L2081.0,521.0 L2071.0,520.0 L2041.0,509.0 L2019.0,502.0 L2015.0,502.0 L2013.0,500.0 L1998.0,496.0 L1981.0,489.0 L1976.0,489.0 L1974.0,487.0 L1942.0,478.0 L1919.0,469.0 L1871.0,454.0 L1869.0,452.0 L1865.0,452.0 L1851.0,446.0 L1826.0,439.0 L1818.0,435.0 L1814.0,435.0 L1803.0,431.0 L1797,431 L1797.0,429.0 L1793.0,426.0 L1790.0,426.0 L1759.0,411.0 L1722.0,396.0 L1718.0,393.0 L1712.0,392.0 L1624.0,356.0 L1621.0,356.0 L1610.0,351.0 L1602,350 L1597.0,345.0 L1420.0,258.0 L1382.0,237.0 L1365.0,225.0 L1359,224 L1355,212 L1369.0,212.0 L1381.0,216.0 L1386.0,216.0 L1411.0,225.0 L1423.0,227.0 L1477.0,245.0 L1485.0,249.0 L1509.0,256.0 L1534.0,266.0 L1594.0,284.0 L1596.0,286.0 L1601.0,286.0 L1652.0,303.0 L1667.0,306.0 L1683.0,312.0 L1687.0,312.0 L1690.0,314.0 L1719.0,321.0 L1722.0,323.0 L1752.0,330.0 L1769.0,336.0 L1839.0,353.0 L1868.0,358.0 L1872.0,360.0 L1878.0,360.0 L1881.0,362.0 L1888.0,362.0 L1891.0,364.0 L1898.0,364.0 L1902.0,366.0 L1909.0,366.0 L1914.0,368.0 L1935,371 L1953.0,377.0 L1976.0,382.0 L1979.0,384.0 L1984.0,384.0 L1987.0,386.0 L1992.0,386.0 L1995.0,388.0 L2013.0,392.0 L2019.0,392.0 L2031,396 L2033.0,402.0 L2037.0,406.0 L2065.0,426.0 L2092.0,439.0 Z" fill="none" stroke="yellow" />
<path d="M1340,196 L1342.0,203.0 L1347.0,208.0 L1355,212 L1369.0,212.0 L1381.0,216.0 L1386.0,216.0 L1411.0,225.0 L1423.0,227.0 L1477.0,245.0 L1485.0,249.0 L1509.0,256.0 L1534.0,266.0 L1594.0,284.0 L1596.0,286.0 L1601.0,286.0 L1652.0,303.0 L1667.0,306.0 L1683.0,312.0 L1687.0,312.0 L1690.0,314.0 L1719.0,321.0 L1722.0,323.0 L1752.0,330.0 L1769.0,336.0 L1839.0,353.0 L1868.0,358.0 L1872.0,360.0 L1878.0,360.0 L1881.0,362.0 L1888.0,362.0 L1891.0,364.0 L1898.0,364.0 L1902.0,366.0 L1909.0,366.0 L1914.0,368.0 L1935,371 L1934.0,363.0 L1924.0,337.0 L1888.0,271.0 L1884,253 L1871,249 L1856.0,249.0 L1848.0,247.0 L1838.0,247.0 L1833.0,245.0 L1819.0,245.0 L1781.0,239.0 L1739.0,235.0 L1734.0,233.0 L1724.0,233.0 L1710.0,230.0 L1698.0,230.0 L1693.0,228.0 L1682.0,228.0 L1676.0,226.0 L1666.0,226.0 L1661.0,224.0 L1650.0,224.0 L1645.0,222.0 L1633.0,222.0 L1625.0,220.0 L1584.0,217.0 L1576.0,215.0 L1564.0,215.0 L1537.0,211.0 L1503.0,209.0 L1495.0,207.0 L1462.0,205.0 L1434.0,201.0 L1415.0,201.0 L1408.0,199.0 L1382.0,199.0 L1375.0,197.0 L1358.0,197.0 L1343.0,195.0 Z" fill="none" stroke="yellow" />
<path d="M1342,258 L1348.0,249.0 L1359,224 L1365.0,225.0 L1382.0,237.0 L1420.0,258.0 L1597.0,345.0 L1602,350 L1601.0,356.0 L1588.0,379.0 L1589,380 L1523.0,346.0 L1502.0,337.0 L1490.0,330.0 L1487.0,330.0 L1414.0,293.0 L1411.0,293.0 L1382.0,278.0 L1352.0,265.0 L1344.0,261.0 Z" fill="none" stroke="yellow" />
<path d="M1602,350 L1610.0,351.0 L1621.0,356.0 L1624.0,356.0 L1712.0,392.0 L1718.0,393.0 L1722.0,396.0 L1759.0,411.0 L1790.0,426.0 L1793.0,426.0 L1797.0,429.0 L1797,431 L1796.0,436.0 L1789.0,443.0 L1788.0,446.0 L1771.0,463.0 L1763,467 L1757.0,466.0 L1747.0,458.0 L1724.0,444.0 L1677.0,419.0 L1625.0,394.0 L1589,380 L1588.0,379.0 L1601.0,356.0 Z" fill="none" stroke="yellow" />
<path d="M135,167 L129.0,168.0 L122,159 L92.0,160.0 L89.0,158.0 L84.0,146.0 L84.0,130.0 L89.0,125.0 L115,114 L119.0,118.0 L127,118 L141,118 L156.0,134.0 L157.0,138.0 L160.0,141.0 L166.0,143.0 L173.0,143.0 L176.0,145.0 L194.0,148.0 L215.0,154.0 L222.0,154.0 L226.0,156.0 L232.0,156.0 L234.0,158.0 L240.0,158.0 L271.0,165.0 L280.0,165.0 L283.0,167.0 L291.0,167.0 L295.0,169.0 L305.0,169.0 L323.0,173.0 L341.0,174.0 L347.0,176.0 L356.0,176.0 L360.0,178.0 L369.0,178.0 L373.0,180.0 L382.0,180.0 L414.0,185.0 L443.0,187.0 L449.0,189.0 L468.0,189.0 L473.0,191.0 L535.0,196.0 L544.0,198.0 L558.0,198.0 L563.0,200.0 L578.0,200.0 L587.0,202.0 L601.0,202.0 L609.0,204.0 L621.0,204.0 L643.0,207.0 L689.0,209.0 L695.0,211.0 L715.0,211.0 L721.0,213.0 L737.0,213.0 L776.0,217.0 L842.0,220.0 L849.0,222.0 L864.0,222.0 L871,224 L871,242 L812.0,239.0 L807.0,237.0 L790.0,237.0 L780.0,235.0 L765.0,236.0 L756.0,233.0 L725.0,232.0 L689.0,228.0 L671.0,228.0 L665.0,226.0 L646.0,226.0 L638.0,224.0 L618.0,224.0 L577.0,220.0 L539.0,219.0 L535.0,217.0 L484.0,215.0 L474.0,213.0 L458.0,213.0 L450.0,211.0 L432.0,211.0 L425.0,209.0 L377.0,206.0 L370.0,204.0 L361.0,204.0 L356.0,202.0 L341.0,202.0 L321.0,198.0 L301.0,197.0 L288.0,194.0 L264.0,192.0 L254.0,189.0 L210.0,183.0 L206.0,181.0 L199.0,181.0 L196.0,179.0 L190.0,179.0 L159.0,171.0 L136.0,170.0 L134.0,168.0 Z" fill="none" stroke="yellow" />
<path d="M2105,396 L2159.0,392.0 L2241,389 L2237.0,368.0 L2228.0,340.0 L2226.0,338.0 L2226.0,334.0 L2198.0,269.0 L2195.0,259.0 L2195,252 L2187,251 L2120.0,253.0 L1884,253 L1888.0,271.0 L1924.0,337.0 L1934.0,363.0 L1935,371 L1953.0,377.0 L1976.0,382.0 L1979.0,384.0 L1984.0,384.0 L1987.0,386.0 L1992.0,386.0 L1995.0,388.0 L2013.0,392.0 L2019.0,392.0 L2031,396 L2053.0,394.0 Z" fill="none" stroke="yellow" />
<path d="M2067,587 L2046.0,581.0 L2006.0,564.0 L1989.0,559.0 L1977.0,553.0 L1970.0,552.0 L1965.0,549.0 L1939.0,541.0 L1925.0,535.0 L1921.0,535.0 L1904.0,528.0 L1893.0,526.0 L1885.0,522.0 L1865.0,517.0 L1839.0,507.0 L1835.0,507.0 L1833.0,505.0 L1810.0,498.0 L1765,480 L1763,467 L1771.0,463.0 L1788.0,446.0 L1789.0,443.0 L1796.0,436.0 L1797,431 L1803.0,431.0 L1814.0,435.0 L1818.0,435.0 L1826.0,439.0 L1851.0,446.0 L1865.0,452.0 L1869.0,452.0 L1871.0,454.0 L1919.0,469.0 L1942.0,478.0 L1974.0,487.0 L1976.0,489.0 L1981.0,489.0 L1998.0,496.0 L2013.0,500.0 L2015.0,502.0 L2019.0,502.0 L2041.0,509.0 L2071.0,520.0 L2081.0,521.0 L2083,523 L2081.0,526.0 Z" fill="none" stroke="yellow" />
<path d="M2187,251 L2190,168 L2322.0,165.0 L2346.0,163.0 L2388.0,163.0 L2416.0,161.0 L2459,161 L2459.0,239.0 L2460.0,243.0 L2462,244 L2460.0,243.0 L2455.0,245.0 L2405.0,245.0 L2382.0,247.0 L2330.0,247.0 L2305.0,249.0 L2251.0,249.0 L2237.0,251.0 L2195,252 Z" fill="none" stroke="yellow" />
<path d="M141,118 L145.0,113.0 L149.0,111.0 L158.0,108.0 L165.0,108.0 L171.0,102.0 L171,100 L185.0,114.0 L190.0,115.0 L232.0,117.0 L239.0,119.0 L254.0,119.0 L261.0,121.0 L288.0,122.0 L299.0,124.0 L322.0,124.0 L359.0,128.0 L397.0,129.0 L407.0,131.0 L439.0,131.0 L447.0,133.0 L469.0,133.0 L477.0,135.0 L534.0,136.0 L582.0,140.0 L609.0,140.0 L620.0,142.0 L649.0,142.0 L661.0,144.0 L691.0,144.0 L698.0,146.0 L728.0,146.0 L740.0,148.0 L882,154 L976.0,161.0 L1033.0,163.0 L1041.0,165.0 L1061.0,165.0 L1068.0,167.0 L1112.0,169.0 L1133.0,172.0 L1147.0,172.0 L1155.0,174.0 L1171.0,174.0 L1179.0,176.0 L1197.0,176.0 L1203.0,178.0 L1226.0,178.0 L1232.0,180.0 L1246.0,180.0 L1254.0,182.0 L1307,186 L1310.0,188.0 L1324.0,190.0 L1329.0,193.0 L1340,196 L1342.0,203.0 L1347.0,208.0 L1355,212 L1359,224 L1348.0,249.0 L1342,258 L1334.0,258.0 L1331.0,256.0 L1306.0,251.0 L1303.0,249.0 L1296.0,249.0 L1292.0,247.0 L1275.0,244.0 L1250.0,242.0 L1245.0,240.0 L1227.0,238.0 L1214.0,238.0 L1208.0,236.0 L1074.0,230.0 L1011.0,229.0 L931.0,224.0 L871,224 L864.0,222.0 L849.0,222.0 L842.0,220.0 L776.0,217.0 L737.0,213.0 L721.0,213.0 L715.0,211.0 L695.0,211.0 L689.0,209.0 L643.0,207.0 L621.0,204.0 L609.0,204.0 L601.0,202.0 L587.0,202.0 L578.0,200.0 L563.0,200.0 L558.0,198.0 L544.0,198.0 L535.0,196.0 L473.0,191.0 L468.0,189.0 L449.0,189.0 L443.0,187.0 L414.0,185.0 L382.0,180.0 L373.0,180.0 L369.0,178.0 L360.0,178.0 L356.0,176.0 L347.0,176.0 L341.0,174.0 L323.0,173.0 L305.0,169.0 L295.0,169.0 L291.0,167.0 L283.0,167.0 L280.0,165.0 L271.0,165.0 L240.0,158.0 L234.0,158.0 L232.0,156.0 L226.0,156.0 L222.0,154.0 L215.0,154.0 L194.0,148.0 L176.0,145.0 L173.0,143.0 L166.0,143.0 L160.0,141.0 L157.0,138.0 L156.0,134.0 Z" fill="none" stroke="yellow" />
<path d="M2105,396 L2106.0,403.0 L2126,430 L2156.0,432.0 L2200.0,440.0 L2263,443 L2261.0,432.0 L2250.0,400.0 L2250,390 L2241,389 L2159.0,392.0 Z" fill="none" stroke="yellow" />
<path d="M3235,558 L3238.0,554.0 L3239.0,542.0 L3252.0,492.0 L3257.0,462.0 L3259.0,437.0 L3261.0,429.0 L3262.0,361.0 L3264,358 L3333.0,357.0 L3461.0,360.0 L3512,359 L3524,361 L3526.0,369.0 L3543.0,397.0 L3558.0,418.0 L3559,424 L3522.0,467.0 L3496.0,505.0 L3474.0,546.0 L3466.0,567.0 L3459.0,577.0 L3458.0,592.0 L3455,596 L3415.0,588.0 L3408.0,588.0 L3404.0,586.0 L3369.0,581.0 L3343.0,575.0 L3335.0,575.0 L3331.0,573.0 L3312.0,571.0 L3291.0,566.0 L3240.0,559.0 L3237.0,557.0 Z" fill="none" stroke="yellow" />
<path d="M3728,149 L3728.0,171.0 L3725.0,213.0 L3725.0,221.0 L3727,222 L3725.0,221.0 L3704.0,223.0 L3647.0,223.0 L3625.0,225.0 L3553.0,225.0 L3499,227 L3482,225 L3483.0,198.0 L3486.0,182.0 L3486.0,171.0 L3488.0,167.0 L3489,147 Z" fill="none" stroke="yellow" />
<path d="M3397,933 L3402,837 L3411,835 L3441.0,842.0 L3444.0,844.0 L3450.0,844.0 L3474.0,851.0 L3487.0,853.0 L3497.0,857.0 L3502.0,857.0 L3518.0,862.0 L3523.0,862.0 L3526.0,864.0 L3539.0,866.0 L3550.0,870.0 L3574.0,875.0 L3577.0,877.0 L3590.0,879.0 L3593.0,881.0 L3600,881 L3600,961 L3549.0,957.0 L3529.0,953.0 L3492.0,949.0 L3486.0,947.0 L3454.0,944.0 L3449.0,942.0 L3429.0,940.0 L3425.0,938.0 L3416.0,938.0 L3413.0,936.0 L3406.0,936.0 Z" fill="none" stroke="yellow" />
<path d="M3424,728 L3462.0,735.0 L3465.0,737.0 L3471.0,737.0 L3483.0,741.0 L3489.0,741.0 L3503.0,746.0 L3518.0,748.0 L3521.0,750.0 L3527.0,750.0 L3531.0,752.0 L3569.0,759.0 L3572.0,761.0 L3577.0,761.0 L3579.0,763.0 L3586.0,763.0 L3646,776 L3644.0,778.0 L3640.0,819.0 L3637.0,833.0 L3637.0,847.0 L3635.0,850.0 L3632,874 L3611.0,879.0 L3608.0,881.0 L3600,881 L3593.0,881.0 L3590.0,879.0 L3577.0,877.0 L3574.0,875.0 L3550.0,870.0 L3539.0,866.0 L3526.0,864.0 L3523.0,862.0 L3518.0,862.0 L3502.0,857.0 L3497.0,857.0 L3487.0,853.0 L3474.0,851.0 L3450.0,844.0 L3444.0,844.0 L3441.0,842.0 L3411,835 L3412.0,816.0 L3416.0,799.0 L3416.0,790.0 L3418.0,785.0 L3417.0,782.0 L3421.0,754.0 L3422.0,730.0 Z" fill="none" stroke="yellow" />
<path d="M3762,918 L3762.0,947.0 L3764.0,956.0 L3765,981 L3771.0,981.0 L3785.0,985.0 L3798.0,986.0 L3804.0,988.0 L3811.0,988.0 L3815.0,990.0 L3835.0,992.0 L3895.0,1004.0 L3914,1005 L3913.0,996.0 L3908.0,980.0 L3908.0,974.0 L3900.0,945.0 L3899,930 L3865,912 L3789.0,916.0 L3781.0,918.0 Z" fill="none" stroke="yellow" />
<path d="M3899,930 L3900.0,945.0 L3908.0,974.0 L3908.0,980.0 L3913.0,996.0 L3914,1005 L3917.0,1007.0 L3938.0,1010.0 L3966.0,1012.0 L4045.0,1023.0 L4072,1025 L4072.0,1015.0 L4066.0,978.0 L4064,951 L4044.0,949.0 L4041.0,947.0 L4032.0,947.0 L4029.0,945.0 L4021.0,945.0 L4012.0,942.0 L4005.0,942.0 L3989.0,938.0 L3980.0,938.0 L3976.0,936.0 L3969.0,936.0 L3963.0,934.0 Z" fill="none" stroke="yellow" />
<path d="M3632,874 L3682.0,890.0 L3705.0,899.0 L3709.0,899.0 L3736.0,910.0 L3740.0,910.0 L3748.0,914.0 L3762,918 L3762.0,947.0 L3764.0,956.0 L3765,981 L3673.0,968.0 L3661.0,968.0 L3632.0,964.0 L3618.0,964.0 L3600,961 L3600,881 L3608.0,881.0 L3611.0,879.0 Z" fill="none" stroke="yellow" />
<path d="M4064,951 L4066.0,978.0 L4072.0,1015.0 L4072,1025 L4134.0,1031.0 L4155.0,1031.0 L4190.0,1035.0 L4218,1036 L4215.0,1016.0 L4210.0,997.0 L4209,985 L4176.0,974.0 L4169.0,973.0 L4156.0,967.0 L4151.0,967.0 L4145.0,964.0 L4127.0,960.0 L4117.0,956.0 L4094.0,951.0 L4085.0,947.0 L4076,946 Z" fill="none" stroke="yellow" />
<path d="M4287,968 L4319.0,986.0 L4329.0,990.0 L4336.0,995.0 L4343,997 L4344.0,1013.0 L4352.0,1038.0 L4353,1047 L4304.0,1042.0 L4296.0,1040.0 L4274.0,1040.0 L4267.0,1038.0 L4237.0,1038.0 L4228.0,1036.0 L4218,1036 L4215.0,1016.0 L4210.0,997.0 L4209,985 Z" fill="none" stroke="yellow" />
<path d="M4343,997 L4344.0,1013.0 L4352.0,1038.0 L4353,1047 L4379.0,1051.0 L4396.0,1051.0 L4402.0,1053.0 L4437.0,1055.0 L4444.0,1057.0 L4499,1060 L4499.0,1054.0 L4492.0,1032.0 L4486,1002 L4461.0,999.0 L4446.0,999.0 L4437.0,997.0 L4423.0,997.0 L4415.0,995.0 L4391.0,994.0 L4351.0,995.0 Z" fill="none" stroke="yellow" />
<path d="M4287,968 L4319.0,986.0 L4329.0,990.0 L4336.0,995.0 L4343,997 L4351.0,995.0 L4391.0,994.0 L4415.0,995.0 L4423.0,997.0 L4437.0,997.0 L4446.0,999.0 L4461.0,999.0 L4486,1002 L4494,995 L4492.0,946.0 L4490.0,937.0 L4491,929 L4463.0,927.0 L4459.0,925.0 L4450.0,925.0 L4446.0,923.0 L4422.0,921.0 L4416.0,919.0 L4386.0,918.0 L4381.0,916.0 L4357.0,914.0 L4354.0,912.0 L4347.0,912.0 L4343.0,910.0 L4336.0,910.0 L4305.0,903.0 L4299.0,903.0 L4296.0,901.0 L4289.0,901.0 L4285.0,899.0 L4284,900 Z" fill="none" stroke="yellow" />
<path d="M4486,1002 L4494,995 L4515.0,998.0 L4524.0,1001.0 L4531.0,1001.0 L4548.0,1006.0 L4559.0,1007.0 L4562.0,1009.0 L4589.0,1014.0 L4596.0,1017.0 L4610.0,1019.0 L4617.0,1022.0 L4643,1028 L4643.0,1036.0 L4647.0,1045.0 L4649,1060 L4646.0,1062.0 L4553.0,1062.0 L4499,1060 L4499.0,1054.0 L4492.0,1032.0 Z" fill="none" stroke="yellow" />
<path d="M4783,1059 L4895,1058 L4895.0,1051.0 L4890.0,1040.0 L4890.0,1036.0 L4888.0,1034.0 L4878.0,1001.0 L4877.0,987.0 L4875.0,983.0 L4876,978 L4873.0,979.0 L4854.0,976.0 L4822.0,975.0 L4817.0,973.0 L4798.0,973.0 L4765.0,967.0 L4707.0,960.0 L4698,957 L4702,1001 L4726.0,1016.0 L4735.0,1020.0 L4755.0,1035.0 L4759.0,1036.0 L4777.0,1050.0 L4781.0,1054.0 Z" fill="none" stroke="yellow" />
<path d="M4079,862 L4048.0,855.0 L4040.0,855.0 L4037.0,853.0 L4002.0,849.0 L3998.0,847.0 L3967.0,842.0 L3964.0,840.0 L3958.0,840.0 L3931.0,833.0 L3924.0,833.0 L3921.0,831.0 L3914.0,831.0 L3911.0,829.0 L3903.0,829.0 L3900.0,827.0 L3869.0,822.0 L3866.0,820.0 L3865,821 L3863.0,826.0 L3863.0,859.0 L3865.0,878.0 L3865,912 L3899,930 L3963.0,934.0 L3969.0,936.0 L3976.0,936.0 L3980.0,938.0 L3989.0,938.0 L4005.0,942.0 L4012.0,942.0 L4021.0,945.0 L4029.0,945.0 L4032.0,947.0 L4041.0,947.0 L4044.0,949.0 L4064,951 L4076,946 L4077.0,866.0 Z" fill="none" stroke="yellow" />
<path d="M4740,183 L4802.0,187.0 L4807.0,189.0 L4835.0,191.0 L4839.0,193.0 L4856.0,193.0 L4860.0,195.0 L4880.0,196.0 L4886,198 L4885.0,209.0 L4877.0,230.0 L4873.0,247.0 L4870.0,253.0 L4869,261 L4853.0,261.0 L4847.0,259.0 L4835.0,259.0 L4827.0,257.0 L4803.0,256.0 L4757.0,250.0 L4751.0,248.0 L4716.0,245.0 L4711,243 L4712.0,237.0 L4729.0,204.0 L4737.0,194.0 Z" fill="none" stroke="yellow" />
<path d="M4740,183 L4727.0,182.0 L4722.0,180.0 L4706.0,180.0 L4702.0,178.0 L4680.0,178.0 L4669.0,176.0 L4652.0,176.0 L4645.0,174.0 L4595,173 L4593.0,190.0 L4591.0,195.0 L4591.0,208.0 L4589.0,216.0 L4588,233 L4624.0,237.0 L4671,245 L4711,243 L4712.0,237.0 L4729.0,204.0 L4737.0,194.0 Z" fill="none" stroke="yellow" />
<path d="M4869,261 L4870.0,253.0 L4873.0,247.0 L4877.0,230.0 L4885.0,209.0 L4886,198 L4899.0,198.0 L4951.0,205.0 L4980.0,207.0 L4985.0,209.0 L4996.0,209.0 L5000.0,211.0 L5022.0,213.0 L5023,215 L5020.0,228.0 L5005.0,254.0 L4996.0,272.0 L4995,277 L4988.0,278.0 L4942.0,272.0 L4930.0,272.0 L4924.0,270.0 L4887,268 L4870.0,263.0 Z" fill="none" stroke="yellow" />
<path d="M5079,298 L5081.0,295.0 L5084.0,267.0 L5093,227 L5088.0,224.0 L5057.0,220.0 L5048.0,217.0 L5036.0,215.0 L5023,215 L5020.0,228.0 L5005.0,254.0 L4996.0,272.0 L4995,277 L4996.0,279.0 L5002.0,281.0 L5007.0,281.0 L5010.0,283.0 L5039.0,289.0 L5062.0,296.0 Z" fill="none" stroke="yellow" />
<path d="M5098,921 L5107.0,877.0 L5109.0,874.0 L5113.0,841.0 L5115,836 L5080.0,829.0 L5077.0,827.0 L5071.0,827.0 L5064.0,824.0 L5049.0,822.0 L5020.0,814.0 L5015.0,814.0 L4993.0,807.0 L4971.0,803.0 L4943.0,794.0 L4935,793 L4932.0,797.0 L4928.0,820.0 L4923.0,835.0 L4921.0,847.0 L4918.0,853.0 L4918.0,858.0 L4912.0,876.0 L4909,891 L4919.0,895.0 L4934.0,897.0 L4938.0,899.0 L4945.0,899.0 L4981.0,908.0 L4987.0,908.0 L5050,924 Z" fill="none" stroke="yellow" />
<path d="M4891,894 L4889.0,916.0 L4886.0,927.0 L4886.0,936.0 L4883.0,943.0 L4878.0,977.0 L4876,978 L4878.0,977.0 L4892.0,980.0 L4917.0,982.0 L4923.0,984.0 L4936.0,984.0 L4945.0,986.0 L4966.0,987.0 L4973.0,989.0 L5013,992 L5043,988 L5046.0,959.0 L5048.0,954.0 L5048.0,938.0 L5050.0,933.0 L5050,924 L4987.0,908.0 L4981.0,908.0 L4945.0,899.0 L4938.0,899.0 L4934.0,897.0 L4919.0,895.0 L4909,891 Z" fill="none" stroke="yellow" />
<path d="M5079,298 L5081.0,295.0 L5084.0,267.0 L5093,227 L5101.0,227.0 L5111.0,230.0 L5133.0,233.0 L5136.0,235.0 L5141.0,235.0 L5164.0,242.0 L5169.0,242.0 L5179.0,246.0 L5185.0,246.0 L5225.0,261.0 L5228.0,264.0 L5230.0,270.0 L5243.0,292.0 L5245.0,299.0 L5246,321 L5231.0,323.0 L5224,326 L5194.0,326.0 L5172.0,332.0 L5167,332 L5163.0,328.0 L5153.0,324.0 L5142.0,323.0 L5121.0,318.0 L5083.0,302.0 Z" fill="none" stroke="yellow" />
<path d="M4645,378 L4855,401 L4858.0,400.0 L4859.0,397.0 L4862.0,378.0 L4871.0,350.0 L4871.0,344.0 L4877.0,324.0 L4880.0,305.0 L4882.0,302.0 L4882.0,295.0 L4884.0,292.0 L4887,268 L4870.0,263.0 L4869,261 L4853.0,261.0 L4847.0,259.0 L4835.0,259.0 L4827.0,257.0 L4803.0,256.0 L4757.0,250.0 L4751.0,248.0 L4716.0,245.0 L4711,243 L4671,245 L4667.0,271.0 L4663.0,284.0 L4663.0,290.0 L4661.0,293.0 L4661.0,299.0 L4659.0,301.0 L4659.0,306.0 L4654.0,321.0 L4652.0,334.0 L4650.0,337.0 L4645.0,359.0 L4645.0,367.0 L4643.0,373.0 L4643.0,376.0 Z" fill="none" stroke="yellow" />
<path d="M5079,298 L5083.0,302.0 L5121.0,318.0 L5142.0,323.0 L5153.0,324.0 L5163.0,328.0 L5167,332 L5147.0,353.0 L5101.0,385.0 L5094.0,393.0 L5089.0,396.0 L5059.0,424.0 L5055,430 L4971.0,415.0 L4962.0,415.0 L4858.0,400.0 L4855,401 L4858.0,400.0 L4859.0,397.0 L4862.0,378.0 L4871.0,350.0 L4871.0,344.0 L4877.0,324.0 L4880.0,305.0 L4882.0,302.0 L4882.0,295.0 L4884.0,292.0 L4887,268 L4924.0,270.0 L4930.0,272.0 L4942.0,272.0 L4988.0,278.0 L4995,277 L4996.0,279.0 L5002.0,281.0 L5007.0,281.0 L5010.0,283.0 L5039.0,289.0 L5062.0,296.0 Z" fill="none" stroke="yellow" />
<path d="M5114,1001 L5115.0,1013.0 L5120.0,1030.0 L5122,1046 L5153.0,1044.0 L5189.0,1038.0 L5215.0,1036.0 L5219.0,1034.0 L5235.0,1032.0 L5237,1030 L5237.0,1028.0 L5233.0,1024.0 L5212.0,1014.0 L5192.0,1007.0 L5189,1004 L5155.0,1003.0 L5143.0,1001.0 Z" fill="none" stroke="yellow" />
<path d="M5308,343 L5306.0,337.0 L5300.0,330.0 L5246,321 L5231.0,323.0 L5224,326 L5224.0,329.0 L5232.0,345.0 L5250.0,377.0 L5252.0,379.0 L5255,379 L5280.0,378.0 L5293.0,364.0 Z" fill="none" stroke="yellow" />
<path d="M5311,1013 L5309.0,1016.0 L5297.0,1020.0 L5260.0,1027.0 L5257.0,1029.0 L5237,1030 L5237.0,1028.0 L5233.0,1024.0 L5212.0,1014.0 L5192.0,1007.0 L5189,1004 L5192.0,986.0 L5194.0,982.0 L5194.0,969.0 L5196.0,965.0 L5197,953 L5220.0,953.0 L5259,957 L5260.0,960.0 L5309.0,1008.0 Z" fill="none" stroke="yellow" />
<path d="M5098,921 L5107.0,877.0 L5109.0,874.0 L5113.0,841.0 L5115,836 L5118.0,838.0 L5132.0,840.0 L5135.0,842.0 L5148.0,844.0 L5156.0,847.0 L5180.0,851.0 L5184.0,853.0 L5189.0,853.0 L5201.0,857.0 L5207.0,857.0 L5215.0,860.0 L5231.0,862.0 L5235.0,864.0 L5242.0,864.0 L5245.0,866.0 L5260.0,868.0 L5268,871 L5266.0,883.0 L5266.0,902.0 L5269.0,916.0 L5269.0,935.0 L5271.0,938.0 L5271,944 L5259,957 L5220.0,953.0 L5197,953 L5181.0,947.0 L5170.0,945.0 L5168.0,943.0 L5160.0,942.0 L5130.0,932.0 L5123.0,931.0 Z" fill="none" stroke="yellow" />
<path d="M5114,1001 L5115.0,1013.0 L5120.0,1030.0 L5122,1046 L5094.0,1049.0 L5026,1052 L5025.0,1044.0 L5022.0,1038.0 L5022.0,1033.0 L5019.0,1027.0 L5019.0,1022.0 L5017.0,1019.0 L5017.0,1012.0 L5015.0,1009.0 L5013,992 L5043,988 L5049.0,990.0 L5079.0,993.0 Z" fill="none" stroke="yellow" />
<path d="M5224,547 L5222.0,544.0 L5211.0,539.0 L5139.0,492.0 L5086.0,454.0 L5071.0,445.0 L5064,444 L5063.0,440.0 L5056.0,433.0 L5055,430 L5059.0,424.0 L5089.0,396.0 L5094.0,393.0 L5101.0,385.0 L5147.0,353.0 L5167,332 L5172.0,332.0 L5194.0,326.0 L5224,326 L5224.0,329.0 L5232.0,345.0 L5250.0,377.0 L5252.0,379.0 L5255,379 L5255.0,386.0 L5260.0,398.0 L5279.0,421.0 L5299.0,442.0 L5303.0,447.0 L5304,451 L5293.0,467.0 L5271.0,494.0 L5224.0,545.0 Z" fill="none" stroke="yellow" />
<path d="M5311,1013 L5319.0,1013.0 L5336.0,1009.0 L5350.0,1003.0 L5369.0,1000.0 L5379.0,996.0 L5391.0,994.0 L5396.0,992.0 L5397,990 L5395.0,985.0 L5372.0,961.0 L5372,959 L5368.0,960.0 L5363.0,958.0 L5347.0,957.0 L5318.0,951.0 L5306.0,950.0 L5301.0,948.0 L5271,944 L5259,957 L5260.0,960.0 L5309.0,1008.0 Z" fill="none" stroke="yellow" />
<path d="M5372,959 L5382.0,940.0 L5384.0,932.0 L5390.0,920.0 L5390.0,915.0 L5393.0,909.0 L5394,901 L5413,900 L5427.0,905.0 L5435.0,906.0 L5457.0,914.0 L5459,916 L5462.0,949.0 L5462.0,966.0 L5464,970 L5462.0,972.0 L5447.0,976.0 L5442.0,979.0 L5424.0,983.0 L5406.0,990.0 L5397,990 L5395.0,985.0 L5372.0,961.0 Z" fill="none" stroke="yellow" />
<path d="M5459,916 L5462.0,949.0 L5462.0,966.0 L5464,970 L5498.0,959.0 L5500.0,957.0 L5534.0,943.0 L5537,939 L5532.0,934.0 L5511.0,923.0 L5508,919 L5484.0,918.0 L5478.0,916.0 Z" fill="none" stroke="yellow" />
<path d="M5098,921 L5123.0,931.0 L5130.0,932.0 L5160.0,942.0 L5168.0,943.0 L5170.0,945.0 L5181.0,947.0 L5197,953 L5196.0,965.0 L5194.0,969.0 L5194.0,982.0 L5192.0,986.0 L5189,1004 L5155.0,1003.0 L5143.0,1001.0 L5114,1001 L5079.0,993.0 L5049.0,990.0 L5043,988 L5046.0,959.0 L5048.0,954.0 L5048.0,938.0 L5050.0,933.0 L5050,924 Z" fill="none" stroke="yellow" />
<path d="M5557,629 L5563.0,628.0 L5596.0,614.0 L5605.0,612.0 L5617.0,607.0 L5620,604 L5619.0,595.0 L5615.0,589.0 L5615.0,585.0 L5602.0,560.0 L5592.0,546.0 L5589.0,539.0 L5585.0,535.0 L5581,534 L5578.0,537.0 L5526.0,563.0 L5507,576 L5509.0,581.0 L5518.0,589.0 L5550.0,625.0 L5553.0,628.0 Z" fill="none" stroke="yellow" />
<path d="M5557,629 L5559,641 L5562.0,642.0 L5604.0,684.0 L5611,687 L5637.0,675.0 L5648,672 L5645.0,655.0 L5635.0,631.0 L5635.0,628.0 L5631.0,622.0 L5630.0,617.0 L5626.0,612.0 L5625.0,607.0 L5620,604 L5617.0,607.0 L5605.0,612.0 L5596.0,614.0 L5563.0,628.0 Z" fill="none" stroke="yellow" />
<path d="M5600,773 L5603,784 L5608.0,784.0 L5640.0,803.0 L5658,810 L5661.0,802.0 L5661.0,793.0 L5664.0,784.0 L5663,748 L5651.0,746.0 L5640.0,739.0 L5635,738 L5634.0,741.0 L5618.0,758.0 L5603.0,772.0 Z" fill="none" stroke="yellow" />
<path d="M5308,343 L5322.0,344.0 L5327.0,346.0 L5369.0,349.0 L5380.0,352.0 L5383,351 L5388.0,354.0 L5398.0,355.0 L5412.0,360.0 L5416.0,360.0 L5438.0,373.0 L5488.0,416.0 L5513.0,442.0 L5515,449 L5508.0,455.0 L5498.0,460.0 L5433.0,490.0 L5413,503 L5404.0,501.0 L5390.0,494.0 L5358.0,477.0 L5355.0,474.0 L5331.0,463.0 L5312.0,452.0 L5304,451 L5303.0,447.0 L5299.0,442.0 L5279.0,421.0 L5260.0,398.0 L5255.0,386.0 L5255,379 L5280.0,378.0 L5293.0,364.0 Z" fill="none" stroke="yellow" />
<path d="M5611,687 L5612.0,694.0 L5625.0,719.0 L5634.0,732.0 L5635,738 L5640.0,739.0 L5651.0,746.0 L5663,748 L5659.0,705.0 L5654.0,685.0 L5650.0,673.0 L5648,672 L5637.0,675.0 Z" fill="none" stroke="yellow" />
<path d="M5559,641 L5562.0,642.0 L5604.0,684.0 L5611,687 L5612.0,694.0 L5625.0,719.0 L5634.0,732.0 L5635,738 L5634.0,741.0 L5618.0,758.0 L5603.0,772.0 L5600,773 L5591.0,771.0 L5587.0,767.0 L5541.0,739.0 L5524.0,727.0 L5504.0,716.0 L5498,715 L5495,705 L5527.0,671.0 Z" fill="none" stroke="yellow" />
<path d="M5591,835 L5597.0,804.0 L5603,784 L5608.0,784.0 L5640.0,803.0 L5658,810 L5657.0,821.0 L5652.0,831.0 L5648.0,844.0 L5642.0,854.0 L5637,858 L5634.0,855.0 L5626.0,853.0 L5605.0,841.0 Z" fill="none" stroke="yellow" />
<path d="M5544,866 L5543.0,863.0 L5538.0,862.0 L5522.0,853.0 L5497.0,843.0 L5476.0,832.0 L5464.0,828.0 L5456.0,823.0 L5439,817 L5443.0,816.0 L5446.0,807.0 L5451.0,801.0 L5467.0,772.0 L5476.0,759.0 L5498,715 L5504.0,716.0 L5524.0,727.0 L5541.0,739.0 L5587.0,767.0 L5591.0,771.0 L5600,773 L5603,784 L5597.0,804.0 L5591,835 L5583.0,838.0 L5557.0,853.0 L5544.0,863.0 Z" fill="none" stroke="yellow" />
<path d="M5557,629 L5559,641 L5527.0,671.0 L5495,705 L5486.0,702.0 L5464.0,688.0 L5448.0,680.0 L5437.0,672.0 L5419.0,663.0 L5384.0,641.0 L5370,634 L5429.0,572.0 L5450,547 L5460.0,550.0 L5498.0,573.0 L5507,576 L5509.0,581.0 L5518.0,589.0 L5550.0,625.0 L5553.0,628.0 Z" fill="none" stroke="yellow" />
</svg>