<?xml version="1.0" encoding="UTF-8"?>
<svg xmlns="http://www.w3.org/2000/svg" xmlns:xlink="http://www.w3.org/1999/xlink"
     width="3000" height="1000" viewBox="0 0 3000 1000">
<defs>
</defs>
<path d="M5544,866 L5594,902 L5537,939 L5508,919 Z" fill="none" stroke="yellow" />
<path d="M5544,866 L5591,835 L5637,858 L5594,902 Z" fill="none" stroke="yellow" />
<path d="M4404,361 L4417,228 L4190,223 L4178,352 Z" fill="none" stroke="yellow" />
<path d="M4645,378 L4404,361 L4430,520 L4609,550 Z" fill="none" stroke="yellow" />
<path d="M5544,866 L5439,817 L5413,900 L5459,916 L5508,919 Z" fill="none" stroke="yellow" />
<path d="M4645,378 L4855,401 L4799,597 L4609,550 Z" fill="none" stroke="yellow" />
<path d="M4609,550 L4799,597 L4742,744 L4544,690 Z" fill="none" stroke="yellow" />
<path d="M4349,634 L4430,520 L4609,550 L4544,690 Z" fill="none" stroke="yellow" />
<path d="M2988,148 L3248,147 L3242,228 L2988,233 Z" fill="none" stroke="yellow" />
<path d="M2731,238 L2988,233 L2988,148 L2728,153 Z" fill="none" stroke="yellow" />
<path d="M2731,238 L2988,233 L3002,361 L2746,372 Z" fill="none" stroke="yellow" />
<path d="M2275,486 L2279,583 L2083,523 L2117,446 Z" fill="none" stroke="yellow" />
<path d="M2067,587 L2275,661 L2279,583 L2083,523 Z" fill="none" stroke="yellow" />
<path d="M2494,643 L2279,583 L2275,661 L2484,728 Z" fill="none" stroke="yellow" />
<path d="M2494,643 L2279,583 L2275,486 L2503,534 Z" fill="none" stroke="yellow" />
<path d="M1307,186 L1303,143 L879,120 L882,154 Z" fill="none" stroke="yellow" />
<path d="M879,120 L1303,143 L1303,89 L869,66 Z" fill="none" stroke="yellow" />
<path d="M879,120 L199,99 L182,103 L171,100 L882,154 Z" fill="none" stroke="yellow" />
<path d="M166,73 L171,100 L179,65 Z" fill="none" stroke="yellow" />
<path d="M879,120 L869,66 L179,65 L171,100 L882,154 Z" fill="none" stroke="yellow" />
<path d="M5372,959 L5394,901 L5268,871 L5271,944 Z" fill="none" stroke="yellow" />
<path d="M5439,817 L5498,715 L5495,705 L5370,634 L5302,765 Z" fill="none" stroke="yellow" />
<path d="M5370,634 L5224,547 L5146,707 L5302,765 Z" fill="none" stroke="yellow" />
<path d="M5268,871 L5302,765 L5146,707 L5115,836 Z" fill="none" stroke="yellow" />
<path d="M5439,817 L5413,900 L5394,901 L5268,871 L5302,765 Z" fill="none" stroke="yellow" />
<path d="M5064,444 L5224,547 L5146,707 L4971,647 Z" fill="none" stroke="yellow" />
<path d="M5064,444 L4971,647 L4799,597 L4855,401 L5055,430 Z" fill="none" stroke="yellow" />
<path d="M4935,793 L4971,647 L4799,597 L4742,744 Z" fill="none" stroke="yellow" />
<path d="M4935,793 L5115,836 L5146,707 L4971,647 Z" fill="none" stroke="yellow" />
<path d="M4895,1058 L5026,1052 L5013,992 L4876,978 Z" fill="none" stroke="yellow" />
<path d="M4713,857 L4705,858 L4512,823 L4544,690 L4742,744 Z" fill="none" stroke="yellow" />
<path d="M4713,857 L4891,894 L4909,891 L4935,793 L4742,744 Z" fill="none" stroke="yellow" />
<path d="M4645,378 L4404,361 L4417,228 L4588,233 L4671,245 Z" fill="none" stroke="yellow" />
<path d="M4417,228 L4421,162 L4595,173 L4588,233 Z" fill="none" stroke="yellow" />
<path d="M4417,228 L4421,162 L4194,155 L4190,223 Z" fill="none" stroke="yellow" />
<path d="M4140,586 L4349,634 L4303,779 L4099,738 Z" fill="none" stroke="yellow" />
<path d="M4512,823 L4303,779 L4349,634 L4544,690 Z" fill="none" stroke="yellow" />
<path d="M4140,586 L3934,546 L3891,695 L4099,738 Z" fill="none" stroke="yellow" />
<path d="M4512,823 L4303,779 L4284,900 L4491,929 Z" fill="none" stroke="yellow" />
<path d="M4079,862 L4099,738 L4303,779 L4284,900 Z" fill="none" stroke="yellow" />
<path d="M4512,823 L4491,929 L4698,957 L4705,858 Z" fill="none" stroke="yellow" />
<path d="M4713,857 L4891,894 L4876,978 L4698,957 L4705,858 Z" fill="none" stroke="yellow" />
<path d="M3955,220 L4190,223 L4178,352 L3953,342 Z" fill="none" stroke="yellow" />
<path d="M3955,220 L4190,223 L4194,155 L3964,150 Z" fill="none" stroke="yellow" />
<path d="M4140,586 L3934,546 L3953,342 L4178,352 Z" fill="none" stroke="yellow" />
<path d="M4079,862 L3865,821 L3891,695 L4099,738 Z" fill="none" stroke="yellow" />
<path d="M3680,646 L3891,695 L3934,546 L3734,494 Z" fill="none" stroke="yellow" />
<path d="M3747,344 L3953,342 L3934,546 L3734,494 Z" fill="none" stroke="yellow" />
<path d="M3680,646 L3734,494 L3559,424 L3455,596 Z" fill="none" stroke="yellow" />
<path d="M3680,646 L3646,776 L3865,821 L3891,695 Z" fill="none" stroke="yellow" />
<path d="M4140,586 L4349,634 L4430,520 L4404,361 L4178,352 Z" fill="none" stroke="yellow" />
<path d="M3955,220 L3953,342 L3747,344 L3735,343 L3727,222 Z" fill="none" stroke="yellow" />
<path d="M3728,149 L3964,150 L3955,220 L3727,222 Z" fill="none" stroke="yellow" />
<path d="M3735,343 L3747,344 L3734,494 L3559,424 L3524,361 Z" fill="none" stroke="yellow" />
<path d="M3424,728 L3646,776 L3680,646 L3455,596 Z" fill="none" stroke="yellow" />
<path d="M3424,728 L3201,679 L3235,558 L3455,596 Z" fill="none" stroke="yellow" />
<path d="M3264,358 L3002,361 L2997,528 L3235,558 Z" fill="none" stroke="yellow" />
<path d="M3242,228 L3250,229 L3264,358 L3002,361 L2988,233 Z" fill="none" stroke="yellow" />
<path d="M3250,229 L3264,358 L3512,359 L3499,227 L3482,225 Z" fill="none" stroke="yellow" />
<path d="M3201,679 L2970,629 L2997,528 L3235,558 Z" fill="none" stroke="yellow" />
<path d="M3201,679 L2970,629 L2954,746 L3178,793 Z" fill="none" stroke="yellow" />
<path d="M3174,891 L3178,793 L2954,746 L2950,846 Z" fill="none" stroke="yellow" />
<path d="M3174,891 L3397,933 L3402,837 L3178,793 Z" fill="none" stroke="yellow" />
<path d="M3424,728 L3201,679 L3178,793 L3402,837 L3411,835 Z" fill="none" stroke="yellow" />
<path d="M2970,629 L2734,581 L2753,500 L2997,528 Z" fill="none" stroke="yellow" />
<path d="M3002,361 L2746,372 L2753,500 L2997,528 Z" fill="none" stroke="yellow" />
<path d="M2494,643 L2716,694 L2734,581 L2503,534 Z" fill="none" stroke="yellow" />
<path d="M2970,629 L2954,746 L2716,694 L2734,581 Z" fill="none" stroke="yellow" />
<path d="M2504,471 L2274,447 L2275,486 L2503,534 Z" fill="none" stroke="yellow" />
<path d="M2504,471 L2493,382 L2746,372 L2753,500 Z" fill="none" stroke="yellow" />
<path d="M2504,471 L2753,500 L2734,581 L2503,534 Z" fill="none" stroke="yellow" />
<path d="M2731,238 L2462,244 L2493,382 L2746,372 Z" fill="none" stroke="yellow" />
<path d="M2731,238 L2462,244 L2459,161 L2728,153 Z" fill="none" stroke="yellow" />
<path d="M2504,471 L2493,382 L2250,390 L2263,443 L2274,447 Z" fill="none" stroke="yellow" />
<path d="M2494,643 L2484,728 L2715,790 L2716,694 Z" fill="none" stroke="yellow" />
<path d="M2493,382 L2462,244 L2195,252 L2241,389 L2250,390 Z" fill="none" stroke="yellow" />
<path d="M2126,430 L2117,446 L2275,486 L2274,447 L2263,443 Z" fill="none" stroke="yellow" />
<path d="M2105,396 L2126,430 L2117,446 L2031,396 Z" fill="none" stroke="yellow" />
<path d="M1303,143 L1811,188 L1821,175 L1303,89 Z" fill="none" stroke="yellow" />
<path d="M5581,534 L5507,576 L5450,547 L5413,503 L5515,449 Z" fill="none" stroke="yellow" />
<path d="M5413,503 L5450,547 L5370,634 L5224,547 L5304,451 Z" fill="none" stroke="yellow" />
<path d="M4783,1059 L4649,1060 L4643,1028 L4702,1001 Z" fill="none" stroke="yellow" />
<path d="M4494,995 L4643,1028 L4702,1001 L4698,957 L4491,929 Z" fill="none" stroke="yellow" />
<path d="M4287,968 L4209,985 L4076,946 L4079,862 L4284,900 Z" fill="none" stroke="yellow" />
<path d="M3632,874 L3646,776 L3865,821 L3865,912 L3762,918 Z" fill="none" stroke="yellow" />
<path d="M3242,228 L3248,147 L3489,147 L3482,225 L3250,229 Z" fill="none" stroke="yellow" />
<path d="M3735,343 L3727,222 L3499,227 L3512,359 L3524,361 Z" fill="none" stroke="yellow" />
<path d="M2715,790 L2716,694 L2954,746 L2950,846 Z" fill="none" stroke="yellow" />
<path d="M1342,258 L871,224 L871,242 L1577,414 L1589,380 Z" fill="none" stroke="yellow" />
<path d="M115,114 L122,159 L127,137 L127,118 Z" fill="none" stroke="yellow" />
<path d="M115,114 L127,118 L141,118 L171,100 L166,73 Z" fill="none" stroke="yellow" />
<path d="M1577,414 L1765,480 L1763,467 L1589,380 Z" fill="none" stroke="yellow" />
<path d="M2187,251 L2190,168 L1821,175 L1811,188 L1871,249 L1884,253 Z" fill="none" stroke="yellow" />
<path d="M1307,186 L1340,196 L1871,249 L1811,188 L1303,143 Z" fill="none" stroke="yellow" />
<path d="M2117,446 L2083,523 L1797,431 L1602,350 L1359,224 L1355,212 L1935,371 L2031,396 Z" fill="none" stroke="yellow" />
<path d="M1340,196 L1355,212 L1935,371 L1884,253 L1871,249 Z" fill="none" stroke="yellow" />
<path d="M1342,258 L1359,224 L1602,350 L1589,380 Z" fill="none" stroke="yellow" />
<path d="M1602,350 L1797,431 L1763,467 L1589,380 Z" fill="none" stroke="yellow" />
<path d="M135,167 L122,159 L115,114 L127,118 L141,118 L871,224 L871,242 Z" fill="none" stroke="yellow" />
<path d="M2105,396 L2241,389 L2195,252 L2187,251 L1884,253 L1935,371 L2031,396 Z" fill="none" stroke="yellow" />
<path d="M2067,587 L1765,480 L1763,467 L1797,431 L2083,523 Z" fill="none" stroke="yellow" />
<path d="M2187,251 L2190,168 L2459,161 L2462,244 L2195,252 Z" fill="none" stroke="yellow" />
<path d="M141,118 L171,100 L882,154 L1307,186 L1340,196 L1355,212 L1359,224 L1342,258 L871,224 Z" fill="none" stroke="yellow" />
<path d="M2105,396 L2126,430 L2263,443 L2250,390 L2241,389 Z" fill="none" stroke="yellow" />
<path d="M3235,558 L3264,358 L3512,359 L3524,361 L3559,424 L3455,596 Z" fill="none" stroke="yellow" />
<path d="M3728,149 L3727,222 L3499,227 L3482,225 L3489,147 Z" fill="none" stroke="yellow" />
<path d="M3397,933 L3402,837 L3411,835 L3600,881 L3600,961 Z" fill="none" stroke="yellow" />
<path d="M3424,728 L3646,776 L3632,874 L3600,881 L3411,835 Z" fill="none" stroke="yellow" />
<path d="M3762,918 L3765,981 L3914,1005 L3899,930 L3865,912 Z" fill="none" stroke="yellow" />
<path d="M3899,930 L3914,1005 L4072,1025 L4064,951 Z" fill="none" stroke="yellow" />
<path d="M3632,874 L3762,918 L3765,981 L3600,961 L3600,881 Z" fill="none" stroke="yellow" />
<path d="M4064,951 L4072,1025 L4218,1036 L4209,985 L4076,946 Z" fill="none" stroke="yellow" />
<path d="M4287,968 L4343,997 L4353,1047 L4218,1036 L4209,985 Z" fill="none" stroke="yellow" />
<path d="M4343,997 L4353,1047 L4499,1060 L4486,1002 Z" fill="none" stroke="yellow" />
<path d="M4287,968 L4343,997 L4486,1002 L4494,995 L4491,929 L4284,900 Z" fill="none" stroke="yellow" />
<path d="M4486,1002 L4494,995 L4643,1028 L4649,1060 L4499,1060 Z" fill="none" stroke="yellow" />
<path d="M4783,1059 L4895,1058 L4876,978 L4698,957 L4702,1001 Z" fill="none" stroke="yellow" />
<path d="M4079,862 L3865,821 L3865,912 L3899,930 L4064,951 L4076,946 Z" fill="none" stroke="yellow" />
<path d="M4740,183 L4886,198 L4869,261 L4711,243 Z" fill="none" stroke="yellow" />
<path d="M4740,183 L4595,173 L4588,233 L4671,245 L4711,243 Z" fill="none" stroke="yellow" />
<path d="M4869,261 L4886,198 L5023,215 L4995,277 L4887,268 Z" fill="none" stroke="yellow" />
<path d="M5079,298 L5093,227 L5023,215 L4995,277 Z" fill="none" stroke="yellow" />
<path d="M5098,921 L5115,836 L4935,793 L4909,891 L5050,924 Z" fill="none" stroke="yellow" />
<path d="M4891,894 L4876,978 L5013,992 L5043,988 L5050,924 L4909,891 Z" fill="none" stroke="yellow" />
<path d="M5079,298 L5093,227 L5246,321 L5224,326 L5167,332 Z" fill="none" stroke="yellow" />
<path d="M4645,378 L4855,401 L4887,268 L4869,261 L4711,243 L4671,245 Z" fill="none" stroke="yellow" />
<path d="M5079,298 L5167,332 L5055,430 L4855,401 L4887,268 L4995,277 Z" fill="none" stroke="yellow" />
<path d="M5114,1001 L5122,1046 L5237,1030 L5189,1004 Z" fill="none" stroke="yellow" />
<path d="M5308,343 L5246,321 L5224,326 L5255,379 Z" fill="none" stroke="yellow" />
<path d="M5311,1013 L5237,1030 L5189,1004 L5197,953 L5259,957 Z" fill="none" stroke="yellow" />
<path d="M5098,921 L5115,836 L5268,871 L5271,944 L5259,957 L5197,953 Z" fill="none" stroke="yellow" />
<path d="M5114,1001 L5122,1046 L5026,1052 L5013,992 L5043,988 Z" fill="none" stroke="yellow" />
<path d="M5224,547 L5064,444 L5055,430 L5167,332 L5224,326 L5255,379 L5304,451 Z" fill="none" stroke="yellow" />
<path d="M5311,1013 L5397,990 L5372,959 L5271,944 L5259,957 Z" fill="none" stroke="yellow" />
<path d="M5372,959 L5394,901 L5413,900 L5459,916 L5464,970 L5397,990 Z" fill="none" stroke="yellow" />
<path d="M5459,916 L5464,970 L5537,939 L5508,919 Z" fill="none" stroke="yellow" />
<path d="M5098,921 L5197,953 L5189,1004 L5114,1001 L5043,988 L5050,924 Z" fill="none" stroke="yellow" />
<path d="M5557,629 L5620,604 L5581,534 L5507,576 Z" fill="none" stroke="yellow" />
<path d="M5557,629 L5559,641 L5611,687 L5648,672 L5620,604 Z" fill="none" stroke="yellow" />
<path d="M5600,773 L5603,784 L5658,810 L5663,748 L5635,738 Z" fill="none" stroke="yellow" />
<path d="M5308,343 L5383,351 L5515,449 L5413,503 L5304,451 L5255,379 Z" fill="none" stroke="yellow" />
<path d="M5611,687 L5635,738 L5663,748 L5648,672 Z" fill="none" stroke="yellow" />
<path d="M5559,641 L5611,687 L5635,738 L5600,773 L5498,715 L5495,705 Z" fill="none" stroke="yellow" />
<path d="M5591,835 L5603,784 L5658,810 L5637,858 Z" fill="none" stroke="yellow" />
<path d="M5544,866 L5439,817 L5498,715 L5600,773 L5603,784 L5591,835 Z" fill="none" stroke="yellow" />
<path d="M5557,629 L5559,641 L5495,705 L5370,634 L5450,547 L5507,576 Z" fill="none" stroke="yellow" />
</svg>