<?xml version="1.0" encoding="UTF-8"?>
<svg xmlns="http://www.w3.org/2000/svg" xmlns:xlink="http://www.w3.org/1999/xlink"
     width="2633.3333333333335" height="600" viewBox="0 0 2633.3333333333335 600">
<defs>
</defs>
<path d="M1980,105 L1984.0,104.0 L1991,69 L2045.0,71.0 L2053.0,73.0 L2074.0,73.0 L2080.0,75.0 L2115.0,78.0 L2117,80 L2116.0,87.0 L2109.0,101.0 L2106,113 L2088.0,113.0 L2079.0,111.0 L2060.0,111.0 L2053.0,109.0 L1987.0,106.0 L1984.0,104.0 Z" fill="none" stroke="yellow" />
<path d="M1980,105 L1845,100 L1844.0,141.0 L1842.0,148.0 L1842.0,157.0 L1845,158 L1957.0,165.0 L1975,164 L1977.0,137.0 L1977.0,106.0 Z" fill="none" stroke="yellow" />
<path d="M1980,105 L1984.0,104.0 L1991,69 L1932.0,64.0 L1852,62 L1851.0,74.0 L1845,100 Z" fill="none" stroke="yellow" />
<path d="M1111,163 L1108.0,162.0 L1100.0,164.0 L1068.0,165.0 L1059,167 L1060.0,172.0 L1067.0,180.0 L1083.0,190.0 L1116.0,202.0 L1150,210 L1150,198 L1130.0,181.0 L1114.0,163.0 Z" fill="none" stroke="yellow" />
<path d="M1111,163 L1119.0,161.0 L1140.0,161.0 L1178.0,158.0 L1212.0,158.0 L1228.0,156.0 L1319,157 L1315.0,130.0 L1313.0,126.0 L1309.0,105.0 L1309.0,98.0 L1306,97 L1304.0,96.0 L1177.0,100.0 L1129.0,104.0 L1094.0,105.0 L1079,108 L1081.0,116.0 L1104.0,149.0 L1108.0,161.0 Z" fill="none" stroke="yellow" />
<path d="M1111,163 L1119.0,161.0 L1140.0,161.0 L1178.0,158.0 L1212.0,158.0 L1228.0,156.0 L1319,157 L1321.0,158.0 L1322.0,171.0 L1326.0,188.0 L1327,208 L1288.0,203.0 L1150,198 L1130.0,181.0 L1114.0,163.0 Z" fill="none" stroke="yellow" />
<path d="M2421,373 L2428.0,372.0 L2464,382 L2469.0,388.0 L2484,399 L2482.0,404.0 L2472.0,414.0 L2468,415 L2438.0,394.0 L2421.0,376.0 Z" fill="none" stroke="yellow" />
<path d="M2358,275 L2350.0,298.0 L2334.0,330.0 L2335,332 L2337.0,335.0 L2341.0,335.0 L2354.0,342.0 L2381.0,352.0 L2402.0,363.0 L2420.0,369.0 L2421,373 L2421.0,369.0 L2425.0,361.0 L2437.0,343.0 L2444,329 L2444.0,327.0 L2436.0,319.0 L2419.0,307.0 L2378.0,283.0 L2364.0,276.0 Z" fill="none" stroke="yellow" />
<path d="M2205,349 L2251.0,364.0 L2271.0,369.0 L2314,384 L2315.0,379.0 L2324.0,364.0 L2331.0,348.0 L2335,332 L2334.0,330.0 L2319.0,326.0 L2310.0,321.0 L2301.0,319.0 L2264.0,304.0 L2241.0,297.0 L2239.0,295.0 L2228.0,293.0 L2227,291 L2227.0,297.0 L2217.0,329.0 L2210.0,342.0 L2209.0,348.0 Z" fill="none" stroke="yellow" />
<path d="M2421,373 L2421.0,375.0 L2403.0,399.0 L2402,405 L2384,405 L2314,384 L2315.0,379.0 L2324.0,364.0 L2331.0,348.0 L2335,332 L2337.0,335.0 L2341.0,335.0 L2354.0,342.0 L2381.0,352.0 L2402.0,363.0 L2420.0,369.0 Z" fill="none" stroke="yellow" />
<path d="M2092,314 L2114.0,319.0 L2137.0,328.0 L2205,349 L2209.0,348.0 L2210.0,342.0 L2217.0,329.0 L2227.0,297.0 L2227,291 L2226.0,289.0 L2208.0,285.0 L2180.0,276.0 L2176.0,276.0 L2140.0,264.0 L2135.0,264.0 L2133.0,262.0 L2117.0,259.0 L2114,256 L2113.0,266.0 L2103.0,294.0 L2095.0,312.0 Z" fill="none" stroke="yellow" />
<path d="M2092,314 L2062.0,305.0 L1992.0,279.0 L1979.0,276.0 L1976.0,274.0 L1971.0,274.0 L1968,272 L1966.0,274.0 L1948.0,329.0 L1944,331 L1978.0,340.0 L2053,365 L2073,363 L2089.0,315.0 Z" fill="none" stroke="yellow" />
<path d="M1968,272 L1938.0,262.0 L1876.0,245.0 L1843.0,238.0 L1837.0,238.0 L1835.0,236.0 L1833,237 L1830.0,238.0 L1829.0,252.0 L1816,299 L1818.0,301.0 L1840.0,305.0 L1860.0,311.0 L1869.0,312.0 L1925.0,326.0 L1942.0,332.0 L1944,331 L1948.0,329.0 L1966.0,274.0 Z" fill="none" stroke="yellow" />
<path d="M1919,393 L1918.0,392.0 L1920.0,386.0 L1934.0,355.0 L1941.0,333.0 L1944,331 L1942.0,332.0 L1925.0,326.0 L1869.0,312.0 L1860.0,311.0 L1840.0,305.0 L1818.0,301.0 L1816,299 L1808.0,323.0 L1792.0,357.0 L1792,361 L1794.0,363.0 L1812.0,366.0 L1860.0,380.0 Z" fill="none" stroke="yellow" />
<path d="M1677,97 L1678.0,115.0 L1674,156 L1821.0,156.0 L1845,158 L1842.0,157.0 L1842.0,148.0 L1844.0,141.0 L1845,100 L1788.0,100.0 Z" fill="none" stroke="yellow" />
<path d="M1327,208 L1504,232 L1507.0,229.0 L1508.0,211.0 L1505.0,179.0 L1503.0,172.0 L1503.0,162.0 L1500,158 L1319,157 L1321.0,158.0 L1322.0,171.0 L1326.0,188.0 Z" fill="none" stroke="yellow" />
<path d="M1659,263 L1657.0,264.0 L1654.0,282.0 L1644.0,310.0 L1642.0,317.0 L1643,318 L1647.0,321.0 L1651.0,321.0 L1663.0,326.0 L1690.0,333.0 L1726.0,345.0 L1792,361 L1792.0,357.0 L1808.0,323.0 L1816,299 L1779.0,290.0 L1776.0,288.0 L1749.0,283.0 L1746.0,281.0 L1717.0,276.0 L1669.0,264.0 Z" fill="none" stroke="yellow" />
<path d="M1659,263 L1657.0,264.0 L1654.0,282.0 L1644.0,310.0 L1642.0,317.0 L1643,318 L1569.0,299.0 L1541.0,290.0 L1528.0,288.0 L1494.0,278.0 L1485,277 L1489.0,275.0 L1493.0,266.0 L1497.0,253.0 L1499.0,251.0 L1504,232 L1506.0,231.0 L1526.0,234.0 L1530.0,236.0 L1537.0,236.0 L1541.0,238.0 L1573.0,243.0 L1577.0,245.0 L1638.0,257.0 L1642.0,259.0 L1657.0,261.0 Z" fill="none" stroke="yellow" />
<path d="M1327,208 L1327.0,217.0 L1325.0,222.0 L1323.0,238.0 L1321,240 L1258.0,231.0 L1253.0,229.0 L1246.0,229.0 L1203.0,220.0 L1153.0,212.0 L1150,210 L1150,198 L1288.0,203.0 Z" fill="none" stroke="yellow" />
<path d="M1327,208 L1327.0,217.0 L1325.0,222.0 L1323.0,238.0 L1321,240 L1339.0,243.0 L1363.0,250.0 L1423.0,262.0 L1426.0,264.0 L1485,277 L1489.0,275.0 L1493.0,266.0 L1497.0,253.0 L1499.0,251.0 L1504,232 Z" fill="none" stroke="yellow" />
<path d="M1319,157 L1500,158 L1500.0,147.0 L1505.0,121.0 L1507,95 L1385.0,94.0 L1306,97 L1309.0,98.0 L1309.0,105.0 L1313.0,126.0 L1315.0,130.0 Z" fill="none" stroke="yellow" />
<path d="M1677,97 L1681,61 L1663.0,59.0 L1514,59 L1512.0,75.0 L1507,95 Z" fill="none" stroke="yellow" />
<path d="M1507,95 L1512.0,75.0 L1514,59 L1332.0,58.0 L1305,60 L1305.0,77.0 L1303.0,93.0 L1306,97 L1385.0,94.0 Z" fill="none" stroke="yellow" />
<path d="M618,149 L619.0,146.0 L634.0,130.0 L635.0,127.0 L639,125 L642.0,125.0 L646.0,130.0 L654.0,134.0 L694,151 L697.0,163.0 L718.0,194.0 L723,205 L721.0,203.0 L716.0,204.0 L706.0,201.0 L684.0,191.0 L646.0,169.0 L620.0,152.0 Z" fill="none" stroke="yellow" />
<path d="M869,186 L857,228 L841.0,224.0 L835.0,224.0 L831.0,222.0 L795.0,217.0 L790.0,215.0 L762.0,212.0 L757.0,210.0 L748.0,210.0 L743.0,208.0 L725.0,207.0 L723,205 L718.0,194.0 L697.0,163.0 L694,151 L722.0,153.0 L776.0,163.0 L813.0,172.0 L832.0,175.0 L836.0,177.0 L841.0,177.0 Z" fill="none" stroke="yellow" />
<path d="M723,205 L725.0,207.0 L743.0,208.0 L748.0,210.0 L757.0,210.0 L762.0,212.0 L790.0,215.0 L795.0,217.0 L831.0,222.0 L835.0,224.0 L841.0,224.0 L857,228 L855.0,238.0 L855.0,263.0 L853,273 L817.0,262.0 L815.0,260.0 L798.0,255.0 L783.0,248.0 L735,232 L735.0,228.0 L732.0,221.0 L727.0,213.0 L726.0,208.0 Z" fill="none" stroke="yellow" />
<path d="M1042,83 L1030.0,85.0 L979.0,85.0 L953.0,83.0 L792.0,83.0 L714.0,85.0 L691.0,84.0 L644.0,86.0 L616,85 L616,97 L624,99 L638.0,97.0 L682.0,95.0 L791.0,93.0 L910.0,95.0 L974.0,98.0 L982.0,100.0 L999.0,100.0 L1009.0,102.0 L1025.0,102.0 L1056.0,105.0 L1059.0,105.0 L1061,103 L1059.0,98.0 L1045.0,88.0 Z" fill="none" stroke="yellow" />
<path d="M543,168 L544.0,166.0 L552,163 L551,149 L534.0,147.0 L459.0,147.0 L458,150 L458.0,154.0 Z" fill="none" stroke="yellow" />
<path d="M2205,349 L2203.0,350.0 L2197,390 L2222.0,398.0 L2275,424 L2313.0,423.0 L2316.0,421.0 L2317,422 L2315.0,417.0 L2313.0,400.0 L2314,384 L2271.0,369.0 L2251.0,364.0 Z" fill="none" stroke="yellow" />
<path d="M2358,470 L2364.0,470.0 L2387.0,462.0 L2389,460 L2385.0,452.0 L2375.0,441.0 L2374,437 L2369.0,437.0 L2327.0,423.0 L2317,422 L2325.0,435.0 Z" fill="none" stroke="yellow" />
<path d="M2358,275 L2350.0,298.0 L2334.0,330.0 L2335,332 L2334.0,330.0 L2319.0,326.0 L2310.0,321.0 L2301.0,319.0 L2264.0,304.0 L2241.0,297.0 L2239.0,295.0 L2228.0,293.0 L2227,291 L2228.0,284.0 L2241.0,244.0 L2245,222 L2246.0,224.0 L2250.0,224.0 L2295.0,243.0 L2298.0,243.0 L2338.0,262.0 L2349,264 L2349.0,266.0 Z" fill="none" stroke="yellow" />
<path d="M2128,180 L2141.0,182.0 L2159.0,188.0 L2237.0,219.0 L2244.0,220.0 L2245,222 L2241.0,244.0 L2228.0,284.0 L2227,291 L2226.0,289.0 L2208.0,285.0 L2180.0,276.0 L2176.0,276.0 L2140.0,264.0 L2135.0,264.0 L2133.0,262.0 L2117.0,259.0 L2114,256 L2125.0,207.0 Z" fill="none" stroke="yellow" />
<path d="M2092,314 L2062.0,305.0 L1992.0,279.0 L1979.0,276.0 L1976.0,274.0 L1971.0,274.0 L1968,272 L1971.0,270.0 L1971.0,267.0 L1985.0,247.0 L1998,232 L2083.0,248.0 L2114,256 L2113.0,266.0 L2103.0,294.0 L2095.0,312.0 Z" fill="none" stroke="yellow" />
<path d="M1985,167 L1998,232 L2083.0,248.0 L2114,256 L2125.0,207.0 L2128,180 L2127.0,178.0 L2116.0,173.0 L2115,171 L2063.0,167.0 Z" fill="none" stroke="yellow" />
<path d="M2092,314 L2114.0,319.0 L2137.0,328.0 L2205,349 L2203.0,350.0 L2197,390 L2168,396 L2073,363 L2089.0,315.0 Z" fill="none" stroke="yellow" />
<path d="M1919,393 L1921.0,395.0 L1934.0,397.0 L1937.0,399.0 L1972.0,407.0 L1983.0,411.0 L2030,421 L2039,421 L2047.0,397.0 L2053.0,372.0 L2053,365 L1978.0,340.0 L1944,331 L1941.0,333.0 L1934.0,355.0 L1920.0,386.0 L1918.0,392.0 Z" fill="none" stroke="yellow" />
<path d="M1671,194 L1745.0,217.0 L1801.0,231.0 L1833,237 L1836.0,235.0 L1846.0,196.0 L1848.0,180.0 L1848.0,159.0 L1845,158 L1821.0,156.0 L1674,156 L1667.0,158.0 L1642.0,160.0 L1631,163 L1634.0,170.0 L1642.0,177.0 Z" fill="none" stroke="yellow" />
<path d="M1659,263 L1658.0,262.0 L1660.0,260.0 L1661.0,247.0 L1666.0,227.0 L1666.0,220.0 L1668.0,216.0 L1668.0,208.0 L1671,194 L1745.0,217.0 L1801.0,231.0 L1833,237 L1830.0,238.0 L1829.0,252.0 L1816,299 L1779.0,290.0 L1776.0,288.0 L1749.0,283.0 L1746.0,281.0 L1717.0,276.0 L1669.0,264.0 Z" fill="none" stroke="yellow" />
<path d="M1464,327 L1478.0,296.0 L1483.0,278.0 L1485,277 L1494.0,278.0 L1528.0,288.0 L1541.0,290.0 L1569.0,299.0 L1643,318 L1644.0,323.0 L1642.0,333.0 L1633,367 L1621.0,369.0 L1618.0,371.0 L1609,371 L1558.0,354.0 Z" fill="none" stroke="yellow" />
<path d="M1677,97 L1678.0,115.0 L1674,156 L1667.0,158.0 L1642.0,160.0 L1631,163 L1617.0,161.0 L1571.0,161.0 L1500,158 L1500.0,147.0 L1505.0,121.0 L1507,95 Z" fill="none" stroke="yellow" />
<path d="M1435,387 L1447.0,353.0 L1453,327 L1421.0,317.0 L1413.0,316.0 L1403.0,312.0 L1302,285 L1300.0,287.0 L1291.0,320.0 L1284.0,335.0 L1284.0,339.0 L1281,341 L1314.0,350.0 L1382.0,373.0 Z" fill="none" stroke="yellow" />
<path d="M1453,327 L1464,327 L1478.0,296.0 L1483.0,278.0 L1485,277 L1426.0,264.0 L1423.0,262.0 L1363.0,250.0 L1339.0,243.0 L1321,240 L1315.0,259.0 L1305.0,280.0 L1305.0,283.0 L1302,285 L1403.0,312.0 L1413.0,316.0 L1421.0,317.0 Z" fill="none" stroke="yellow" />
<path d="M1321,240 L1258.0,231.0 L1253.0,229.0 L1246.0,229.0 L1203.0,220.0 L1153.0,212.0 L1150,210 L1151.0,212.0 L1149.0,223.0 L1142,243 L1183.0,253.0 L1186.0,255.0 L1216.0,262.0 L1219.0,264.0 L1223.0,264.0 L1256.0,274.0 L1302,285 L1305.0,283.0 L1305.0,280.0 L1315.0,259.0 Z" fill="none" stroke="yellow" />
<path d="M1142,243 L1135.0,271.0 L1127,295 L1191.0,316.0 L1223.0,324.0 L1243.0,331.0 L1274.0,338.0 L1281,341 L1284.0,339.0 L1284.0,335.0 L1291.0,320.0 L1300.0,287.0 L1302,285 L1256.0,274.0 L1223.0,264.0 L1219.0,264.0 L1216.0,262.0 L1186.0,255.0 L1183.0,253.0 Z" fill="none" stroke="yellow" />
<path d="M996,215 L1007.0,215.0 L1052.0,224.0 L1058.0,224.0 L1133.0,241.0 L1139.0,241.0 L1142,243 L1135.0,271.0 L1127,295 L1104.0,290.0 L1101.0,288.0 L1078.0,283.0 L1075.0,281.0 L1052.0,276.0 L1049.0,274.0 L993,261 L992.0,260.0 L995.0,241.0 Z" fill="none" stroke="yellow" />
<path d="M1130,348 L1131.0,325.0 L1127,295 L1104.0,290.0 L1101.0,288.0 L1078.0,283.0 L1075.0,281.0 L1052.0,276.0 L1049.0,274.0 L993,261 L993.0,302.0 L991.0,312.0 L992,313 L996.0,316.0 L1006.0,317.0 L1040.0,328.0 L1097.0,342.0 L1115.0,345.0 L1119.0,347.0 Z" fill="none" stroke="yellow" />
<path d="M857,228 L873.0,231.0 L888.0,236.0 L893.0,236.0 L896.0,238.0 L912.0,241.0 L915.0,243.0 L920.0,243.0 L923.0,245.0 L951.0,252.0 L970.0,255.0 L993,261 L993.0,302.0 L991.0,312.0 L992,313 L960.0,305.0 L937.0,297.0 L933.0,297.0 L924.0,293.0 L887.0,283.0 L861.0,274.0 L853,273 L855.0,263.0 L855.0,238.0 Z" fill="none" stroke="yellow" />
<path d="M869,186 L871.0,185.0 L895.0,189.0 L899.0,191.0 L935.0,198.0 L968.0,207.0 L985.0,210.0 L996,215 L995.0,241.0 L992.0,260.0 L993,261 L970.0,255.0 L951.0,252.0 L923.0,245.0 L920.0,243.0 L915.0,243.0 L912.0,241.0 L896.0,238.0 L893.0,236.0 L888.0,236.0 L873.0,231.0 L857,228 Z" fill="none" stroke="yellow" />
<path d="M991,349 L996.0,352.0 L1020.0,360.0 L1086.0,379.0 L1101.0,385.0 L1126.0,392.0 L1132,392 L1133.0,385.0 L1130.0,363.0 L1130,348 L1119.0,347.0 L1115.0,345.0 L1097.0,342.0 L1040.0,328.0 L1006.0,317.0 L996.0,316.0 L992,313 L993.0,333.0 L991.0,339.0 Z" fill="none" stroke="yellow" />
<path d="M1130,348 L1130.0,363.0 L1133.0,385.0 L1132,392 L1135.0,395.0 L1185.0,407.0 L1188.0,409.0 L1228.0,419.0 L1231.0,421.0 L1255,425 L1256.0,414.0 L1254.0,408.0 L1253,387 L1183.0,364.0 L1157.0,354.0 L1140.0,349.0 L1134.0,349.0 L1131.0,347.0 Z" fill="none" stroke="yellow" />
<path d="M853,273 L861.0,274.0 L887.0,283.0 L924.0,293.0 L933.0,297.0 L937.0,297.0 L960.0,305.0 L992,313 L993.0,333.0 L991.0,339.0 L991,349 L974.0,345.0 L904.0,322.0 L897.0,321.0 L882.0,315.0 L854.0,307.0 L849,304 L851.0,294.0 L851.0,276.0 Z" fill="none" stroke="yellow" />
<path d="M2374,437 L2382.0,431.0 L2388,429 L2388.0,425.0 L2384.0,414.0 L2384,405 L2314,384 L2313.0,400.0 L2315.0,417.0 L2317,422 L2327.0,423.0 L2369.0,437.0 Z" fill="none" stroke="yellow" />
<path d="M2324,480 L2322.0,483.0 L2313.0,486.0 L2276,492 L2267.0,462.0 L2268,455 L2281.0,458.0 L2304.0,467.0 L2320.0,476.0 Z" fill="none" stroke="yellow" />
<path d="M2358,470 L2354.0,473.0 L2339.0,478.0 L2335.0,478.0 L2333.0,480.0 L2324,480 L2320.0,476.0 L2304.0,467.0 L2281.0,458.0 L2268,455 L2270.0,454.0 L2272.0,447.0 L2275,424 L2313.0,423.0 L2316.0,421.0 L2317,422 L2325.0,435.0 Z" fill="none" stroke="yellow" />
<path d="M2276,492 L2260.0,496.0 L2257.0,495.0 L2251.0,497.0 L2238,498 L2236.0,496.0 L2234.0,487.0 L2222.0,465.0 L2217.0,453.0 L2217,448 L2236.0,449.0 L2241.0,451.0 L2268,455 L2267.0,462.0 Z" fill="none" stroke="yellow" />
<path d="M1677,97 L1681,61 L1727.0,60.0 L1852,62 L1851.0,74.0 L1845,100 L1788.0,100.0 Z" fill="none" stroke="yellow" />
<path d="M1643,318 L1644.0,323.0 L1642.0,333.0 L1633,367 L1714.0,399.0 L1753,417 L1764.0,416.0 L1785.0,409.0 L1793,408 L1792,361 L1726.0,345.0 L1690.0,333.0 L1663.0,326.0 L1651.0,321.0 L1647.0,321.0 Z" fill="none" stroke="yellow" />
<path d="M1919,393 L1922.0,416.0 L1922,443 L1875,453 L1869.0,451.0 L1833.0,430.0 L1829.0,429.0 L1797.0,409.0 L1793,408 L1792,361 L1794.0,363.0 L1812.0,366.0 L1860.0,380.0 Z" fill="none" stroke="yellow" />
<path d="M1671,194 L1668.0,208.0 L1668.0,216.0 L1666.0,220.0 L1666.0,227.0 L1661.0,247.0 L1660.0,260.0 L1658.0,262.0 L1659,263 L1657.0,261.0 L1642.0,259.0 L1638.0,257.0 L1577.0,245.0 L1573.0,243.0 L1541.0,238.0 L1537.0,236.0 L1530.0,236.0 L1526.0,234.0 L1506.0,231.0 L1504,232 L1507.0,229.0 L1508.0,211.0 L1505.0,179.0 L1503.0,172.0 L1503.0,162.0 L1500,158 L1571.0,161.0 L1617.0,161.0 L1631,163 L1634.0,170.0 L1642.0,177.0 Z" fill="none" stroke="yellow" />
<path d="M1428,419 L1445.0,451.0 L1450,468 L1417.0,464.0 L1381.0,455.0 L1371.0,454.0 L1368.0,452.0 L1364.0,452.0 L1362,450 L1361,427 L1390.0,421.0 Z" fill="none" stroke="yellow" />
<path d="M1130,348 L1131.0,325.0 L1127,295 L1191.0,316.0 L1223.0,324.0 L1243.0,331.0 L1274.0,338.0 L1281,341 L1279.0,342.0 L1278,379 L1253,387 L1183.0,364.0 L1157.0,354.0 L1140.0,349.0 L1134.0,349.0 L1131.0,347.0 Z" fill="none" stroke="yellow" />
<path d="M1253,387 L1254.0,408.0 L1256.0,414.0 L1255,425 L1274.0,431.0 L1308.0,438.0 L1311.0,440.0 L1317.0,440.0 L1355.0,450.0 L1362,450 L1361,427 L1287.0,383.0 L1278,379 Z" fill="none" stroke="yellow" />
<path d="M1111,163 L1108.0,162.0 L1100.0,164.0 L1068.0,165.0 L1059,167 L980.0,160.0 L971.0,158.0 L959.0,158.0 L953.0,156.0 L931.0,155.0 L925.0,153.0 L894.0,151.0 L861.0,146.0 L852.0,146.0 L847.0,144.0 L837.0,144.0 L831.0,142.0 L813.0,141.0 L807.0,139.0 L700.0,129.0 L692.0,127.0 L683.0,127.0 L678.0,125.0 L660.0,125.0 L643.0,123.0 L639,125 L635.0,123.0 L630.0,115.0 L624,99 L638.0,97.0 L682.0,95.0 L791.0,93.0 L910.0,95.0 L974.0,98.0 L982.0,100.0 L999.0,100.0 L1009.0,102.0 L1025.0,102.0 L1056.0,105.0 L1059.0,105.0 L1061,103 L1072.0,108.0 L1079,108 L1081.0,116.0 L1104.0,149.0 L1108.0,161.0 Z" fill="none" stroke="yellow" />
<path d="M1042,83 L1030.0,85.0 L979.0,85.0 L953.0,83.0 L792.0,83.0 L714.0,85.0 L691.0,84.0 L644.0,86.0 L616,85 L619.0,64.0 L621.0,60.0 L621,50 L693.0,50.0 L787.0,54.0 L832.0,54.0 L855.0,56.0 L1009.0,60.0 L1023.0,61.0 L1044.0,66.0 L1047,71 Z" fill="none" stroke="yellow" />
<path d="M80,89 L85.0,94.0 L104.0,91.0 L233.0,95.0 L414,92 L415,57 L322.0,60.0 L239.0,65.0 L135.0,64.0 L128.0,63.0 L126.0,61.0 L110.0,60.0 L91.0,71.0 L84.0,78.0 Z" fill="none" stroke="yellow" />
<path d="M530,90 L533.0,86.0 L543,86 L616,85 L619.0,64.0 L621.0,60.0 L621,50 L581.0,52.0 L510.0,52.0 L496.0,54.0 L427.0,55.0 L415,57 L414,92 Z" fill="none" stroke="yellow" />
<path d="M530,90 L533.0,86.0 L543,86 L543,94 L533.0,94.0 Z" fill="none" stroke="yellow" />
<path d="M543,86 L543,94 L579.0,94.0 L616,97 L616,85 Z" fill="none" stroke="yellow" />
<path d="M639,125 L635.0,127.0 L634.0,130.0 L619.0,146.0 L618,149 L608.0,149.0 L599.0,147.0 L565.0,147.0 L551,149 L534.0,147.0 L459.0,147.0 L458,150 L457.0,146.0 L451.0,146.0 L448,149 L247.0,139.0 L222.0,139.0 L190.0,136.0 L162.0,136.0 L151.0,134.0 L78.0,133.0 L71.0,131.0 L59,120 L65.0,105.0 L80,89 L85.0,94.0 L104.0,91.0 L233.0,95.0 L414,92 L530,90 L533.0,94.0 L543,94 L579.0,94.0 L616,97 L624,99 L630.0,115.0 L635.0,123.0 Z" fill="none" stroke="yellow" />
<path d="M1042,83 L1045.0,88.0 L1059.0,98.0 L1061,103 L1072.0,108.0 L1079,108 L1094.0,105.0 L1129.0,104.0 L1177.0,100.0 L1304.0,96.0 L1306,97 L1303.0,93.0 L1305.0,77.0 L1305,60 L1294.0,59.0 L1244.0,61.0 L1232.0,63.0 L1111.0,67.0 L1097.0,69.0 L1065.0,69.0 L1047,71 Z" fill="none" stroke="yellow" />
<path d="M543,168 L544.0,166.0 L552,163 L570.0,165.0 L596.0,174.0 L646.0,200.0 L655.0,203.0 L724,237 L724.0,247.0 L722,256 L716.0,256.0 L705.0,250.0 L688.0,244.0 L669.0,234.0 L645.0,225.0 L549.0,175.0 L544.0,171.0 Z" fill="none" stroke="yellow" />
<path d="M849,304 L825.0,298.0 L790.0,284.0 L759.0,274.0 L725.0,260.0 L722,256 L724.0,247.0 L724,237 L731.0,235.0 L735,232 L783.0,248.0 L798.0,255.0 L815.0,260.0 L817.0,262.0 L853,273 L851.0,276.0 L851.0,294.0 Z" fill="none" stroke="yellow" />
<path d="M551,149 L552,163 L570.0,165.0 L596.0,174.0 L646.0,200.0 L655.0,203.0 L724,237 L731.0,235.0 L735,232 L735.0,228.0 L732.0,221.0 L727.0,213.0 L726.0,208.0 L723,205 L721.0,203.0 L716.0,204.0 L706.0,201.0 L684.0,191.0 L646.0,169.0 L620.0,152.0 L618,149 L608.0,149.0 L599.0,147.0 L565.0,147.0 Z" fill="none" stroke="yellow" />
<path d="M1428,419 L1428.0,414.0 L1435,387 L1382.0,373.0 L1314.0,350.0 L1281,341 L1279.0,342.0 L1278,379 L1287.0,383.0 L1361,427 L1390.0,421.0 Z" fill="none" stroke="yellow" />
<path d="M869,186 L871.0,185.0 L895.0,189.0 L899.0,191.0 L935.0,198.0 L968.0,207.0 L985.0,210.0 L996,215 L1007.0,215.0 L1052.0,224.0 L1058.0,224.0 L1133.0,241.0 L1139.0,241.0 L1142,243 L1149.0,223.0 L1151.0,212.0 L1150,210 L1116.0,202.0 L1083.0,190.0 L1067.0,180.0 L1060.0,172.0 L1059,167 L980.0,160.0 L971.0,158.0 L959.0,158.0 L953.0,156.0 L931.0,155.0 L925.0,153.0 L894.0,151.0 L861.0,146.0 L852.0,146.0 L847.0,144.0 L837.0,144.0 L831.0,142.0 L813.0,141.0 L807.0,139.0 L700.0,129.0 L692.0,127.0 L683.0,127.0 L678.0,125.0 L660.0,125.0 L643.0,123.0 L639,125 L642.0,125.0 L646.0,130.0 L654.0,134.0 L694,151 L722.0,153.0 L776.0,163.0 L813.0,172.0 L832.0,175.0 L836.0,177.0 L841.0,177.0 Z" fill="none" stroke="yellow" />
<path d="M1428,419 L1428.0,414.0 L1435,387 L1437.0,389.0 L1446.0,390.0 L1449.0,392.0 L1477.0,399.0 L1511,410 L1512.0,427.0 L1525.0,468.0 L1527,481 L1514.0,481.0 L1509.0,479.0 L1496.0,478.0 L1492.0,476.0 L1469.0,473.0 L1450,468 L1445.0,451.0 Z" fill="none" stroke="yellow" />
<path d="M1583,424 L1583.0,444.0 L1590.0,470.0 L1592,492 L1617.0,497.0 L1625.0,497.0 L1630.0,499.0 L1661,501 L1661.0,495.0 L1647.0,452.0 L1645,438 L1620.0,430.0 L1596.0,425.0 L1593,423 Z" fill="none" stroke="yellow" />
<path d="M1511,410 L1512.0,427.0 L1525.0,468.0 L1527,481 L1533.0,484.0 L1555.0,488.0 L1592,492 L1590.0,470.0 L1583.0,444.0 L1583,424 L1553.0,416.0 Z" fill="none" stroke="yellow" />
<path d="M1725,457 L1725.0,469.0 L1732.0,504.0 L1731,508 L1678.0,504.0 L1661,501 L1661.0,495.0 L1647.0,452.0 L1645,438 L1675.0,442.0 L1711.0,451.0 L1714.0,453.0 L1721.0,454.0 Z" fill="none" stroke="yellow" />
<path d="M1725,457 L1725.0,469.0 L1732.0,504.0 L1731,508 L1741.0,510.0 L1807.0,514.0 L1817.0,516.0 L1837,515 L1836.0,510.0 L1833.0,507.0 L1808.0,488.0 L1783.0,475.0 L1742,458 Z" fill="none" stroke="yellow" />
<path d="M1435,387 L1447.0,353.0 L1453,327 L1464,327 L1558.0,354.0 L1609,371 L1602.0,400.0 L1593,423 L1583,424 L1553.0,416.0 L1511,410 L1477.0,399.0 L1449.0,392.0 L1446.0,390.0 L1437.0,389.0 Z" fill="none" stroke="yellow" />
<path d="M1742,458 L1750.0,438.0 L1753.0,425.0 L1753,417 L1764.0,416.0 L1785.0,409.0 L1793,408 L1797.0,409.0 L1829.0,429.0 L1833.0,430.0 L1869.0,451.0 L1875,453 L1877.0,470.0 L1885.0,495.0 L1893.0,513.0 L1893,518 L1837,515 L1836.0,510.0 L1833.0,507.0 L1808.0,488.0 L1783.0,475.0 Z" fill="none" stroke="yellow" />
<path d="M1875,453 L1877.0,470.0 L1885.0,495.0 L1893.0,513.0 L1893,518 L1942.0,516.0 L1963.0,518.0 L1984,516 L1974.0,485.0 L1974,478 L1969.0,477.0 L1960.0,471.0 L1932.0,449.0 L1922,443 Z" fill="none" stroke="yellow" />
<path d="M2030,458 L2040.0,467.0 L2058.0,488.0 L2072.0,506.0 L2074,513 L2047.0,514.0 L2040.0,512.0 L1984,516 L1974.0,485.0 L1974,478 L1981.0,477.0 L1998.0,468.0 L2010.0,465.0 L2017.0,461.0 Z" fill="none" stroke="yellow" />
<path d="M1919,393 L1921.0,395.0 L1934.0,397.0 L1937.0,399.0 L1972.0,407.0 L1983.0,411.0 L2030,421 L2030,458 L2017.0,461.0 L2010.0,465.0 L1998.0,468.0 L1981.0,477.0 L1974,478 L1969.0,477.0 L1960.0,471.0 L1932.0,449.0 L1922,443 L1922.0,416.0 Z" fill="none" stroke="yellow" />
<path d="M2030,421 L2030,458 L2040.0,467.0 L2058.0,488.0 L2072.0,506.0 L2074,513 L2134,509 L2132.0,501.0 L2094.0,447.0 L2089.0,439.0 L2088,433 L2070.0,428.0 L2050.0,425.0 L2039,421 Z" fill="none" stroke="yellow" />
<path d="M1985,167 L2063.0,167.0 L2115,171 L2119.0,163.0 L2131.0,151.0 L2144.0,141.0 L2156.0,129.0 L2158,124 L2157.0,122.0 L2153.0,121.0 L2138.0,120.0 L2106,113 L2088.0,113.0 L2079.0,111.0 L2060.0,111.0 L2053.0,109.0 L1987.0,106.0 L1984.0,104.0 L1980,105 L1977.0,106.0 L1977.0,137.0 L1975,164 Z" fill="none" stroke="yellow" />
<path d="M1985,167 L1998,232 L1985.0,247.0 L1971.0,267.0 L1971.0,270.0 L1968,272 L1938.0,262.0 L1876.0,245.0 L1843.0,238.0 L1837.0,238.0 L1835.0,236.0 L1833,237 L1836.0,235.0 L1846.0,196.0 L1848.0,180.0 L1848.0,159.0 L1845,158 L1957.0,165.0 L1975,164 Z" fill="none" stroke="yellow" />
<path d="M2158,439 L2160.0,448.0 L2177.0,480.0 L2189.0,498.0 L2190,504 L2184.0,506.0 L2134,509 L2132.0,501.0 L2094.0,447.0 L2089.0,439.0 L2088,433 L2104.0,433.0 L2110.0,435.0 L2124.0,435.0 Z" fill="none" stroke="yellow" />
<path d="M2166,438 L2168,396 L2197,390 L2222.0,398.0 L2275,424 L2272.0,447.0 L2270.0,454.0 L2268,455 L2241.0,451.0 L2236.0,449.0 L2217,448 L2193.0,442.0 Z" fill="none" stroke="yellow" />
<path d="M2158,439 L2166,438 L2193.0,442.0 L2217,448 L2217.0,453.0 L2222.0,465.0 L2234.0,487.0 L2236.0,496.0 L2238,498 L2203.0,504.0 L2190,504 L2189.0,498.0 L2177.0,480.0 L2160.0,448.0 Z" fill="none" stroke="yellow" />
<path d="M2158,439 L2166,438 L2168,396 L2073,363 L2053,365 L2053.0,372.0 L2047.0,397.0 L2039,421 L2050.0,425.0 L2070.0,428.0 L2088,433 L2104.0,433.0 L2110.0,435.0 L2124.0,435.0 Z" fill="none" stroke="yellow" />
<path d="M2171,123 L2176.0,117.0 L2212.0,105.0 L2219,98 L2229.0,97.0 L2245.0,99.0 L2273.0,108.0 L2284.0,114.0 L2288.0,114.0 L2320.0,128.0 L2325.0,134.0 L2325,136 L2322.0,140.0 L2319.0,141.0 L2298.0,146.0 L2290.0,146.0 L2275.0,150.0 L2262.0,151.0 L2259,154 L2240.0,151.0 L2228.0,146.0 L2203.0,139.0 L2173.0,127.0 Z" fill="none" stroke="yellow" />
<path d="M1725,457 L1742,458 L1750.0,438.0 L1753.0,425.0 L1753,417 L1714.0,399.0 L1633,367 L1621.0,369.0 L1618.0,371.0 L1609,371 L1602.0,400.0 L1593,423 L1596.0,425.0 L1620.0,430.0 L1645,438 L1675.0,442.0 L1711.0,451.0 L1714.0,453.0 L1721.0,454.0 Z" fill="none" stroke="yellow" />
<path d="M2171,123 L2176.0,117.0 L2212.0,105.0 L2219,98 L2219.0,96.0 L2216.0,93.0 L2209.0,92.0 L2206.0,90.0 L2199.0,90.0 L2195.0,88.0 L2182.0,87.0 L2180.0,85.0 L2145.0,82.0 L2140.0,80.0 L2117,80 L2116.0,87.0 L2109.0,101.0 L2106,113 L2138.0,120.0 L2153.0,121.0 L2157.0,122.0 L2158,124 Z" fill="none" stroke="yellow" />
<path d="M2354,202 L2344.0,200.0 L2309.0,184.0 L2279.0,172.0 L2272,171 L2261.0,159.0 L2259,154 L2262.0,151.0 L2275.0,150.0 L2290.0,146.0 L2298.0,146.0 L2319.0,141.0 L2322.0,140.0 L2325,136 L2339.0,139.0 L2378.0,160.0 L2404.0,178.0 L2408.0,182.0 L2409,186 L2397.0,191.0 L2389.0,191.0 L2366.0,196.0 Z" fill="none" stroke="yellow" />
<path d="M2354,202 L2355.0,205.0 L2373.0,219.0 L2376.0,222.0 L2376,224 L2371.0,234.0 L2351.0,259.0 L2349,264 L2338.0,262.0 L2298.0,243.0 L2295.0,243.0 L2250.0,224.0 L2246.0,224.0 L2245,222 L2246.0,217.0 L2265.0,188.0 L2272,171 L2279.0,172.0 L2309.0,184.0 L2344.0,200.0 Z" fill="none" stroke="yellow" />
<path d="M2453,230 L2451.0,232.0 L2416.0,232.0 L2410.0,233.0 L2408,236 L2404.0,236.0 L2381.0,224.0 L2376,224 L2376.0,222.0 L2373.0,219.0 L2355.0,205.0 L2354,202 L2366.0,196.0 L2389.0,191.0 L2397.0,191.0 L2409,186 L2415.0,187.0 L2430.0,200.0 L2452.0,224.0 Z" fill="none" stroke="yellow" />
<path d="M2374,437 L2382.0,431.0 L2388,429 L2391.0,429.0 L2400.0,434.0 L2407.0,439.0 L2414,447 L2414.0,449.0 L2407.0,454.0 L2389,460 L2385.0,452.0 L2375.0,441.0 Z" fill="none" stroke="yellow" />
<path d="M2453,230 L2456.0,230.0 L2467.0,243.0 L2467.0,245.0 L2481.0,264.0 L2482,271 L2453,272 L2443.0,267.0 L2411.0,242.0 L2408.0,239.0 L2408,236 L2410.0,233.0 L2416.0,232.0 L2451.0,232.0 Z" fill="none" stroke="yellow" />
<path d="M2419,414 L2419.0,420.0 L2428.0,433.0 L2430,439 L2434.0,439.0 L2443.0,435.0 L2450.0,430.0 L2451,427 L2447.0,423.0 L2437.0,418.0 L2425.0,414.0 Z" fill="none" stroke="yellow" />
<path d="M2421,373 L2421.0,376.0 L2438.0,394.0 L2468,415 L2462.0,422.0 L2456.0,426.0 L2451,427 L2447.0,423.0 L2437.0,418.0 L2425.0,414.0 L2419,414 L2416.0,411.0 L2402,405 L2403.0,399.0 L2421.0,375.0 Z" fill="none" stroke="yellow" />
<path d="M2453,272 L2453.0,275.0 L2456.0,280.0 L2478.0,305.0 L2479,308 L2485.0,309.0 L2497.0,315.0 L2501,315 L2498.0,298.0 L2487.0,275.0 L2482,271 Z" fill="none" stroke="yellow" />
<path d="M2384,405 L2384.0,414.0 L2388.0,425.0 L2388,429 L2391.0,429.0 L2400.0,434.0 L2407.0,439.0 L2414,447 L2428.0,443.0 L2430,439 L2428.0,433.0 L2419.0,420.0 L2419,414 L2416.0,411.0 L2402,405 Z" fill="none" stroke="yellow" />
<path d="M2475,326 L2475.0,319.0 L2479,308 L2485.0,309.0 L2497.0,315.0 L2501,315 L2504.0,320.0 L2505,341 L2496.0,340.0 L2486.0,335.0 Z" fill="none" stroke="yellow" />
<path d="M2171,123 L2173.0,127.0 L2203.0,139.0 L2228.0,146.0 L2240.0,151.0 L2259,154 L2261.0,159.0 L2272,171 L2265.0,188.0 L2246.0,217.0 L2245,222 L2244.0,220.0 L2237.0,219.0 L2159.0,188.0 L2141.0,182.0 L2128,180 L2127.0,178.0 L2116.0,173.0 L2115,171 L2119.0,163.0 L2131.0,151.0 L2144.0,141.0 L2156.0,129.0 L2158,124 Z" fill="none" stroke="yellow" />
<path d="M2476,373 L2476.0,360.0 L2478,357 L2482.0,357.0 L2492.0,364.0 L2502,367 L2500.0,377.0 L2495,384 L2485.0,377.0 Z" fill="none" stroke="yellow" />
<path d="M2464,382 L2467.0,377.0 L2473.0,373.0 L2476,373 L2485.0,377.0 L2495,384 L2493.0,391.0 L2486.0,399.0 L2484,399 L2469.0,388.0 Z" fill="none" stroke="yellow" />
<path d="M2453,272 L2453.0,275.0 L2456.0,280.0 L2478.0,305.0 L2479,308 L2475.0,319.0 L2475,326 L2465.0,328.0 L2461.0,330.0 L2459,333 L2449.0,329.0 L2444,329 L2444.0,327.0 L2436.0,319.0 L2419.0,307.0 L2378.0,283.0 L2364.0,276.0 L2358,275 L2349.0,266.0 L2349,264 L2351.0,259.0 L2371.0,234.0 L2376,224 L2381.0,224.0 L2404.0,236.0 L2408,236 L2408.0,239.0 L2411.0,242.0 L2443.0,267.0 Z" fill="none" stroke="yellow" />
<path d="M2459,333 L2461.0,330.0 L2465.0,328.0 L2475,326 L2486.0,335.0 L2496.0,340.0 L2505,341 L2505.0,352.0 L2502,367 L2492.0,364.0 L2482.0,357.0 L2478,357 L2476.0,353.0 L2459.0,336.0 Z" fill="none" stroke="yellow" />
<path d="M2421,373 L2428.0,372.0 L2464,382 L2467.0,377.0 L2473.0,373.0 L2476,373 L2476.0,360.0 L2478,357 L2476.0,353.0 L2459.0,336.0 L2459,333 L2449.0,329.0 L2444,329 L2437.0,343.0 L2425.0,361.0 L2421.0,369.0 Z" fill="none" stroke="yellow" />
</svg>