<?xml version="1.0" encoding="UTF-8"?>
<svg xmlns="http://www.w3.org/2000/svg" xmlns:xlink="http://www.w3.org/1999/xlink"
     width="3000" height="1000" viewBox="0 0 3000 1000">
<defs>
</defs>
<path d="M1980.0,105.0 L1991.0,69.0 L2117.0,80.0 L2106.0,113.0 Z" fill="none" stroke="yellow" />
<path d="M1980.0,105.0 L1845.0,100.0 L1845.0,158.0 L1975.0,164.0 Z" fill="none" stroke="yellow" />
<path d="M1980.0,105.0 L1991.0,69.0 L1852.0,62.0 L1845.0,100.0 Z" fill="none" stroke="yellow" />
<path d="M1111.0,163.0 L1059.0,167.0 L1150.0,210.0 L1150.0,198.0 Z" fill="none" stroke="yellow" />
<path d="M1111.0,163.0 L1319.0,157.0 L1306.0,97.0 L1079.0,108.0 Z" fill="none" stroke="yellow" />
<path d="M1111.0,163.0 L1319.0,157.0 L1327.0,208.0 L1150.0,198.0 Z" fill="none" stroke="yellow" />
<path d="M2421.0,373.0 L2464.0,382.0 L2484.0,399.0 L2468.0,415.0 Z" fill="none" stroke="yellow" />
<path d="M2358.0,275.0 L2335.0,332.0 L2421.0,373.0 L2444.0,329.0 Z" fill="none" stroke="yellow" />
<path d="M2205.0,349.0 L2314.0,384.0 L2335.0,332.0 L2227.0,291.0 Z" fill="none" stroke="yellow" />
<path d="M2421.0,373.0 L2402.0,405.0 L2384.0,405.0 L2314.0,384.0 L2335.0,332.0 Z" fill="none" stroke="yellow" />
<path d="M2092.0,314.0 L2205.0,349.0 L2227.0,291.0 L2114.0,256.0 Z" fill="none" stroke="yellow" />
<path d="M2092.0,314.0 L1968.0,272.0 L1944.0,331.0 L2053.0,365.0 L2073.0,363.0 Z" fill="none" stroke="yellow" />
<path d="M1968.0,272.0 L1833.0,237.0 L1816.0,299.0 L1944.0,331.0 Z" fill="none" stroke="yellow" />
<path d="M1919.0,393.0 L1944.0,331.0 L1816.0,299.0 L1792.0,361.0 Z" fill="none" stroke="yellow" />
<path d="M1677.0,97.0 L1674.0,156.0 L1845.0,158.0 L1845.0,100.0 Z" fill="none" stroke="yellow" />
<path d="M1327.0,208.0 L1504.0,232.0 L1500.0,158.0 L1319.0,157.0 Z" fill="none" stroke="yellow" />
<path d="M1659.0,263.0 L1643.0,318.0 L1792.0,361.0 L1816.0,299.0 Z" fill="none" stroke="yellow" />
<path d="M1659.0,263.0 L1643.0,318.0 L1485.0,277.0 L1504.0,232.0 Z" fill="none" stroke="yellow" />
<path d="M1327.0,208.0 L1321.0,240.0 L1150.0,210.0 L1150.0,198.0 Z" fill="none" stroke="yellow" />
<path d="M1327.0,208.0 L1321.0,240.0 L1485.0,277.0 L1504.0,232.0 Z" fill="none" stroke="yellow" />
<path d="M1319.0,157.0 L1500.0,158.0 L1507.0,95.0 L1306.0,97.0 Z" fill="none" stroke="yellow" />
<path d="M1677.0,97.0 L1681.0,61.0 L1514.0,59.0 L1507.0,95.0 Z" fill="none" stroke="yellow" />
<path d="M1507.0,95.0 L1514.0,59.0 L1305.0,60.0 L1306.0,97.0 Z" fill="none" stroke="yellow" />
<path d="M618.0,149.0 L639.0,125.0 L694.0,151.0 L723.0,205.0 Z" fill="none" stroke="yellow" />
<path d="M869.0,186.0 L857.0,228.0 L723.0,205.0 L694.0,151.0 Z" fill="none" stroke="yellow" />
<path d="M723.0,205.0 L857.0,228.0 L853.0,273.0 L735.0,232.0 Z" fill="none" stroke="yellow" />
<path d="M1042.0,83.0 L616.0,85.0 L616.0,97.0 L624.0,99.0 L1061.0,103.0 Z" fill="none" stroke="yellow" />
<path d="M543.0,168.0 L552.0,163.0 L551.0,149.0 L458.0,150.0 Z" fill="none" stroke="yellow" />
<path d="M2205.0,349.0 L2197.0,390.0 L2275.0,424.0 L2317.0,422.0 L2314.0,384.0 Z" fill="none" stroke="yellow" />
<path d="M2358.0,470.0 L2389.0,460.0 L2374.0,437.0 L2317.0,422.0 Z" fill="none" stroke="yellow" />
<path d="M2358.0,275.0 L2335.0,332.0 L2227.0,291.0 L2245.0,222.0 L2349.0,264.0 Z" fill="none" stroke="yellow" />
<path d="M2128.0,180.0 L2245.0,222.0 L2227.0,291.0 L2114.0,256.0 Z" fill="none" stroke="yellow" />
<path d="M2092.0,314.0 L1968.0,272.0 L1998.0,232.0 L2114.0,256.0 Z" fill="none" stroke="yellow" />
<path d="M1985.0,167.0 L1998.0,232.0 L2114.0,256.0 L2128.0,180.0 L2115.0,171.0 Z" fill="none" stroke="yellow" />
<path d="M2092.0,314.0 L2205.0,349.0 L2197.0,390.0 L2168.0,396.0 L2073.0,363.0 Z" fill="none" stroke="yellow" />
<path d="M1919.0,393.0 L2030.0,421.0 L2039.0,421.0 L2053.0,365.0 L1944.0,331.0 Z" fill="none" stroke="yellow" />
<path d="M1671.0,194.0 L1833.0,237.0 L1845.0,158.0 L1674.0,156.0 L1631.0,163.0 Z" fill="none" stroke="yellow" />
<path d="M1659.0,263.0 L1671.0,194.0 L1833.0,237.0 L1816.0,299.0 Z" fill="none" stroke="yellow" />
<path d="M1464.0,327.0 L1485.0,277.0 L1643.0,318.0 L1633.0,367.0 L1609.0,371.0 Z" fill="none" stroke="yellow" />
<path d="M1677.0,97.0 L1674.0,156.0 L1631.0,163.0 L1500.0,158.0 L1507.0,95.0 Z" fill="none" stroke="yellow" />
<path d="M1435.0,387.0 L1453.0,327.0 L1302.0,285.0 L1281.0,341.0 Z" fill="none" stroke="yellow" />
<path d="M1453.0,327.0 L1464.0,327.0 L1485.0,277.0 L1321.0,240.0 L1302.0,285.0 Z" fill="none" stroke="yellow" />
<path d="M1321.0,240.0 L1150.0,210.0 L1142.0,243.0 L1302.0,285.0 Z" fill="none" stroke="yellow" />
<path d="M1142.0,243.0 L1127.0,295.0 L1281.0,341.0 L1302.0,285.0 Z" fill="none" stroke="yellow" />
<path d="M996.0,215.0 L1142.0,243.0 L1127.0,295.0 L993.0,261.0 Z" fill="none" stroke="yellow" />
<path d="M1130.0,348.0 L1127.0,295.0 L993.0,261.0 L992.0,313.0 Z" fill="none" stroke="yellow" />
<path d="M857.0,228.0 L993.0,261.0 L992.0,313.0 L853.0,273.0 Z" fill="none" stroke="yellow" />
<path d="M869.0,186.0 L996.0,215.0 L993.0,261.0 L857.0,228.0 Z" fill="none" stroke="yellow" />
<path d="M991.0,349.0 L1132.0,392.0 L1130.0,348.0 L992.0,313.0 Z" fill="none" stroke="yellow" />
<path d="M1130.0,348.0 L1132.0,392.0 L1255.0,425.0 L1253.0,387.0 Z" fill="none" stroke="yellow" />
<path d="M853.0,273.0 L992.0,313.0 L991.0,349.0 L849.0,304.0 Z" fill="none" stroke="yellow" />
<path d="M2374.0,437.0 L2388.0,429.0 L2384.0,405.0 L2314.0,384.0 L2317.0,422.0 Z" fill="none" stroke="yellow" />
<path d="M2324.0,480.0 L2276.0,492.0 L2268.0,455.0 Z" fill="none" stroke="yellow" />
<path d="M2358.0,470.0 L2324.0,480.0 L2268.0,455.0 L2275.0,424.0 L2317.0,422.0 Z" fill="none" stroke="yellow" />
<path d="M2276.0,492.0 L2238.0,498.0 L2217.0,448.0 L2268.0,455.0 Z" fill="none" stroke="yellow" />
<path d="M1677.0,97.0 L1681.0,61.0 L1852.0,62.0 L1845.0,100.0 Z" fill="none" stroke="yellow" />
<path d="M1643.0,318.0 L1633.0,367.0 L1753.0,417.0 L1793.0,408.0 L1792.0,361.0 Z" fill="none" stroke="yellow" />
<path d="M1919.0,393.0 L1922.0,443.0 L1875.0,453.0 L1793.0,408.0 L1792.0,361.0 Z" fill="none" stroke="yellow" />
<path d="M1671.0,194.0 L1659.0,263.0 L1504.0,232.0 L1500.0,158.0 L1631.0,163.0 Z" fill="none" stroke="yellow" />
<path d="M1428.0,419.0 L1450.0,468.0 L1362.0,450.0 L1361.0,427.0 Z" fill="none" stroke="yellow" />
<path d="M1130.0,348.0 L1127.0,295.0 L1281.0,341.0 L1278.0,379.0 L1253.0,387.0 Z" fill="none" stroke="yellow" />
<path d="M1253.0,387.0 L1255.0,425.0 L1362.0,450.0 L1361.0,427.0 L1278.0,379.0 Z" fill="none" stroke="yellow" />
<path d="M1111.0,163.0 L1059.0,167.0 L639.0,125.0 L624.0,99.0 L1061.0,103.0 L1079.0,108.0 Z" fill="none" stroke="yellow" />
<path d="M1042.0,83.0 L616.0,85.0 L621.0,50.0 L1047.0,71.0 Z" fill="none" stroke="yellow" />
<path d="M80.0,89.0 L414.0,92.0 L415.0,57.0 Z" fill="none" stroke="yellow" />
<path d="M530.0,90.0 L543.0,86.0 L616.0,85.0 L621.0,50.0 L415.0,57.0 L414.0,92.0 Z" fill="none" stroke="yellow" />
<path d="M530.0,90.0 L543.0,86.0 L543.0,94.0 Z" fill="none" stroke="yellow" />
<path d="M543.0,86.0 L543.0,94.0 L616.0,97.0 L616.0,85.0 Z" fill="none" stroke="yellow" />
<path d="M639.0,125.0 L618.0,149.0 L551.0,149.0 L458.0,150.0 L448.0,149.0 L59.0,120.0 L80.0,89.0 L414.0,92.0 L530.0,90.0 L543.0,94.0 L616.0,97.0 L624.0,99.0 Z" fill="none" stroke="yellow" />
<path d="M1042.0,83.0 L1061.0,103.0 L1079.0,108.0 L1306.0,97.0 L1305.0,60.0 L1047.0,71.0 Z" fill="none" stroke="yellow" />
<path d="M543.0,168.0 L552.0,163.0 L724.0,237.0 L722.0,256.0 Z" fill="none" stroke="yellow" />
<path d="M849.0,304.0 L722.0,256.0 L724.0,237.0 L735.0,232.0 L853.0,273.0 Z" fill="none" stroke="yellow" />
<path d="M551.0,149.0 L552.0,163.0 L724.0,237.0 L735.0,232.0 L723.0,205.0 L618.0,149.0 Z" fill="none" stroke="yellow" />
<path d="M1428.0,419.0 L1435.0,387.0 L1281.0,341.0 L1278.0,379.0 L1361.0,427.0 Z" fill="none" stroke="yellow" />
<path d="M869.0,186.0 L996.0,215.0 L1142.0,243.0 L1150.0,210.0 L1059.0,167.0 L639.0,125.0 L694.0,151.0 Z" fill="none" stroke="yellow" />
<path d="M1428.0,419.0 L1435.0,387.0 L1511.0,410.0 L1527.0,481.0 L1450.0,468.0 Z" fill="none" stroke="yellow" />
<path d="M1583.0,424.0 L1592.0,492.0 L1661.0,501.0 L1645.0,438.0 L1593.0,423.0 Z" fill="none" stroke="yellow" />
<path d="M1511.0,410.0 L1527.0,481.0 L1592.0,492.0 L1583.0,424.0 Z" fill="none" stroke="yellow" />
<path d="M1725.0,457.0 L1731.0,508.0 L1661.0,501.0 L1645.0,438.0 Z" fill="none" stroke="yellow" />
<path d="M1725.0,457.0 L1731.0,508.0 L1837.0,515.0 L1742.0,458.0 Z" fill="none" stroke="yellow" />
<path d="M1435.0,387.0 L1453.0,327.0 L1464.0,327.0 L1609.0,371.0 L1593.0,423.0 L1583.0,424.0 L1511.0,410.0 Z" fill="none" stroke="yellow" />
<path d="M1742.0,458.0 L1753.0,417.0 L1793.0,408.0 L1875.0,453.0 L1893.0,518.0 L1837.0,515.0 Z" fill="none" stroke="yellow" />
<path d="M1875.0,453.0 L1893.0,518.0 L1984.0,516.0 L1974.0,478.0 L1922.0,443.0 Z" fill="none" stroke="yellow" />
<path d="M2030.0,458.0 L2074.0,513.0 L1984.0,516.0 L1974.0,478.0 Z" fill="none" stroke="yellow" />
<path d="M1919.0,393.0 L2030.0,421.0 L2030.0,458.0 L1974.0,478.0 L1922.0,443.0 Z" fill="none" stroke="yellow" />
<path d="M2030.0,421.0 L2030.0,458.0 L2074.0,513.0 L2134.0,509.0 L2088.0,433.0 L2039.0,421.0 Z" fill="none" stroke="yellow" />
<path d="M1985.0,167.0 L2115.0,171.0 L2158.0,124.0 L2106.0,113.0 L1980.0,105.0 L1975.0,164.0 Z" fill="none" stroke="yellow" />
<path d="M1985.0,167.0 L1998.0,232.0 L1968.0,272.0 L1833.0,237.0 L1845.0,158.0 L1975.0,164.0 Z" fill="none" stroke="yellow" />
<path d="M2158.0,439.0 L2190.0,504.0 L2134.0,509.0 L2088.0,433.0 Z" fill="none" stroke="yellow" />
<path d="M2166.0,438.0 L2168.0,396.0 L2197.0,390.0 L2275.0,424.0 L2268.0,455.0 L2217.0,448.0 Z" fill="none" stroke="yellow" />
<path d="M2158.0,439.0 L2166.0,438.0 L2217.0,448.0 L2238.0,498.0 L2190.0,504.0 Z" fill="none" stroke="yellow" />
<path d="M2158.0,439.0 L2166.0,438.0 L2168.0,396.0 L2073.0,363.0 L2053.0,365.0 L2039.0,421.0 L2088.0,433.0 Z" fill="none" stroke="yellow" />
<path d="M2171.0,123.0 L2219.0,98.0 L2325.0,136.0 L2259.0,154.0 Z" fill="none" stroke="yellow" />
<path d="M1725.0,457.0 L1742.0,458.0 L1753.0,417.0 L1633.0,367.0 L1609.0,371.0 L1593.0,423.0 L1645.0,438.0 Z" fill="none" stroke="yellow" />
<path d="M2171.0,123.0 L2219.0,98.0 L2117.0,80.0 L2106.0,113.0 L2158.0,124.0 Z" fill="none" stroke="yellow" />
<path d="M2354.0,202.0 L2272.0,171.0 L2259.0,154.0 L2325.0,136.0 L2409.0,186.0 Z" fill="none" stroke="yellow" />
<path d="M2354.0,202.0 L2376.0,224.0 L2349.0,264.0 L2245.0,222.0 L2272.0,171.0 Z" fill="none" stroke="yellow" />
<path d="M2453.0,230.0 L2408.0,236.0 L2376.0,224.0 L2354.0,202.0 L2409.0,186.0 Z" fill="none" stroke="yellow" />
<path d="M2374.0,437.0 L2388.0,429.0 L2414.0,447.0 L2389.0,460.0 Z" fill="none" stroke="yellow" />
<path d="M2453.0,230.0 L2482.0,271.0 L2453.0,272.0 L2408.0,236.0 Z" fill="none" stroke="yellow" />
<path d="M2419.0,414.0 L2430.0,439.0 L2451.0,427.0 Z" fill="none" stroke="yellow" />
<path d="M2421.0,373.0 L2468.0,415.0 L2451.0,427.0 L2419.0,414.0 L2402.0,405.0 Z" fill="none" stroke="yellow" />
<path d="M2453.0,272.0 L2479.0,308.0 L2501.0,315.0 L2482.0,271.0 Z" fill="none" stroke="yellow" />
<path d="M2384.0,405.0 L2388.0,429.0 L2414.0,447.0 L2430.0,439.0 L2419.0,414.0 L2402.0,405.0 Z" fill="none" stroke="yellow" />
<path d="M2475.0,326.0 L2479.0,308.0 L2501.0,315.0 L2505.0,341.0 Z" fill="none" stroke="yellow" />
<path d="M2171.0,123.0 L2259.0,154.0 L2272.0,171.0 L2245.0,222.0 L2128.0,180.0 L2115.0,171.0 L2158.0,124.0 Z" fill="none" stroke="yellow" />
<path d="M2476.0,373.0 L2478.0,357.0 L2502.0,367.0 L2495.0,384.0 Z" fill="none" stroke="yellow" />
<path d="M2464.0,382.0 L2476.0,373.0 L2495.0,384.0 L2484.0,399.0 Z" fill="none" stroke="yellow" />
<path d="M2453.0,272.0 L2479.0,308.0 L2475.0,326.0 L2459.0,333.0 L2444.0,329.0 L2358.0,275.0 L2349.0,264.0 L2376.0,224.0 L2408.0,236.0 Z" fill="none" stroke="yellow" />
<path d="M2459.0,333.0 L2475.0,326.0 L2505.0,341.0 L2502.0,367.0 L2478.0,357.0 Z" fill="none" stroke="yellow" />
<path d="M2421.0,373.0 L2464.0,382.0 L2476.0,373.0 L2478.0,357.0 L2459.0,333.0 L2444.0,329.0 Z" fill="none" stroke="yellow" />
</svg>